<?xml version="1.0" encoding="UTF-8"?>
<svg width="250px" height="172px" viewBox="0 0 250 172" version="1.1" xmlns="http://www.w3.org/2000/svg" xmlns:xlink="http://www.w3.org/1999/xlink">
    <title>Img / background_big</title>
    <g id="Img-/-background_big" stroke="none" stroke-width="1" fill="none" fill-rule="evenodd">
        <rect id="Mask" x="0" y="0" width="250" height="172"></rect>
        <path d="M125.754066,172.000029 L8.88265156e-15,172 L-0.00247904681,158.748376 C11.9324326,160.834753 24.2106031,161.922568 36.7428571,161.922568 C72.1841196,161.922568 105.593323,153.222656 134.953562,137.841454 C130.447818,148.583242 127.310793,160.043428 125.754066,172.000029 Z M249.99958,152.712267 L250,172 L224.894662,171.999393 C229.950572,162.334647 239.081068,155.144478 249.99958,152.712267 Z M141.384243,-0.000817767683 C122.6828,38.9985401 82.8522512,65.9225678 36.7428571,65.9225678 C23.9011924,65.9225678 11.546544,63.834215 -0.000291300572,59.9782725 L8.88265156e-15,2.96651267e-13 L141.384243,-0.000817767683 Z M250,2.96651267e-13 L249.999333,56.0621029 C238.329241,56.7686133 227.063755,58.9740327 216.392661,62.4883769 C228.333377,43.478976 237.338844,22.4373475 242.777835,0.00152993322 L250,2.96651267e-13 Z" id="Combined-Shape" fill="#F3F3F5" fill-rule="nonzero"></path>
        <path d="M-158.15319,-538.47527 L-158.165516,-537.475346 C-159.498589,-537.491778 -160.832667,-537.5 -162.167702,-537.5 L-162.167702,-538.5 C-160.828558,-538.5 -159.490371,-538.491752 -158.15319,-538.47527 Z M-148.142958,-538.197384 L-148.186156,-537.198318 C-149.515131,-537.255781 -150.845273,-537.305051 -152.176532,-537.346114 L-152.145701,-538.345639 C-150.810319,-538.304448 -149.476054,-538.255026 -148.142958,-538.197384 Z M-138.16814,-537.61124 L-138.242277,-536.613992 C-139.565074,-536.712331 -140.889201,-536.802514 -142.214609,-536.884525 L-142.15285,-537.882616 C-140.823315,-537.800349 -139.495061,-537.709886 -138.16814,-537.61124 Z M-128.158116,-536.709349 L-128.263451,-535.714912 C-129.58763,-535.855174 -130.913329,-535.987218 -132.240494,-536.111026 L-132.147609,-537.106703 C-130.816291,-536.982507 -129.486443,-536.85005 -128.158116,-536.709349 Z M-118.21316,-535.498128 L-118.349613,-534.507481 C-119.672582,-534.689708 -120.997262,-534.86368 -122.323599,-535.029378 L-122.199634,-536.021664 C-120.86913,-535.855446 -119.540287,-535.680927 -118.21316,-535.498128 Z M-108.336165,-533.979527 L-108.503621,-532.993647 C-109.813449,-533.216127 -111.125156,-533.430458 -112.438689,-533.636621 L-112.283634,-534.624526 C-110.965963,-534.417714 -109.650122,-534.202708 -108.336165,-533.979527 Z M-98.4772232,-532.144516 L-98.6757006,-531.16441 C-99.9792164,-531.42838 -101.284808,-531.684217 -102.592417,-531.931899 L-102.40631,-532.914429 C-101.094572,-532.665965 -99.7848568,-532.40932 -98.4772232,-532.144516 Z M-88.7017573,-530.003933 L-88.9310474,-529.030574 C-90.2257157,-529.335554 -91.5226544,-529.632442 -92.8218047,-529.921215 L-92.6048224,-530.89739 C-91.301563,-530.607704 -90.0005216,-530.309877 -88.7017573,-530.003933 Z M-78.9861991,-527.552552 L-79.2461474,-526.586929 C-80.5293261,-526.932364 -81.8149688,-527.269776 -83.1030156,-527.599139 L-82.8552795,-528.567967 C-81.5631545,-528.237561 -80.273441,-527.899081 -78.9861991,-527.552552 Z M-69.3425581,-524.791961 L-69.632955,-523.835055 C-70.9101981,-524.222666 -72.1901301,-524.602246 -73.4726889,-524.973768 L-73.194455,-525.934281 C-71.9078335,-525.561582 -70.6238472,-525.1808 -69.3425581,-524.791961 Z M-59.7976423,-521.729527 L-60.1181783,-520.78229 C-61.3785959,-521.208804 -62.6418897,-521.627411 -63.9079971,-522.03808 L-63.5994651,-522.989294 C-62.3293473,-522.577324 -61.0620521,-522.157391 -59.7976423,-521.729527 Z M-50.3678943,-518.371627 L-50.7181957,-517.43499 C-51.9669844,-517.902036 -53.2188671,-518.361228 -54.47378,-518.812532 L-54.1353688,-519.75353 C-52.8764826,-519.300797 -51.6206364,-518.840152 -50.3678943,-518.371627 Z M-41.0268905,-514.708556 L-41.4066568,-513.783474 C-42.6407529,-514.290097 -43.8781553,-514.78895 -45.1187993,-515.279999 L-44.7507764,-516.209816 C-43.5062073,-515.717213 -42.2648903,-515.216782 -41.0268905,-514.708556 Z M-31.8097305,-510.753337 L-32.2185426,-509.840719 C-33.4351019,-510.385682 -34.6551719,-510.922991 -35.8786876,-511.452608 L-35.4814423,-512.37032 C-34.2540596,-511.83903 -33.0301339,-511.300023 -31.8097305,-510.753337 Z M-22.7498052,-506.522447 L-23.1871336,-505.623145 C-24.3835535,-506.204961 -25.5836787,-506.779264 -26.787444,-507.346015 L-26.361479,-508.250754 C-25.1539138,-507.682215 -23.9500007,-507.106099 -22.7498052,-506.522447 Z M-13.8333761,-502.011869 L-14.2987317,-501.126745 C-15.4787203,-501.747127 -16.662639,-502.360084 -17.8504219,-502.965576 L-17.3962609,-503.856495 C-16.2047337,-503.249095 -15.0170834,-502.634206 -13.8333761,-502.011869 Z M-5.03427428,-497.207472 L-5.52724883,-496.337429 C-6.68747114,-496.994821 -7.85183575,-497.644914 -9.0202766,-498.287664 L-8.53829578,-499.163846 C-7.36617691,-498.519073 -6.19814766,-497.866933 -5.03427428,-497.207472 Z M3.61394866,-492.126044 L3.09386832,-491.271927 C1.95647487,-491.964497 0.814741955,-492.649924 -0.331264689,-493.328164 L0.178051382,-494.188744 C1.32766014,-493.508372 2.47298121,-492.82079 3.61394866,-492.126044 Z M12.0959276,-486.777006 L11.5493007,-485.93963 C10.4321642,-486.668881 9.31046425,-487.391107 8.18426662,-488.106263 L8.72033322,-488.950439 C9.85006565,-488.233038 10.9752858,-487.508545 12.0959276,-486.777006 Z M20.3886364,-481.176735 L19.8160905,-480.356863 C18.7224116,-481.120617 17.6239639,-481.877501 16.5208129,-482.627465 L17.0830312,-483.454454 C18.18964,-482.702139 19.2915303,-481.942883 20.3886364,-481.176735 Z M28.5107404,-475.313719 L27.9128402,-474.512149 C26.8458461,-475.308031 25.7739001,-476.09723 24.6970666,-476.879695 L25.2849005,-477.688676 C26.3651052,-476.903762 27.4404067,-476.112093 28.5107404,-475.313719 Z M36.4459808,-469.199511 L35.8233364,-468.417006 C34.781414,-469.246071 33.7343358,-470.068612 32.6821655,-470.884577 L33.2949872,-471.674798 C34.350448,-470.856281 35.4008006,-470.031168 36.4459808,-469.199511 Z M44.1965332,-462.832023 L43.5497423,-462.069356 C42.5363301,-462.928794 41.5175858,-463.781906 40.4935719,-464.628637 L41.1308139,-465.399301 C42.1580276,-464.549924 43.1799549,-463.694147 44.1965332,-462.832023 Z M51.7358538,-456.233282 L51.0655905,-455.491159 C50.0756358,-456.385256 49.0801119,-457.273154 48.0790809,-458.154795 L48.7400188,-458.905235 C49.7441756,-458.020841 50.7428081,-457.130171 51.7358538,-456.233282 Z M59.0649086,-449.40347 L58.3718378,-448.6826 C57.4131061,-449.604361 56.4486476,-450.520139 55.478523,-451.429878 L56.1625628,-452.159322 C57.1357156,-451.246744 58.1031844,-450.328107 59.0649086,-449.40347 Z M66.1900885,-442.335696 L65.4748493,-441.636817 C64.5435742,-442.589891 63.6063629,-443.537147 62.663275,-444.478524 L63.3697395,-445.186272 C64.3157708,-444.241957 65.255907,-443.291745 66.1900885,-442.335696 Z M73.0825783,-435.058231 L72.3458937,-434.381994 C71.4459238,-435.362412 70.5398504,-436.337215 69.6277313,-437.306342 L70.3559317,-437.991707 C71.2708977,-437.019554 72.1797992,-436.041708 73.0825783,-435.058231 Z M79.7466735,-427.567123 L78.9892482,-426.914201 C78.1211771,-427.921211 77.2468379,-428.922812 76.3662867,-429.918941 L77.115522,-430.581245 C77.9988225,-429.582006 78.8758918,-428.577278 79.7466735,-427.567123 Z M86.1653719,-419.882021 L85.3879591,-419.25303 C84.5498433,-420.288915 83.7052594,-421.319563 82.8542622,-422.344912 L83.623759,-422.983562 C84.4774148,-421.955011 85.3246373,-420.921142 86.1653719,-419.882021 Z M92.2992045,-412.055907 L91.5026771,-411.451305 C90.6983231,-412.510992 89.8873569,-413.565659 89.069831,-414.61524 L89.8587513,-415.229735 C90.6788332,-414.176873 91.4923352,-413.118909 92.2992045,-412.055907 Z M98.2303156,-403.983224 L97.4152881,-403.403802 C96.6443986,-404.488151 95.8667367,-405.567681 95.082353,-406.642327 L95.8900786,-407.231885 C96.6769171,-406.153876 97.457013,-405.070967 98.2303156,-403.983224 Z M103.913601,-395.717929 L103.080827,-395.164317 C102.343515,-396.273421 101.599263,-397.377902 100.84812,-398.477694 L101.673899,-399.041689 C102.427395,-397.938452 103.173979,-396.83051 103.913601,-395.717929 Z M109.320127,-387.30269 L108.470449,-386.775388 C107.769168,-387.90541 107.060821,-389.031027 106.345455,-390.152174 L107.188466,-390.690071 C107.906076,-389.565406 108.616645,-388.436258 109.320127,-387.30269 Z M114.471559,-378.703612 L113.605754,-378.203231 C112.939864,-379.355416 112.26676,-380.503398 111.586488,-381.647112 L112.445949,-382.158313 C113.128358,-381.011006 113.803577,-379.859417 114.471559,-378.703612 Z M119.345289,-369.95662 L118.464204,-369.483661 C117.833875,-370.657913 117.19618,-371.82816 116.551161,-372.994335 L117.426227,-373.478339 C118.073275,-372.308496 118.712976,-371.134567 119.345289,-369.95662 Z M123.944748,-361.055099 L123.049225,-360.610084 C122.456987,-361.801871 121.857281,-362.989873 121.250148,-364.174025 L122.140004,-364.630268 C122.749049,-363.442386 123.350644,-362.250641 123.944748,-361.055099 Z M128.262211,-352.012321 L127.353117,-351.595731 C126.798024,-352.80707 126.235329,-354.014826 125.665073,-355.218931 L126.568842,-355.646951 C127.140897,-354.439047 127.705367,-353.227482 128.262211,-352.012321 Z M132.298843,-342.823055 L131.377045,-342.435384 C130.860746,-343.663029 130.336748,-344.887303 129.805087,-346.108142 L130.72192,-346.507412 C131.25526,-345.282718 131.780913,-344.054578 132.298843,-342.823055 Z M136.031326,-333.541493 L135.097771,-333.183059 C134.620405,-334.426377 134.135243,-335.666533 133.642321,-336.90346 L134.571275,-337.273654 C135.065756,-336.032817 135.552451,-334.788742 136.031326,-333.541493 Z M139.477487,-324.123632 L138.533068,-323.794886 C138.095673,-325.051431 137.650411,-326.305025 137.197315,-327.555606 L138.137509,-327.896246 C138.592038,-326.64171 139.038708,-325.384151 139.477487,-324.123632 Z M142.627019,-314.592406 L141.672669,-314.293717 C141.274822,-315.56489 140.869014,-316.833312 140.455275,-318.098919 L141.405774,-318.409646 C141.820822,-317.140035 142.227914,-315.867601 142.627019,-314.592406 Z M145.464893,-304.996383 L144.501593,-304.727956 C144.144074,-306.010977 143.778527,-307.29145 143.404981,-308.569312 L144.364812,-308.849891 C144.73954,-307.567986 145.106243,-306.283463 145.464893,-304.996383 Z M148.007683,-295.278643 L147.036368,-295.040847 C146.719657,-296.334497 146.394863,-297.625798 146.062011,-298.914691 L147.030245,-299.164734 C147.36415,-297.871767 147.689971,-296.576383 148.007683,-295.278643 Z M150.237485,-285.505203 L149.259149,-285.298181 C148.983436,-286.601137 148.699594,-287.901941 148.407646,-289.200535 L149.383294,-289.419878 C149.676164,-288.117184 149.960902,-286.812272 150.237485,-285.505203 Z M152.154724,-275.684253 L151.17036,-275.508107 C150.935832,-276.818733 150.693143,-278.1274 150.442316,-279.434051 L151.424385,-279.622572 C151.676003,-278.3118 151.919457,-276.999009 152.154724,-275.684253 Z M153.765456,-265.787309 L152.776039,-265.642207 C152.582721,-266.960403 152.381206,-268.276828 152.171515,-269.591425 L153.159031,-269.748943 C153.369382,-268.430212 153.57153,-267.109648 153.765456,-265.787309 Z M155.062953,-255.858915 L154.069478,-255.744864 C153.917573,-257.068073 153.757462,-258.389695 153.589163,-259.709676 L154.581133,-259.836153 C154.74996,-258.512033 154.910572,-257.186269 155.062953,-255.858915 Z M156.05167,-245.868912 L155.055114,-245.785987 C154.944655,-247.113433 154.825984,-248.439472 154.699117,-249.764051 L155.694561,-249.859394 C155.821824,-248.530678 155.940866,-247.2005 156.05167,-245.868912 Z M156.727983,-235.85648 L155.729329,-235.804608 C155.660229,-237.134953 155.582921,-238.464065 155.49742,-239.791894 L156.495354,-239.856153 C156.58112,-238.524197 156.658668,-237.190956 156.727983,-235.85648 Z M157.092524,-225.860381 L156.092745,-225.839343 C156.064721,-227.171139 156.028507,-228.50187 155.984115,-229.831489 L156.983558,-229.864857 C157.028087,-228.531129 157.064413,-227.196287 157.092524,-225.860381 Z M157.149118,-215.825491 L156.149166,-215.835233 L156.16074,-217.420261 L156.164596,-219.008758 C156.164592,-219.280984 156.164247,-219.553171 156.163561,-219.825318 L157.163558,-219.82784 L157.164596,-219.008765 C157.164596,-217.944608 157.15944,-216.885021 157.149118,-215.825491 Z M156.896717,-205.797301 L155.897542,-205.837908 C155.951703,-207.170594 155.99764,-208.504438 156.03534,-209.839391 L157.034942,-209.811161 C156.997125,-208.472082 156.951045,-207.134112 156.896717,-205.797301 Z M156.336003,-195.810508 L155.338564,-195.88203 C155.433688,-197.20862 155.520625,-198.536533 155.59936,-199.865718 L156.59761,-199.806586 C156.51863,-198.473269 156.431423,-197.141226 156.336003,-195.810508 Z M155.462828,-185.819167 L154.468106,-185.92177 C154.605107,-187.249975 154.733855,-188.579691 154.854335,-189.910866 L155.850265,-189.820728 C155.729408,-188.485395 155.600257,-187.151524 155.462828,-185.819167 Z M154.281766,-175.889845 L153.290733,-176.023461 C153.468371,-177.341013 153.63784,-178.660245 153.79912,-179.981102 L154.791748,-179.859899 C154.629962,-178.534901 154.459962,-177.211531 154.281766,-175.889845 Z M152.785372,-165.970508 L151.799029,-166.135207 C152.018445,-167.449244 152.229679,-168.765154 152.432709,-170.082882 L153.421046,-169.930603 C153.217378,-168.60873 153.00548,-167.28868 152.785372,-165.970508 Z M150.976405,-156.097518 L149.995744,-156.293233 C150.256752,-157.601057 150.509592,-158.91095 150.75424,-160.222856 L151.737293,-160.039533 C151.491873,-158.723491 151.238236,-157.409467 150.976405,-156.097518 Z M148.861659,-146.30761 L147.887654,-146.534137 C148.189782,-147.833208 148.483781,-149.134544 148.769628,-150.438087 L149.746418,-150.223892 C149.459669,-148.916232 149.164741,-147.610785 148.861659,-146.30761 Z M146.443842,-136.606703 L145.477455,-136.863798 C145.820061,-138.15161 146.154605,-139.441883 146.48106,-140.734555 L147.45062,-140.489699 C147.123132,-139.19294 146.787531,-137.898588 146.443842,-136.606703 Z M143.716987,-126.971642 L142.759199,-127.259118 C143.141567,-128.533062 143.515966,-129.809657 143.882367,-131.088843 L144.843708,-130.813482 C144.476148,-129.53025 144.100565,-128.249616 143.716987,-126.971642 Z M140.683101,-117.415026 L139.734881,-117.73264 C140.158736,-118.998038 140.574642,-120.266311 140.982569,-121.537394 L141.934736,-121.231817 C141.525519,-119.956712 141.108297,-118.684427 140.683101,-117.415026 Z M137.349859,-107.962478 L136.412149,-108.309895 C136.873889,-109.556174 137.327826,-110.805509 137.773929,-112.057837 L138.715947,-111.722272 C138.268433,-110.465984 137.81306,-109.212698 137.349859,-107.962478 Z M133.724358,-98.6314303 L132.798071,-99.0082497 C133.299314,-100.240391 133.792833,-101.4758 134.278594,-102.714413 L135.209559,-102.349306 C134.722263,-101.106778 134.227185,-99.867465 133.724358,-98.6314303 Z M129.795894,-89.3954727 L128.881975,-89.8013689 C129.421589,-91.0163663 129.953588,-92.2348364 130.477937,-93.4567146 L131.396894,-93.062359 C130.87089,-91.8366226 130.337211,-90.6143056 129.795894,-89.3954727 Z M125.581801,-80.2965739 L124.681134,-80.731084 C125.260912,-81.9328663 125.83313,-83.1383572 126.39775,-84.347491 L127.303831,-83.9243854 C126.73743,-82.7114381 126.163407,-81.5021456 125.581801,-80.2965739 Z M121.10676,-71.3803423 L120.220149,-71.8428567 C120.835301,-73.0220662 121.443061,-74.2051686 122.043388,-75.3920986 L122.935742,-74.9407625 C122.333524,-73.7500938 121.72385,-72.5632652 121.10676,-71.3803423 Z M116.328086,-62.5611558 L115.456463,-63.0513325 C116.10872,-64.2111643 116.753705,-65.3751022 117.391376,-66.5430805 L118.269084,-66.0638859 C117.629408,-64.8922336 116.982394,-63.724635 116.328086,-62.5611558 Z M111.287423,-53.917888 L110.431588,-54.4351381 C111.119103,-55.57269 111.799497,-56.7145465 112.472724,-57.8606422 L113.334969,-57.3541512 C112.659627,-56.2044552 111.977096,-55.0590123 111.287423,-53.917888 Z M105.964127,-45.4144364 L105.124944,-45.9582858 C105.849284,-47.0759732 106.566617,-48.1981906 107.276895,-49.3248725 L108.122828,-48.7915828 C107.410321,-47.6613664 106.690738,-46.535629 105.964127,-45.4144364 Z M100.389152,-37.0998982 L99.5673857,-37.6697229 C100.326401,-38.7643282 101.078557,-39.8636706 101.823806,-40.9676847 L102.652641,-40.4081916 C101.905057,-39.3007185 101.150545,-38.1979322 100.389152,-37.0998982 Z M94.5510608,-28.9555483 L93.7475118,-29.5507869 C94.538852,-30.6190656 95.3235165,-31.6922666 96.1014543,-32.7703256 L96.9123692,-32.1851615 C96.1319969,-31.1037287 95.344877,-30.0271695 94.5510608,-28.9555483 Z M88.4613388,-20.9976329 L87.6767731,-21.6176786 C88.5015138,-22.6612521 89.3197349,-23.7099542 90.1313834,-24.7637212 L90.9236226,-24.1535106 C90.1094366,-23.0964491 89.2886576,-22.0444685 88.4613388,-20.9976329 Z M82.1070694,-13.2110803 L81.3422954,-13.855379 C82.2013255,-14.8750363 83.0539753,-15.9000465 83.9001895,-16.9303461 L84.6729538,-16.295653 C83.824096,-15.2621347 82.9687827,-14.2339226 82.1070694,-13.2110803 Z M75.5427912,-5.66117547 L74.7984506,-6.3289757 C75.6887375,-7.32130333 76.5728201,-8.31917854 77.4506416,-9.32253906 L78.2032625,-8.664085 C77.3227003,-7.65759176 76.4358575,-6.65660111 75.5427912,-5.66117547 Z M68.7361587,1.69169538 L68.012998,1.00101556 C68.9312453,0.0395854922 69.8435019,-0.927552824 70.7497101,-1.90033883 L71.4814124,-1.21871452 C70.5723758,-0.242892261 69.6572719,0.727264616 68.7361587,1.69169538 Z M61.6910927,8.84115777 L60.9898508,8.12823427 C61.9397377,7.19391185 62.8837932,6.25366798 63.8219574,5.30756227 L64.5320381,6.01168261 C63.5909459,6.96074104 62.6439441,7.90391936 61.6910927,8.84115777 Z M54.4358579,15.7582346 L53.7571915,15.023788 C54.7347749,14.1204507 55.7067277,13.2110207 56.6729888,12.2955559 L57.360757,13.0214863 C56.3914797,13.9398086 55.416493,14.8520775 54.4358579,15.7582346 Z M46.9664944,22.4472842 L46.3110781,21.6920164 C47.3156389,20.8202654 48.3147701,19.9422525 49.3084097,19.058034 L49.9731864,19.8050762 C48.9764439,20.6920558 47.9741925,21.5728106 46.9664944,22.4472842 Z M39.3025656,28.8912848 L38.6710193,28.1159465 C39.7048752,27.2738266 40.733471,26.4252401 41.7567434,25.5702417 L42.3979325,26.3376246 C41.3714627,27.1952946 40.3396525,28.046533 39.3025656,28.8912848 Z M31.4736495,35.0683928 L30.8665072,34.2737997 C31.9245378,33.465367 32.9775219,32.6503195 34.0253957,31.8287102 L34.6424183,32.6156557 C33.5912673,33.4398346 32.5349896,34.2574313 31.4736495,35.0683928 Z M23.4444884,41.0076074 L22.8623997,40.1944821 C23.9456615,39.4190118 25.0240738,38.6367593 26.0975716,37.8477757 L26.6897901,38.6535531 C25.6129314,39.4450069 24.5311425,40.2297087 23.4444884,41.0076074 Z M15.2083052,46.7108573 L14.6519465,45.8799151 C15.7573218,45.1398092 16.8580659,44.3927869 17.9541139,43.638897 L18.5208249,44.4628136 C17.4213413,45.2190667 16.3171463,45.9684309 15.2083052,46.7108573 Z M6.80260201,52.1502671 L6.27253754,51.3023097 C7.40258987,50.5959056 8.52820094,49.8824123 9.64930501,49.1618769 L10.18997,50.0031149 C9.065347,50.7259119 7.93620236,51.441645 6.80260201,52.1502671 Z M-1.76919331,57.3234544 L-2.27240612,56.4592918 C-1.12251113,55.7896934 0.0231635718,55.1128876 1.16455239,54.4289191 L1.67857017,55.2866986 C0.53359363,55.972817 -0.6156828,56.6517505 -1.76919331,57.3234544 Z M-10.5161666,62.2343241 L-10.9919391,61.3547557 C-9.82214335,60.7219946 -8.656355,60.0819014 -7.49463952,59.4345185 L-7.00785621,60.3080412 C-8.17322867,60.957462 -9.34268736,61.5995705 -10.5161666,62.2343241 Z M-19.409805,66.8655132 L-19.8576367,65.9713953 C-18.666595,65.3748451 -17.4793637,64.770815 -16.2960086,64.1593454 L-15.8369474,65.0477501 C-17.024033,65.6611473 -18.2150075,66.2670818 -19.409805,66.8655132 Z M-28.4293081,71.206822 L-28.8487643,70.2990464 C-27.6397575,69.7404001 -26.4343505,69.1741611 -25.2326085,68.6003676 L-24.8017353,69.5027802 C-26.007271,70.0783849 -27.2164837,70.6464116 -28.4293081,71.206822 Z M-37.6041031,75.2715472 L-37.9946592,74.3509681 C-36.7681237,73.8306098 -35.5449811,73.3025459 -34.3252964,72.7668125 L-33.9231414,73.6823841 C-35.1466811,74.2198108 -36.37369,74.7495439 -37.6041031,75.2715472 Z M-46.8927729,79.0402036 L-47.254039,78.1077408 C-46.0130013,77.6269229 -44.7751412,77.1383182 -43.5405227,76.6419607 L-43.1675064,77.5697855 C-44.4060311,78.0677134 -45.647808,78.5578641 -46.8927729,79.0402036 Z M-56.2987417,82.5142603 L-56.630324,81.570834 C-55.3744219,81.1294271 -54.121492,80.6801421 -52.8715975,80.2230106 L-52.5281134,81.1621691 C-53.7819654,81.620748 -55.0388626,82.0714556 -56.2987417,82.5142603 Z M-65.779509,85.679265 L-66.0811571,84.7258457 C-64.8123005,84.3243978 -63.5462102,83.9149982 -62.2829483,83.4976763 L-61.9692689,84.4472052 C-63.2365323,84.865849 -64.5066331,85.2765455 -65.779509,85.679265 Z M-75.3897549,88.5531884 L-75.6610573,87.5906942 C-74.3800089,87.2295995 -73.1015245,86.8604833 -71.8256651,86.4833731 L-71.5422141,87.4423598 C-72.8221148,87.8206646 -74.1046489,88.1909499 -75.3897549,88.5531884 Z M-85.0962056,91.1238487 L-85.3368703,90.1532404 C-84.0437882,89.8326176 -82.7530742,89.5038999 -81.4647885,89.1671128 L-81.2118656,90.1345992 C-82.5042301,90.4724527 -83.7990302,90.802211 -85.0962056,91.1238487 Z M-94.8529742,93.3801133 L-95.0628702,92.4023896 C-93.7610315,92.1229132 -92.4613616,91.8353033 -91.163919,91.5395835 L-90.9416931,92.5145787 C-92.2432391,92.8112338 -93.5470191,93.0997532 -94.8529742,93.3801133 Z M-104.691872,95.3302554 L-104.870787,94.3463909 C-103.56063,94.1081397 -102.252448,93.8617163 -100.9463,93.6071421 L-100.754995,94.5886728 C-102.065268,94.8440508 -103.377579,95.0912522 -104.691872,95.3302554 Z M-114.573011,96.9668861 L-114.72088,95.9778791 C-113.403819,95.7809625 -112.088544,95.5758465 -110.775112,95.3625509 L-110.614816,96.3496199 C-111.932386,96.5635875 -113.251803,96.7693495 -114.573011,96.9668861 Z M-124.520498,98.2945483 L-124.637202,97.3013815 C-123.314708,97.1459796 -121.993816,96.9823639 -120.674579,96.8105523 L-120.545434,97.802178 C-121.868814,97.9745293 -123.193854,98.1386587 -124.520498,98.2945483 Z M-134.499144,99.3089054 L-134.5847,98.312572 C-133.257535,98.1986074 -131.931793,98.0764181 -130.607525,97.9460203 L-130.509531,98.9412073 C-131.837942,99.0720131 -133.16783,99.1945845 -134.499144,99.3089054 Z M-144.498836,100.010754 L-144.553318,99.0122395 C-143.223422,98.939676 -141.894773,98.8588951 -140.567422,98.7699114 L-140.500534,99.7676719 C-141.832018,99.8569326 -143.164803,99.937965 -144.498836,100.010754 Z M-154.516788,100.401653 L-154.540306,99.4019291 C-153.208421,99.3705964 -151.877615,99.3310571 -150.547935,99.2833244 L-150.512061,100.282681 C-151.845858,100.330561 -153.180783,100.370223 -154.516788,100.401653 Z M-164.53913,100.482932 L-164.531853,99.4829589 L-163.350031,99.4894082 L-162.167702,99.4915584 C-161.625949,99.4915584 -161.084353,99.4902045 -160.542917,99.4874974 L-160.537917,100.487485 L-162.167702,100.491558 C-162.958514,100.491558 -163.748993,100.488682 -164.53913,100.482932 Z M-174.543045,100.256043 L-174.504947,99.2567692 C-173.180485,99.3072659 -171.854892,99.3496308 -170.528216,99.3838509 L-170.554002,100.383518 C-171.884782,100.349192 -173.21448,100.306696 -174.543045,100.256043 Z M-184.562816,99.7180428 L-184.493666,98.7204365 C-183.164769,98.8125499 -181.834558,98.8964385 -180.503084,98.9720875 L-180.559808,99.9704774 C-181.895426,99.894593 -183.229779,99.8104432 -184.562816,99.7180428 Z M-194.526369,98.871454 L-194.426189,97.8764847 C-193.105438,98.0094664 -191.783208,98.13428 -190.459549,98.250909 L-190.54732,99.2470497 C-191.875118,99.130056 -193.201485,99.004852 -194.526369,98.871454 Z M-204.48778,97.7105159 L-204.35645,96.7191773 C-203.036404,96.8940545 -201.714688,97.0607221 -200.391354,97.2191619 L-200.510233,98.2120707 C-201.837721,98.0531335 -203.163588,97.8859425 -204.48778,97.7105159 Z M-214.409946,96.2368946 L-214.247485,95.2501797 C-212.930855,95.4669612 -211.612359,95.675519 -210.292053,95.8758332 L-210.442054,96.8645189 C-211.766518,96.663574 -213.089167,96.4543592 -214.409946,96.2368946 Z M-224.259122,94.4556213 L-224.065681,93.4745095 C-222.764137,93.7311293 -221.46056,93.9796512 -220.155007,94.2200539 L-220.336101,95.2035197 C-221.645776,94.9623581 -222.953469,94.7130515 -224.259122,94.4556213 Z M-234.053648,92.363421 L-233.829341,91.3889024 C-232.536154,91.6865582 -231.240738,91.9761523 -229.943153,92.2576613 L-230.155169,93.2349275 C-231.456858,92.9525282 -232.75637,92.6620183 -234.053648,92.363421 Z M-243.784918,89.9609369 L-243.529907,88.9939986 C-242.239211,89.3343937 -240.946061,89.6666838 -239.650518,89.9908431 L-239.893246,90.9609374 C-241.192891,90.6357519 -242.490135,90.3024098 -243.784918,89.9609369 Z M-253.424619,87.255012 L-253.139174,86.2966169 C-251.862255,86.6769297 -250.58269,87.0492298 -249.30054,87.4134894 L-249.573826,88.3754223 C-250.860037,88.0100089 -252.143655,87.6365296 -253.424619,87.255012 Z M-262.962916,84.2493996 L-262.647353,83.3004953 C-261.386638,83.7197532 -260.12309,84.1311152 -258.856771,84.5345518 L-259.160328,85.4873652 C-260.430658,85.0826507 -261.698209,84.6699856 -262.962916,84.2493996 Z M-272.444536,80.9283311 L-272.099041,79.9899107 C-270.849594,80.4499156 -269.597095,80.9020733 -268.341607,81.3463518 L-268.675205,82.2890672 C-269.934668,81.8433819 -271.191133,81.3897926 -272.444536,80.9283311 Z M-281.781692,77.3222753 L-281.40674,76.3952311 C-280.17133,76.8949043 -278.932656,77.386808 -277.69078,77.8709081 L-278.053975,78.8026214 C-279.29978,78.3169895 -280.542374,77.8235294 -281.781692,77.3222753 Z M-291.024259,73.4128017 L-290.620176,72.4980793 C-289.401814,73.0362965 -288.179981,73.5668537 -286.954743,74.0897145 L-287.34724,75.0094676 C-288.576352,74.484954 -289.802047,73.9527199 -291.024259,73.4128017 Z M-300.110426,69.226684 L-299.677738,68.3251401 C-298.479042,68.9004437 -297.276678,69.4682239 -296.070713,70.0284426 L-296.492014,70.9353636 C-297.701787,70.3733762 -298.907946,69.8038035 -300.110426,69.226684 Z M-309.054073,64.7599567 L-308.593266,63.8724563 C-307.410494,64.4865734 -306.22383,65.0932509 -305.033338,65.6924482 L-305.482921,66.5856864 C-306.677167,65.9845998 -307.867573,65.3760096 -309.054073,64.7599567 Z M-317.881383,59.9986854 L-317.392862,59.1261332 C-316.229369,59.7775452 -315.061768,60.4216372 -313.890125,61.0583662 L-314.367619,61.9370012 C-315.542951,61.2982674 -316.714228,60.6521478 -317.881383,59.9986854 Z M-326.533253,54.9748546 L-326.017608,54.1180521 C-324.876301,54.8049184 -323.730686,55.4846153 -322.58083,56.1570975 L-323.085671,57.0203098 C-324.239143,56.3457133 -325.388359,55.6638798 -326.533253,54.9748546 Z M-335.029528,49.6784255 L-334.487286,48.8382033 C-333.371124,49.5585248 -332.250471,50.271858 -331.125394,50.9781561 L-331.657083,51.8250956 C-332.785693,51.1165801 -333.909863,50.4010078 -335.029528,49.6784255 Z M-343.354572,44.119346 L-342.786304,43.2965024 C-341.69284,44.0516647 -340.594678,44.7999831 -339.491881,45.5414088 L-340.049822,46.3712896 C-341.156076,45.6275394 -342.257681,44.8768752 -343.354572,44.119346 Z M-351.524563,38.2857895 L-350.930786,37.4811597 C-349.858459,38.2724834 -348.781202,39.0570814 -347.69908,39.8349024 L-348.282739,40.6469016 C-349.368249,39.866645 -350.448879,39.0795905 -351.524563,38.2857895 Z M-359.49318,32.2107271 L-358.87455,31.4250439 C-357.82683,32.249995 -356.773971,33.0683759 -355.716039,33.8801335 L-356.324789,34.6734951 C-357.386031,33.8591985 -358.442183,33.038258 -359.49318,32.2107271 Z M-367.278034,25.8814761 L-366.635149,25.115514 C-365.615504,25.9713201 -364.59054,26.8207484 -363.560319,27.6637441 L-364.193596,28.437669 C-365.227036,27.5920389 -366.255203,26.7399563 -367.278034,25.8814761 Z M-374.862464,19.3110483 L-374.195963,18.5655439 C-373.203478,19.4528516 -372.205478,20.3339557 -371.202024,21.2087997 L-371.859175,21.9625584 C-372.865763,21.0849823 -373.86688,20.2011267 -374.862464,19.3110483 Z M-382.217764,12.5261946 L-381.528373,11.8018054 C-380.562511,12.7210029 -379.590924,13.634158 -378.613674,14.5412124 L-379.293967,15.2741526 C-380.274268,14.3642668 -381.248887,13.4482613 -382.217764,12.5261946 Z M-389.369469,5.50428009 L-388.657826,4.80173839 C-387.722446,5.74923554 -386.781171,6.69089269 -385.834058,7.62665027 L-386.536888,8.33800834 C-387.486956,7.3993303 -388.43117,6.4547343 -389.369469,5.50428009 Z M-396.300632,-1.73922807 L-395.567424,-2.41923277 C-394.662689,-1.44371254 -393.751885,-0.473834968 -392.835067,0.490339167 L-393.559747,1.17942515 C-394.479426,0.212241713 -395.393073,-0.760663011 -396.300632,-1.73922807 Z M-403.004283,-9.19747535 L-402.250213,-9.85426913 C-401.376731,-8.85141806 -400.497007,-7.85401193 -399.611095,-6.86211262 L-400.356926,-6.19597678 C-401.245603,-7.19097285 -402.128074,-8.19149306 -403.004283,-9.19747535 Z M-409.455001,-16.8406773 L-408.680845,-17.4736729 C-407.839404,-16.4445878 -406.991553,-15.4207468 -406.137348,-14.4022128 L-406.903558,-13.7596222 C-407.760431,-14.7813378 -408.610931,-15.8083772 -409.455001,-16.8406773 Z M-415.656033,-24.6700304 L-414.862556,-25.2786309 C-414.051742,-24.2215139 -413.234324,-23.1694649 -412.410354,-22.1225482 L-413.196164,-21.5040806 C-414.02271,-22.55427 -414.842684,-23.6096081 -415.656033,-24.6700304 Z M-421.604268,-32.680181 L-420.792241,-33.2638005 C-420.016377,-32.184292 -419.233778,-31.1096289 -418.444494,-30.0398755 L-419.249174,-29.4461671 C-420.040928,-30.5192679 -420.825976,-31.597294 -421.604268,-32.680181 Z M-427.33116,-40.9175363 L-426.501253,-41.4754383 C-425.758161,-40.3700517 -425.008152,-39.2693239 -424.251276,-38.17332 L-425.074134,-37.6050727 C-425.833381,-38.7045098 -426.585739,-39.8086862 -427.33116,-40.9175363 Z M-432.781901,-49.3060884 L-431.934956,-49.8377689 C-431.22715,-48.7102617 -430.512286,-47.5872024 -429.790413,-46.4686564 L-430.630631,-45.9264074 C-431.354768,-47.0484617 -432.071874,-48.175044 -432.781901,-49.3060884 Z M-437.988107,-57.8962791 L-437.124867,-58.4010722 C-436.453622,-57.2531842 -435.775196,-56.1095258 -435.089635,-54.9701626 L-435.946482,-54.4545926 C-436.634197,-55.5975342 -437.314753,-56.7447849 -437.988107,-57.8962791 Z M-442.902804,-66.6115632 L-442.024159,-67.0890401 C-441.389077,-65.9203727 -440.746678,-64.7557289 -440.097007,-63.5951742 L-440.969589,-63.1067076 C-441.621304,-64.2709122 -442.265723,-65.4392193 -442.902804,-66.6115632 Z M-447.549048,-75.4915382 L-446.655822,-75.9411445 C-446.057833,-74.7531292 -445.452405,-73.5689281 -444.839579,-72.3886066 L-445.727085,-71.9278107 C-446.341842,-73.1118494 -446.949176,-74.2997804 -447.549048,-75.4915382 Z M-451.910406,-84.5066315 L-451.003473,-84.9279062 C-450.442813,-83.7209016 -449.87459,-82.5175068 -449.29884,-81.317787 L-450.200397,-80.8851267 C-450.777962,-82.0886297 -451.347978,-83.2958198 -451.910406,-84.5066315 Z M-455.995645,-93.6778189 L-455.075858,-94.0702371 C-454.552942,-92.8445756 -454.022334,-91.6223233 -453.484073,-90.403545 L-454.398834,-89.9995496 C-454.938795,-91.2221757 -455.471077,-92.4482871 -455.995645,-93.6778189 Z M-459.785181,-102.963703 L-458.853459,-103.326874 C-458.369581,-102.085478 -457.877917,-100.847281 -457.378501,-99.612347 L-458.305562,-99.2374364 C-458.806557,-100.476273 -459.299775,-101.718383 -459.785181,-102.963703 Z M-463.268458,-112.333727 L-462.325756,-112.667364 C-461.881301,-111.411543 -461.428975,-110.158713 -460.968808,-108.908939 L-461.907218,-108.563416 C-462.36884,-109.817143 -462.822597,-111.073934 -463.268458,-112.333727 Z M-466.463396,-121.836072 L-465.510619,-122.139743 C-465.106402,-120.871502 -464.694246,-119.606043 -464.274181,-118.343427 L-465.223046,-118.027745 C-465.64444,-119.294355 -466.0579,-120.563818 -466.463396,-121.836072 Z M-469.358535,-131.442338 L-468.396628,-131.715715 C-468.032628,-130.434939 -467.660616,-129.156745 -467.280619,-127.881192 L-468.238995,-127.595684 C-468.620194,-128.875272 -468.993383,-130.157511 -469.358535,-131.442338 Z M-471.941813,-141.109208 L-470.971763,-141.352111 C-470.648475,-140.061042 -470.317125,-138.772351 -469.977736,-137.486098 L-470.944644,-137.230971 C-471.285105,-138.521291 -471.617504,-139.814057 -471.941813,-141.109208 Z M-474.228633,-150.896876 L-473.25138,-151.108953 C-472.968931,-149.807424 -472.678359,-148.508078 -472.379689,-147.210975 L-473.354189,-146.986588 C-473.653802,-148.287787 -473.945292,-149.591237 -474.228633,-150.896876 Z M-476.195496,-160.701919 L-475.212057,-160.883161 C-474.970643,-159.573222 -474.721068,-158.265275 -474.463351,-156.959377 L-475.444429,-156.765763 C-475.702958,-158.07578 -475.953321,-159.387851 -476.195496,-160.701919 Z M-477.860588,-170.611369 L-476.871924,-170.761515 C-476.671894,-169.444376 -476.463672,-168.12904 -476.247278,-166.815562 L-477.233977,-166.653004 C-477.451052,-167.970615 -477.659929,-169.290089 -477.860588,-170.611369 Z M-479.20749,-180.523619 L-478.214611,-180.642748 C-478.05598,-179.320638 -477.889149,-178.000143 -477.714134,-176.681319 L-478.705444,-176.549768 C-478.881007,-177.872729 -479.048362,-179.197365 -479.20749,-180.523619 Z M-480.246481,-190.50069 L-479.250363,-190.588712 C-479.133093,-189.261616 -479.007609,-187.935956 -478.873927,-186.611786 L-479.868869,-186.51134 C-480.00297,-187.839649 -480.128846,-189.16945 -480.246481,-190.50069 Z M-480.973272,-200.498797 L-479.974897,-200.555786 C-479.89898,-199.225797 -479.814853,-197.897069 -479.722533,-196.569653 L-480.720123,-196.500272 C-480.812731,-197.831817 -480.897118,-199.164676 -480.973272,-200.498797 Z M-481.389439,-210.514228 L-480.389779,-210.540293 C-480.355057,-209.208613 -480.31214,-207.878023 -480.261044,-206.548575 L-481.260306,-206.510169 C-481.311561,-207.84373 -481.35461,-209.178433 -481.389439,-210.514228 Z M-481.496398,-220.538023 L-480.496409,-220.533325 L-480.499105,-219.766228 L-480.5,-218.992114 C-480.499969,-218.175179 -480.496865,-217.358602 -480.490689,-216.542392 L-481.490661,-216.534826 L-481.497642,-217.763182 L-481.5,-218.992095 C-481.5,-219.514097 -481.498806,-220.025385 -481.496398,-220.538023 Z M-481.295015,-230.559775 L-480.295646,-230.524264 C-480.342839,-229.19612 -480.381871,-227.866853 -480.412729,-226.536513 L-481.41246,-226.559702 C-481.381507,-227.89415 -481.342354,-229.227525 -481.295015,-230.559775 Z M-480.784607,-240.560844 L-479.786817,-240.494401 C-479.874883,-239.171895 -479.954819,-237.848102 -480.02661,-236.523075 L-481.025146,-236.577177 C-480.953131,-237.90632 -480.872947,-239.234226 -480.784607,-240.560844 Z M-479.961357,-250.567438 L-478.966127,-250.469889 C-479.095961,-249.145264 -479.217595,-247.819166 -479.331013,-246.491648 L-480.327384,-246.576775 C-480.213611,-247.908436 -480.091597,-249.238675 -479.961357,-250.567438 Z M-478.829798,-260.510733 L-477.8381,-260.382147 C-478.009793,-259.057995 -478.173243,-257.732179 -478.32843,-256.404754 L-479.321666,-256.520872 C-479.165992,-257.852457 -479.00203,-259.182429 -478.829798,-260.510733 Z M-477.386923,-270.418382 L-476.399744,-270.258764 C-476.611809,-268.947225 -476.81573,-267.633853 -477.01149,-266.318704 L-478.000592,-266.465931 C-477.804217,-267.785215 -477.599654,-269.102717 -477.386923,-270.418382 Z M-475.633019,-280.279232 L-474.651348,-280.088647 C-474.904891,-278.782688 -475.150299,-277.474702 -475.387551,-276.164744 L-476.371542,-276.342959 C-476.133543,-277.657045 -475.887361,-278.969155 -475.633019,-280.279232 Z M-473.567624,-290.08849 L-472.592452,-289.867041 C-472.887143,-288.569339 -473.173734,-287.269413 -473.452203,-285.967324 L-474.43009,-286.176457 C-474.150742,-287.482658 -473.863245,-288.786689 -473.567624,-290.08849 Z M-471.19839,-299.80961 L-470.230682,-299.557534 C-470.565912,-298.270601 -470.893104,-296.981251 -471.212232,-295.689543 L-472.183042,-295.929391 C-471.862906,-297.225182 -471.53468,-298.518608 -471.19839,-299.80961 Z M-468.519492,-309.465815 L-467.560231,-309.183294 C-467.935315,-307.909748 -468.302448,-306.633593 -468.661603,-305.354889 L-469.624348,-305.6253 C-469.264057,-306.908048 -468.895763,-308.18824 -468.519492,-309.465815 Z M-465.532865,-319.044599 L-464.583022,-318.731869 C-464.999688,-317.466347 -465.408417,-316.197993 -465.809181,-314.92687 L-466.762902,-315.227562 C-466.360871,-316.502706 -465.950849,-317.775073 -465.532865,-319.044599 Z M-462.256495,-328.491718 L-461.316983,-328.149201 C-461.771609,-326.902182 -462.218438,-325.65215 -462.65744,-324.399167 L-463.60119,-324.729824 C-463.1608,-325.986771 -462.712558,-327.240756 -462.256495,-328.491718 Z M-458.666289,-337.875098 L-457.738092,-337.50301 C-458.232458,-336.269781 -458.719104,-335.033326 -459.197994,-333.793707 L-460.130806,-334.154072 C-459.650402,-335.397609 -459.162218,-336.637972 -458.666289,-337.875098 Z M-454.794846,-347.108437 L-453.878839,-346.707276 C-454.411702,-345.490545 -454.936946,-344.270381 -455.454536,-343.046849 L-456.375519,-343.436452 C-455.856294,-344.663848 -455.329391,-345.887865 -454.794846,-347.108437 Z M-450.625648,-356.233665 L-449.722754,-355.803801 C-450.295993,-354.59976 -450.861663,-353.39205 -451.419725,-352.180735 L-452.327971,-352.599171 C-451.768148,-353.814307 -451.200695,-355.025827 -450.625648,-356.233665 Z M-446.194469,-365.176909 L-445.305496,-364.71895 C-445.914372,-363.537023 -446.51584,-362.35124 -447.109861,-361.161666 L-448.004519,-361.608419 C-447.408626,-362.801741 -446.805263,-363.991259 -446.194469,-365.176909 Z M-441.473467,-373.998187 L-440.599305,-373.512553 C-441.245517,-372.349343 -441.884435,-371.182062 -442.516018,-370.010775 L-443.39621,-370.485393 C-442.76264,-371.660365 -442.121712,-372.831318 -441.473467,-373.998187 Z M-436.46053,-382.696497 L-435.602074,-382.183611 C-436.283903,-381.04238 -436.958587,-379.896877 -437.62608,-378.747167 L-438.490895,-379.249257 C-437.821305,-380.402579 -437.144502,-381.551681 -436.46053,-382.696497 Z M-431.194627,-391.204985 L-430.352646,-390.665478 C-431.071603,-389.543438 -431.783521,-388.416898 -432.488353,-387.285922 L-433.337034,-387.814826 C-432.629991,-388.94935 -431.915839,-390.079425 -431.194627,-391.204985 Z M-425.644003,-399.575387 L-424.819365,-399.009725 C-425.573401,-397.910472 -426.320543,-396.806508 -427.060742,-395.697898 L-427.892402,-396.253183 C-427.149883,-397.365267 -426.400401,-398.47269 -425.644003,-399.575387 Z M-419.862905,-407.727637 L-419.05631,-407.136532 C-419.843057,-406.062974 -420.623086,-404.984516 -421.396347,-403.901223 L-422.210265,-404.482202 C-421.434584,-405.568886 -420.652113,-406.65072 -419.862905,-407.727637 Z M-413.812402,-415.718872 L-413.024672,-415.102852 C-413.84526,-414.053531 -414.659283,-412.999099 -415.466686,-411.939621 L-416.262052,-412.545751 C-415.452124,-413.608542 -414.635556,-414.666271 -413.812402,-415.718872 Z M-407.507327,-423.526752 L-406.739238,-422.88641 C-407.590923,-421.864815 -408.43623,-420.837925 -409.275105,-419.805805 L-410.051117,-420.436523 C-409.209621,-421.471868 -408.361673,-422.501966 -407.507327,-423.526752 Z M-400.960621,-431.134621 L-400.212911,-430.470595 C-401.096364,-429.475806 -401.973609,-428.475524 -402.84459,-427.46981 L-403.600516,-428.124467 C-402.726815,-429.133321 -401.846832,-430.136726 -400.960621,-431.134621 Z M-394.198955,-438.513693 L-393.472286,-437.826705 C-394.38792,-436.858184 -395.297504,-435.883958 -396.200979,-434.904087 L-396.936164,-435.581953 C-396.029869,-436.564882 -395.117447,-437.54215 -394.198955,-438.513693 Z M-387.199827,-445.689554 L-386.494935,-444.98024 C-387.439188,-444.041873 -388.37759,-443.097625 -389.310081,-442.147556 L-390.023759,-442.84803 C-389.088358,-443.801064 -388.147028,-444.748258 -387.199827,-445.689554 Z M-379.978628,-452.645255 L-379.296205,-451.914298 C-380.268831,-451.006251 -381.235798,-450.092145 -382.197047,-449.172039 L-382.888525,-449.894436 C-381.924276,-450.817415 -380.95429,-451.734374 -379.978628,-452.645255 Z M-372.542205,-459.373813 L-371.882927,-458.621913 C-372.883263,-457.744802 -373.878136,-456.861454 -374.867482,-455.971927 L-375.536079,-456.715551 C-374.543644,-457.607856 -373.545665,-458.493962 -372.542205,-459.373813 Z M-364.920269,-465.84972 L-364.284728,-465.077653 C-365.311709,-464.232273 -366.333424,-463.380487 -367.349809,-462.522349 L-367.994927,-463.286431 C-366.975367,-464.147251 -365.95046,-465.001699 -364.920269,-465.84972 Z M-357.121673,-472.068496 L-356.510437,-471.277047 C-357.562523,-470.464522 -358.609545,-469.645432 -359.651442,-468.819828 L-360.2725,-469.603593 C-359.227346,-470.431778 -358.177049,-471.25343 -357.121673,-472.068496 Z M-349.12165,-478.050283 L-348.535373,-477.240173 C-349.613708,-476.459781 -350.687168,-475.672645 -351.755689,-474.878815 L-352.352048,-475.681533 C-351.280182,-476.477847 -350.203362,-477.267448 -349.12165,-478.050283 Z M-340.913539,-483.796998 L-340.352899,-482.968938 C-341.454448,-482.223131 -342.551332,-481.470432 -343.643486,-480.71089 L-344.21444,-481.531872 C-343.118863,-482.293794 -342.018541,-483.048852 -340.913539,-483.796998 Z M-332.518942,-489.290564 L-331.984555,-488.445324 C-333.108784,-487.734552 -334.228555,-487.016742 -335.343803,-486.291942 L-335.888733,-487.130423 C-334.769985,-487.857499 -333.6467,-488.577561 -332.518942,-489.290564 Z M-323.962976,-494.513789 L-323.455385,-493.652191 C-324.603833,-492.975609 -325.748012,-492.291818 -326.887857,-491.600861 L-327.406236,-492.456012 C-326.262809,-493.14914 -325.115034,-493.835081 -323.962976,-494.513789 Z M-315.248325,-499.465026 L-314.768066,-498.587898 C-315.934969,-497.948977 -317.097829,-497.30274 -318.256579,-496.649231 L-318.747818,-497.520256 C-317.585421,-498.175822 -316.418901,-498.824093 -315.248325,-499.465026 Z M-306.384798,-504.1384 L-305.93238,-503.246594 C-307.119498,-502.644361 -308.302777,-502.034679 -309.482151,-501.417588 L-309.945759,-502.303628 C-308.762668,-502.922664 -307.575659,-503.534268 -306.384798,-504.1384 Z M-297.393172,-508.523466 L-296.969035,-507.617868 C-298.173512,-507.05375 -299.374365,-506.482079 -300.571528,-505.902893 L-301.007037,-506.803077 C-299.806095,-507.384092 -298.601451,-507.957567 -297.393172,-508.523466 Z M-288.243859,-512.633654 L-287.848536,-511.715112 C-289.070441,-511.189228 -290.288929,-510.655679 -291.503936,-510.114501 L-291.910811,-511.027985 C-290.691965,-511.570872 -289.469626,-512.106108 -288.243859,-512.633654 Z M-278.971267,-516.451847 L-278.605179,-515.521267 C-279.844306,-515.033797 -281.080219,-514.538548 -282.312852,-514.035555 L-282.69067,-514.961435 C-281.454137,-515.466019 -280.214315,-515.962835 -278.971267,-516.451847 Z M-269.592211,-519.971423 L-269.255718,-519.029737 C-270.508494,-518.582082 -271.758267,-518.126574 -273.004975,-517.663244 L-273.353338,-518.600603 C-272.102683,-519.0654 -270.848953,-519.522351 -269.592211,-519.971423 Z M-260.100392,-523.194697 L-259.793867,-522.242835 C-261.061033,-521.834773 -262.325398,-521.418768 -263.5869,-520.994847 L-263.90544,-521.942756 C-262.639942,-522.36802 -261.371572,-522.785343 -260.100392,-523.194697 Z M-250.508794,-526.116687 L-250.232556,-525.155598 C-251.512699,-524.787657 -252.790241,-524.411693 -254.065121,-524.027734 L-254.353499,-524.98525 C-253.074581,-525.370426 -251.792992,-525.747581 -250.508794,-526.116687 Z M-240.825624,-528.734584 L-240.579953,-527.765231 C-241.871066,-527.438014 -243.159779,-527.102715 -244.446033,-526.759359 L-244.703944,-527.725528 C-243.413618,-528.069971 -242.120824,-528.406332 -240.825624,-528.734584 Z M-231.084256,-531.040347 L-230.869311,-530.06372 C-232.170425,-529.777359 -233.469335,-529.482863 -234.765984,-529.180254 L-234.993254,-530.154086 C-233.692504,-530.457652 -232.389485,-530.75308 -231.084256,-531.040347 Z M-221.266325,-533.039239 L-221.082304,-532.056317 C-222.390829,-531.811337 -223.697347,-531.558196 -225.001802,-531.296913 L-225.198201,-532.277438 C-223.889626,-532.539545 -222.578981,-532.793486 -221.266325,-533.039239 Z M-211.3709,-534.730636 L-211.217983,-533.742397 C-212.533668,-533.538812 -213.847537,-533.327036 -215.159533,-533.107088 L-215.324869,-534.093326 C-214.008738,-534.313967 -212.690729,-534.52641 -211.3709,-534.730636 Z M-201.437092,-536.108168 L-201.315314,-535.115611 C-202.637247,-534.95342 -203.957549,-534.783014 -205.276165,-534.604412 L-205.410387,-535.595363 C-204.087627,-535.774527 -202.763178,-535.945468 -201.437092,-536.108168 Z M-191.473794,-537.172505 L-191.383135,-536.176623 C-192.709704,-536.055861 -194.034821,-535.926875 -195.358434,-535.78968 L-195.461534,-536.784351 C-194.133776,-536.921975 -192.804512,-537.051366 -191.473794,-537.172505 Z M-181.487404,-537.924876 L-181.427803,-536.926654 C-182.757455,-536.847263 -184.085832,-536.759652 -185.412882,-536.663835 L-185.484897,-537.661239 C-184.153711,-537.757354 -182.821197,-537.845238 -181.487404,-537.924876 Z M-171.483053,-538.366664 L-171.454403,-537.367074 C-172.786011,-537.328908 -174.116512,-537.282532 -175.445859,-537.227962 L-175.486875,-538.22712 C-174.153407,-538.28186 -172.818784,-538.328379 -171.483053,-538.366664 Z M-162.167702,-538.5 L-162.167702,-537.5 C-163.256249,-537.5 -164.344161,-537.494534 -165.431411,-537.483608 L-165.44146,-538.483557 C-164.35086,-538.494517 -163.259599,-538.5 -162.167702,-538.5 Z" id="Mask-Copy-3" fill="#141C3A" fill-rule="nonzero" transform="translate(-162.167702, -219.004221) rotate(2.000000) translate(162.167702, 219.004221) "></path>
        <path d="M262.218016,-26.5306529 L262.157639,-25.5324773 C260.841526,-25.6120851 259.519442,-25.6520468 258.192547,-25.6520468 L258.192547,-26.6520468 C259.539585,-26.6520468 260.881804,-26.6114765 262.218016,-26.5306529 Z M272.198489,-25.1548736 L271.986166,-24.177674 C270.695971,-24.4580038 269.395447,-24.6989451 268.085946,-24.899992 L268.237697,-25.8884107 C269.567513,-25.6842449 270.888237,-25.4395612 272.198489,-25.1548736 Z M281.858903,-22.2575131 L281.498372,-21.3247659 C280.264675,-21.8016219 279.01582,-22.240524 277.753305,-22.6407299 L278.055477,-23.5939831 C279.33767,-23.1875396 280.605987,-22.7417978 281.858903,-22.2575131 Z M290.980668,-17.8926017 L290.480643,-17.0265907 C289.335007,-17.6880681 288.169223,-18.3142657 286.984852,-18.9041863 L287.430695,-19.7992972 C288.633436,-19.2002271 289.817289,-18.564324 290.980668,-17.8926017 Z M299.266528,-12.223487 L298.640623,-11.4435876 C297.608505,-12.2719095 296.551355,-13.068506 295.470702,-13.8321384 L296.047798,-14.6488147 C297.145099,-13.8734181 298.218526,-13.0645564 299.266528,-12.223487 Z M306.635931,-5.31981494 L305.89852,-4.64437134 C305.004943,-5.61992909 304.081793,-6.56807493 303.130471,-7.48737956 L303.825373,-8.20648376 C304.791304,-7.27306132 305.728631,-6.31035523 306.635931,-5.31981494 Z M312.883739,2.65078203 L312.051671,3.20545447 C311.317585,2.10424695 310.549913,1.02570433 309.749851,-0.0286309838 L310.546462,-0.633123402 C311.358842,0.437444799 312.13834,1.53260145 312.883739,2.65078203 Z M317.776176,11.3587367 L316.869573,11.7807225 C316.310995,10.580661 315.715682,9.39835757 315.084589,8.23536894 L315.963519,7.7584192 C316.60439,8.93942588 317.208932,10.1400588 317.776176,11.3587367 Z M321.315756,20.8111747 L320.354946,21.0883836 C319.987781,19.8157851 319.58169,18.556037 319.137371,17.310617 L320.079227,16.9745988 C320.530462,18.2394049 320.942875,19.518765 321.315756,20.8111747 Z M323.356714,30.6986557 L322.364698,30.8247672 C322.197459,29.5092413 321.990235,28.201962 321.743495,26.9042531 L322.725895,26.7174644 C322.976459,28.0352835 323.186891,29.3627979 323.356714,30.6986557 Z M323.862711,40.8064236 L322.863045,40.7805659 C322.877766,40.211448 322.885093,39.6425215 322.885093,39.0645279 C322.884985,38.3087095 322.871932,37.5544293 322.845988,36.8018993 L323.845394,36.7674443 C323.871732,37.531407 323.884984,38.2971265 323.885092,39.0644564 C323.885092,39.6511239 323.877655,40.2286706 323.862711,40.8064236 Z M322.838354,50.8233376 L321.854236,50.6458204 C322.088715,49.3459203 322.283638,48.0367267 322.438548,46.7195524 L323.431703,46.8363552 C323.274402,48.1738672 323.076464,49.5033083 322.838354,50.8233376 Z M320.289385,60.5750165 L319.344308,60.248167 C319.776282,58.9991272 320.169947,57.7360803 320.524621,56.4604939 L321.488072,56.7283792 C321.127877,58.0238222 320.728083,59.3065329 320.289385,60.5750165 Z M316.257532,69.8414411 L315.374118,69.3728481 C315.994455,68.2033586 316.578794,67.0148434 317.126194,65.8088592 L318.036781,66.2221776 C317.480885,67.4468772 316.887484,68.6538255 316.257532,69.8414411 Z M310.885764,78.3298456 L310.08401,77.7321911 C310.874842,76.6712889 311.633087,75.5864605 312.357559,74.4792507 L313.194346,75.0267792 C312.458704,76.1510601 311.688776,77.2526046 310.885764,78.3298456 Z M304.247051,85.9432043 L303.545771,85.2303184 C304.488975,84.3024697 305.403741,83.3460315 306.288678,82.3624423 L307.032082,83.0312844 C306.133554,84.0299804 305.20474,85.0011067 304.247051,85.9432043 Z M296.512927,92.4649574 L295.928772,91.6533157 C297.002688,90.8803952 298.052831,90.074729 299.077677,89.237568 L299.710304,90.0120247 C298.66969,90.8620659 297.603383,91.6801333 296.512927,92.4649574 Z M287.978343,97.6711648 L287.524132,96.780271 C288.702941,96.179269 289.862859,95.5421651 291.002325,94.8699722 L291.510422,95.7312719 C290.353316,96.4138711 289.175428,97.0608452 287.978343,97.6711648 Z M278.656286,101.548179 L278.344891,100.597898 C279.60337,100.185511 280.847886,99.7345484 282.076935,99.2457667 L282.446476,100.174981 C281.198283,100.671376 279.934376,101.129366 278.656286,101.548179 Z M268.845109,103.94009 L268.684085,102.953139 C269.992324,102.739697 271.291303,102.486355 272.579656,102.193634 L272.801216,103.168781 C271.492824,103.466055 270.173657,103.723334 268.845109,103.94009 Z M258.779092,104.797335 L258.77034,103.797374 C260.097983,103.785754 261.420581,103.734089 262.736961,103.642704 L262.806216,104.640303 C261.469701,104.733086 260.126926,104.785539 258.779092,104.797335 Z M248.713554,104.120659 L248.85667,103.130953 C250.163589,103.319939 251.47879,103.469207 252.801004,103.578343 L252.718743,104.574954 C251.376169,104.464137 250.040673,104.312566 248.713554,104.120659 Z M238.852887,101.90529 L239.147028,100.949528 C240.410571,101.338391 241.687048,101.688475 242.975018,101.999151 L242.74053,102.97127 C241.432495,102.655754 240.136125,102.300214 238.852887,101.90529 Z M229.486202,98.2090359 L229.923916,97.3099217 C231.112847,97.888727 232.319631,98.4309287 233.542724,98.9356474 L233.161269,99.8600347 C231.91915,99.3474651 230.693606,98.796834 229.486202,98.2090359 Z M220.812416,93.1292821 L221.382299,92.3075558 C222.470121,93.0619804 223.580783,93.7829158 224.712726,94.4692284 L224.194266,95.3243303 C223.044834,94.6274138 221.917023,93.8953474 220.812416,93.1292821 Z M212.980823,86.7576924 L213.669356,86.0324872 C214.629032,86.9436343 215.616274,87.8253232 216.629611,88.6762028 L215.986562,89.442028 C214.957651,88.5780714 213.955241,87.682836 212.980823,86.7576924 Z M206.199291,79.2518529 L206.990437,78.6402252 C207.799703,79.6870175 208.640807,80.7089402 209.512452,81.7044913 L208.760077,82.363226 C207.875037,81.3523753 207.021002,80.3147432 206.199291,79.2518529 Z M200.697742,70.8930898 L201.572463,70.4084625 C202.213718,71.5658853 202.890349,72.7032908 203.601287,73.819118 L202.757923,74.3564597 C202.036003,73.2233982 201.348914,72.0684134 200.697742,70.8930898 Z M196.502895,61.717875 L197.441731,61.373511 C197.897763,62.6167874 198.391868,63.8449912 198.923232,65.0565972 L198.007432,65.4582317 C197.467809,64.227794 196.966021,62.9804914 196.502895,61.717875 Z M193.77012,52.0000015 L194.750825,51.8045082 C195.009879,53.1040661 195.308572,54.3933322 195.646335,55.6709055 L194.679551,55.9265023 C194.336535,54.6290579 194.033198,53.319748 193.77012,52.0000015 Z M192.562414,41.9648377 L193.56148,41.9216145 C193.618845,43.2475621 193.716268,44.5675609 193.853383,45.8803919 L192.858792,45.984269 C192.719572,44.651277 192.620656,43.3110508 192.562414,41.9648377 Z M192.889697,31.873874 L193.883819,31.9821436 C193.740887,33.2945312 193.637655,34.6142107 193.574492,35.9399571 L192.575625,35.892368 C192.639754,34.5463441 192.744569,33.2064284 192.889697,31.873874 Z M194.749126,21.9603751 L195.714844,22.219971 C195.371905,23.4957286 195.067976,24.7832981 194.803632,26.0812756 L193.823747,25.8817135 C194.092198,24.563568 194.400853,23.2559781 194.749126,21.9603751 Z M198.110818,12.4551344 L199.025036,12.8603557 C198.488935,14.0698513 197.990029,15.2960702 197.529138,16.5374854 L196.591662,16.1894358 C197.059722,14.9287112 197.566385,13.6834264 198.110818,12.4551344 Z M202.880884,3.59914177 L203.72238,4.13940569 C203.007236,5.25328871 202.326354,6.38888224 201.680811,7.54462334 L200.807767,7.05698195 C201.463293,5.88336872 202.154696,4.73022658 202.880884,3.59914177 Z M208.967622,-4.45128578 L209.716857,-3.78898162 C208.840356,-2.79743476 207.994274,-1.77936317 207.179918,-0.736266171 L206.391687,-1.35164582 C207.218565,-2.41078206 208.077652,-3.4445022 208.967622,-4.45128578 Z M216.219416,-11.4887862 L216.858939,-10.7200143 C215.84176,-9.87384762 214.850533,-8.99675075 213.886732,-8.09006903 L213.201538,-8.8184295 C214.180145,-9.7390399 215.186603,-10.6296137 216.219416,-11.4887862 Z M224.458391,-17.3357711 L224.972829,-16.4782434 C223.837935,-15.7974114 222.724162,-15.0818697 221.633068,-14.3327436 L221.067053,-15.1571384 C222.174986,-15.9178257 223.305959,-16.6444176 224.458391,-17.3357711 Z M233.404161,-21.8118402 L233.781894,-20.8859256 C232.555979,-20.3858058 231.346267,-19.8480921 230.1543,-19.2736589 L229.720164,-20.174506 C230.930653,-20.7578654 232.159175,-21.30394 233.404161,-21.8118402 Z M243.017659,-24.8896226 L243.247898,-23.9164885 C241.958589,-23.611444 240.68064,-23.2669567 239.415487,-22.8836511 L239.125531,-23.840691 C240.410402,-24.2299708 241.708266,-24.5798264 243.017659,-24.8896226 Z M252.996989,-26.4494739 L253.07504,-25.4525245 C251.75233,-25.3489706 250.436517,-25.2052822 249.128866,-25.0218679 L248.989963,-26.0121739 C250.317817,-26.1984219 251.653923,-26.3443263 252.996989,-26.4494739 Z" id="Oval" fill="#141C3A" fill-rule="nonzero" transform="translate(258.223753, 39.072644) rotate(4.000000) translate(-258.223753, -39.072644) "></path>
        <path d="M-237.991699,-102.390854 L-238.004025,-101.39093 C-239.337098,-101.407362 -240.671176,-101.415584 -242.006211,-101.415584 L-242.006211,-102.415584 C-240.667067,-102.415584 -239.328881,-102.407337 -237.991699,-102.390854 Z M-227.981467,-102.112969 L-228.024665,-101.113902 C-229.35364,-101.171365 -230.683782,-101.220635 -232.015041,-101.261698 L-231.984211,-102.261223 C-230.648828,-102.220033 -229.314563,-102.17061 -227.981467,-102.112969 Z M-218.006649,-101.526825 L-218.080786,-100.529577 C-219.403583,-100.627915 -220.727711,-100.718098 -222.053118,-100.80011 L-221.99136,-101.798201 C-220.661824,-101.715934 -219.33357,-101.62547 -218.006649,-101.526825 Z M-207.996626,-100.624933 L-208.10196,-99.6304964 C-209.42614,-99.7707585 -210.751838,-99.902802 -212.079003,-100.02661 L-211.986118,-101.022287 C-210.654801,-100.898091 -209.324952,-100.765635 -207.996626,-100.624933 Z M-198.05167,-99.4137121 L-198.188122,-98.4230655 C-199.511091,-98.6052923 -200.835771,-98.7792641 -202.162108,-98.9449623 L-202.038143,-99.9372489 C-200.70764,-99.7710302 -199.378797,-99.5965117 -198.05167,-99.4137121 Z M-188.174674,-97.8951111 L-188.34213,-96.9092315 C-189.651958,-97.1317112 -190.963666,-97.3460423 -192.277198,-97.5522049 L-192.122143,-98.5401108 C-190.804473,-98.3332987 -189.488631,-98.1182921 -188.174674,-97.8951111 Z M-178.315733,-96.0601003 L-178.51421,-95.0799948 C-179.817726,-95.3439648 -181.123317,-95.5998017 -182.430926,-95.8474836 L-182.244819,-96.8300132 C-180.933081,-96.5815491 -179.623366,-96.3249042 -178.315733,-96.0601003 Z M-168.540267,-93.9195169 L-168.769557,-92.9461588 C-170.064225,-93.2511386 -171.361164,-93.5480267 -172.660314,-93.8367991 L-172.443332,-94.8129747 C-171.140072,-94.5232888 -169.839031,-94.2254616 -168.540267,-93.9195169 Z M-158.824708,-91.468136 L-159.084657,-90.5025135 C-160.367835,-90.8479488 -161.653478,-91.1853607 -162.941525,-91.5147235 L-162.693789,-92.4835511 C-161.401664,-92.1531455 -160.11195,-91.8146652 -158.824708,-91.468136 Z M-149.181067,-88.7075453 L-149.471464,-87.750639 C-150.748707,-88.13825 -152.028639,-88.5178304 -153.311198,-88.8893519 L-153.032964,-89.8498653 C-151.746343,-89.4771669 -150.462356,-89.0963842 -149.181067,-88.7075453 Z M-139.636152,-85.6451111 L-139.956688,-84.6978748 C-141.217105,-85.1243885 -142.480399,-85.5429952 -143.746506,-85.9536647 L-143.437974,-86.9048787 C-142.167857,-86.4929083 -140.900561,-86.0729758 -139.636152,-85.6451111 Z M-130.206404,-82.2872117 L-130.556705,-81.3505747 C-131.805494,-81.8176206 -133.057376,-82.2768119 -134.312289,-82.7281162 L-133.973878,-83.6691146 C-132.714992,-83.2163813 -131.459146,-82.7557362 -130.206404,-82.2872117 Z M-120.8654,-78.6241409 L-121.245166,-77.6990584 C-122.479262,-78.2056814 -123.716665,-78.7045346 -124.957309,-79.1955834 L-124.589286,-80.1254001 C-123.344717,-79.6327978 -122.1034,-79.1323665 -120.8654,-78.6241409 Z M-111.64824,-74.6689215 L-112.057052,-73.7563029 C-113.273611,-74.3012668 -114.493681,-74.8385754 -115.717197,-75.3681922 L-115.319952,-76.2859047 C-114.092569,-75.754614 -112.868643,-75.2156074 -111.64824,-74.6689215 Z M-102.588315,-70.4380313 L-103.025643,-69.5387295 C-104.222063,-70.1205457 -105.422188,-70.6948485 -106.625953,-71.2615992 L-106.199988,-72.1663389 C-104.992423,-71.5977991 -103.78851,-71.0216837 -102.588315,-70.4380313 Z M-93.6718854,-65.9274535 L-94.137241,-65.0423297 C-95.3172296,-65.6627111 -96.5011483,-66.2756683 -97.6889312,-66.8811603 L-97.2347702,-67.7720799 C-96.043243,-67.1646792 -94.8555927,-66.54979 -93.6718854,-65.9274535 Z M-84.8727836,-61.1230568 L-85.3657581,-60.2530131 C-86.5259805,-60.9104054 -87.6903451,-61.5604984 -88.8587859,-62.2032487 L-88.3768051,-63.0794305 C-87.2046862,-62.4346569 -86.036657,-61.7825179 -84.8727836,-61.1230568 Z M-76.2245607,-56.0416284 L-76.744641,-55.187511 C-77.8820344,-55.8800809 -79.0237674,-56.5655086 -80.169774,-57.2437488 L-79.6604579,-58.1043283 C-78.5108492,-57.4239563 -77.3655281,-56.7363745 -76.2245607,-56.0416284 Z M-67.7425817,-50.6925909 L-68.2892087,-49.8552146 C-69.4063451,-50.5844649 -70.5280451,-51.3066917 -71.6542427,-52.0218473 L-71.1181761,-52.866023 C-69.9884437,-52.1486228 -68.8632235,-51.4241294 -67.7425817,-50.6925909 Z M-59.4498729,-45.0923196 L-60.0224189,-44.272447 C-61.1160978,-45.0362015 -62.2145454,-45.7930855 -63.3176964,-46.5430492 L-62.7554781,-47.3700381 C-61.6488693,-46.6177236 -60.546979,-45.8584675 -59.4498729,-45.0923196 Z M-51.3277689,-39.2293036 L-51.9256691,-38.4277331 C-52.9926632,-39.2236158 -54.0646092,-40.0128149 -55.1414427,-40.7952791 L-54.5536088,-41.6042607 C-53.4734042,-40.8193469 -52.3981026,-40.0276773 -51.3277689,-39.2293036 Z M-43.3925286,-33.1150955 L-44.0151729,-32.3325906 C-45.0570953,-33.1616551 -46.1041735,-33.9841965 -47.1563438,-34.8001614 L-46.5435221,-35.5903826 C-45.4880613,-34.7718659 -44.4377088,-33.9467523 -43.3925286,-33.1150955 Z M-35.6419761,-26.7476074 L-36.288767,-25.98494 C-37.3021792,-26.8443786 -38.3209235,-27.6974907 -39.3449374,-28.5442216 L-38.7076954,-29.3148853 C-37.6804817,-28.4655087 -36.6585544,-27.609731 -35.6419761,-26.7476074 Z M-28.1026555,-20.1488668 L-28.7729188,-19.4067435 C-29.7628735,-20.3008405 -30.7583974,-21.1887381 -31.7594284,-22.0703792 L-31.0984906,-22.8208198 C-30.0943337,-21.9364256 -29.0957012,-21.0457556 -28.1026555,-20.1488668 Z M-20.7736007,-13.3190543 L-21.4666715,-12.5981848 C-22.4254032,-13.5199451 -23.3898617,-14.4357236 -24.3599863,-15.3454619 L-23.6759465,-16.0749066 C-22.7027937,-15.1623286 -21.7353249,-14.2436917 -20.7736007,-13.3190543 Z M-13.6484208,-6.25128084 L-14.36366,-5.55240111 C-15.2949351,-6.50547563 -16.2321464,-7.45273139 -17.1752343,-8.39410844 L-16.4687698,-9.10185691 C-15.5227386,-8.15754189 -14.5826023,-7.20732982 -13.6484208,-6.25128084 Z M-6.755931,1.02618475 L-7.49261558,1.70242127 C-8.39258556,0.722003953 -9.29865896,-0.252799063 -10.210778,-1.22192674 L-9.48257761,-1.907291 C-8.56761163,-0.935138465 -7.65871012,0.0427071872 -6.755931,1.02618475 Z M-0.0918358414,8.51729281 L-0.849261132,9.17021465 C-1.71733223,8.16320437 -2.5916714,7.16160377 -3.47222264,6.16547485 L-2.72298734,5.50317094 C-1.83968677,6.50241005 -0.962617555,7.50713807 -0.0918358414,8.51729281 Z M6.32686254,16.2023947 L5.54944979,16.8313855 C4.71133394,15.7955008 3.8667501,14.7648524 3.01575291,13.7395039 L3.78524968,13.1008532 C4.63890544,14.129405 5.48612799,15.1632733 6.32686254,16.2023947 Z M12.4606951,24.0285085 L11.6641678,24.633111 C10.8598138,23.5734232 10.0488476,22.5187568 9.23132169,21.4691759 L10.020242,20.8546803 C10.8403239,21.9075428 11.6538259,22.9655069 12.4606951,24.0285085 Z M18.3918063,32.1011918 L17.5767788,32.6806141 C16.8058893,31.5962647 16.0282274,30.5167347 15.2438437,29.4420887 L16.0515693,28.8525301 C16.8384078,29.9305393 17.6185037,31.0134481 18.3918063,32.1011918 Z M24.0750917,40.3664864 L23.2423173,40.9200989 C22.5050055,39.8109941 21.7607539,38.7065133 21.0096111,37.6067216 L21.8353892,37.0427264 C22.5888854,38.1459639 23.3354692,39.2539057 24.0750917,40.3664864 Z M29.4816175,48.7817259 L28.6319396,49.3090279 C27.9306588,48.1790059 27.222312,47.0533888 26.5069457,45.9322419 L27.3499564,45.394345 C28.0675668,46.5190091 28.7781361,47.6481579 29.4816175,48.7817259 Z M34.6330498,57.3808038 L33.7672444,57.8811847 C33.1013544,56.729 32.4282509,55.5810177 31.7479784,54.4373033 L32.6074397,53.9261024 C33.2898492,55.0734096 33.9650674,56.2249987 34.6330498,57.3808038 Z M39.5067795,66.1277955 L38.6256951,66.6007545 C37.9953659,65.4265024 37.3576706,64.2562557 36.7126519,63.0900803 L37.5877175,62.6060761 C38.2347653,63.7759199 38.8744669,64.9498484 39.5067795,66.1277955 Z M44.106239,75.0293169 L43.2107158,75.4743318 C42.6184778,74.2825448 42.0187721,73.0945426 41.4116389,71.9103905 L42.3014942,71.4541477 C42.91054,72.64203 43.512135,73.8337749 44.106239,75.0293169 Z M48.4237021,84.0720945 L47.5146077,84.4886849 C46.9595142,83.2773453 46.39682,82.06959 45.8265633,80.8654842 L46.7303328,80.4374648 C47.3023881,81.6453684 47.8668573,82.8569334 48.4237021,84.0720945 Z M52.4603334,93.2613604 L51.5385359,93.6490321 C51.0222366,92.4213866 50.4982386,91.1971123 49.9665778,89.9762738 L50.8834111,89.5770037 C51.4167507,90.8016971 51.9424034,92.0298376 52.4603334,93.2613604 Z M56.1928171,102.542923 L55.2592621,102.901357 C54.7818956,101.658038 54.2967342,100.417883 53.8038114,99.1809552 L54.732766,98.8107615 C55.2272467,100.051599 55.7139416,101.295674 56.1928171,102.542923 Z M59.6389775,111.960784 L58.6945591,112.28953 C58.2571638,111.032985 57.8119022,109.779391 57.3588056,108.52881 L58.2989993,108.188169 C58.7535288,109.442705 59.2001987,110.700265 59.6389775,111.960784 Z M62.78851,121.49201 L61.8341594,121.790699 C61.4363126,120.519525 61.0305049,119.251104 60.6167656,117.985497 L61.5672646,117.674769 C61.9823129,118.944381 62.3894045,120.216815 62.78851,121.49201 Z M65.6263837,131.088032 L64.6630838,131.35646 C64.3055644,130.073438 63.9400181,128.792966 63.5664722,127.515104 L64.5263032,127.234525 C64.9010308,128.516429 65.2677334,129.800952 65.6263837,131.088032 Z M68.1691733,140.805772 L67.1978584,141.043569 C66.8811476,139.749919 66.5563535,138.458617 66.2235015,137.169725 L67.1917362,136.919681 C67.5256406,138.212649 67.8514614,139.508033 68.1691733,140.805772 Z M70.3989757,150.579213 L69.4206393,150.786234 C69.1449265,149.483278 68.8610847,148.182474 68.5691371,146.883881 L69.5447848,146.664537 C69.8376544,147.967232 70.1223925,149.272143 70.3989757,150.579213 Z M72.3162151,160.400162 L71.331851,160.576308 C71.0973227,159.265683 70.854634,157.957016 70.6038063,156.650364 L71.5858756,156.461844 C71.8374941,157.772615 72.0809477,159.085407 72.3162151,160.400162 Z M73.9269466,170.297107 L72.9375299,170.442208 C72.7442116,169.124012 72.5426972,167.807588 72.3330061,166.492991 L73.3205221,166.335472 C73.5308727,167.654204 73.7330207,168.974767 73.9269466,170.297107 Z M75.2244434,180.2255 L74.2309685,180.339551 C74.0790638,179.016343 73.9189531,177.694721 73.750654,176.37474 L74.7426236,176.248262 C74.9114502,177.572382 75.0720628,178.898146 75.2244434,180.2255 Z M76.2131603,190.215503 L75.2166045,190.298428 C75.1061454,188.970983 74.9874743,187.644944 74.8606073,186.320365 L75.8560518,186.225022 C75.983315,187.553738 76.1023565,188.883916 76.2131603,190.215503 Z M76.8894738,200.227935 L75.89082,200.279807 C75.8217193,198.949462 75.7444115,197.62035 75.6589111,196.292521 L76.6568444,196.228263 C76.7426106,197.560219 76.8201585,198.89346 76.8894738,200.227935 Z M77.2540147,210.224035 L76.2542361,210.245073 C76.2262119,208.913277 76.1899974,207.582545 76.1456057,206.252927 L77.1450489,206.219559 C77.1895777,207.553287 77.2259041,208.888128 77.2540147,210.224035 Z M77.3106089,220.258925 L76.3106563,220.249183 C76.3209469,219.192902 76.326087,218.136562 76.3260869,217.075658 L76.3250516,216.259097 L77.3250484,216.256575 L77.3260869,217.075651 C77.3260869,218.139808 77.3209311,219.199395 77.3106089,220.258925 Z M77.0582079,230.287114 L76.0590327,230.246508 C76.1131932,228.913822 76.1591304,227.579978 76.1968309,226.245025 L77.1964323,226.273254 C77.1586154,227.612334 77.112536,228.950304 77.0582079,230.287114 Z M76.4974939,240.273908 L75.5000549,240.202386 C75.5951787,238.875796 75.6821156,237.547882 75.7608506,236.218697 L76.7591008,236.277829 C76.680121,237.611146 76.5929137,238.943189 76.4974939,240.273908 Z M75.6243191,250.265249 L74.6295967,250.162646 C74.7665972,248.834441 74.8953458,247.504724 75.0158259,246.173549 L76.0117552,246.263688 C75.8908988,247.59902 75.7617479,248.932892 75.6243191,250.265249 Z M74.4432566,260.19457 L73.4522234,260.060954 C73.6298622,258.743403 73.7993306,257.424171 73.9606107,256.103314 L74.9532385,256.224516 C74.7914527,257.549515 74.6214527,258.872884 74.4432566,260.19457 Z M72.9468631,270.113907 L71.9605192,269.949208 C72.179936,268.635172 72.3911694,267.319262 72.5941996,266.001534 L73.5825371,266.153813 C73.3788684,267.475686 73.1669704,268.795736 72.9468631,270.113907 Z M71.1378957,279.986898 L70.1572348,279.791183 C70.4182431,278.483359 70.6710825,277.173465 70.9157311,275.86156 L71.8987839,276.044883 C71.6533638,277.360924 71.3997271,278.674949 71.1378957,279.986898 Z M69.0231499,289.776805 L68.0491449,289.550279 C68.3512723,288.251208 68.6452714,286.949871 68.9311182,285.646328 L69.9079091,285.860523 C69.6211595,287.168183 69.3262318,288.47363 69.0231499,289.776805 Z M66.6053324,299.477713 L65.6389462,299.220618 C65.9815521,297.932805 66.3160956,296.642533 66.6425511,295.349861 L67.6121107,295.594716 C67.284623,296.891475 66.9490217,298.185828 66.6053324,299.477713 Z M63.8784776,309.112773 L62.9206896,308.825298 C63.3030577,307.551354 63.6774562,306.274759 64.0438575,304.995573 L65.0051987,305.270933 C64.6376383,306.554165 64.2620554,307.834799 63.8784776,309.112773 Z M60.8445916,318.66939 L59.8963715,318.351776 C60.3202271,317.086377 60.7361331,315.818105 61.1440596,314.547022 L62.0962269,314.852599 C61.6870099,316.127704 61.269788,317.399988 60.8445916,318.66939 Z M57.51135,328.121938 L56.5736394,327.774521 C57.0353795,326.528242 57.489317,325.278907 57.9354199,324.026579 L58.8774372,324.362143 C58.4299234,325.618432 57.9745504,326.871718 57.51135,328.121938 Z M53.8858488,337.452985 L52.959562,337.076166 C53.4608049,335.844025 53.9543237,334.608616 54.4400842,333.370002 L55.3710498,333.735109 C54.883754,334.977637 54.3886756,336.216951 53.8858488,337.452985 Z M49.9573851,346.688943 L49.0434659,346.283047 C49.5830792,345.068049 50.1150784,343.849579 50.6394272,342.627701 L51.5583852,343.022057 C51.0323806,344.247793 50.4987019,345.47011 49.9573851,346.688943 Z M45.7432919,355.787842 L44.842625,355.353332 C45.4224025,354.151549 45.9946208,352.946058 46.559241,351.736925 L47.4653214,352.16003 C46.8989204,353.372978 46.3248976,354.58227 45.7432919,355.787842 Z M41.2682511,364.704073 L40.3816393,364.241559 C40.9967916,363.062349 41.6045517,361.879247 42.2048788,360.692317 L43.0972329,361.143653 C42.4950147,362.334322 41.8853406,363.52115 41.2682511,364.704073 Z M36.4895764,373.52326 L35.6179534,373.033083 C36.2702107,371.873251 36.915196,370.709313 37.5528663,369.541335 L38.4305751,370.02053 C37.7908988,371.192182 37.1438849,372.359781 36.4895764,373.52326 Z M31.4489133,382.166528 L30.593079,381.649278 C31.2805938,380.511726 31.9609874,379.369869 32.634215,378.223773 L33.4964602,378.730264 C32.8211178,379.87996 32.1385872,381.025403 31.4489133,382.166528 Z M26.1256174,390.669979 L25.2864346,390.12613 C26.0107746,389.008442 26.7281074,387.886225 27.438386,386.759543 L28.2843187,387.292833 C27.571812,388.423049 26.8522291,389.548787 26.1256174,390.669979 Z M20.5506427,398.984517 L19.7288763,398.414693 C20.4878915,397.320087 21.2400481,396.220745 21.9852969,395.116731 L22.8141319,395.676224 C22.0665482,396.783697 21.3120353,397.886483 20.5506427,398.984517 Z M14.7125515,407.128867 L13.9090024,406.533629 C14.7003427,405.46535 15.4850072,404.392149 16.262945,403.31409 L17.0738599,403.899254 C16.2934875,404.980687 15.5063677,406.057246 14.7125515,407.128867 Z M8.62282945,415.086783 L7.83826375,414.466737 C8.66300448,413.423163 9.48122559,412.374461 10.2928741,411.320694 L11.0851133,411.930905 C10.2709272,412.987967 9.45014825,414.039947 8.62282945,415.086783 Z M2.26856004,422.873335 L1.50378607,422.229037 C2.36281621,421.209379 3.21546597,420.184369 4.06168021,419.154069 L4.83444447,419.788763 C3.98558667,420.822281 3.13027342,421.850493 2.26856004,422.873335 Z M-4.29571812,430.42324 L-5.04005867,429.75544 C-4.1497718,428.763112 -3.2656892,427.765237 -2.38786773,426.761877 L-1.63524681,427.420331 C-2.51580903,428.426824 -3.40265181,429.427814 -4.29571812,430.42324 Z M-11.1023507,437.776111 L-11.8255113,437.085431 C-10.9072641,436.124001 -9.99500737,435.156863 -9.08879924,434.184077 L-8.35709692,434.865701 C-9.26613349,435.841523 -10.1812374,436.81168 -11.1023507,437.776111 Z M-18.1474167,444.925573 L-18.8486585,444.21265 C-17.8987716,443.278327 -16.9547161,442.338084 -16.0165519,441.391978 L-15.3064712,442.096098 C-16.2475634,443.045157 -17.1945652,443.988335 -18.1474167,444.925573 Z M-25.4026514,451.84265 L-26.0813178,451.108204 C-25.1037344,450.204866 -24.1317817,449.295436 -23.1655205,448.379972 L-22.4777523,449.105902 C-23.4470296,450.024224 -24.4220163,450.936493 -25.4026514,451.84265 Z M-32.8720149,458.5317 L-33.5274312,457.776432 C-32.5228704,456.904681 -31.5237392,456.026668 -30.5300997,455.14245 L-29.865323,455.889492 C-30.8620654,456.776471 -31.8643168,457.657226 -32.8720149,458.5317 Z M-40.5359438,464.9757 L-41.16749,464.200362 C-40.1336341,463.358242 -39.1050383,462.509656 -38.0817659,461.654657 L-37.4405768,462.42204 C-38.4670467,463.27971 -39.4988568,464.130949 -40.5359438,464.9757 Z M-48.3648598,471.152808 L-48.9720021,470.358215 C-47.9139716,469.549783 -46.8609874,468.734735 -45.8131136,467.913126 L-45.1960911,468.700071 C-46.247242,469.52425 -47.3035197,470.341847 -48.3648598,471.152808 Z M-56.3940209,477.092023 L-56.9761096,476.278898 C-55.8928478,475.503427 -54.8144355,474.721175 -53.7409377,473.932191 L-53.1487193,474.737969 C-54.225578,475.529422 -55.3073668,476.314124 -56.3940209,477.092023 Z M-64.6302041,482.795273 L-65.1865628,481.964331 C-64.0811875,481.224225 -62.9804434,480.477202 -61.8843954,479.723313 L-61.3176844,480.547229 C-62.417168,481.303482 -63.521363,482.052846 -64.6302041,482.795273 Z M-73.0359073,488.234683 L-73.5659718,487.386725 C-72.4359194,486.680321 -71.3103084,485.966828 -70.1892043,485.246292 L-69.6485393,486.08753 C-70.7731623,486.810327 -71.902307,487.526061 -73.0359073,488.234683 Z M-81.6077026,493.40787 L-82.1109154,492.543707 C-80.9610204,491.874109 -79.8153457,491.197303 -78.6739569,490.513335 L-78.1599391,491.371114 C-79.3049157,492.057233 -80.4541921,492.736166 -81.6077026,493.40787 Z M-90.3546759,498.31874 L-90.8304484,497.439171 C-89.6606527,496.80641 -88.4948643,496.166317 -87.3331488,495.518934 L-86.8463655,496.392457 C-88.011738,497.041878 -89.1811967,497.683986 -90.3546759,498.31874 Z M-99.2483144,502.949929 L-99.696146,502.055811 C-98.5051043,501.459261 -97.317873,500.855231 -96.1345179,500.243761 L-95.6754568,501.132166 C-96.8625424,501.745563 -98.0535168,502.351497 -99.2483144,502.949929 Z M-108.267817,507.291238 L-108.687274,506.383462 C-107.478267,505.824816 -106.27286,505.258577 -105.071118,504.684783 L-104.640245,505.587196 C-105.84578,506.1628 -107.054993,506.730827 -108.267817,507.291238 Z M-117.442612,511.355963 L-117.833169,510.435384 C-116.606633,509.915025 -115.38349,509.386962 -114.163806,508.851228 L-113.761651,509.7668 C-114.98519,510.304226 -116.212199,510.83396 -117.442612,511.355963 Z M-126.731282,515.124619 L-127.092548,514.192156 C-125.851511,513.711338 -124.61365,513.222734 -123.379032,512.726376 L-123.006016,513.654201 C-124.24454,514.152129 -125.486317,514.64228 -126.731282,515.124619 Z M-136.137251,518.598676 L-136.468833,517.65525 C-135.212931,517.213843 -133.960001,516.764558 -132.710107,516.307426 L-132.366623,517.246585 C-133.620475,517.705164 -134.877372,518.155871 -136.137251,518.598676 Z M-145.618018,521.763681 L-145.919666,520.810261 C-144.65081,520.408813 -143.38472,519.999414 -142.121458,519.582092 L-141.807778,520.531621 C-143.075042,520.950265 -144.345142,521.360961 -145.618018,521.763681 Z M-155.228264,524.637604 L-155.499567,523.67511 C-154.218518,523.314015 -152.940034,522.944899 -151.664174,522.567789 L-151.380723,523.526775 C-152.660624,523.90508 -153.943158,524.275366 -155.228264,524.637604 Z M-164.934715,527.208264 L-165.17538,526.237656 C-163.882297,525.917033 -162.591584,525.588316 -161.303298,525.251528 L-161.050375,526.219015 C-162.342739,526.556868 -163.63754,526.886627 -164.934715,527.208264 Z M-174.691484,529.464529 L-174.90138,528.486805 C-173.599541,528.207329 -172.299871,527.919719 -171.002428,527.623999 L-170.780202,528.598994 C-172.081748,528.895649 -173.385528,529.184169 -174.691484,529.464529 Z M-184.530381,531.414671 L-184.709296,530.430806 C-183.399139,530.192555 -182.090958,529.946132 -180.784809,529.691558 L-180.593504,530.673088 C-181.903777,530.928466 -183.216089,531.175668 -184.530381,531.414671 Z M-194.411521,533.051302 L-194.559389,532.062295 C-193.242328,531.865378 -191.927054,531.660262 -190.613622,531.446966 L-190.453326,532.434036 C-191.770896,532.648003 -193.090313,532.853765 -194.411521,533.051302 Z M-204.359007,534.378964 L-204.475711,533.385797 C-203.153218,533.230395 -201.832325,533.06678 -200.513089,532.894968 L-200.383943,533.886594 C-201.707324,534.058945 -203.032363,534.223074 -204.359007,534.378964 Z M-214.337653,535.393321 L-214.423209,534.396988 C-213.096044,534.283023 -211.770302,534.160834 -210.446034,534.030436 L-210.34804,535.025623 C-211.676451,535.156429 -213.00634,535.279 -214.337653,535.393321 Z M-224.337345,536.09517 L-224.391827,535.096655 C-223.061931,535.024092 -221.733282,534.943311 -220.405931,534.854327 L-220.339043,535.852087 C-221.670528,535.941348 -223.003312,536.022381 -224.337345,536.09517 Z M-234.355297,536.486068 L-234.378816,535.486345 C-233.046931,535.455012 -231.716124,535.415473 -230.386445,535.36774 L-230.35057,536.367096 C-231.684367,536.414977 -233.019292,536.454638 -234.355297,536.486068 Z M-244.377639,536.567348 L-244.370363,535.567374 L-243.18854,535.573824 L-242.006211,535.575974 C-241.464458,535.575974 -240.922862,535.57462 -240.381426,535.571913 L-240.376426,536.5719 L-242.006211,536.575974 C-242.797023,536.575974 -243.587503,536.573098 -244.377639,536.567348 Z M-254.381555,536.340459 L-254.343456,535.341185 C-253.018994,535.391681 -251.693401,535.434046 -250.366726,535.468266 L-250.392511,536.467934 C-251.723291,536.433608 -253.052989,536.391112 -254.381555,536.340459 Z M-264.401325,535.802458 L-264.332176,534.804852 C-263.003278,534.896966 -261.673067,534.980854 -260.341593,535.056503 L-260.398318,536.054893 C-261.733935,535.979009 -263.068288,535.894859 -264.401325,535.802458 Z M-274.364878,534.95587 L-274.264698,533.9609 C-272.943948,534.093882 -271.621717,534.218696 -270.298058,534.335325 L-270.385829,535.331465 C-271.713627,535.214472 -273.039994,535.089268 -274.364878,534.95587 Z M-284.32629,533.794931 L-284.194959,532.803593 C-282.874914,532.97847 -281.553197,533.145138 -280.229863,533.303577 L-280.348742,534.296486 C-281.67623,534.137549 -283.002097,533.970358 -284.32629,533.794931 Z M-294.248455,532.32131 L-294.085994,531.334595 C-292.769364,531.551377 -291.450868,531.759935 -290.130562,531.960249 L-290.280564,532.948935 C-291.605027,532.74799 -292.927677,532.538775 -294.248455,532.32131 Z M-304.097632,530.540037 L-303.90419,529.558925 C-302.602647,529.815545 -301.29907,530.064067 -299.993516,530.304469 L-300.17461,531.287935 C-301.484285,531.046774 -302.791978,530.797467 -304.097632,530.540037 Z M-313.892158,528.447837 L-313.667851,527.473318 C-312.374663,527.770974 -311.079247,528.060568 -309.781662,528.342077 L-309.993678,529.319343 C-311.295367,529.036944 -312.59488,528.746434 -313.892158,528.447837 Z M-323.623427,526.045352 L-323.368416,525.078414 C-322.07772,525.418809 -320.78457,525.751099 -319.489027,526.075259 L-319.731756,527.045353 C-321.0314,526.720167 -322.328644,526.386825 -323.623427,526.045352 Z M-333.263128,523.339428 L-332.977683,522.381032 C-331.700764,522.761345 -330.421199,523.133645 -329.139049,523.497905 L-329.412335,524.459838 C-330.698546,524.094425 -331.982164,523.720945 -333.263128,523.339428 Z M-342.801426,520.333815 L-342.485862,519.384911 C-341.225148,519.804169 -339.9616,520.215531 -338.69528,520.618967 L-338.998837,521.571781 C-340.269168,521.167066 -341.536718,520.754401 -342.801426,520.333815 Z M-352.283045,517.012747 L-351.93755,516.074326 C-350.688103,516.534331 -349.435604,516.986489 -348.180116,517.430767 L-348.513714,518.373483 C-349.773177,517.927797 -351.029642,517.474208 -352.283045,517.012747 Z M-361.620201,513.406691 L-361.245249,512.479647 C-360.00984,512.97932 -358.771165,513.471224 -357.52929,513.955324 L-357.892484,514.887037 C-359.138289,514.401405 -360.380883,513.907945 -361.620201,513.406691 Z M-370.862769,509.497217 L-370.458686,508.582495 C-369.240324,509.120712 -368.018491,509.651269 -366.793252,510.17413 L-367.185749,511.093883 C-368.414861,510.56937 -369.640556,510.037135 -370.862769,509.497217 Z M-379.948935,505.3111 L-379.516248,504.409556 C-378.317551,504.984859 -377.115188,505.55264 -375.909222,506.112858 L-376.330523,507.019779 C-377.540296,506.457792 -378.746455,505.888219 -379.948935,505.3111 Z M-388.892582,500.844372 L-388.431775,499.956872 C-387.249004,500.570989 -386.062339,501.177667 -384.871847,501.776864 L-385.321431,502.670102 C-386.515677,502.069015 -387.706082,501.460425 -388.892582,500.844372 Z M-397.719893,496.083101 L-397.231372,495.210549 C-396.067878,495.861961 -394.900277,496.506053 -393.728634,497.142782 L-394.206128,498.021417 C-395.38146,497.382683 -396.552737,496.736563 -397.719893,496.083101 Z M-406.371762,491.05927 L-405.856118,490.202468 C-404.71481,490.889334 -403.569196,491.569031 -402.419339,492.241513 L-402.92418,493.104725 C-404.077652,492.430129 -405.226868,491.748295 -406.371762,491.05927 Z M-414.868037,485.762841 L-414.325795,484.922619 C-413.209633,485.64294 -412.088981,486.356274 -410.963903,487.062572 L-411.495592,487.909511 C-412.624202,487.200996 -413.748372,486.485423 -414.868037,485.762841 Z M-423.193081,480.203762 L-422.624813,479.380918 C-421.531349,480.13608 -420.433187,480.884399 -419.330391,481.625824 L-419.888332,482.455705 C-420.994585,481.711955 -422.09619,480.961291 -423.193081,480.203762 Z M-431.363072,474.370205 L-430.769295,473.565575 C-429.696969,474.356899 -428.619712,475.141497 -427.537589,475.919318 L-428.121248,476.731317 C-429.206759,475.951061 -430.287388,475.164006 -431.363072,474.370205 Z M-439.331689,468.295143 L-438.71306,467.509459 C-437.66534,468.334411 -436.612481,469.152792 -435.554548,469.964549 L-436.163299,470.757911 C-437.22454,469.943614 -438.280692,469.122674 -439.331689,468.295143 Z M-447.116544,461.965892 L-446.473658,461.19993 C-445.454013,462.055736 -444.429049,462.905164 -443.398828,463.74816 L-444.032106,464.522085 C-445.065546,463.676454 -446.093713,462.824372 -447.116544,461.965892 Z M-454.700973,455.395464 L-454.034472,454.64996 C-453.041988,455.537267 -452.043987,456.418371 -451.040533,457.293215 L-451.697685,458.046974 C-452.704273,457.169398 -453.705389,456.285542 -454.700973,455.395464 Z M-462.056274,448.61061 L-461.366882,447.886221 C-460.40102,448.805418 -459.429434,449.718574 -458.452183,450.625628 L-459.132476,451.358568 C-460.112777,450.448682 -461.087397,449.532677 -462.056274,448.61061 Z M-469.207978,441.588696 L-468.496336,440.886154 C-467.560956,441.833651 -466.61968,442.775308 -465.672568,443.711066 L-466.375397,444.422424 C-467.325466,443.483746 -468.269679,442.53915 -469.207978,441.588696 Z M-476.139141,434.345188 L-475.405933,433.665183 C-474.501199,434.640703 -473.590394,435.610581 -472.673576,436.574755 L-473.398256,437.263841 C-474.317935,436.296657 -475.231583,435.323753 -476.139141,434.345188 Z M-482.842792,426.88694 L-482.088722,426.230146 C-481.215241,427.232998 -480.335516,428.230404 -479.449605,429.222303 L-480.195435,429.888439 C-481.084112,428.893443 -481.966584,427.892923 -482.842792,426.88694 Z M-489.29351,419.243738 L-488.519355,418.610743 C-487.677913,419.639828 -486.830063,420.663669 -485.975857,421.682203 L-486.742067,422.324793 C-487.598941,421.303078 -488.44944,420.276038 -489.29351,419.243738 Z M-495.494543,411.414385 L-494.701066,410.805785 C-493.890252,411.862902 -493.072833,412.914951 -492.248863,413.961867 L-493.034673,414.580335 C-493.861219,413.530146 -494.681193,412.474808 -495.494543,411.414385 Z M-501.442777,403.404235 L-500.63075,402.820615 C-499.854887,403.900124 -499.072287,404.974787 -498.283003,406.04454 L-499.087683,406.638248 C-499.879437,405.565148 -500.664486,404.487122 -501.442777,403.404235 Z M-507.169669,395.166879 L-506.339762,394.608977 C-505.59667,395.714364 -504.846661,396.815092 -504.089786,397.911096 L-504.912643,398.479343 C-505.67189,397.379906 -506.424249,396.275729 -507.169669,395.166879 Z M-512.620411,386.778327 L-511.773466,386.246647 C-511.065659,387.374154 -510.350796,388.497213 -509.628923,389.615759 L-510.469141,390.158008 C-511.193278,389.035954 -511.910383,387.909372 -512.620411,386.778327 Z M-517.826617,378.188137 L-516.963376,377.683343 C-516.292131,378.831231 -515.613705,379.97489 -514.928144,381.114253 L-515.784991,381.629823 C-516.472706,380.486881 -517.153263,379.339631 -517.826617,378.188137 Z M-522.741313,369.472852 L-521.862669,368.995376 C-521.227586,370.164043 -520.585188,371.328687 -519.935516,372.489241 L-520.808098,372.977708 C-521.459813,371.813503 -522.104232,370.645196 -522.741313,369.472852 Z M-527.387558,360.592877 L-526.494331,360.143271 C-525.896342,361.331286 -525.290915,362.515487 -524.678088,363.695809 L-525.565594,364.156605 C-526.180351,362.972566 -526.787686,361.784635 -527.387558,360.592877 Z M-531.748915,351.577784 L-530.841982,351.156509 C-530.281323,352.363514 -529.713099,353.566909 -529.137349,354.766629 L-530.038906,355.199289 C-530.616472,353.995786 -531.186487,352.788596 -531.748915,351.577784 Z M-535.834154,342.406597 L-534.914367,342.014179 C-534.391451,343.23984 -533.860844,344.462092 -533.322582,345.680871 L-534.237343,346.084866 C-534.777304,344.86224 -535.309587,343.636128 -535.834154,342.406597 Z M-539.623691,333.120712 L-538.691968,332.757541 C-538.208091,333.998938 -537.716427,335.237135 -537.21701,336.472069 L-538.144071,336.846979 C-538.645066,335.608143 -539.138284,334.366033 -539.623691,333.120712 Z M-543.106967,323.750688 L-542.164265,323.417052 C-541.719811,324.672873 -541.267484,325.925702 -540.807317,327.175477 L-541.745727,327.520999 C-542.20735,326.267273 -542.661107,325.010481 -543.106967,323.750688 Z M-546.301905,314.248344 L-545.349129,313.944672 C-544.944911,315.212914 -544.532755,316.478373 -544.11269,317.740988 L-545.061556,318.05667 C-545.482949,316.790061 -545.896409,315.520598 -546.301905,314.248344 Z M-549.197045,304.642078 L-548.235138,304.368701 C-547.871137,305.649476 -547.499125,306.927671 -547.119128,308.203224 L-548.077505,308.488731 C-548.458703,307.209143 -548.831893,305.926905 -549.197045,304.642078 Z M-551.780323,294.975208 L-550.810272,294.732304 C-550.486985,296.023374 -550.155634,297.312065 -549.816245,298.598318 L-550.783153,298.853444 C-551.123615,297.563125 -551.456013,296.270359 -551.780323,294.975208 Z M-554.067142,285.187539 L-553.089889,284.975462 C-552.80744,286.276992 -552.516868,287.576337 -552.218198,288.87344 L-553.192698,289.097828 C-553.492312,287.796628 -553.783801,286.493179 -554.067142,285.187539 Z M-556.034005,275.382496 L-555.050566,275.201254 C-554.809153,276.511193 -554.559577,277.81914 -554.301861,279.125039 L-555.282939,279.318652 C-555.541467,278.008636 -555.79183,276.696564 -556.034005,275.382496 Z M-557.699097,265.473046 L-556.710433,265.322901 C-556.510404,266.640039 -556.302182,267.955376 -556.085788,269.268854 L-557.072487,269.431411 C-557.289562,268.1138 -557.498438,266.794327 -557.699097,265.473046 Z M-559.045999,255.560797 L-558.053121,255.441668 C-557.894489,256.763778 -557.727658,258.084272 -557.552644,259.403097 L-558.543953,259.534648 C-558.719516,258.211686 -558.886871,256.887051 -559.045999,255.560797 Z M-560.084991,245.583726 L-559.088872,245.495703 C-558.971603,246.8228 -558.846119,248.148459 -558.712436,249.47263 L-559.707379,249.573075 C-559.841479,248.244766 -559.967355,246.914966 -560.084991,245.583726 Z M-560.811781,235.585618 L-559.813406,235.52863 C-559.737489,236.858619 -559.653363,238.187347 -559.561042,239.514762 L-560.558632,239.584144 C-560.65124,238.252599 -560.735628,236.91974 -560.811781,235.585618 Z M-561.227948,225.570187 L-560.228288,225.544122 C-560.193566,226.875803 -560.15065,228.206392 -560.099553,229.535841 L-561.098815,229.574247 C-561.15007,228.240686 -561.193119,226.905983 -561.227948,225.570187 Z M-561.334907,215.546393 L-560.334918,215.551091 L-560.338509,217.092301 C-560.338479,217.909236 -560.335374,218.725814 -560.329199,219.542023 L-561.32917,219.549589 L-561.336151,218.321234 L-561.338509,217.09232 C-561.338509,216.570318 -561.337315,216.059031 -561.334907,215.546393 Z M-561.133524,205.52464 L-560.134155,205.560151 C-560.181349,206.888296 -560.220381,208.217562 -560.251238,209.547903 L-561.250969,209.524714 C-561.220016,208.190265 -561.180864,206.856891 -561.133524,205.52464 Z M-560.623116,195.523571 L-559.625326,195.590014 C-559.713392,196.912521 -559.793328,198.236313 -559.865119,199.561341 L-560.863655,199.507239 C-560.79164,198.178096 -560.711456,196.85019 -560.623116,195.523571 Z M-559.799867,185.516978 L-558.804636,185.614526 C-558.93447,186.939151 -559.056104,188.265249 -559.169523,189.592767 L-560.165893,189.507641 C-560.052121,188.175979 -559.930106,186.845741 -559.799867,185.516978 Z M-558.668307,175.573682 L-557.676609,175.702269 C-557.848302,177.02642 -558.011752,178.352236 -558.16694,179.679662 L-559.160175,179.563544 C-559.004501,178.231959 -558.840539,176.901986 -558.668307,175.573682 Z M-557.225433,165.666033 L-556.238254,165.825651 C-556.450318,167.137191 -556.654239,168.450562 -556.849999,169.765712 L-557.839102,169.618484 C-557.642727,168.2992 -557.438164,166.981698 -557.225433,165.666033 Z M-555.471528,155.805184 L-554.489857,155.995768 C-554.7434,157.301727 -554.988808,158.609714 -555.22606,159.919671 L-556.210051,159.741456 C-555.972052,158.427371 -555.72587,157.115261 -555.471528,155.805184 Z M-553.406133,145.995926 L-552.430961,146.217374 C-552.725652,147.515077 -553.012244,148.815002 -553.290712,150.117092 L-554.268599,149.907958 C-553.989251,148.601757 -553.701755,147.297727 -553.406133,145.995926 Z M-551.036899,136.274805 L-550.069192,136.526881 C-550.404422,137.813814 -550.731613,139.103165 -551.050741,140.394872 L-552.021552,140.155025 C-551.701415,138.859234 -551.373189,137.565807 -551.036899,136.274805 Z M-548.358001,126.618601 L-547.39874,126.901122 C-547.773824,128.174668 -548.140958,129.450823 -548.500113,130.729526 L-549.462858,130.459116 C-549.102567,129.176368 -548.734272,127.896176 -548.358001,126.618601 Z M-545.371374,117.039816 L-544.421532,117.352546 C-544.838198,118.618069 -545.246927,119.886423 -545.64769,121.157546 L-546.601411,120.856854 C-546.19938,119.58171 -545.789358,118.309343 -545.371374,117.039816 Z M-542.095004,107.592697 L-541.155492,107.935215 C-541.610118,109.182233 -542.056947,110.432265 -542.495949,111.685249 L-543.4397,111.354591 C-542.99931,110.097645 -542.551067,108.843659 -542.095004,107.592697 Z M-538.504798,98.2093175 L-537.576601,98.5814059 C-538.070968,99.8146344 -538.557613,101.05109 -539.036504,102.290708 L-539.969315,101.930344 C-539.488911,100.686807 -539.000727,99.4464435 -538.504798,98.2093175 Z M-534.633356,88.9759782 L-533.717348,89.3771399 C-534.250211,90.593871 -534.775455,91.8140347 -535.293045,93.0375668 L-536.214028,92.6479638 C-535.694804,91.4205677 -535.167901,90.1965511 -534.633356,88.9759782 Z M-530.464157,79.8507507 L-529.561264,80.2806145 C-530.134502,81.4846553 -530.700172,82.6923659 -531.258234,83.9036808 L-532.16648,83.4852447 C-531.606658,82.2701086 -531.039204,81.0585887 -530.464157,79.8507507 Z M-526.032979,70.9075066 L-525.144005,71.3654655 C-525.752881,72.5473925 -526.354349,73.7331756 -526.948371,74.9227495 L-527.843028,74.4759965 C-527.247135,73.2826748 -526.643772,72.0931563 -526.032979,70.9075066 Z M-521.311976,62.0862288 L-520.437814,62.5718628 C-521.084026,63.7350725 -521.722945,64.9023536 -522.354527,66.0736406 L-523.234719,65.5990227 C-522.60115,64.4240505 -521.960221,63.2530973 -521.311976,62.0862288 Z M-516.29904,53.387919 L-515.440583,53.9008049 C-516.122412,55.0420357 -516.797096,56.1875387 -517.464589,57.3372488 L-518.329404,56.8351586 C-517.659814,55.6818362 -516.983011,54.5327344 -516.29904,53.387919 Z M-511.033136,44.8794308 L-510.191155,45.4189377 C-510.910112,46.5409774 -511.62203,47.667518 -512.326862,48.7984939 L-513.175543,48.2695897 C-512.4685,47.1350652 -511.754349,46.0049902 -511.033136,44.8794308 Z M-505.482512,36.5090283 L-504.657875,37.0746902 C-505.41191,38.1739436 -506.159052,39.2779079 -506.899251,40.3865176 L-507.730912,39.8312327 C-506.988393,38.7191489 -506.23891,37.6117256 -505.482512,36.5090283 Z M-499.701414,28.3567784 L-498.89482,28.9478834 C-499.681566,30.0214412 -500.461595,31.0998993 -501.234856,32.183193 L-502.048775,31.6022135 C-501.273093,30.5155291 -500.490623,29.4336958 -499.701414,28.3567784 Z M-493.650912,20.3655433 L-492.863181,20.9815632 C-493.68377,22.0308843 -494.497792,23.0853162 -495.305196,24.1447946 L-496.100562,23.538665 C-495.290633,22.4758737 -494.474066,21.418145 -493.650912,20.3655433 Z M-487.345837,12.5576634 L-486.577747,13.1980056 C-487.429432,14.2196008 -488.274739,15.2464902 -489.113614,16.2786109 L-489.889626,15.6478929 C-489.04813,14.6125475 -488.200182,13.5824499 -487.345837,12.5576634 Z M-480.79913,4.94979485 L-480.051421,5.61382107 C-480.934873,6.60860959 -481.812118,7.60889168 -482.683099,8.61460531 L-483.439025,7.95994848 C-482.565325,6.95109455 -481.685341,5.94768927 -480.79913,4.94979485 Z M-474.037464,-2.42927742 L-473.310796,-1.74228905 C-474.22643,-0.773768499 -475.136013,0.200457872 -476.039488,1.18032885 L-476.774673,0.502462654 C-475.868378,-0.4804668 -474.955956,-1.45773396 -474.037464,-2.42927742 Z M-467.038336,-9.60513849 L-466.333444,-8.89582419 C-467.277698,-7.95745694 -468.2161,-7.01320914 -469.14859,-6.0631405 L-469.862268,-6.76361421 C-468.926868,-7.71664794 -467.985537,-8.66384265 -467.038336,-9.60513849 Z M-459.817138,-16.560839 L-459.134714,-15.8298822 C-460.10734,-14.9218355 -461.074307,-14.0077298 -462.035556,-13.0876232 L-462.727034,-13.8100203 C-461.762785,-14.7329989 -460.7928,-15.6499579 -459.817138,-16.560839 Z M-452.380714,-23.289397 L-451.721436,-22.5374976 C-452.721773,-21.660386 -453.716645,-20.7770383 -454.705991,-19.887511 L-455.374588,-20.6311354 C-454.382153,-21.5234403 -453.384175,-22.4095463 -452.380714,-23.289397 Z M-444.758778,-29.7653039 L-444.123237,-28.993237 C-445.150219,-28.1478579 -446.171933,-27.2960716 -447.188318,-26.4379332 L-447.833436,-27.2020158 C-446.813876,-28.0628354 -445.788969,-28.9172831 -444.758778,-29.7653039 Z M-436.960182,-35.9840805 L-436.348947,-35.1926318 C-437.401032,-34.3801068 -438.448055,-33.5610161 -439.489951,-32.7354129 L-440.111009,-33.5191773 C-439.065855,-34.3473622 -438.015558,-35.1690143 -436.960182,-35.9840805 Z M-428.96016,-41.9658678 L-428.373882,-41.1557574 C-429.452218,-40.3753655 -430.525678,-39.588229 -431.594199,-38.794399 L-432.190557,-39.5971171 C-431.118692,-40.3934319 -430.041871,-41.1830326 -428.96016,-41.9658678 Z M-420.752048,-47.7125821 L-420.191408,-46.8845227 C-421.292957,-46.1387152 -422.389841,-45.3860161 -423.481995,-44.6264745 L-424.052949,-45.4474564 C-422.957372,-46.2093783 -421.85705,-46.9644367 -420.752048,-47.7125821 Z M-412.357452,-53.2061487 L-411.823065,-52.3609086 C-412.947293,-51.6501368 -414.067065,-50.9323269 -415.182313,-50.2075262 L-415.727243,-51.0460078 C-414.608495,-51.773083 -413.485209,-52.4931458 -412.357452,-53.2061487 Z M-403.801485,-58.4293739 L-403.293894,-57.5677757 C-404.442342,-56.8911939 -405.586521,-56.2074021 -406.726366,-55.5164458 L-407.244745,-56.3715966 C-406.101319,-57.0647244 -404.953543,-57.7506653 -403.801485,-58.4293739 Z M-395.086834,-63.3806099 L-394.606576,-62.5034829 C-395.773479,-61.8645618 -396.936338,-61.2183249 -398.095088,-60.5648152 L-398.586327,-61.4358401 C-397.42393,-62.0914064 -396.257411,-62.7396774 -395.086834,-63.3806099 Z M-386.223308,-68.053984 L-385.770889,-67.1621783 C-386.958007,-66.5599458 -388.141286,-65.9502635 -389.32066,-65.3331724 L-389.784268,-66.2192127 C-388.601177,-66.8382487 -387.414168,-67.4498528 -386.223308,-68.053984 Z M-377.231681,-72.43905 L-376.807544,-71.533452 C-378.012021,-70.9693347 -379.212874,-70.3976635 -380.410037,-69.8184769 L-380.845546,-70.7186615 C-379.644604,-71.2996761 -378.439961,-71.8731518 -377.231681,-72.43905 Z M-368.082368,-76.5492386 L-367.687045,-75.6306963 C-368.90895,-75.1048121 -370.127438,-74.5712631 -371.342445,-74.0300858 L-371.749321,-74.9435695 C-370.530474,-75.4864569 -369.308135,-76.0216921 -368.082368,-76.5492386 Z M-358.809776,-80.3674315 L-358.443688,-79.4368514 C-359.682815,-78.9493815 -360.918728,-78.4541327 -362.151361,-77.9511394 L-362.52918,-78.8770192 C-361.292647,-79.3816037 -360.052824,-79.8784193 -358.809776,-80.3674315 Z M-349.43072,-83.887007 L-349.094228,-82.9453209 C-350.347003,-82.4976667 -351.596776,-82.0421584 -352.843484,-81.5788279 L-353.191848,-82.5161875 C-351.941193,-82.9809849 -350.687462,-83.4379354 -349.43072,-83.887007 Z M-339.938901,-87.1102816 L-339.632376,-86.158419 C-340.899542,-85.7503578 -342.163907,-85.3343519 -343.425409,-84.9104313 L-343.743949,-85.8583409 C-342.478451,-86.2836042 -341.210081,-86.7009278 -339.938901,-87.1102816 Z M-330.347303,-90.0322714 L-330.071065,-89.0711821 C-331.351208,-88.7032413 -332.62875,-88.3272773 -333.903631,-87.943318 L-334.192009,-88.9008346 C-332.91309,-89.2860102 -331.631501,-89.6631651 -330.347303,-90.0322714 Z M-320.664133,-92.6501685 L-320.418463,-91.6808151 C-321.709575,-91.3535986 -322.998289,-91.0182996 -324.284542,-90.6749439 L-324.542454,-91.6411125 C-323.252127,-91.9855553 -321.959334,-92.321916 -320.664133,-92.6501685 Z M-310.922765,-94.9559311 L-310.70782,-93.9793049 C-312.008934,-93.6929439 -313.307845,-93.3984473 -314.604493,-93.0958389 L-314.831763,-94.0696706 C-313.531013,-94.3732363 -312.227994,-94.6686644 -310.922765,-94.9559311 Z M-301.104834,-96.9548237 L-300.920813,-95.9719013 C-302.229338,-95.7269218 -303.535857,-95.47378 -304.840311,-95.2124979 L-305.03671,-96.193022 C-303.728135,-96.4551294 -302.41749,-96.7090706 -301.104834,-96.9548237 Z M-291.209409,-98.6462207 L-291.056492,-97.6579817 C-292.372177,-97.4543968 -293.686046,-97.2426205 -294.998042,-97.0226727 L-295.163379,-98.00891 C-293.847247,-98.2295509 -292.529239,-98.4419945 -291.209409,-98.6462207 Z M-281.275602,-100.023752 L-281.153823,-99.0311951 C-282.475757,-98.8690045 -283.796059,-98.6985987 -285.114675,-98.519996 L-285.248896,-99.5109473 C-283.926137,-99.6901113 -282.601687,-99.8610524 -281.275602,-100.023752 Z M-271.312303,-101.08809 L-271.221645,-100.092208 C-272.548213,-99.9714456 -273.873331,-99.842459 -275.196943,-99.7052643 L-275.300043,-100.699935 C-273.972286,-100.83756 -272.643022,-100.96695 -271.312303,-101.08809 Z M-261.325914,-101.84046 L-261.266312,-100.842238 C-262.595965,-100.762848 -263.924341,-100.675237 -265.251391,-100.57942 L-265.323407,-101.576823 C-263.992221,-101.672939 -262.659706,-101.760823 -261.325914,-101.84046 Z M-251.321563,-102.282248 L-251.292912,-101.282659 C-252.62452,-101.244492 -253.955021,-101.198117 -255.284368,-101.143546 L-255.325384,-102.142705 C-253.991917,-102.197444 -252.657293,-102.243963 -251.321563,-102.282248 Z M-242.006211,-102.415584 L-242.006211,-101.415584 C-243.094758,-101.415584 -244.18267,-101.410118 -245.269921,-101.399192 L-245.279969,-102.399141 C-244.189369,-102.410101 -243.098108,-102.415584 -242.006211,-102.415584 Z" id="Mask-Copy-3" fill="#141C3A" fill-rule="nonzero" transform="translate(-242.006211, 217.080195) rotate(-6.000000) translate(242.006211, -217.080195) "></path>
    </g>
</svg>