<?xml version="1.0" encoding="UTF-8"?>
<svg width="179px" height="123px" viewBox="0 0 179 123" version="1.1" xmlns="http://www.w3.org/2000/svg" xmlns:xlink="http://www.w3.org/1999/xlink">
    <title>Img / background_small</title>
    <g id="Img-/-background_small" stroke="none" stroke-width="1" fill="none" fill-rule="evenodd">
        <path d="M89.7539903,122.999607 L0.00142936047,123 L2.30926389e-14,113.523677 C8.54518637,115.01563 17.3361357,115.793517 26.3090017,115.793517 C51.5051818,115.793517 75.2669311,109.659801 96.1805859,98.8054961 C93.0179342,106.420493 90.8263704,114.536767 89.7539903,122.999607 Z M178.99947,108.820003 L178.999297,123 L160.489287,123.000378 C164.113638,115.826216 170.886355,110.500957 178.99947,108.820003 Z M101.231492,8.8817842e-15 C87.8414823,27.8890414 59.3230586,47.1428558 26.3090017,47.1428558 C17.114567,47.1428558 8.26882529,45.6494802 0.00145756733,42.8921035 L0.00142936047,0.000898979834 L101.231492,8.8817842e-15 Z M178.999297,0.000898979834 L178.998982,40.1549248 C170.658859,40.6260157 162.60524,42.1616604 154.973224,44.6273719 C163.504597,31.0503108 169.939759,16.0228374 173.828491,0.00116105016 L178.999297,0.000898979834 Z" id="Combined-Shape" fill="#F3F3F5" fill-rule="nonzero"></path>
        <path d="M-103.322797,-390.96539 L-103.340072,-389.96554 C-104.669305,-389.988505 -105.999975,-390 -107.331988,-390 L-107.331988,-391 C-105.994216,-391 -104.657788,-390.988455 -103.322797,-390.96539 Z M-93.3191844,-390.575577 L-93.3798256,-389.577417 C-94.7032871,-389.657821 -96.0285068,-389.726784 -97.3553866,-389.784278 L-97.312097,-390.783341 C-95.9794304,-390.725596 -94.6484266,-390.656332 -93.3191844,-390.575577 Z M-83.3167058,-389.747783 L-83.4210254,-388.753239 C-84.7414017,-388.891736 -86.0638865,-389.018759 -87.3883768,-389.134275 L-87.3014911,-390.130493 C-85.9711841,-390.01447 -84.6428877,-389.886889 -83.3167058,-389.747783 Z M-73.383897,-388.484755 L-73.5318343,-387.495758 C-74.844411,-387.692098 -76.1594535,-387.876996 -77.4768542,-388.050416 L-77.346342,-389.041863 C-76.0231249,-388.867677 -74.7022739,-388.681962 -73.383897,-388.484755 Z M-63.4917339,-386.780578 L-63.6832868,-385.799096 C-64.9896776,-386.05406 -66.2989224,-386.297571 -67.6109086,-386.529588 L-67.436767,-387.514309 C-66.1189665,-387.281264 -64.8039176,-387.036673 -63.4917339,-386.780578 Z M-53.6747436,-384.637311 L-53.9096961,-383.665304 C-55.2045431,-383.978293 -56.5026347,-384.279895 -57.8038539,-384.570062 L-57.5862038,-385.546088 C-56.279204,-385.254633 -54.9753447,-384.951691 -53.6747436,-384.637311 Z M-44.009073,-382.073233 L-44.2868175,-381.112578 C-45.5652604,-381.482201 -46.8473338,-381.840573 -48.1329176,-382.187639 L-47.8722807,-383.153076 C-46.5809789,-382.804466 -45.2932028,-382.4445 -44.009073,-382.073233 Z M-34.4479305,-379.077498 L-34.7680207,-378.130111 C-36.0305476,-378.556677 -37.2971166,-378.9721 -38.5676041,-379.376323 L-38.2644164,-380.329253 C-36.9882769,-379.923233 -35.7160736,-379.505961 -34.4479305,-379.077498 Z M-25.0231202,-375.658293 L-25.384933,-374.726042 C-26.6260466,-375.207727 -27.8716009,-375.67846 -29.1214702,-376.138177 L-28.7762679,-377.076706 C-27.5208419,-376.614944 -26.2697505,-376.142118 -25.0231202,-375.658293 Z M-15.7528705,-371.821671 L-16.1556753,-370.906385 C-17.3751005,-371.443037 -18.5993841,-371.968917 -19.8283984,-372.483954 L-19.4418991,-373.406244 C-18.2074276,-372.88892 -16.9777086,-372.360705 -15.7528705,-371.821671 Z M-6.66641731,-367.580272 L-7.10933686,-366.68371 C-8.30149505,-367.272661 -9.49890444,-367.8511 -10.7014366,-368.418952 L-10.2744371,-369.323203 C-9.06657432,-368.752835 -7.86385808,-368.171832 -6.66641731,-367.580272 Z M2.2366304,-362.934073 L1.75448063,-362.057985 C0.590623376,-362.698506 -0.578886964,-363.328778 -1.75392167,-363.948719 L-1.28729022,-364.833171 C-0.107057057,-364.210487 1.06762624,-363.577427 2.2366304,-362.934073 Z M10.8866837,-357.922675 L10.3664958,-357.068623 C9.23206783,-357.759583 8.09158022,-358.440561 6.94516164,-359.111469 L7.4502473,-359.974538 C8.60172735,-359.300668 9.74724923,-358.616685 10.8866837,-357.922675 Z M19.3079215,-352.536622 L18.7507756,-351.706208 C17.6477747,-352.446238 16.5383096,-353.176572 15.4225085,-353.897115 L15.9649919,-354.737181 C17.0857096,-354.013464 18.2000623,-353.279913 19.3079215,-352.536622 Z M27.5308052,-346.753039 L26.9376383,-345.94796 C25.8654645,-346.737917 24.7863881,-347.518432 23.700537,-348.289406 L24.2794686,-349.104782 C25.3700956,-348.330417 26.4539172,-347.546469 27.5308052,-346.753039 Z M35.4672482,-340.632716 L34.8393693,-339.854405 C33.8044566,-340.689289 32.7622676,-341.515085 31.7129275,-342.331686 L32.3270778,-343.120875 C33.3810263,-342.300688 34.4277916,-341.471266 35.4672482,-340.632716 Z M43.1254945,-334.172912 L42.4641605,-333.422821 C41.4666397,-334.302306 40.4614539,-335.173039 39.4487257,-336.034909 L40.0968328,-336.796458 C41.1140037,-335.930807 42.1235986,-335.056255 43.1254945,-334.172912 Z M50.5064909,-327.372177 L49.8129374,-326.651772 C48.8541542,-327.574818 47.887316,-328.489454 46.9125424,-329.395563 L47.5933816,-330.127996 C48.5724284,-329.217914 49.5435049,-328.29927 50.5064909,-327.372177 Z M57.5801917,-320.257252 L56.8557689,-319.567896 C55.9377584,-320.532605 55.0113162,-321.489261 54.0765585,-322.437744 L54.7887999,-323.139678 C55.7276547,-322.187038 56.6581575,-321.226189 57.5801917,-320.257252 Z M64.3333137,-312.842176 L63.5794145,-312.185186 C62.7049323,-313.188659 61.8216733,-314.184465 60.9297492,-315.172482 L61.6720307,-315.84257 C62.5678653,-314.850221 63.454997,-313.850049 64.3333137,-312.842176 Z M70.7589085,-305.134075 L69.9769434,-304.510753 C69.1474029,-305.551422 68.3087497,-306.584815 67.4610907,-307.610808 L68.2320157,-308.247734 C69.083394,-307.217239 69.9257274,-306.179311 70.7589085,-305.134075 Z M76.8426885,-297.148478 L76.034121,-296.560074 C75.2519798,-297.634871 74.4604259,-298.702805 73.6595605,-299.763752 L74.457695,-300.366231 C75.2620785,-299.300624 76.0571103,-298.227997 76.8426885,-297.148478 Z M82.5686752,-288.905221 L81.735033,-288.352917 C81.0004037,-289.461757 80.2560455,-290.56413 79.5020544,-291.659908 L80.3258702,-292.226765 C81.0831787,-291.126167 81.8308125,-290.018942 82.5686752,-288.905221 Z M87.922859,-280.424312 L87.0657293,-279.909211 C86.3804238,-281.049563 85.6851004,-282.183851 84.9798493,-283.311949 L85.8277833,-283.84205 C86.536143,-282.708981 87.2345318,-281.569691 87.922859,-280.424312 Z M92.8861156,-271.738617 L92.0071719,-271.261691 C91.3729648,-272.430495 90.7284868,-273.593651 90.0738223,-274.751031 L90.9442262,-275.243369 C91.6017819,-274.080878 92.2491066,-272.912584 92.8861156,-271.738617 Z M97.4384961,-262.892037 L96.5395064,-262.454068 C95.9563369,-263.651099 95.3626299,-264.842878 94.7584639,-266.029275 L95.6495718,-266.483067 C96.256411,-265.29142 96.8527454,-264.094367 97.4384961,-262.892037 Z M101.632492,-253.776402 L100.715002,-253.378644 C100.185823,-254.599277 99.6459072,-255.815078 99.095326,-257.025921 L100.005636,-257.439847 C100.558658,-256.223638 101.100967,-255.002447 101.632492,-253.776402 Z M105.41659,-244.489435 L104.482382,-244.132704 C104.007827,-245.375471 103.522344,-246.613817 103.025999,-247.847617 L103.953742,-248.220838 C104.452289,-246.981562 104.939928,-245.737719 105.41659,-244.489435 Z M108.78544,-235.043821 L107.836336,-234.728859 C107.416995,-235.992498 106.986542,-237.252116 106.545037,-238.507588 L107.488405,-238.839337 C107.931871,-237.578288 108.364236,-236.313074 108.78544,-235.043821 Z M111.731,-225.462051 L110.768867,-225.189473 C110.40621,-226.469562 110.032317,-227.746035 109.647243,-229.018772 L110.604394,-229.308363 C110.991178,-228.029972 111.366732,-226.747827 111.731,-225.462051 Z M114.251889,-215.746881 L113.278611,-215.517251 C112.972969,-216.812706 112.655971,-218.104935 112.327667,-219.39382 L113.296724,-219.640658 C113.626486,-218.34605 113.94489,-217.048085 114.251889,-215.746881 Z M116.337984,-205.938254 L115.355499,-205.751915 C115.10746,-207.059725 114.847981,-208.364692 114.577108,-209.666703 L115.556145,-209.870385 C115.828219,-208.562604 116.088847,-207.251855 116.337984,-205.938254 Z M117.988387,-196.048454 L116.998638,-195.905641 C116.808538,-197.223099 116.606948,-198.538088 116.393904,-199.850498 L117.380984,-200.01073 C117.594968,-198.692523 117.797449,-197.371727 117.988387,-196.048454 Z M119.202433,-186.08886 L118.207363,-185.989692 C118.075328,-187.314561 117.931772,-188.63732 117.776729,-189.957865 L118.769908,-190.074472 C118.925632,-188.748121 119.069818,-187.419548 119.202433,-186.08886 Z M119.978131,-176.096159 L118.979679,-176.040528 C118.905605,-177.370006 118.820013,-178.697721 118.722934,-180.023571 L119.720264,-180.096596 C119.817767,-178.764952 119.903733,-177.431439 119.978131,-176.096159 Z M120.318644,-166.059399 L119.318719,-166.04717 C119.302435,-167.378735 119.274665,-168.708866 119.235435,-170.037471 L120.234999,-170.066985 C120.2744,-168.73262 120.30229,-167.396726 120.318644,-166.059399 Z M120.224612,-156.020852 L119.225092,-156.05185 C119.266316,-157.381108 119.296065,-158.711908 119.314315,-160.044152 L120.314221,-160.030454 C120.295892,-158.692442 120.266014,-157.355876 120.224612,-156.020852 Z M119.698422,-146.038745 L118.701187,-146.113058 C118.799715,-147.43525 118.886816,-148.759306 118.962461,-150.085128 L119.960838,-150.028165 C119.884863,-148.696557 119.797381,-147.366717 119.698422,-146.038745 Z M118.733766,-136.050496 L117.740746,-136.168444 C117.897255,-137.486113 118.042323,-138.805999 118.175918,-140.127997 L119.170851,-140.027454 C119.036669,-138.699648 118.890963,-137.37396 118.733766,-136.050496 Z M117.331322,-126.115659 L116.344461,-126.277232 C116.559769,-127.592299 116.763574,-128.909967 116.955837,-130.230127 L117.945398,-130.086011 C117.752286,-128.760023 117.547581,-127.436536 117.331322,-126.115659 Z M115.49461,-116.265832 L114.515844,-116.470814 C114.788259,-117.771562 115.049297,-119.075274 115.298913,-120.381835 L116.281148,-120.194181 C116.030426,-118.881835 115.768232,-117.572344 115.49461,-116.265832 Z M113.221619,-106.496329 L112.252894,-106.744466 C112.582777,-108.032324 112.901367,-109.323533 113.208614,-110.617977 L114.181582,-110.387035 C113.87297,-109.086845 113.552967,-107.789904 113.221619,-106.496329 Z M110.524953,-96.8606568 L109.568154,-97.1514069 C109.954079,-98.4214094 110.328868,-99.6951459 110.692464,-100.972497 L111.654258,-100.698723 C111.289046,-99.4156975 110.912593,-98.1363019 110.524953,-96.8606568 Z M107.397623,-87.3340245 L106.454656,-87.6669129 C106.896845,-88.9194914 107.328027,-90.1762107 107.748143,-91.4369476 L108.696856,-91.1208076 C108.274873,-89.8544696 107.841775,-88.5921673 107.397623,-87.3340245 Z M103.841844,-77.9325541 L102.914596,-78.3070017 C103.413247,-79.5418165 103.901013,-80.7812023 104.377827,-82.0250327 L105.31157,-81.6670888 C104.832639,-80.4177366 104.342708,-79.1728494 103.841844,-77.9325541 Z M99.8848846,-68.7260614 L98.975107,-69.1411574 C99.5278585,-70.3526382 100.069927,-71.5691008 100.601241,-72.7904172 L101.518227,-72.3914977 C100.984558,-71.1647666 100.440086,-69.9429116 99.8848846,-68.7260614 Z M95.5169543,-59.687941 L94.6264305,-60.1428776 C95.2305157,-61.3253549 95.8242041,-62.5131972 96.4074178,-63.7062763 L97.3058228,-63.2671084 C96.7200278,-62.0687487 96.1237122,-60.87565 95.5169543,-59.687941 Z M90.749193,-50.8435451 L89.8796464,-51.3373961 C90.5366459,-52.4942058 91.183459,-53.6568138 91.8200012,-54.8250906 L92.6981178,-54.3466439 C92.0587636,-53.1732061 91.4090937,-52.0054632 90.749193,-50.8435451 Z M85.638692,-42.287025 L84.7915876,-42.8184516 C85.4977839,-43.9441421 86.1940853,-45.0760247 86.8804018,-46.2139706 L87.7367143,-45.6975125 C87.0473717,-44.5545492 86.3480007,-43.417677 85.638692,-42.287025 Z M80.1272679,-33.9160929 L79.3043219,-34.4842125 C80.0608669,-35.580101 80.8077673,-36.6826145 81.5449264,-37.7916245 L82.3777318,-37.2380586 C81.6373284,-36.1241678 80.8871414,-35.0168028 80.1272679,-33.9160929 Z M74.2482216,-25.7877216 L73.4510032,-26.3914126 C74.2533357,-27.4509519 75.0463712,-28.5174907 75.8300082,-29.5909027 L76.6376786,-29.0012685 C75.8505983,-27.9231399 75.0540786,-26.8519153 74.2482216,-25.7877216 Z M68.0211235,-17.9283959 L67.2511197,-18.5664352 C68.0993126,-19.5900582 68.9385307,-20.6210777 69.7686676,-21.6593694 L70.5497186,-21.0349021 C69.7159386,-19.9920538 68.8730379,-18.9565101 68.0211235,-17.9283959 Z M61.4586995,-10.3524591 L60.7173492,-11.0235774 C61.61088,-12.0106157 62.4957523,-13.0054589 63.3718542,-14.0079848 L64.1248433,-13.3499518 C63.2448999,-12.34303 62.3561479,-11.3438249 61.4586995,-10.3524591 Z M54.5672465,-3.06683879 L53.8559719,-3.76975304 C54.7909207,-4.71582195 55.7175851,-5.67005541 56.6358494,-6.632335 L57.3593083,-5.94196758 C56.4370192,-4.97547023 55.5062932,-4.01705433 54.5672465,-3.06683879 Z M47.358335,3.91516397 L46.6785218,3.18177868 C47.6553105,2.27634206 48.6241637,1.36235477 49.5849613,0.43993177 L50.2775155,1.16129759 C49.3125062,2.08776408 48.3394059,3.00575801 47.358335,3.91516397 Z M39.8381002,10.5853037 L39.1911232,9.8227942 C40.2064218,8.96132981 41.2141718,8.09096854 42.21425,7.2118208 L42.874488,7.96287728 C41.8700233,8.84588108 40.8578528,9.72006019 39.8381002,10.5853037 Z M32.0450934,16.9089483 L31.4321762,16.1188011 C32.4839991,15.3029022 33.5286684,14.4777761 34.5660585,13.6435283 L35.1927375,14.4228058 C34.1507925,15.2607166 33.1015357,16.0894661 32.0450934,16.9089483 Z M23.9967145,22.8742052 L23.4190213,22.0579511 C24.5038725,21.2901618 25.5819898,20.5128581 26.6532461,19.7261395 L27.2451628,20.5321387 C26.1691961,21.3223165 25.0863374,22.1030387 23.9967145,22.8742052 Z M15.6731777,28.4942944 L15.1319747,27.6534025 C16.2513098,26.9329919 17.3642951,26.2027373 18.4708018,25.4627333 L19.0267147,26.2939738 C17.915334,27.0372375 16.7974452,27.7707093 15.6731777,28.4942944 Z M7.14279112,33.7231301 L6.63905726,32.8592712 C7.78740989,32.1896432 8.92983693,31.5099196 10.0662094,30.8201888 L10.5850723,31.6750463 C9.44368437,32.3678212 8.29621414,33.0505454 7.14279112,33.7231301 Z M-1.57886419,38.5557189 L-2.04421108,37.6705905 C-0.866475553,37.0514085 0.305732178,36.4218555 1.47228281,35.782014 L1.95318484,36.6587883 C0.781475049,37.3014595 -0.395917919,37.9337974 -1.57886419,38.5557189 Z M-10.5262804,43.0109233 L-10.9521683,42.1061474 C-9.74746503,41.5390804 -8.54788566,40.9613935 -7.35355905,40.3731634 L-6.91172149,41.2702585 C-8.11134057,41.8610952 -9.31623669,42.4413426 -10.5262804,43.0109233 Z M-19.7028004,47.0843721 L-20.0881461,46.1615998 C-18.8608361,45.6490804 -17.638227,45.1257535 -16.420446,44.5916895 L-16.0188164,45.5074917 C-17.2420032,46.0439264 -18.4700405,46.5695768 -19.7028004,47.0843721 Z M-29.0295967,50.7386967 L-29.3736775,49.7997567 C-28.1242535,49.3418968 -26.8791267,48.8730339 -25.6384223,48.3932322 L-25.2777362,49.3259195 C-26.5239556,49.8078539 -27.7746177,50.2788012 -29.0295967,50.7386967 Z M-38.5281811,53.9819812 L-38.8302005,53.0286794 C-37.5609424,52.6265605 -36.295581,52.213267 -35.0342394,51.7888576 L-34.7153334,52.736644 C-35.982286,53.1629413 -37.2532764,53.5780733 -38.5281811,53.9819812 Z M-48.159358,56.7993601 L-48.4187238,55.8335809 C-47.1340451,55.4885727 -45.8528577,55.1322799 -44.5752811,54.7647552 L-44.2988199,55.7257803 C-45.5820793,56.0949398 -46.8689655,56.4528174 -48.159358,56.7993601 Z M-57.8994163,59.1846858 L-58.1156815,58.2083512 C-56.8165106,57.9205754 -55.5204433,57.621405 -54.2275956,57.3108872 L-53.994056,58.2832345 C-55.2926486,58.5951322 -56.5944743,58.8956317 -57.8994163,59.1846858 Z M-67.7287647,61.134735 L-67.9016184,60.1497875 C-66.5909274,59.9197673 -65.2829599,59.6782783 -63.9778282,59.4253624 L-63.7875817,60.4070988 C-65.0985003,60.6611361 -66.4122656,60.9036955 -67.7287647,61.134735 Z M-77.6371054,62.6489335 L-77.7663402,61.6573195 C-76.4461822,61.4852662 -75.1283809,61.3016899 -73.8130443,61.1066275 L-73.6663502,62.0958094 C-74.9874983,62.2917336 -76.3111196,62.4761207 -77.6371054,62.6489335 Z M-87.6307264,63.7279535 L-87.7161735,62.7316108 C-86.3897602,62.6178566 -85.0653461,62.4925653 -83.7430346,62.3557692 L-83.6401316,63.3504606 C-84.968256,63.487858 -86.298489,63.6136998 -87.6307264,63.7279535 Z M-97.6331681,64.3660142 L-97.6750647,63.3668922 C-96.3446014,63.3111013 -95.0157962,63.2437814 -93.688748,63.1649606 L-93.629457,64.1632013 C-94.9623002,64.2423663 -96.2969037,64.30998 -97.6331681,64.3660142 Z M-107.664318,63.5687469 L-107.317055,63.5689849 C-106.096796,63.5689062 -104.877664,63.5591804 -103.65973,63.5398262 L-103.643841,64.5396999 L-105.479547,64.5616021 L-107.665753,64.5687458 L-107.664318,63.5687469 Z M-117.681839,64.3377922 L-117.637118,63.3387927 C-116.309548,63.398223 -114.980335,63.4461685 -113.649576,63.4826028 L-113.676945,64.4822282 C-115.01349,64.4456355 -116.348488,64.3974813 -117.681839,64.3377922 Z M-127.686342,63.6710013 L-127.598041,62.6749075 C-126.271879,62.7924682 -124.943725,62.8984878 -123.613682,62.9929354 L-123.684514,63.9904236 C-125.020385,63.8955623 -126.354362,63.7890778 -127.686342,63.6710013 Z M-137.669886,62.5641988 L-137.537826,61.5729571 C-136.218042,61.7487879 -134.895909,61.9130912 -133.571534,62.0658315 L-133.686105,63.0592466 C-135.016316,62.9058331 -136.344279,62.7408053 -137.669886,62.5641988 Z M-147.553927,61.0252693 L-147.378344,60.0408046 C-146.069508,60.2742401 -144.757963,60.496226 -143.443819,60.7067221 L-143.601981,61.6941354 C-144.921941,61.4827076 -146.239294,61.2597388 -147.553927,61.0252693 Z M-157.388729,59.0455015 L-157.169704,58.0697823 C-155.870361,58.3614531 -154.567919,58.6417101 -153.262493,58.9105077 L-153.46417,59.8899598 C-154.775391,59.619969 -156.083616,59.3384676 -157.388729,59.0455015 Z M-167.140063,56.627714 L-166.877884,55.6626948 C-165.593348,56.0116817 -164.305323,56.3493672 -163.01393,56.6757003 L-163.258927,57.6452241 C-164.556063,57.31744 -165.849814,56.9782529 -167.140063,56.627714 Z M-176.711737,53.7986658 L-176.407166,52.8461759 C-175.14208,53.2507028 -173.873126,53.6441074 -172.600426,54.0263333 L-172.888061,54.9840734 C-174.166423,54.600147 -175.441022,54.2049923 -176.711737,53.7986658 Z M-186.190781,50.5339706 L-185.844237,49.5959368 C-184.598368,50.0562063 -183.348229,50.5055114 -182.093943,50.94379 L-182.423809,51.8878175 C-183.683673,51.4475898 -184.939372,50.9962867 -186.190781,50.5339706 Z M-195.54005,46.8416925 L-195.152145,45.9199932 C-193.925878,46.4360779 -192.694918,46.9413461 -191.459389,47.4357293 L-191.830891,48.3641615 C-193.071909,47.867582 -194.308337,47.3600694 -195.54005,46.8416925 Z M-204.690245,42.7499208 L-204.261919,41.8462969 C-203.06076,42.4156584 -201.854504,42.9744325 -200.643278,43.5225448 L-201.055557,44.4336027 C-202.272155,43.8830591 -203.48376,43.3218069 -204.690245,42.7499208 Z M-213.662289,38.2512139 L-213.194399,37.367427 C-212.019362,37.989509 -210.838813,38.6012337 -209.652881,39.2025207 L-210.105095,40.0944306 C-211.296276,39.4904815 -212.482051,38.876049 -213.662289,38.2512139 Z M-222.422499,33.3627886 L-221.916058,32.500514 C-220.768614,33.1744439 -219.615237,33.8382562 -218.456056,34.491864 L-218.947213,35.3629353 C-220.111515,34.7064396 -221.269987,34.039695 -222.422499,33.3627886 Z M-230.921555,28.1169071 L-230.377788,27.277671 C-229.259616,28.0021697 -228.135088,28.7168041 -227.004333,29.4214814 L-227.533228,30.2701685 C-228.668969,29.562384 -229.798454,28.8445991 -230.921555,28.1169071 Z M-239.2065,22.4867128 L-238.626416,21.6721559 C-237.543932,22.4430429 -236.454722,23.2044145 -235.358913,23.9561727 L-235.924619,24.7807799 C-237.02525,24.0257132 -238.119254,23.2609914 -239.2065,22.4867128 Z M-247.249517,16.4884246 L-246.634237,15.7001164 C-245.586572,16.5178263 -244.531783,17.3263362 -243.469995,18.1255429 L-244.071374,18.9245067 C-245.137828,18.1217884 -246.197251,17.3097265 -247.249517,16.4884246 Z M-255.018376,10.1459145 L-254.369144,9.38532421 C-253.356431,10.2497653 -252.336176,11.1053064 -251.308502,11.9518386 L-251.944305,12.7236905 C-252.976488,11.8734433 -254.00122,11.0141483 -255.018376,10.1459145 Z M-262.505816,3.46568009 L-261.823892,2.73425675 C-260.850235,3.64202087 -259.868657,4.54123864 -258.879278,5.43179672 L-259.548291,6.17504718 C-260.542008,5.28058431 -261.52789,4.37742401 -262.505816,3.46568009 Z M-269.691367,-3.53379153 L-268.978085,-4.23466806 C-268.045073,-3.2851407 -267.103767,-2.34379688 -266.154287,-1.41075406 L-266.855193,-0.697500237 C-267.808835,-1.63463265 -268.754266,-2.58010239 -269.691367,-3.53379153 Z M-276.561553,-10.8386611 L-275.818287,-11.5076571 C-274.928295,-10.518861 -274.029664,-9.53786319 -273.122506,-8.56478451 L-273.853954,-7.88288759 C-274.765089,-8.86023188 -275.66766,-9.84553014 -276.561553,-10.8386611 Z M-283.109472,-18.4420612 L-282.337614,-19.0778567 C-281.491663,-18.0508693 -280.636725,-17.0312972 -279.772909,-16.0192643 L-280.533516,-15.3700518 C-281.401121,-16.3865237 -282.259809,-17.4105683 -283.109472,-18.4420612 Z M-289.320575,-26.3286788 L-288.52157,-26.9300041 C-287.721811,-25.8673328 -286.912745,-24.811677 -286.094474,-23.7631626 L-286.88282,-23.1479302 C-287.704684,-24.2010485 -288.517303,-25.2613402 -289.320575,-26.3286788 Z M-295.174049,-34.4723609 L-294.349426,-35.0380442 C-293.597141,-33.9414039 -292.835241,-32.8513773 -292.063822,-31.7680919 L-292.878393,-31.1880277 C-293.653203,-32.2760765 -294.418455,-33.370897 -295.174049,-34.4723609 Z M-300.672455,-42.8784826 L-299.823728,-43.4073141 C-299.120302,-42.2783786 -298.406964,-41.1556527 -297.683806,-40.0392653 L-298.523105,-39.4955956 C-299.249448,-40.6169004 -299.965929,-41.7445725 -300.672455,-42.8784826 Z M-305.783467,-51.4980646 L-304.912293,-51.9890383 C-304.258967,-50.8297903 -303.595451,-49.6763468 -302.921829,-48.5288374 L-303.784218,-48.0225904 C-304.460812,-49.1751639 -305.127257,-50.3336986 -305.783467,-51.4980646 Z M-310.471059,-60.2578396 L-309.579257,-60.7102662 C-308.977136,-59.5233934 -308.364573,-58.3419186 -307.741649,-57.1659709 L-308.625324,-56.6978699 C-309.251002,-57.8790172 -309.866274,-59.065717 -310.471059,-60.2578396 Z M-314.808182,-69.2965127 L-313.897261,-69.7090919 C-313.348297,-68.4970499 -312.788669,-67.289991 -312.218453,-66.0880435 L-313.121937,-65.6594217 C-313.694679,-66.8666934 -314.256786,-68.0791 -314.808182,-69.2965127 Z M-318.73747,-78.5084682 L-317.809199,-78.8803712 C-317.314418,-77.6453973 -316.808776,-76.4149951 -316.29234,-75.1892911 L-317.213881,-74.8010106 C-317.732608,-76.0321524 -318.240494,-77.2680139 -318.73747,-78.5084682 Z M-322.260734,-87.9005092 L-321.316887,-88.2308923 C-320.877384,-86.9753082 -320.426845,-85.7238874 -319.965332,-84.4767542 L-320.903176,-84.1296969 C-321.366739,-85.3823688 -321.819279,-86.6393479 -322.260734,-87.9005092 Z M-325.364666,-97.4417784 L-324.407089,-97.729958 C-324.02354,-96.4554819 -323.628795,-95.1847703 -323.22291,-93.9179449 L-324.175225,-93.612828 C-324.582913,-94.885282 -324.979412,-96.1616396 -325.364666,-97.4417784 Z M-328.043378,-107.115955 L-327.073956,-107.361353 C-326.747281,-106.070855 -326.409285,-104.783727 -326.060018,-103.500087 L-327.024938,-103.237542 C-327.375755,-104.526883 -327.715252,-105.819727 -328.043378,-107.115955 Z M-330.287973,-116.887988 L-329.308636,-117.090225 C-329.039488,-115.78687 -328.758932,-114.486495 -328.467014,-113.189216 L-329.442619,-112.969682 C-329.735832,-114.272714 -330.017631,-115.578855 -330.287973,-116.887988 Z M-332.097926,-126.748094 L-331.110614,-126.906884 C-330.899245,-125.59265 -330.676399,-124.28102 -330.442118,-122.972106 L-331.426475,-122.795918 C-331.661792,-124.110621 -331.885623,-125.42805 -332.097926,-126.748094 Z M-333.471704,-136.680678 L-332.47836,-136.795865 C-332.325033,-135.47362 -332.160197,-134.153613 -331.983886,-132.835954 L-332.975053,-132.70333 C-333.15214,-134.026794 -333.317702,-135.352613 -333.471704,-136.680678 Z M-334.408975,-146.675748 L-333.411538,-146.747287 C-333.316273,-145.419056 -333.209484,-144.092714 -333.091202,-142.768363 L-334.087237,-142.679403 C-334.206038,-144.009556 -334.313294,-145.341705 -334.408975,-146.675748 Z M-334.90851,-156.694971 L-333.908904,-156.723056 C-333.871507,-155.392007 -333.822611,-154.062511 -333.762241,-152.734663 L-334.761209,-152.689245 C-334.821841,-154.022869 -334.87095,-155.358143 -334.90851,-156.694971 Z M-334.973572,-166.721937 L-333.973685,-166.706855 L-333.993419,-164.961974 L-333.999476,-162.722528 L-334.999474,-162.720401 L-335,-163.215507 C-335,-164.385363 -334.991185,-165.554194 -334.973572,-166.721937 Z M-334.605231,-176.741671 L-333.606939,-176.683237 C-333.684599,-175.356501 -333.750781,-174.028017 -333.80546,-172.697883 L-334.804616,-172.738956 C-334.7497,-174.07488 -334.683228,-175.409152 -334.605231,-176.741671 Z M-333.801266,-186.733267 L-332.80648,-186.631283 C-332.942204,-185.307396 -333.066415,-183.981409 -333.179082,-182.653426 L-334.175502,-182.737963 C-334.062342,-184.071767 -333.937586,-185.40357 -333.801266,-186.733267 Z M-332.557388,-196.699992 L-331.568056,-196.554316 C-331.761843,-195.238244 -331.944151,-193.919714 -332.114943,-192.598834 L-333.106687,-192.727068 C-332.935142,-194.05377 -332.75203,-195.378114 -332.557388,-196.699992 Z M-330.882481,-206.563422 L-329.900522,-206.374328 C-330.151574,-205.070627 -330.391244,-203.764107 -330.619492,-202.45488 L-331.604633,-202.626627 C-331.375376,-203.941647 -331.134644,-205.253949 -330.882481,-206.563422 Z M-328.767141,-216.373251 L-327.79452,-216.140854 C-328.103399,-214.848142 -328.400954,-213.552223 -328.687137,-212.253211 L-329.663719,-212.468361 C-329.376266,-213.773134 -329.077391,-215.074803 -328.767141,-216.373251 Z M-326.226473,-226.053752 L-325.265085,-225.778557 C-325.630543,-224.501837 -325.984806,-223.221524 -326.32782,-221.937737 L-327.293929,-222.195872 C-326.949391,-223.48536 -326.593555,-224.77136 -326.226473,-226.053752 Z M-323.253904,-235.630291 L-322.305664,-235.312735 C-322.728036,-234.05151 -323.139315,-232.786281 -323.539444,-231.51717 L-324.493165,-231.817862 C-324.091259,-233.092611 -323.678152,-234.363462 -323.253904,-235.630291 Z M-319.857572,-245.071006 L-318.92435,-244.711704 C-319.40185,-243.471483 -319.868441,-242.226859 -320.32406,-240.977957 L-321.263497,-241.320679 C-320.805855,-242.575127 -320.337192,-243.825277 -319.857572,-245.071006 Z M-316.052034,-254.338143 L-315.135623,-253.937905 C-315.668061,-252.7188 -316.18976,-251.494875 -316.700651,-250.266255 L-317.624003,-250.650209 C-317.110846,-251.884278 -316.586833,-253.113632 -316.052034,-254.338143 Z M-311.83364,-263.441963 L-310.935835,-263.00157 C-311.520655,-261.80933 -312.094992,-260.611876 -312.658768,-259.409334 L-313.564202,-259.833821 C-312.997929,-261.041688 -312.42105,-262.244445 -311.83364,-263.441963 Z M-307.20288,-272.376074 L-306.325464,-271.896344 C-306.964435,-270.727679 -307.593101,-269.553353 -308.21138,-268.373496 L-309.097132,-268.837656 C-308.47612,-270.022728 -307.844675,-271.202244 -307.20288,-272.376074 Z M-302.213348,-281.043565 L-301.357858,-280.525745 C-302.047489,-279.386406 -302.727081,-278.240996 -303.396544,-277.089645 L-304.261027,-277.592307 C-303.58861,-278.748737 -302.906021,-279.8992 -302.213348,-281.043565 Z M-296.848776,-289.482729 L-296.016816,-288.927893 C-296.755753,-287.819878 -297.484935,-286.705386 -298.204266,-285.584544 L-299.045857,-286.124659 C-298.323358,-287.250436 -297.590966,-288.369836 -296.848776,-289.482729 Z M-291.106504,-297.696653 L-290.299687,-297.105851 C-291.086156,-296.031826 -291.863182,-294.950925 -292.630666,-293.863276 L-293.447729,-294.439825 C-292.676871,-295.532255 -291.89643,-296.617908 -291.106504,-297.696653 Z M-285.007654,-305.653436 L-284.227503,-305.027845 C-285.059167,-303.990709 -285.881734,-302.946321 -286.6951,-301.894804 L-287.486083,-302.506642 C-286.669146,-303.562775 -285.842968,-304.611749 -285.007654,-305.653436 Z M-278.568774,-313.33249 L-277.816746,-312.673359 C-278.693315,-311.673246 -279.561118,-310.665486 -280.420045,-309.650202 L-281.183491,-310.296075 C-280.320796,-311.315812 -279.449188,-312.327991 -278.568774,-313.33249 Z M-271.78844,-320.734782 L-271.066006,-320.043342 C-271.986483,-319.081604 -272.898529,-318.111823 -273.80203,-317.13412 L-274.536457,-317.812808 C-273.628996,-318.794797 -272.712952,-319.768828 -271.78844,-320.734782 Z M-264.700995,-327.822867 L-264.00949,-327.100495 C-264.969435,-326.181569 -265.921343,-325.254263 -266.865096,-324.318692 L-267.569118,-325.028871 C-266.621228,-325.968543 -265.665147,-326.899913 -264.700995,-327.822867 Z M-257.304994,-334.598849 L-256.645775,-333.846898 C-257.644973,-332.970924 -258.636512,-332.086217 -259.62027,-331.192887 L-260.292532,-331.9332 C-259.30446,-332.830447 -258.308574,-333.719034 -257.304994,-334.598849 Z M-249.615301,-341.04769 L-248.989677,-340.267565 C-250.026628,-339.435979 -251.056302,-338.595313 -252.078575,-337.745676 L-252.717757,-338.514732 C-251.690998,-339.368098 -250.656804,-340.212453 -249.615301,-341.04769 Z M-241.640334,-347.160258 L-241.049594,-346.353397 C-242.123686,-345.567005 -243.190877,-344.771182 -244.251038,-343.966031 L-244.855849,-344.7624 C-243.791029,-345.57109 -242.719148,-346.37041 -241.640334,-347.160258 Z M-233.421126,-352.904989 L-232.866395,-352.072959 C-233.972861,-351.335256 -235.072841,-350.587836 -236.166205,-349.830795 L-236.735464,-350.652953 C-235.637287,-351.413327 -234.532464,-352.164037 -233.421126,-352.904989 Z M-224.956385,-358.283394 L-224.438807,-357.427758 C-225.577587,-356.738906 -226.710277,-356.040035 -227.836748,-355.331235 L-228.369314,-356.177624 C-227.237875,-356.88955 -226.100189,-357.591504 -224.956385,-358.283394 Z M-216.267778,-363.281037 L-215.788414,-362.403421 C-216.956395,-361.765457 -218.118697,-361.117207 -219.275191,-360.458758 L-219.769968,-361.327779 C-218.608362,-361.989138 -217.440923,-362.640252 -216.267778,-363.281037 Z M-207.44084,-367.854355 L-207.000376,-366.956584 C-208.195658,-366.370155 -209.385666,-365.773191 -210.570271,-365.165771 L-211.026546,-366.05561 C-209.836696,-366.66572 -208.641417,-367.265328 -207.44084,-367.854355 Z M-198.343191,-372.070674 L-197.942896,-371.154287 C-199.16129,-370.622069 -200.374837,-370.079125 -201.583407,-369.525528 L-201.999856,-370.434687 C-200.785924,-370.99074 -199.566993,-371.536093 -198.343191,-372.070674 Z M-189.067276,-375.880005 L-188.708001,-374.946773 C-189.95018,-374.468561 -191.18791,-373.979403 -192.421065,-373.479368 L-192.79684,-374.406079 C-191.558206,-374.908336 -190.314976,-375.399667 -189.067276,-375.880005 Z M-179.640117,-379.271222 L-179.322578,-378.322977 C-180.584625,-377.900354 -181.842631,-377.46662 -183.096471,-377.021835 L-183.430796,-377.964293 C-182.17138,-378.411056 -180.907779,-378.846719 -179.640117,-379.271222 Z M-170.049438,-382.24737 L-169.774375,-381.285943 C-171.053838,-380.919891 -172.329661,-380.542588 -173.601723,-380.15409 L-173.893813,-381.110481 C-172.616091,-381.500707 -171.334593,-381.879688 -170.049438,-382.24737 Z M-160.348404,-384.791222 L-160.116287,-383.818534 C-161.41107,-383.509554 -162.702606,-383.189206 -163.990775,-382.857537 L-164.240116,-383.825953 C-162.946219,-384.159096 -161.648942,-384.480869 -160.348404,-384.791222 Z M-150.553065,-386.900526 L-150.364247,-385.918514 C-151.671443,-385.667169 -152.975776,-385.404372 -154.277132,-385.130166 L-154.483312,-386.10868 C-153.176181,-386.384103 -151.866061,-386.648066 -150.553065,-386.900526 Z M-140.652648,-388.577713 L-140.507472,-387.588307 C-141.824833,-387.39501 -143.139703,-387.1902 -144.451972,-386.973916 L-144.614595,-387.960604 C-143.296519,-388.177845 -141.975834,-388.383561 -140.652648,-388.577713 Z M-130.706238,-389.814108 L-130.604725,-388.819274 C-131.929133,-388.684132 -133.251412,-388.537455 -134.571457,-388.379277 L-134.690434,-389.372174 C-133.364574,-389.531049 -132.036473,-389.678371 -130.706238,-389.814108 Z M-120.701282,-390.613766 L-120.643441,-389.61544 C-121.972866,-389.538415 -123.300509,-389.449853 -124.62627,-389.349782 L-124.701538,-390.346946 C-123.369972,-390.447455 -122.03652,-390.536404 -120.701282,-390.613766 Z M-110.674927,-390.975943 L-110.660527,-389.976047 C-111.992171,-389.95687 -113.322366,-389.926185 -114.651015,-389.884018 L-114.682736,-390.883514 C-113.348315,-390.925865 -112.012346,-390.956683 -110.674927,-390.975943 Z" id="Mask-Copy-3" fill="#141C3A" fill-rule="nonzero"></path>
        <path d="M-167.322797,-72.9653903 L-167.340072,-71.9655395 C-168.669305,-71.9885051 -169.999975,-72 -171.331988,-72 L-171.331988,-73 C-169.994216,-73 -168.657788,-72.9884554 -167.322797,-72.9653903 Z M-157.319184,-72.5755766 L-157.379826,-71.5774169 C-158.703287,-71.6578213 -160.028507,-71.7267844 -161.355387,-71.7842784 L-161.312097,-72.783341 C-159.97943,-72.7255962 -158.648427,-72.6563321 -157.319184,-72.5755766 Z M-147.316706,-71.7477833 L-147.421025,-70.7532394 C-148.741402,-70.8917362 -150.063887,-71.0187588 -151.388377,-71.1342749 L-151.301491,-72.1304932 C-149.971184,-72.0144698 -148.642888,-71.886889 -147.316706,-71.7477833 Z M-137.383897,-70.4847552 L-137.531834,-69.4957584 C-138.844411,-69.6920978 -140.159454,-69.8769961 -141.476854,-70.0504164 L-141.346342,-71.0418631 C-140.023125,-70.8676771 -138.702274,-70.6819622 -137.383897,-70.4847552 Z M-127.491734,-68.780578 L-127.683287,-67.7990957 C-128.989678,-68.05406 -130.298922,-68.2975715 -131.610909,-68.529588 L-131.436767,-69.5143086 C-130.118966,-69.2812639 -128.803918,-69.0366729 -127.491734,-68.780578 Z M-117.674744,-66.6373108 L-117.909696,-65.665304 C-119.204543,-65.9782931 -120.502635,-66.2798948 -121.803854,-66.5700616 L-121.586204,-67.5460885 C-120.279204,-67.2546326 -118.975345,-66.9516908 -117.674744,-66.6373108 Z M-108.009073,-64.0732329 L-108.286818,-63.112578 C-109.56526,-63.4822012 -110.847334,-63.8405725 -112.132918,-64.1876388 L-111.872281,-65.1530757 C-110.580979,-64.8044657 -109.293203,-64.4445004 -108.009073,-64.0732329 Z M-98.4479305,-61.0774983 L-98.7680207,-60.1301112 C-100.030548,-60.5566765 -101.297117,-60.9721 -102.567604,-61.3763226 L-102.264416,-62.3292535 C-100.988277,-61.9232326 -99.7160736,-61.5059611 -98.4479305,-61.0774983 Z M-89.0231202,-57.6582929 L-89.384933,-56.7260421 C-90.6260466,-57.2077266 -91.8716009,-57.6784599 -93.1214702,-58.1381773 L-92.7762679,-59.0767056 C-91.5208419,-58.6149444 -90.2697505,-58.1421185 -89.0231202,-57.6582929 Z M-79.7528705,-53.8216708 L-80.1556753,-52.9063849 C-81.3751005,-53.4430372 -82.5993841,-53.9689173 -83.8283984,-54.4839541 L-83.4418991,-55.4062438 C-82.2074276,-54.8889201 -80.9777086,-54.3607053 -79.7528705,-53.8216708 Z M-70.6664173,-49.5802718 L-71.1093369,-48.6837105 C-72.3014951,-49.2726609 -73.4989044,-49.8511001 -74.7014366,-50.4189516 L-74.2744371,-51.3232034 C-73.0665743,-50.7528348 -71.8638581,-50.1718319 -70.6664173,-49.5802718 Z M-61.7633696,-44.9340733 L-62.2455194,-44.0579845 C-63.4093766,-44.6985058 -64.578887,-45.3287783 -65.7539217,-45.9487195 L-65.2872902,-46.8331713 C-64.1070571,-46.2104874 -62.9323738,-45.5774271 -61.7633696,-44.9340733 Z M-53.1133163,-39.9226752 L-53.6335042,-39.0686233 C-54.7679322,-39.7595834 -55.9084198,-40.4405613 -57.0548384,-41.1114688 L-56.5497527,-41.974538 C-55.3982726,-41.3006685 -54.2527508,-40.6166846 -53.1133163,-39.9226752 Z M-44.6920785,-34.5366222 L-45.2492244,-33.7062076 C-46.3522253,-34.4462384 -47.4616904,-35.1765722 -48.5774915,-35.8971147 L-48.0350081,-36.7371812 C-46.9142904,-36.0134637 -45.7999377,-35.2799126 -44.6920785,-34.5366222 Z M-36.4691948,-28.7530393 L-37.0623617,-27.9479598 C-38.1345355,-28.7379167 -39.2136119,-29.5184322 -40.299463,-30.2894058 L-39.7205314,-31.104782 C-38.6299044,-30.3304173 -37.5460828,-29.5464695 -36.4691948,-28.7530393 Z M-28.5327518,-22.6327161 L-29.1606307,-21.854405 C-30.1955434,-22.6892894 -31.2377324,-23.5150847 -32.2870725,-24.3316856 L-31.6729222,-25.1208747 C-30.6189737,-24.3006875 -29.5722084,-23.4712661 -28.5327518,-22.6327161 Z M-20.8745055,-16.1729123 L-21.5358395,-15.4228207 C-22.5333603,-16.3023059 -23.5385461,-17.1730385 -24.5512743,-18.0349085 L-23.9031672,-18.7964577 C-22.8859963,-17.9308069 -21.8764014,-17.0562549 -20.8745055,-16.1729123 Z M-13.4935091,-9.37217702 L-14.1870626,-8.65177192 C-15.1458458,-9.57481845 -16.112684,-10.4894536 -17.0874576,-11.3955626 L-16.4066184,-12.1279956 C-15.4275716,-11.2179143 -14.4564951,-10.2992697 -13.4935091,-9.37217702 Z M-6.41980825,-2.25725193 L-7.14423113,-1.56789607 C-8.0622416,-2.53260506 -8.98868376,-3.48926065 -9.92344149,-4.4377439 L-9.21120005,-5.13967847 C-8.27234527,-4.18703801 -7.34184247,-3.22618934 -6.41980825,-2.25725193 Z M0.33331374,5.15782406 L-0.420585532,5.81481409 C-1.29506774,4.81134146 -2.17832671,3.81553537 -3.07025078,2.82751797 L-2.32796925,2.15742982 C-1.43213467,3.14977903 -0.545002969,4.14995133 0.33331374,5.15782406 Z M6.75890847,12.8659246 L5.97694338,13.4892468 C5.14740286,12.4485784 4.30874968,11.4151853 3.46109067,10.3891924 L4.23201567,9.75226646 C5.08339401,10.7827612 5.92572736,11.8206891 6.75890847,12.8659246 Z M12.8426885,20.8515222 L12.034121,21.4399257 C11.2519798,20.3651293 10.4604259,19.2971947 9.6595605,18.2362484 L10.457695,17.633769 C11.2620785,18.6993761 12.0571103,19.7720028 12.8426885,20.8515222 Z M18.5686752,29.0947787 L17.735033,29.6470835 C17.0004037,28.5382428 16.2560455,27.4358696 15.5020544,26.3400921 L16.3258702,25.7732345 C17.0831787,26.8738333 17.8308125,27.9810576 18.5686752,29.0947787 Z M23.922859,37.5756884 L23.0657293,38.090789 C22.3804238,36.9504374 21.6851004,35.8161485 20.9798493,34.6880514 L21.8277833,34.1579496 C22.536143,35.2910191 23.2345318,36.4303086 23.922859,37.5756884 Z M28.8861156,46.261383 L28.0071719,46.7383086 C27.3729648,45.5695053 26.7284868,44.4063491 26.0738223,43.2489692 L26.9442262,42.7566308 C27.6017819,43.9191219 28.2491066,45.0874159 28.8861156,46.261383 Z M33.4384961,55.1079626 L32.5395064,55.5459323 C31.9563369,54.3489011 31.3626299,53.1571221 30.7584639,51.9707246 L31.6495718,51.5169331 C32.256411,52.70858 32.8527454,53.905633 33.4384961,55.1079626 Z M37.6324923,64.2235976 L36.715002,64.6213556 C36.1858232,63.400723 35.6459072,62.1849216 35.095326,60.9740791 L36.0056363,60.5601527 C36.5586578,61.776362 37.1009674,62.9975531 37.6324923,64.2235976 Z M41.4165895,73.5105655 L40.4823822,73.8672961 C40.007827,72.6245291 39.5223439,71.3861829 39.0259992,70.1523831 L39.9537417,69.7791621 C40.4522894,71.0184381 40.9399275,72.2622813 41.4165895,73.5105655 Z M44.7854401,82.9561791 L43.8363357,83.2711408 C43.4169951,82.0075016 42.9865422,80.7478841 42.5450372,79.4924118 L43.4884049,79.1606629 C43.9318712,80.4217124 44.3642365,81.6869259 44.7854401,82.9561791 Z M47.7310004,92.5379491 L46.7688669,92.8105275 C46.4062097,91.5304382 46.032317,90.2539648 45.6472433,88.981228 L46.6043938,88.6916367 C46.9911783,89.9700283 47.3667321,91.2521728 47.7310004,92.5379491 Z M50.2518889,102.253119 L49.2786108,102.482749 C48.9729688,101.187294 48.6559712,99.8950655 48.3276671,98.6061795 L49.2967239,98.359342 C49.6264856,99.6539501 49.9448903,100.951915 50.2518889,102.253119 Z M52.3379844,112.061746 L51.3554988,112.248085 C51.1074596,110.940275 50.8479814,109.635308 50.5771077,108.333297 L51.5561449,108.129615 C51.8282189,109.437396 52.0888467,110.748145 52.3379844,112.061746 Z M53.9883873,121.951546 L52.9986376,122.094359 C52.8085384,120.776901 52.6069479,119.461912 52.3939044,118.149502 L53.3809837,117.98927 C53.5949683,119.307477 53.797449,120.628273 53.9883873,121.951546 Z M55.2024334,131.91114 L54.2073627,132.010308 C54.0753277,130.685439 53.9317721,129.36268 53.7767294,128.042135 L54.7699076,127.925528 C54.9256319,129.251879 55.0698185,130.580452 55.2024334,131.91114 Z M55.9781306,141.903841 L54.9796792,141.959472 C54.9056048,140.629994 54.8200131,139.302279 54.7229335,137.976429 L55.7202636,137.903404 C55.8177675,139.235048 55.9037329,140.568561 55.9781306,141.903841 Z M56.3186441,151.940601 L55.3187189,151.95283 C55.302435,150.621265 55.2746653,149.291134 55.2354351,147.962529 L56.2349995,147.933015 C56.2743998,149.26738 56.3022897,150.603274 56.3186441,151.940601 Z M56.2246116,161.979148 L55.2250921,161.94815 C55.2663157,160.618892 55.2960652,159.288092 55.3143152,157.955848 L56.3142213,157.969546 C56.2958923,159.307558 56.266014,160.644124 56.2246116,161.979148 Z M55.6984223,171.961255 L54.7011873,171.886942 C54.7997155,170.56475 54.8868165,169.240694 54.9624613,167.914872 L55.9608376,167.971835 C55.8848626,169.303443 55.7973811,170.633283 55.6984223,171.961255 Z M54.7337658,181.949504 L53.740746,181.831556 C53.8972547,180.513887 54.0423233,179.194001 54.1759183,177.872003 L55.170851,177.972546 C55.0366691,179.300352 54.8909628,180.62604 54.7337658,181.949504 Z M53.3313215,191.884341 L52.3444608,191.722768 C52.5597689,190.407701 52.763574,189.090033 52.9558374,187.769873 L53.9453982,187.913989 C53.7522861,189.239977 53.5475809,190.563464 53.3313215,191.884341 Z M51.4946099,201.734168 L50.5158442,201.529186 C50.7882592,200.228438 51.0492968,198.924726 51.2989133,197.618165 L52.2811484,197.805819 C52.0304262,199.118165 51.7682321,200.427656 51.4946099,201.734168 Z M49.2216193,211.503671 L48.2528944,211.255534 C48.5827771,209.967676 48.9013666,208.676467 49.2086141,207.382023 L50.1815815,207.612965 C49.8729703,208.913155 49.5529665,210.210096 49.2216193,211.503671 Z M46.5249526,221.139343 L45.5681536,220.848593 C45.9540794,219.578591 46.3288676,218.304854 46.692464,217.027503 L47.6542582,217.301277 C47.2890464,218.584303 46.9125931,219.863698 46.5249526,221.139343 Z M43.3976226,230.665975 L42.4546564,230.333087 C42.8968448,229.080509 43.3280272,227.823789 43.7481433,226.563052 L44.6968558,226.879192 C44.2748733,228.14553 43.8417754,229.407833 43.3976226,230.665975 Z M39.8418437,240.067446 L38.9145956,239.692998 C39.413247,238.458183 39.9010128,237.218798 40.3778266,235.974967 L41.3115696,236.332911 C40.8326392,237.582263 40.3427082,238.827151 39.8418437,240.067446 Z M35.8848846,249.273939 L34.975107,248.858843 C35.5278585,247.647362 36.0699273,246.430899 36.6012409,245.209583 L37.5182268,245.608502 C36.9845577,246.835233 36.4400859,248.057088 35.8848846,249.273939 Z M31.5169543,258.312059 L30.6264305,257.857122 C31.2305157,256.674645 31.8242041,255.486803 32.4074178,254.293724 L33.3058228,254.732892 C32.7200278,255.931251 32.1237122,257.12435 31.5169543,258.312059 Z M26.749193,267.156455 L25.8796464,266.662604 C26.5366459,265.505794 27.183459,264.343186 27.8200012,263.174909 L28.6981178,263.653356 C28.0587636,264.826794 27.4090937,265.994537 26.749193,267.156455 Z M21.638692,275.712975 L20.7915876,275.181548 C21.4977839,274.055858 22.1940853,272.923975 22.8804018,271.786029 L23.7367143,272.302488 C23.0473717,273.445451 22.3480007,274.582323 21.638692,275.712975 Z M16.1272679,284.083907 L15.3043219,283.515787 C16.0608669,282.419899 16.8077673,281.317385 17.5449264,280.208375 L18.3777318,280.761941 C17.6373284,281.875832 16.8871414,282.983197 16.1272679,284.083907 Z M10.2482216,292.212278 L9.45100318,291.608587 C10.2533357,290.549048 11.0463712,289.482509 11.8300082,288.409097 L12.6376786,288.998732 C11.8505983,290.07686 11.0540786,291.148085 10.2482216,292.212278 Z M4.02112352,300.071604 L3.25111972,299.433565 C4.09931256,298.409942 4.93853073,297.378922 5.7686676,296.340631 L6.54971855,296.965098 C5.71593861,298.007946 4.87303791,299.04349 4.02112352,300.071604 Z M-2.54130045,307.647541 L-3.28265079,306.976423 C-2.38911996,305.989384 -1.50424768,304.994541 -0.628145828,303.992015 L0.124843269,304.650048 C-0.755100104,305.65697 -1.64385212,306.656175 -2.54130045,307.647541 Z M-9.43275347,314.933161 L-10.1440281,314.230247 C-9.2090793,313.284178 -8.28241487,312.329945 -7.36415061,311.367665 L-6.64069168,312.058032 C-7.56298078,313.02453 -8.49370681,313.982946 -9.43275347,314.933161 Z M-16.641665,321.915164 L-17.3214782,321.181779 C-16.3446895,320.276342 -15.3758363,319.362355 -14.4150387,318.439932 L-13.7224845,319.161298 C-14.6874938,320.087764 -15.6605941,321.005758 -16.641665,321.915164 Z M-24.1618998,328.585304 L-24.8088768,327.822794 C-23.7935782,326.96133 -22.7858282,326.090969 -21.78575,325.211821 L-21.125512,325.962877 C-22.1299767,326.845881 -23.1421472,327.72006 -24.1618998,328.585304 Z M-31.9549066,334.908948 L-32.5678238,334.118801 C-31.5160009,333.302902 -30.4713316,332.477776 -29.4339415,331.643528 L-28.8072625,332.422806 C-29.8492075,333.260717 -30.8984643,334.089466 -31.9549066,334.908948 Z M-40.0032855,340.874205 L-40.5809787,340.057951 C-39.4961275,339.290162 -38.4180102,338.512858 -37.3467539,337.72614 L-36.7548372,338.532139 C-37.8308039,339.322317 -38.9136626,340.103039 -40.0032855,340.874205 Z M-48.3268223,346.494294 L-48.8680253,345.653402 C-47.7486902,344.932992 -46.6357049,344.202737 -45.5291982,343.462733 L-44.9732853,344.293974 C-46.084666,345.037237 -47.2025548,345.770709 -48.3268223,346.494294 Z M-56.8572089,351.72313 L-57.3609427,350.859271 C-56.2125901,350.189643 -55.0701631,349.50992 -53.9337906,348.820189 L-53.4149277,349.675046 C-54.5563156,350.367821 -55.7037859,351.050545 -56.8572089,351.72313 Z M-65.5788642,356.555719 L-66.0442111,355.670591 C-64.8664756,355.051409 -63.6942678,354.421855 -62.5277172,353.782014 L-62.0468152,354.658788 C-63.218525,355.30146 -64.3959179,355.933797 -65.5788642,356.555719 Z M-74.5262804,361.010923 L-74.9521683,360.106147 C-73.747465,359.53908 -72.5478857,358.961394 -71.353559,358.373163 L-70.9117215,359.270258 C-72.1113406,359.861095 -73.3162367,360.441343 -74.5262804,361.010923 Z M-83.7028004,365.084372 L-84.0881461,364.1616 C-82.8608361,363.64908 -81.638227,363.125753 -80.420446,362.591689 L-80.0188164,363.507492 C-81.2420032,364.043926 -82.4700405,364.569577 -83.7028004,365.084372 Z M-93.0295967,368.738697 L-93.3736775,367.799757 C-92.1242535,367.341897 -90.8791267,366.873034 -89.6384223,366.393232 L-89.2777362,367.325919 C-90.5239556,367.807854 -91.7746177,368.278801 -93.0295967,368.738697 Z M-102.528181,371.981981 L-102.830201,371.028679 C-101.560942,370.62656 -100.295581,370.213267 -99.0342394,369.788858 L-98.7153334,370.736644 C-99.982286,371.162941 -101.253276,371.578073 -102.528181,371.981981 Z M-112.159358,374.79936 L-112.418724,373.833581 C-111.134045,373.488573 -109.852858,373.13228 -108.575281,372.764755 L-108.29882,373.72578 C-109.582079,374.09494 -110.868965,374.452817 -112.159358,374.79936 Z M-121.899416,377.184686 L-122.115681,376.208351 C-120.816511,375.920575 -119.520443,375.621405 -118.227596,375.310887 L-117.994056,376.283235 C-119.292649,376.595132 -120.594474,376.895632 -121.899416,377.184686 Z M-131.728765,379.134735 L-131.901618,378.149788 C-130.590927,377.919767 -129.28296,377.678278 -127.977828,377.425362 L-127.787582,378.407099 C-129.0985,378.661136 -130.412266,378.903696 -131.728765,379.134735 Z M-141.637105,380.648934 L-141.76634,379.65732 C-140.446182,379.485266 -139.128381,379.30169 -137.813044,379.106627 L-137.66635,380.095809 C-138.987498,380.291734 -140.31112,380.476121 -141.637105,380.648934 Z M-151.630726,381.727954 L-151.716173,380.731611 C-150.38976,380.617857 -149.065346,380.492565 -147.743035,380.355769 L-147.640132,381.350461 C-148.968256,381.487858 -150.298489,381.6137 -151.630726,381.727954 Z M-161.633168,382.366014 L-161.675065,381.366892 C-160.344601,381.311101 -159.015796,381.243781 -157.688748,381.164961 L-157.629457,382.163201 C-158.9623,382.242366 -160.296904,382.30998 -161.633168,382.366014 Z M-171.664318,381.568747 L-171.317055,381.568985 C-170.096796,381.568906 -168.877664,381.55918 -167.65973,381.539826 L-167.643841,382.5397 L-169.479547,382.561602 L-171.665753,382.568746 L-171.664318,381.568747 Z M-181.681839,382.337792 L-181.637118,381.338793 C-180.309548,381.398223 -178.980335,381.446169 -177.649576,381.482603 L-177.676945,382.482228 C-179.01349,382.445636 -180.348488,382.397481 -181.681839,382.337792 Z M-191.686342,381.671001 L-191.598041,380.674907 C-190.271879,380.792468 -188.943725,380.898488 -187.613682,380.992935 L-187.684514,381.990424 C-189.020385,381.895562 -190.354362,381.789078 -191.686342,381.671001 Z M-201.669886,380.564199 L-201.537826,379.572957 C-200.218042,379.748788 -198.895909,379.913091 -197.571534,380.065832 L-197.686105,381.059247 C-199.016316,380.905833 -200.344279,380.740805 -201.669886,380.564199 Z M-211.553927,379.025269 L-211.378344,378.040805 C-210.069508,378.27424 -208.757963,378.496226 -207.443819,378.706722 L-207.601981,379.694135 C-208.921941,379.482708 -210.239294,379.259739 -211.553927,379.025269 Z M-221.388729,377.045501 L-221.169704,376.069782 C-219.870361,376.361453 -218.567919,376.64171 -217.262493,376.910508 L-217.46417,377.88996 C-218.775391,377.619969 -220.083616,377.338468 -221.388729,377.045501 Z M-231.140063,374.627714 L-230.877884,373.662695 C-229.593348,374.011682 -228.305323,374.349367 -227.01393,374.6757 L-227.258927,375.645224 C-228.556063,375.31744 -229.849814,374.978253 -231.140063,374.627714 Z M-240.711737,371.798666 L-240.407166,370.846176 C-239.14208,371.250703 -237.873126,371.644107 -236.600426,372.026333 L-236.888061,372.984073 C-238.166423,372.600147 -239.441022,372.204992 -240.711737,371.798666 Z M-250.190781,368.533971 L-249.844237,367.595937 C-248.598368,368.056206 -247.348229,368.505511 -246.093943,368.94379 L-246.423809,369.887818 C-247.683673,369.44759 -248.939372,368.996287 -250.190781,368.533971 Z M-259.54005,364.841693 L-259.152145,363.919993 C-257.925878,364.436078 -256.694918,364.941346 -255.459389,365.435729 L-255.830891,366.364162 C-257.071909,365.867582 -258.308337,365.360069 -259.54005,364.841693 Z M-268.690245,360.749921 L-268.261919,359.846297 C-267.06076,360.415658 -265.854504,360.974432 -264.643278,361.522545 L-265.055557,362.433603 C-266.272155,361.883059 -267.48376,361.321807 -268.690245,360.749921 Z M-277.662289,356.251214 L-277.194399,355.367427 C-276.019362,355.989509 -274.838813,356.601234 -273.652881,357.202521 L-274.105095,358.094431 C-275.296276,357.490481 -276.482051,356.876049 -277.662289,356.251214 Z M-286.422499,351.362789 L-285.916058,350.500514 C-284.768614,351.174444 -283.615237,351.838256 -282.456056,352.491864 L-282.947213,353.362935 C-284.111515,352.70644 -285.269987,352.039695 -286.422499,351.362789 Z M-294.921555,346.116907 L-294.377788,345.277671 C-293.259616,346.00217 -292.135088,346.716804 -291.004333,347.421481 L-291.533228,348.270169 C-292.668969,347.562384 -293.798454,346.844599 -294.921555,346.116907 Z M-303.2065,340.486713 L-302.626416,339.672156 C-301.543932,340.443043 -300.454722,341.204414 -299.358913,341.956173 L-299.924619,342.78078 C-301.02525,342.025713 -302.119254,341.260991 -303.2065,340.486713 Z M-311.249517,334.488425 L-310.634237,333.700116 C-309.586572,334.517826 -308.531783,335.326336 -307.469995,336.125543 L-308.071374,336.924507 C-309.137828,336.121788 -310.197251,335.309726 -311.249517,334.488425 Z M-319.018376,328.145914 L-318.369144,327.385324 C-317.356431,328.249765 -316.336176,329.105306 -315.308502,329.951839 L-315.944305,330.72369 C-316.976488,329.873443 -318.00122,329.014148 -319.018376,328.145914 Z M-326.505816,321.46568 L-325.823892,320.734257 C-324.850235,321.642021 -323.868657,322.541239 -322.879278,323.431797 L-323.548291,324.175047 C-324.542008,323.280584 -325.52789,322.377424 -326.505816,321.46568 Z M-333.691367,314.466208 L-332.978085,313.765332 C-332.045073,314.714859 -331.103767,315.656203 -330.154287,316.589246 L-330.855193,317.3025 C-331.808835,316.365367 -332.754266,315.419898 -333.691367,314.466208 Z M-340.561553,307.161339 L-339.818287,306.492343 C-338.928295,307.481139 -338.029664,308.462137 -337.122506,309.435215 L-337.853954,310.117112 C-338.765089,309.139768 -339.66766,308.15447 -340.561553,307.161339 Z M-347.109472,299.557939 L-346.337614,298.922143 C-345.491663,299.949131 -344.636725,300.968703 -343.772909,301.980736 L-344.533516,302.629948 C-345.401121,301.613476 -346.259809,300.589432 -347.109472,299.557939 Z M-353.320575,291.671321 L-352.52157,291.069996 C-351.721811,292.132667 -350.912745,293.188323 -350.094474,294.236837 L-350.88282,294.85207 C-351.704684,293.798951 -352.517303,292.73866 -353.320575,291.671321 Z M-359.174049,283.527639 L-358.349426,282.961956 C-357.597141,284.058596 -356.835241,285.148623 -356.063822,286.231908 L-356.878393,286.811972 C-357.653203,285.723923 -358.418455,284.629103 -359.174049,283.527639 Z M-364.672455,275.121517 L-363.823728,274.592686 C-363.120302,275.721621 -362.406964,276.844347 -361.683806,277.960735 L-362.523105,278.504404 C-363.249448,277.3831 -363.965929,276.255427 -364.672455,275.121517 Z M-369.783467,266.501935 L-368.912293,266.010962 C-368.258967,267.17021 -367.595451,268.323653 -366.921829,269.471163 L-367.784218,269.97741 C-368.460812,268.824836 -369.127257,267.666301 -369.783467,266.501935 Z M-374.471059,257.74216 L-373.579257,257.289734 C-372.977136,258.476607 -372.364573,259.658081 -371.741649,260.834029 L-372.625324,261.30213 C-373.251002,260.120983 -373.866274,258.934283 -374.471059,257.74216 Z M-378.808182,248.703487 L-377.897261,248.290908 C-377.348297,249.50295 -376.788669,250.710009 -376.218453,251.911956 L-377.121937,252.340578 C-377.694679,251.133307 -378.256786,249.9209 -378.808182,248.703487 Z M-382.73747,239.491532 L-381.809199,239.119629 C-381.314418,240.354603 -380.808776,241.585005 -380.29234,242.810709 L-381.213881,243.198989 C-381.732608,241.967848 -382.240494,240.731986 -382.73747,239.491532 Z M-386.260734,230.099491 L-385.316887,229.769108 C-384.877384,231.024692 -384.426845,232.276113 -383.965332,233.523246 L-384.903176,233.870303 C-385.366739,232.617631 -385.819279,231.360652 -386.260734,230.099491 Z M-389.364666,220.558222 L-388.407089,220.270042 C-388.02354,221.544518 -387.628795,222.81523 -387.22291,224.082055 L-388.175225,224.387172 C-388.582913,223.114718 -388.979412,221.83836 -389.364666,220.558222 Z M-392.043378,210.884045 L-391.073956,210.638647 C-390.747281,211.929145 -390.409285,213.216273 -390.060018,214.499913 L-391.024938,214.762458 C-391.375755,213.473117 -391.715252,212.180273 -392.043378,210.884045 Z M-394.287973,201.112012 L-393.308636,200.909775 C-393.039488,202.21313 -392.758932,203.513505 -392.467014,204.810784 L-393.442619,205.030318 C-393.735832,203.727286 -394.017631,202.421145 -394.287973,201.112012 Z M-396.097926,191.251906 L-395.110614,191.093116 C-394.899245,192.40735 -394.676399,193.71898 -394.442118,195.027894 L-395.426475,195.204082 C-395.661792,193.889379 -395.885623,192.57195 -396.097926,191.251906 Z M-397.471704,181.319322 L-396.47836,181.204135 C-396.325033,182.52638 -396.160197,183.846387 -395.983886,185.164046 L-396.975053,185.29667 C-397.15214,183.973206 -397.317702,182.647387 -397.471704,181.319322 Z M-398.408975,171.324252 L-397.411538,171.252713 C-397.316273,172.580944 -397.209484,173.907286 -397.091202,175.231637 L-398.087237,175.320597 C-398.206038,173.990444 -398.313294,172.658295 -398.408975,171.324252 Z M-398.90851,161.305029 L-397.908904,161.276944 C-397.871507,162.607993 -397.822611,163.937489 -397.762241,165.265337 L-398.761209,165.310755 C-398.821841,163.977131 -398.87095,162.641857 -398.90851,161.305029 Z M-398.973572,151.278063 L-397.973685,151.293145 L-397.993419,153.038026 L-397.999476,155.277472 L-398.999474,155.279599 L-399,154.784493 C-399,153.614637 -398.991185,152.445806 -398.973572,151.278063 Z M-398.605231,141.258329 L-397.606939,141.316763 C-397.684599,142.643499 -397.750781,143.971983 -397.80546,145.302117 L-398.804616,145.261044 C-398.7497,143.92512 -398.683228,142.590848 -398.605231,141.258329 Z M-397.801266,131.266733 L-396.80648,131.368717 C-396.942204,132.692604 -397.066415,134.018591 -397.179082,135.346574 L-398.175502,135.262037 C-398.062342,133.928233 -397.937586,132.59643 -397.801266,131.266733 Z M-396.557388,121.300008 L-395.568056,121.445684 C-395.761843,122.761756 -395.944151,124.080286 -396.114943,125.401166 L-397.106687,125.272932 C-396.935142,123.94623 -396.75203,122.621886 -396.557388,121.300008 Z M-394.882481,111.436578 L-393.900522,111.625672 C-394.151574,112.929373 -394.391244,114.235893 -394.619492,115.54512 L-395.604633,115.373373 C-395.375376,114.058353 -395.134644,112.746051 -394.882481,111.436578 Z M-392.767141,101.626749 L-391.79452,101.859146 C-392.103399,103.151858 -392.400954,104.447777 -392.687137,105.746789 L-393.663719,105.531639 C-393.376266,104.226866 -393.077391,102.925197 -392.767141,101.626749 Z M-390.226473,91.9462479 L-389.265085,92.2214433 C-389.630543,93.4981634 -389.984806,94.7784762 -390.32782,96.0622629 L-391.293929,95.8041284 C-390.949391,94.5146396 -390.593555,93.2286396 -390.226473,91.9462479 Z M-387.253904,82.3697088 L-386.305664,82.6872646 C-386.728036,83.94849 -387.139315,85.2137193 -387.539444,86.4828299 L-388.493165,86.1821379 C-388.091259,84.9073885 -387.678152,83.6365378 -387.253904,82.3697088 Z M-383.857572,72.9289945 L-382.92435,73.2882957 C-383.40185,74.5285172 -383.868441,75.7731412 -384.32406,77.0220428 L-385.263497,76.6793213 C-384.805855,75.4248735 -384.337192,74.1747227 -383.857572,72.9289945 Z M-380.052034,63.6618568 L-379.135623,64.0620946 C-379.668061,65.2811997 -380.18976,66.5051254 -380.700651,67.7337446 L-381.624003,67.3497915 C-381.110846,66.1157222 -380.586833,64.8863681 -380.052034,63.6618568 Z M-375.83364,54.5580368 L-374.935835,54.9984301 C-375.520655,56.1906701 -376.094992,57.3881245 -376.658768,58.5906655 L-377.564202,58.166179 C-376.997929,56.9583121 -376.42105,55.7555552 -375.83364,54.5580368 Z M-371.20288,45.6239264 L-370.325464,46.1036563 C-370.964435,47.2723214 -371.593101,48.4466471 -372.21138,49.6265037 L-373.097132,49.1623444 C-372.47612,47.9772719 -371.844675,46.7977559 -371.20288,45.6239264 Z M-366.213348,36.9564351 L-365.357858,37.4742546 C-366.047489,38.6135942 -366.727081,39.7590043 -367.396544,40.9103549 L-368.261027,40.4076934 C-367.58861,39.2512627 -366.906021,38.1007999 -366.213348,36.9564351 Z M-360.848776,28.5172714 L-360.016816,29.0721072 C-360.755753,30.1801215 -361.484935,31.2946142 -362.204266,32.415456 L-363.045857,31.8753415 C-362.323358,30.7495636 -361.590966,29.6301637 -360.848776,28.5172714 Z M-355.106504,20.3033467 L-354.299687,20.8941487 C-355.086156,21.9681739 -355.863182,23.0490748 -356.630666,24.1367237 L-357.447729,23.5601755 C-356.676871,22.4677447 -355.89643,21.3820923 -355.106504,20.3033467 Z M-349.007654,12.3465637 L-348.227503,12.9721555 C-349.059167,14.0092906 -349.881734,15.0536792 -350.6951,16.1051962 L-351.486083,15.493358 C-350.669146,14.4372245 -349.842968,13.3882512 -349.007654,12.3465637 Z M-342.568774,4.66751022 L-341.816746,5.32664091 C-342.693315,6.32675377 -343.561118,7.33451365 -344.420045,8.34979772 L-345.183491,7.70392538 C-344.320796,6.68418835 -343.449188,5.67200885 -342.568774,4.66751022 Z M-335.78844,-2.73478191 L-335.066006,-2.0433421 C-335.986483,-1.08160404 -336.898529,-0.11182344 -337.80203,0.86587967 L-338.536457,0.187191977 C-337.628996,-0.794796866 -336.712952,-1.76882833 -335.78844,-2.73478191 Z M-328.700995,-9.82286665 L-328.00949,-9.10049462 C-328.969435,-8.18156918 -329.921343,-7.25426312 -330.865096,-6.3186921 L-331.569118,-7.02887089 C-330.621228,-7.96854263 -329.665147,-8.89991327 -328.700995,-9.82286665 Z M-321.304994,-16.5988494 L-320.645775,-15.8468979 C-321.644973,-14.9709242 -322.636512,-14.0862168 -323.62027,-13.1928872 L-324.292532,-13.9332002 C-323.30446,-14.830447 -322.308574,-15.719034 -321.304994,-16.5988494 Z M-313.615301,-23.0476902 L-312.989677,-22.2675652 C-314.026628,-21.4359786 -315.056302,-20.5953134 -316.078575,-19.7456762 L-316.717757,-20.5147318 C-315.690998,-21.3680979 -314.656804,-22.2124531 -313.615301,-23.0476902 Z M-305.640334,-29.1602585 L-305.049594,-28.3533965 C-306.123686,-27.5670048 -307.190877,-26.7711823 -308.251038,-25.9660313 L-308.855849,-26.7624002 C-307.791029,-27.5710895 -306.719148,-28.3704098 -305.640334,-29.1602585 Z M-297.421126,-34.9049888 L-296.866395,-34.072959 C-297.972861,-33.3352561 -299.072841,-32.5878359 -300.166205,-31.8307947 L-300.735464,-32.652953 C-299.637287,-33.4133266 -298.532464,-34.1640374 -297.421126,-34.9049888 Z M-288.956385,-40.2833942 L-288.438807,-39.4277576 C-289.577587,-38.7389065 -290.710277,-38.0400354 -291.836748,-37.3312351 L-292.369314,-38.1776236 C-291.237875,-38.8895498 -290.100189,-39.5915038 -288.956385,-40.2833942 Z M-280.267778,-45.2810371 L-279.788414,-44.4034208 C-280.956395,-43.7654566 -282.118697,-43.1172075 -283.275191,-42.4587582 L-283.769968,-43.3277787 C-282.608362,-43.9891378 -281.440923,-44.6402523 -280.267778,-45.2810371 Z M-271.44084,-49.8543546 L-271.000376,-48.9565843 C-272.195658,-48.3701553 -273.385666,-47.7731913 -274.570271,-47.1657713 L-275.026546,-48.05561 C-273.836696,-48.6657198 -272.641417,-49.2653278 -271.44084,-49.8543546 Z M-262.343191,-54.0706735 L-261.942896,-53.1542873 C-263.16129,-52.622069 -264.374837,-52.0791249 -265.583407,-51.5255277 L-265.999856,-52.4346868 C-264.785924,-52.99074 -263.566993,-53.5360932 -262.343191,-54.0706735 Z M-253.067276,-57.8800052 L-252.708001,-56.9467734 C-253.95018,-56.4685605 -255.18791,-55.9794031 -256.421065,-55.4793678 L-256.79684,-56.4060789 C-255.558206,-56.9083359 -254.314976,-57.3996671 -253.067276,-57.8800052 Z M-243.640117,-61.2712218 L-243.322578,-60.3229768 C-244.584625,-59.9003537 -245.842631,-59.4666196 -247.096471,-59.0218353 L-247.430796,-59.964293 C-246.17138,-60.4110556 -244.907779,-60.8467188 -243.640117,-61.2712218 Z M-234.049438,-64.2473696 L-233.774375,-63.2859434 C-235.053838,-62.9198905 -236.329661,-62.5425876 -237.601723,-62.1540895 L-237.893813,-63.1104805 C-236.616091,-63.5007069 -235.334593,-63.8796883 -234.049438,-64.2473696 Z M-224.348404,-66.7912223 L-224.116287,-65.8185344 C-225.41107,-65.5095543 -226.702606,-65.1892055 -227.990775,-64.8575373 L-228.240116,-65.8259532 C-226.946219,-66.159096 -225.648942,-66.4808688 -224.348404,-66.7912223 Z M-214.553065,-68.9005259 L-214.364247,-67.918514 C-215.671443,-67.6671694 -216.975776,-67.4043722 -218.277132,-67.1301664 L-218.483312,-68.1086804 C-217.176181,-68.3841032 -215.866061,-68.6480663 -214.553065,-68.9005259 Z M-204.652648,-70.577713 L-204.507472,-69.5883072 C-205.824833,-69.39501 -207.139703,-69.1901999 -208.451972,-68.9739157 L-208.614595,-69.960604 C-207.296519,-70.1778452 -205.975834,-70.3835612 -204.652648,-70.577713 Z M-194.706238,-71.8141078 L-194.604725,-70.8192735 C-195.929133,-70.6841318 -197.251412,-70.537455 -198.571457,-70.379277 L-198.690434,-71.3721741 C-197.364574,-71.5310488 -196.036473,-71.6783714 -194.706238,-71.8141078 Z M-184.701282,-72.6137659 L-184.643441,-71.6154401 C-185.972866,-71.5384155 -187.300509,-71.449853 -188.62627,-71.3497823 L-188.701538,-72.3469456 C-187.369972,-72.4474545 -186.03652,-72.5364045 -184.701282,-72.6137659 Z M-174.674927,-72.9759431 L-174.660527,-71.9760467 C-175.992171,-71.9568697 -177.322366,-71.9261848 -178.651015,-71.8840176 L-178.682736,-72.8835144 C-177.348315,-72.9258648 -176.012346,-72.9566828 -174.674927,-72.9759431 Z" id="Mask-Copy-3" fill="#141C3A" fill-rule="nonzero" transform="translate(-171.340678, 154.784373) rotate(-4.000000) translate(171.340678, -154.784373) "></path>
        <path d="M187.999565,-18.9620465 L187.914647,-17.9656585 C186.605567,-18.0772257 185.287312,-18.1333333 183.962189,-18.1333333 L183.962189,-19.1333333 C185.315665,-19.1333333 186.662252,-19.0760198 187.999565,-18.9620465 Z M197.919954,-17.0224894 L197.622893,-16.067631 C196.365071,-16.4589455 195.089159,-16.7960627 193.797967,-17.0777716 L194.01113,-18.0547883 C195.330629,-17.7669034 196.634532,-17.4223904 197.919954,-17.0224894 Z M207.189193,-12.9914503 L206.69357,-12.1229124 C205.54768,-12.7768031 204.373933,-13.3810726 203.175389,-13.9338172 L203.594179,-14.8419003 C204.818922,-14.277073 206.018303,-13.6596069 207.189193,-12.9914503 Z M215.358642,-7.08561245 L214.689497,-6.34248098 C213.708961,-7.22539431 212.691061,-8.06594412 211.638743,-8.86157462 L212.24184,-9.65924273 C213.316953,-8.8463772 214.356889,-7.98763099 215.358642,-7.08561245 Z M222.119368,0.465124006 L221.307047,1.04833561 C220.537343,-0.0237395792 219.721865,-1.06242858 218.863104,-2.06474699 L219.622499,-2.71537699 C220.499847,-1.69136416 221.332984,-0.630182537 222.119368,0.465124006 Z M227.118764,9.31320332 L226.199902,9.70778243 C225.679015,8.49478751 225.106033,7.305415 224.482772,6.14271432 L225.36413,5.67026536 C226.000993,6.85833954 226.58649,8.07369147 227.118764,9.31320332 Z M230.057182,18.8724578 L229.075343,19.0621728 C228.824522,17.7640878 228.51812,16.4802911 228.157277,15.2135461 L229.119018,14.9395858 C229.487765,16.2340785 229.800875,17.5459826 230.057182,18.8724578 Z M230.898345,28.9791493 L229.898628,28.9553673 C229.907492,28.5827241 229.911879,28.2109446 229.911877,27.828324 C229.911638,26.876971 229.882522,25.9291136 229.824762,24.9855972 L230.822893,24.9244933 C230.881894,25.8882666 230.911632,26.8564172 230.911877,27.8281961 C230.911877,28.2188397 230.907399,28.5985479 230.898345,28.9791493 Z M229.581402,38.9891184 L228.609749,38.7527105 C228.921025,37.4733409 229.177442,36.1785843 229.37797,34.871124 L230.366412,35.0227233 C230.161509,36.3587104 229.899488,37.6817624 229.581402,38.9891184 Z M226.14377,48.4896951 L225.245763,48.0497128 C225.825843,46.8657653 226.354764,45.6568305 226.830831,44.4259277 L227.763504,44.7866506 C227.277017,46.0444945 226.736528,47.2798724 226.14377,48.4896951 Z M220.732954,57.0500907 L219.950035,56.4279661 C220.77129,55.3944517 221.547887,54.3261662 222.277441,53.2261341 L223.110818,53.7788394 C222.365434,54.9027392 221.572001,55.9941848 220.732954,57.0500907 Z M213.649062,64.2330213 L213.016128,63.4588162 C214.037905,62.6234841 215.02359,61.7445925 215.970289,60.8247973 L216.667131,61.5420218 C215.699959,62.4817087 214.692952,63.3796117 213.649062,64.2330213 Z M205.143583,69.7727855 L204.691644,68.8807371 C205.868796,68.2843547 207.019498,67.6374066 208.140681,66.9419152 L208.667817,67.7916964 C207.522215,68.5023353 206.346425,69.163388 205.143583,69.7727855 Z M195.772046,73.3149688 L195.521106,72.3469661 C196.800098,72.015407 198.062161,71.6288955 199.304414,71.188761 L199.638375,72.1313477 C198.368863,72.5811402 197.079102,72.9761346 195.772046,73.3149688 Z M185.753193,74.7801247 L185.715687,73.7808283 C187.039523,73.7311418 188.355116,73.6252023 189.660055,73.4637443 L189.782847,74.4561767 C188.449604,74.6211367 187.105557,74.7293675 185.753193,74.7801247 Z M175.664117,74.0822041 L175.839784,73.0977545 C177.134535,73.3287922 178.442071,73.5045037 179.759853,73.6240252 L179.669525,74.6199373 C178.323123,74.49782 176.987115,74.3182822 175.664117,74.0822041 Z M165.969249,71.2403741 L166.352919,70.3169041 C167.570275,70.8226746 168.809816,71.2758174 170.068587,71.6748362 L169.766414,72.6280894 C168.480024,72.2203155 167.213293,71.7572326 165.969249,71.2403741 Z M157.078894,66.3556615 L157.652347,65.5364225 C158.73311,66.2929372 159.84588,67.0026908 160.987598,67.6634852 L160.486675,68.5289772 C159.320105,67.8537991 158.183138,67.1286117 157.078894,66.3556615 Z M149.493672,59.7344762 L150.227837,59.055505 C151.123873,60.02438 152.061054,60.9545479 153.036586,61.8432317 L152.363152,62.5824788 C151.366524,61.6745781 150.409082,60.7242998 149.493672,59.7344762 Z M143.448197,51.5922637 L144.310625,51.0860828 C144.97858,52.2241394 145.69528,53.3329334 146.458509,54.4094065 L145.642745,54.9877906 C144.862949,53.8879507 144.130677,52.755068 143.448197,51.5922637 Z M139.316317,42.4145858 L140.267099,42.1047246 C140.676276,43.3602491 141.139367,44.5961812 141.654852,45.8095561 L140.734467,46.2005687 C140.207696,44.9606288 139.73446,43.6976221 139.316317,42.4145858 Z M137.24487,32.5427366 L138.23997,32.4438628 C138.370837,33.7609552 138.557833,35.0674608 138.800072,36.3608181 L137.817163,36.5449115 C137.569643,35.2233584 137.378578,33.8884203 137.24487,32.5427366 Z M137.32192,22.4182833 L138.315385,22.5324178 C138.165302,23.8387896 138.070676,25.1554769 138.032219,26.4800926 L137.03264,26.4510723 C137.071923,25.0979978 137.168591,23.7529133 137.32192,22.4182833 Z M139.55635,12.549013 L140.501984,12.8742465 C140.073514,14.1200442 139.698708,15.3852385 139.378864,16.6669698 L138.408617,16.4248535 C138.735469,15.1150397 139.11849,13.8221146 139.55635,12.549013 Z M143.857785,3.40361437 L144.711491,3.9243705 C144.024656,5.05033793 143.386495,6.20548863 142.799003,7.38675719 L141.903625,6.94145009 C142.503931,5.73441644 143.155998,4.55409411 143.857785,3.40361437 Z M149.994654,-4.58749069 L150.718216,-3.89723135 C149.807337,-2.94240539 148.93766,-1.94895272 148.111818,-0.919780787 L147.331876,-1.54563273 C148.175589,-2.59707531 149.064076,-3.61201631 149.994654,-4.58749069 Z M157.738345,-11.1286139 L158.297783,-10.2997416 C157.204335,-9.56173097 156.142931,-8.77694198 155.116585,-7.94778127 L154.488162,-8.72565236 C155.536747,-9.57278027 156.621166,-10.3745866 157.738345,-11.1286139 Z M166.734766,-15.8701535 L167.102019,-14.9400324 C165.874186,-14.4552295 164.668635,-13.9176165 163.488395,-13.3289135 L163.042041,-14.2237699 C164.248094,-14.8253484 165.480035,-15.3747302 166.734766,-15.8701535 Z M176.370334,-18.5223025 L176.530904,-17.5352779 C175.22562,-17.3229342 173.933405,-17.0546924 172.656963,-16.731608 L172.411588,-17.7010362 C173.716002,-18.0312008 175.036512,-18.3053161 176.370334,-18.5223025 Z M183.955716,-19.1333329 L183.955851,-18.1333329 C183.460815,-18.1332661 182.96671,-18.1253686 182.473653,-18.1096717 L182.441833,-19.1091653 C182.945447,-19.1251983 183.450116,-19.1332646 183.955716,-19.1333329 Z" id="Oval" fill="#141C3A" fill-rule="nonzero"></path>
    </g>
</svg>