<?xml version="1.0" encoding="UTF-8"?>
<svg width="88px" height="26px" viewBox="0 0 88 26" version="1.1" xmlns="http://www.w3.org/2000/svg" xmlns:xlink="http://www.w3.org/1999/xlink">
    <title>Branding / thinko_logo</title>
    <g id="Symbols" stroke="none" stroke-width="1" fill="none" fill-rule="evenodd">
        <g id="Top-Bar-/-Desktop-/-Creator-/-Actividades" transform="translate(-30.000000, -22.000000)">
            <g id="Branding/Logo/thinko_logo" transform="translate(30.000000, 22.000000)">
                <path d="M4.78292523,5.24587369 L4.89552411,5.24646022 C6.63028709,5.26491144 6.99572296,5.72214204 6.99572296,7.10467535 L6.99572296,9.66945146 L9.30645552,9.66945146 C10.3016851,9.66945146 10.7516559,10.0554899 10.7516559,11.5308972 L10.7507668,11.6420551 C10.7285187,13.0050304 10.2879883,13.3798786 9.34446492,13.389507 L7.05924826,13.3896989 L7.05924826,19.8677416 C7.05924826,20.8936521 7.76596715,21.3748781 8.59973663,21.3748781 C8.92000998,21.3748781 9.27469287,21.3087756 9.56320358,21.1501297 L9.64547579,21.1110796 C10.7014113,20.620364 11.2315485,20.7930145 11.7889574,21.9690235 L11.8104108,22.0147501 C12.323907,23.106763 12.3556696,23.6514474 11.3286774,24.1961318 C10.3016851,24.7725454 8.98618216,25.0951255 7.70244185,25.0951255 C5.00791065,25.0951255 2.37425785,23.6831766 2.37425785,20.2220509 L2.37425785,13.392343 L1.44520043,13.392343 C0.462730184,13.392343 0.0116273353,13.0161395 0.000222079903,11.5896517 L0,11.5335413 C0,10.058134 0.44997083,9.67209556 1.44520043,9.67209556 L2.53571797,9.67209556 L2.53571797,7.10731945 C2.53571797,5.69537054 2.95127927,5.24587369 4.78292523,5.24587369 Z M59.0059098,-2.0417228e-13 L59.1207528,0.000613056527 C60.8552177,0.019488926 61.3775208,0.47771717 61.3775208,1.85437655 L61.3775208,15.0141283 L66.512482,10.4782811 L66.573851,10.4238003 C67.5129263,9.59882308 68.3667673,9.26022565 69.5299335,10.5414985 L69.6060741,10.6259625 C70.7468258,11.9041672 70.6587464,12.4129684 69.4981708,13.3204293 L66.160446,16.1625774 L70.0778391,21.720439 L70.1292998,21.7980347 C70.8999031,22.9712778 70.8175432,23.3923466 69.3557517,24.3698361 L69.307595,24.4019096 C67.8306319,25.3923153 67.0603877,24.9155509 66.3880783,23.7644677 L63.1138788,18.6201532 L61.3801677,20.0583486 L61.3801677,22.9663482 C61.3801677,24.3703009 60.8349089,24.8496994 59.0059098,24.8496994 L58.8916891,24.8490298 C57.2042232,24.8288765 56.6750315,24.3507891 56.6636046,23.0113169 L56.6634146,1.85437655 C56.6634146,0.447789792 57.2086734,-2.0417228e-13 59.0059098,-2.0417228e-13 Z M15.8892641,-2.0417228e-13 L16.0044378,0.000655374781 C17.7249589,0.0206004905 18.2546706,0.498761495 18.2659828,1.84140844 L18.2661688,9.93566527 C20.5451387,9.23237189 22.8241086,9.23237189 24.6848704,9.96727396 C27.0273656,10.8918282 28.6313792,12.9700996 28.6313792,16.2916463 L28.6313792,22.9347395 C28.6313792,24.2933601 28.3174793,24.8413458 26.3490415,24.8523335 L26.288884,24.8523335 C24.2868844,24.8523335 23.9529645,24.3205157 23.9464863,22.9757395 L23.9463888,16.1968202 C23.9463888,14.5689726 23.3349579,13.5469582 22.2444403,13.0991685 C21.2492107,12.714596 19.8384198,12.8410308 18.2635219,13.4811068 L18.2635219,22.9347395 C18.2635219,24.2933601 17.949622,24.8413458 15.9811842,24.8523335 L15.9210267,24.8523335 C13.8988049,24.8523335 13.5467689,24.3097176 13.5467689,22.9347395 L13.5467689,1.88598524 C13.5467689,0.482032541 14.0920276,-2.0417228e-13 15.8892641,-2.0417228e-13 Z M46.404912,9.35880666 C50.6108158,9.39041535 53.9458937,11.434444 53.9458937,16.2547695 L53.9458937,22.9294714 C53.9458937,24.288092 53.6319938,24.8360776 51.6635559,24.8469015 L51.6033985,24.8470654 C49.5811766,24.8470654 49.2609033,24.3044495 49.2609033,22.9294714 L49.2609033,16.1599434 C49.2609033,13.9868459 48.1386231,12.9674656 46.3731493,12.8357627 C45.5393798,12.804154 44.5759129,12.9964402 43.4827485,13.3494039 L43.4827485,22.9294714 C43.4827485,24.288092 43.1688485,24.8360776 41.2004107,24.8469015 L41.1402533,24.8470654 C39.1180314,24.8470654 38.7977581,24.3044495 38.7977581,22.9294714 L38.7977581,12.9674656 C38.7977581,11.5292701 39.3112542,10.8575854 40.5314692,10.4414043 C42.553691,9.71177038 44.5759129,9.35880666 46.404912,9.35880666 Z M33.6473179,9.64106517 L33.7630561,9.64170939 C35.5104792,9.66152977 36.0108456,10.1416575 36.0214041,11.4904423 L36.0215758,22.9205419 C36.0215758,24.3302135 35.5080796,24.8115648 33.6473179,24.8115648 L33.5331406,24.8108925 C31.8469684,24.790657 31.3475373,24.3106222 31.3367644,22.9656937 L31.3365854,11.5347328 C31.3365854,10.1224164 31.8527284,9.64106517 33.6473179,9.64106517 Z M33.6760976,2.12670555 C35.150077,2.12670555 36.3017886,3.26788063 36.3017886,4.72837534 C36.3017886,6.18887005 35.150077,7.33004513 33.6760976,7.33004513 C32.2021181,7.33004513 31.0504065,6.18887005 31.0504065,4.72837534 C31.0504065,3.26788063 32.2021181,2.12670555 33.6760976,2.12670555 Z" id="Shape" fill="#6400E4"></path>
                <path d="M79.700813,9.40523453 C84.3624727,9.40262598 88,12.7272177 88,17.2897171 C88,21.8182654 84.3651259,25.1428571 79.700813,25.1428571 C75.0683384,25.1428571 71.401626,21.8156538 71.401626,17.2897171 C71.401626,12.7272177 75.0683384,9.40523453 79.700813,9.40523453 Z M79.700813,13.1128136 C77.5756056,13.1128136 75.9359325,14.6454349 75.9359325,17.3365528 C75.9359325,19.9967086 77.5782588,21.5267497 79.700813,21.5267497 C81.8552055,21.5267497 83.4656936,20.0250904 83.4656936,17.3365528 C83.4656936,14.6480151 81.8552055,13.1128136 79.700813,13.1128136 Z M75.5849583,2.12670555 C77.00403,2.12670555 78.2269919,3.30339438 78.2269919,4.71218238 C78.2269919,6.12097038 77.00403,7.33004513 75.5849583,7.33004513 C74.1658867,7.33004513 72.9756098,6.12097038 72.9756098,4.71218238 C72.9756098,3.30339438 74.1658867,2.12670555 75.5849583,2.12670555 Z M83.9168303,2.12670555 C85.3386256,2.12670555 86.5261789,3.30339438 86.5261789,4.71218238 C86.5261789,6.12097038 85.3359019,7.33004513 83.9168303,7.33004513 C82.4977587,7.33004513 81.2747967,6.12097038 81.2747967,4.71218238 C81.2747967,3.30339438 82.4977587,2.12670555 83.9168303,2.12670555 Z" id="Combined-Shape" fill="#37D4C8"></path>
            </g>
        </g>
    </g>
</svg>