<svg width="728" height="958" version="1.1" xmlns="http://www.w3.org/2000/svg"><g id="Branding-/-Big-/-shape_face" stroke="none" stroke-width="1" fill="none" fill-rule="evenodd"><path d="M364 232c199.927 0 362 162.073 362 362S563.927 956 364 956 2 793.927 2 594s162.073-362 362-362zm-.5 160C251.662 392 161 482.662 161 594.5S251.662 797 363.5 797 566 706.338 566 594.5 475.338 392 363.5 392zM242.48 3c45.128 0 84.02 38.444 84.02 84.471S287.608 173 242.48 173c-45.128 0-82.98-39.502-82.98-85.529C159.5 41.444 197.352 3 242.48 3zm263.037-.5C550.46 2.5 588 40.944 588 86.971S550.374 172.5 505.517 172.5C460.659 172.5 422 132.998 422 86.971 422 40.944 460.659 2.5 505.517 2.5z" id="Combined-Shape" fill="#EBECED" fill-rule="nonzero"/></g></svg>