<?xml version="1.0" standalone="no"?>
<!DOCTYPE svg PUBLIC "-//W3C//DTD SVG 1.1//EN" "http://www.w3.org/Graphics/SVG/1.1/DTD/svg11.dtd" >
<svg xmlns="http://www.w3.org/2000/svg">
<metadata>Generated by IcoMoon</metadata>
<defs>
<font id="icomoon" horiz-adv-x="1024">
<font-face units-per-em="1024" ascent="960" descent="-64" />
<missing-glyph horiz-adv-x="1024" />
<glyph unicode="&#x20;" horiz-adv-x="512" d="" />
<glyph unicode="&#xe900;" glyph-name="ic_burger" d="M853.333 234.667c23.564 0 42.667-19.103 42.667-42.667s-19.103-42.667-42.667-42.667h-682.667c-23.564 0-42.667 19.103-42.667 42.667s19.103 42.667 42.667 42.667h682.667zM853.333 490.667c23.564 0 42.667-19.103 42.667-42.667s-19.103-42.667-42.667-42.667h-682.667c-23.564 0-42.667 19.103-42.667 42.667s19.103 42.667 42.667 42.667h682.667zM853.333 746.667c23.564 0 42.667-19.103 42.667-42.667s-19.103-42.667-42.667-42.667h-682.667c-23.564 0-42.667 19.103-42.667 42.667s19.103 42.667 42.667 42.667h682.667z" />
<glyph unicode="&#xe901;" glyph-name="ic_close" d="M783.529 719.529c15.472-15.472 16.577-39.871 3.315-56.618l-3.315-3.721-211.192-211.153 211.192-211.226c16.662-16.662 16.662-43.677 0-60.34-15.472-15.472-39.871-16.577-56.618-3.315l-3.721 3.315-211.226 211.192-211.153-211.192c-16.662-16.662-43.677-16.662-60.34 0-15.472 15.472-16.577 39.871-3.315 56.618l3.315 3.721 211.162 211.226-211.162 211.153c-16.662 16.662-16.662 43.677 0 60.34 15.472 15.472 39.871 16.577 56.618 3.315l3.721-3.315 211.153-211.162 211.226 211.162c16.662 16.662 43.677 16.662 60.34 0z" />
<glyph unicode="&#xe902;" glyph-name="ic_down_small" d="M728.794 400.853c-16.683 16.683-43.648 16.683-60.331 0l-127.232-127.189-0.469 473.045c-0.043 23.552-19.115 42.624-42.667 42.624h-0.043c-23.595-0.043-42.667-19.157-42.624-42.709l0.469-472.875-127.061 127.104c-16.683 16.683-43.648 16.683-60.331 0s-16.683-43.648 0-60.331l199.936-199.979c1.493-1.451 3.456-2.133 5.035-3.371 2.816-2.091 5.419-4.437 8.704-5.803 5.163-2.176 10.752-3.328 16.427-3.328h0.085c1.579 0 2.859 0.725 4.352 0.853 4.096 0.469 8.235 0.853 11.989 2.475 5.291 2.176 10.027 5.376 13.952 9.387l199.808 199.765c16.683 16.683 16.683 43.648 0 60.331z" />
<glyph unicode="&#xe903;" glyph-name="ic_dropdown" d="M632.361 541.74c16.425 16.896 43.437 17.279 60.334 0.854 15.597-15.162 17.122-39.344 4.346-56.264l-3.492-4.069-150.144-154.453c-15.466-15.91-40.239-17.133-57.137-3.671l-4.050 3.671-150.144 154.453c-16.425 16.896-16.043 43.909 0.854 60.334 15.597 15.162 39.813 16.002 56.365 2.752l3.969-3.606 119.55-122.924 119.55 122.924z" />
<glyph unicode="&#xe904;" glyph-name="ic_like" d="M170.667 159.829v274.688c0 8.619 6.997 15.616 15.616 15.616h117.419v-305.92h-117.419c-8.619 0-15.616 6.997-15.616 15.616zM906.539 566.827c-25.387 29.611-62.293 46.592-101.291 46.592h-169.259v126.677c0 74.197-60.373 134.571-135.936 134.571-45.568 0-83.883-32.64-91.093-77.44-13.184-79.744-37.803-157.013-73.259-229.675l-15.616-32.085h-133.803c-55.637 0-100.949-45.269-100.949-100.949v-274.688c0-55.637 45.312-100.949 100.949-100.949h156.245c1.323-0.085 2.517-0.384 3.84-0.384 23.552 0 42.667 19.115 42.667 42.667v381.013l23.381 47.957c39.040 80.128 66.219 165.291 80.768 253.355 0.512 3.371 3.456 5.845 8.235 5.845 27.179 0 49.237-22.101 49.237-49.237v-169.344c0-23.552 19.115-42.667 42.667-42.667h211.925c14.251 0 27.221-5.973 36.523-16.768 9.216-10.837 13.141-24.576 10.965-38.656l-44.245-285.44c-3.84-24.917-24.96-43.008-50.176-43.008h-292.992c-23.552 0-42.667-19.072-42.667-42.667 0-23.552 19.115-42.667 42.667-42.667h292.992c67.627 0 124.203 48.512 134.528 115.285l44.245 285.44c5.973 38.528-5.163 77.611-30.549 107.221z" />
<glyph unicode="&#xe905;" glyph-name="ic_list" d="M512 661.333c117.821 0 213.333-95.513 213.333-213.333s-95.513-213.333-213.333-213.333c-117.821 0-213.333 95.513-213.333 213.333s95.513 213.333 213.333 213.333zM512 533.333c-47.128 0-85.333-38.205-85.333-85.333s38.205-85.333 85.333-85.333c47.128 0 85.333 38.205 85.333 85.333s-38.205 85.333-85.333 85.333z" />
<glyph unicode="&#xe906;" glyph-name="ic_play_white" d="M303.334 183.277v527.497c0 23.564 19.103 42.667 42.667 42.667 8.386 0 16.585-2.471 23.575-7.104l415.965-275.748c19.641-13.020 25.008-39.496 11.988-59.137-3.481-5.251-8.081-9.666-13.471-12.927l-415.965-251.749c-20.16-12.201-46.393-5.749-58.594 14.41-4.033 6.663-6.165 14.303-6.165 22.092z" />
<glyph unicode="&#xe907;" glyph-name="ic_save" d="M728.034 135.898l-215.595 117.675c-0.085 0.043-0.213 0.085-0.341 0.128-1.621 0.853-3.328 1.493-5.035 2.133-0.939 0.384-1.877 0.853-2.816 1.152-1.237 0.384-2.603 0.512-3.883 0.768-1.408 0.299-2.816 0.683-4.267 0.811-1.323 0.128-2.688 0-4.053 0-1.323 0-2.731 0.128-4.053 0-1.579-0.128-3.072-0.555-4.608-0.896-1.195-0.213-2.347-0.341-3.499-0.683-1.195-0.341-2.347-0.939-3.541-1.408-1.451-0.555-2.901-1.067-4.267-1.792-0.171-0.085-0.341-0.128-0.512-0.213l-215.552-117.675v610.773c0 23.509 19.157 42.667 42.667 42.667h408.021c11.776 0 21.333-9.557 21.333-21.333v-632.107zM812.471 776.623c-4.437 54.741-49.877 98.048-105.771 98.048h-408.021c-70.613 0-128-57.429-128-128v-682.667c0-15.061 7.936-29.013 20.907-36.693 6.699-3.968 14.208-5.973 21.76-5.973 7.040 0 14.080 1.707 20.437 5.205l258.261 140.971 258.219-140.971c6.4-3.499 13.44-5.205 20.437-5.205 7.552 0 15.104 2.005 21.803 5.973 12.928 7.68 20.864 21.632 20.864 36.693v704c0 2.944-0.299 5.803-0.896 8.619v0z" />
<glyph unicode="&#xe908;" glyph-name="ic_share" d="M746.667 878.933c73.183 0 132.267-59.084 132.267-132.267s-59.084-132.267-132.267-132.267c-30.646 0-59.512 10.622-83.043 29.716l-4.509 3.906-295.509-172.288 0.822-3.959c0.845-4.453 1.471-8.516 1.886-12.406l0.465-5.732 0.154-5.636c0-7.522-0.817-14.868-2.506-23.774l-0.822-3.917 298.965-173.995 4.991 4.138c17.645 13.843 38.149 22.93 60.039 26.284l9.461 1.084 9.605 0.365c71.050 0 128.853-57.804 128.853-128.853s-57.804-128.853-128.853-128.853c-71.050 0-128.853 57.804-128.853 128.853 0 6.243 0.543 12.621 1.589 19.050l1.27 6.55-298.496 174.421-4.466-3.906c-18.825-15.275-41.064-25.128-64.897-28.458l-9.009-0.941-9.137-0.316c-73.183 0-132.267 59.084-132.267 132.267s59.084 132.267 132.267 132.267c30.646 0 59.512-10.622 83.043-29.716l4.466-3.863 295.509 172.288-0.779 3.917c-0.845 4.453-1.471 8.516-1.886 12.406l-0.465 5.732-0.154 5.636c0 73.183 59.084 132.267 132.267 132.267zM746.667 191.147c-23.467 0-42.667-19.2-42.667-42.667s19.2-42.667 42.667-42.667c23.467 0 42.667 19.2 42.667 42.667s-19.2 42.667-42.667 42.667zM234.667 490.667c-23.467 0-42.667-19.2-42.667-42.667s19.2-42.667 42.667-42.667c23.467 0 42.667 19.2 42.667 42.667s-19.2 42.667-42.667 42.667zM746.667 789.333c-23.467 0-42.667-19.2-42.667-42.667s19.2-42.667 42.667-42.667c23.467 0 42.667 19.2 42.667 42.667s-19.2 42.667-42.667 42.667z" />
<glyph unicode="&#xe909;" glyph-name="ic_star-grey" d="M645.613 376.299c-7.488-7.328-10.944-17.888-9.152-28.256l24-140.736-125.504 66.336c-4.672 2.464-9.824 3.712-14.976 3.712-5.12 0-10.272-1.248-14.944-3.712l-125.504-66.336 24.032 140.736c1.728 10.368-1.664 20.928-9.184 28.256l-101.856 99.84 140.608 20.544c10.464 1.536 19.488 8.096 24.096 17.568l62.752 127.808 62.752-127.808c4.672-9.472 13.664-16.032 24.096-17.568l140.672-20.544-101.888-99.84zM846.413 508.395c-3.776 11.552-13.76 19.968-25.792 21.728l-187.84 27.456-84.064 171.2c-5.376 10.944-16.512 17.888-28.736 17.888-12.192 0-23.328-6.944-28.704-17.888l-84.032-171.2-187.872-27.456c-12.032-1.76-22.048-10.176-25.792-21.728-3.776-11.584-0.64-24.256 8.032-32.768l136.032-133.312-32.128-188.288c-2.048-12 2.912-24.128 12.768-31.296 9.888-7.168 22.944-8.064 33.728-2.368l167.968 88.8 168-88.8c4.704-2.496 9.824-3.718 14.944-3.718 6.624 0 13.216 2.054 18.784 6.086 9.888 7.168 14.816 19.296 12.768 31.296l-32.128 188.288 136.032 133.312c8.704 8.512 11.808 21.184 8.032 32.768v0z" />
<glyph unicode="&#xe90a;" glyph-name="ic_user_small" d="M543.445 405.888c153.216 0 277.888-124.672 277.888-277.888 0-23.552-19.072-42.667-42.667-42.667s-42.667 19.115-42.667 42.667c0 106.197-86.357 192.555-192.555 192.555h-73.515c-106.24 0-192.597-86.357-192.597-192.555 0-23.552-19.072-42.667-42.667-42.667s-42.667 19.115-42.667 42.667c0 153.216 124.672 277.888 277.931 277.888h73.515zM506.667 810.667c108.672 0 197.077-88.405 197.077-197.077 0-108.629-88.405-197.035-197.077-197.035s-197.035 88.405-197.035 197.035c0 108.672 88.363 197.077 197.035 197.077zM506.667 725.333c-61.568 0-111.701-50.133-111.701-111.744 0-61.568 50.133-111.701 111.701-111.701 61.611 0 111.744 50.133 111.744 111.701 0 61.611-50.133 111.744-111.744 111.744z" />
<glyph unicode="&#xe90b;" glyph-name="ic_share_bt" d="M512 938.667c270.988 0 490.667-219.679 490.667-490.667s-219.679-490.667-490.667-490.667c-270.988 0-490.667 219.679-490.667 490.667s219.679 490.667 490.667 490.667zM512 896c-247.424 0-448-200.576-448-448s200.576-448 448-448c247.424 0 448 200.576 448 448s-200.576 448-448 448zM608 663.467c36.592 0 66.133-29.542 66.133-66.133s-29.542-66.133-66.133-66.133c-15.323 0-29.756 5.311-41.522 14.858l-2.254 1.953-147.755-86.144 0.411-1.98c0.422-2.226 0.736-4.258 0.943-6.203l0.233-2.866 0.077-2.818c0-3.761-0.408-7.434-1.253-11.887l-0.411-1.958 149.483-86.997 2.495 2.069c8.822 6.921 19.075 11.465 30.019 13.142l4.731 0.542 4.803 0.183c35.525 0 64.427-28.902 64.427-64.427s-28.902-64.427-64.427-64.427c-35.525 0-64.427 28.902-64.427 64.427 0 3.122 0.272 6.31 0.794 9.525l0.635 3.275-149.248 87.211-2.233-1.953c-9.412-7.638-20.532-12.564-32.449-14.229l-4.504-0.47-4.568-0.158c-36.592 0-66.133 29.542-66.133 66.133s29.542 66.133 66.133 66.133c15.323 0 29.756-5.311 41.522-14.858l2.233-1.931 147.755 86.144-0.39 1.958c-0.422 2.226-0.736 4.258-0.943 6.203l-0.233 2.866-0.077 2.818c0 36.592 29.542 66.133 66.133 66.133zM608 319.573c-11.733 0-21.333-9.6-21.333-21.333s9.6-21.333 21.333-21.333c11.733 0 21.333 9.6 21.333 21.333s-9.6 21.333-21.333 21.333zM352 469.333c-11.733 0-21.333-9.6-21.333-21.333s9.6-21.333 21.333-21.333c11.733 0 21.333 9.6 21.333 21.333s-9.6 21.333-21.333 21.333zM608 618.667c-11.733 0-21.333-9.6-21.333-21.333s9.6-21.333 21.333-21.333c11.733 0 21.333 9.6 21.333 21.333s-9.6 21.333-21.333 21.333z" />
<glyph unicode="&#xe90c;" glyph-name="ic_share_email" d="M512 938.667c270.988 0 490.667-219.679 490.667-490.667s-219.679-490.667-490.667-490.667c-270.988 0-490.667 219.679-490.667 490.667s219.679 490.667 490.667 490.667zM512 896c-247.424 0-448-200.576-448-448s200.576-448 448-448c247.424 0 448 200.576 448 448s-200.576 448-448 448zM701.092 618.667c18.296 0 27.749-21.254 16.561-34.799l-1.655-1.796-10.289-10.11c-0.712-1.091-1.531-2.128-2.457-3.094l-1.973-1.816-178.741-145.141c-7.136-5.794-17.078-6.311-24.714-1.556l-2.216 1.585-157.182 128.185v-208.384c0-10.939 8.237-19.957 18.846-21.19l2.488-0.144h298.667c10.939 0 19.957 8.237 21.19 18.846l0.144 2.488v158.112c0 11.782 9.551 21.333 21.333 21.333 10.94 0 19.957-8.236 21.19-18.845l0.144-2.488v-158.112c0-34.082-26.645-61.945-60.24-63.891l-3.76-0.109h-298.667c-34.082 0-61.945 26.645-63.891 60.24l-0.109 3.76v223.595c0 28.278 22.005 51.414 49.826 53.22l3.507 0.113h352zM644.58 576h-270.379l134.91-110.016 135.469 110.016z" />
<glyph unicode="&#xe90d;" glyph-name="ic_share_facebook" d="M512 938.667c270.988 0 490.667-219.679 490.667-490.667s-219.679-490.667-490.667-490.667c-270.988 0-490.667 219.679-490.667 490.667s219.679 490.667 490.667 490.667zM512 896c-247.424 0-448-200.576-448-448s200.576-448 448-448c247.424 0 448 200.576 448 448s-200.576 448-448 448zM551.648 650.667l56.352-0.085v-67.202l-38.676-0.017c-30.324 0-36.188-14.218-36.188-35.080v-46.002h72.312l-0.034-72.050h-72.272v-184.898h-75.424v184.898h-63.051v72.050h63.051v53.136c0 61.665 38.184 95.249 93.93 95.249z" />
<glyph unicode="&#xe90e;" glyph-name="ic_share_instagram" d="M512 938.667c270.988 0 490.667-219.679 490.667-490.667s-219.679-490.667-490.667-490.667c-270.988 0-490.667 219.679-490.667 490.667s219.679 490.667 490.667 490.667zM512 896c-247.424 0-448-200.576-448-448s200.576-448 448-448c247.424 0 448 200.576 448 448s-200.576 448-448 448zM591.146 638.873c20.438-0.933 34.395-4.178 46.609-8.925 12.626-4.907 23.334-11.472 34.009-22.147s17.24-21.382 22.147-34.009c4.747-12.214 7.992-26.171 8.925-46.609 0.821-18.004 1.092-25.233 1.145-62.148l0.006-28.268c-0.034-41.984-0.289-49.010-1.151-67.913-0.933-20.438-4.178-34.395-8.925-46.609-4.907-12.626-11.472-23.334-22.147-34.009s-21.382-17.24-34.009-22.147c-12.214-4.747-26.171-7.992-46.609-8.925-18.004-0.821-25.233-1.091-62.148-1.144l-28.268-0.006c-41.984 0.034-49.009 0.288-67.913 1.151-20.438 0.933-34.395 4.178-46.609 8.925-12.626 4.907-23.334 11.472-34.009 22.147s-17.24 21.383-22.147 34.009c-4.747 12.214-7.992 26.171-8.925 46.609-0.708 15.507-1.006 23.021-1.109 48.396l-0.018 56.217c0.083 29.729 0.372 37.176 1.127 53.717 0.933 20.438 4.178 34.395 8.925 46.609 4.907 12.626 11.472 23.334 22.147 34.009s21.382 17.24 34.009 22.147c12.214 4.747 26.171 7.992 46.609 8.925 15.508 0.708 23.021 1.006 48.396 1.109l56.217 0.018c29.729-0.083 37.176-0.373 53.717-1.127zM511.972 533.361c-47.128 0-85.333-38.205-85.333-85.333s38.205-85.333 85.333-85.333c47.128 0 85.333 38.205 85.333 85.333s-38.205 85.333-85.333 85.333zM511.972 490.695c23.564 0 42.667-19.103 42.667-42.667s-19.103-42.667-42.667-42.667c-23.564 0-42.667 19.103-42.667 42.667s19.103 42.667 42.667 42.667zM622.388 591.989c-15.905 0-28.798-12.892-28.798-28.797s12.893-28.798 28.798-28.798c15.905 0 28.797 12.893 28.797 28.798s-12.892 28.797-28.797 28.797z" />
<glyph unicode="&#xe90f;" glyph-name="ic_share_link" d="M512 938.667c270.988 0 490.667-219.679 490.667-490.667s-219.679-490.667-490.667-490.667c-270.988 0-490.667 219.679-490.667 490.667s219.679 490.667 490.667 490.667zM512 896c-247.424 0-448-200.576-448-448s200.576-448 448-448c247.424 0 448 200.576 448 448s-200.576 448-448 448zM441.036 490.771c7.7-7.7 8.292-19.798 1.777-28.175l-1.777-2.012-85.483-85.461c-11.029-11.051-17.131-25.728-17.131-41.344s6.101-30.293 17.131-41.344c11.051-11.051 25.707-17.131 41.344-17.131 14.177 0 27.613 5.025 38.226 14.241l3.097 2.89 85.483 85.483c8.341 8.341 21.824 8.341 30.165 0 7.7-7.7 8.292-19.798 1.777-28.158l-1.777-2.007-85.483-85.483c-19.093-19.115-44.501-29.632-71.488-29.632-27.029 0-52.416 10.517-71.509 29.632-19.093 19.093-29.632 44.501-29.632 71.509 0 25.207 9.18 49.003 25.928 67.604l3.704 3.905 85.483 85.483c8.341 8.32 21.824 8.32 30.165 0zM574.348 511.234c7.7-7.68 8.292-19.795 1.777-28.158l-1.777-2.008-98.261-98.283c-4.181-4.181-9.643-6.251-15.083-6.251-5.461 0-10.923 2.069-15.104 6.251-7.68 7.68-8.271 19.795-1.772 28.158l1.772 2.008 98.283 98.283c8.341 8.341 21.824 8.341 30.165 0zM694.869 631.765c38.25-38.25 39.409-99.73 3.477-139.368l-3.477-3.651-82.923-82.944c-4.16-4.16-9.621-6.251-15.083-6.251s-10.901 2.091-15.083 6.251c-7.68 7.7-8.271 19.798-1.772 28.175l1.772 2.012 82.923 82.923c22.784 22.784 22.784 59.883 0 82.688-21.835 21.835-56.836 22.744-79.767 2.711l-2.921-2.732-82.923-82.923c-8.32-8.32-21.824-8.32-30.165 0-7.68 7.7-8.271 19.798-1.772 28.158l1.772 2.007 82.923 82.944c39.445 39.424 103.573 39.424 143.019 0z" />
<glyph unicode="&#xe910;" glyph-name="ic_share_twitter" d="M512 938.667c270.988 0 490.667-219.679 490.667-490.667s-219.679-490.667-490.667-490.667c-270.988 0-490.667 219.679-490.667 490.667s219.679 490.667 490.667 490.667zM512 896c-247.424 0-448-200.576-448-448s200.576-448 448-448c247.424 0 448 200.576 448 448s-200.576 448-448 448zM585.866 597.333c22.663 0 43.132-9.822 57.509-25.525 17.949 3.63 34.804 10.354 50.030 19.607-5.892-18.855-18.379-34.677-34.647-44.682 15.938 1.955 31.127 6.289 45.242 12.722-10.543-16.202-23.915-30.434-39.298-41.835 0.152-3.464 0.225-6.944 0.225-10.44 0-105.025-76.709-225.875-217.203-229.752l-6.961-0.096c-44.493 0-85.897 13.372-120.763 36.288 6.165-0.746 12.439-1.117 18.793-1.117 36.915 0 70.886 12.91 97.854 34.58-34.49 0.655-63.569 24.011-73.604 56.11 4.803-0.945 9.742-1.461 14.807-1.461 7.191 0 14.157 0.994 20.778 2.846-36.050 7.4-63.207 40.068-63.207 79.186 0 0.365 0 0.693 0.010 1.031 10.617-6.052 22.757-9.694 35.684-10.102-21.155 14.473-35.061 39.215-35.061 67.243 0 14.801 3.902 28.667 10.669 40.606 38.853-48.881 96.917-81.028 162.397-84.406-1.351 5.918-2.048 12.083-2.048 18.42 0 44.596 35.286 80.776 78.794 80.776z" />
<glyph unicode="&#xe911;" glyph-name="ic_share_whatsapp" d="M512 938.667c270.988 0 490.667-219.679 490.667-490.667s-219.679-490.667-490.667-490.667c-270.988 0-490.667 219.679-490.667 490.667s219.679 490.667 490.667 490.667zM512 896c-247.424 0-448-200.576-448-448s200.576-448 448-448c247.424 0 448 200.576 448 448s-200.576 448-448 448zM519.624 682.669c129.072 0 233.683-104.611 233.683-233.654 0-129.053-104.611-233.664-233.683-233.664-40.954 0-79.45 10.55-112.934 29.059v0l-129.36-41.405 42.182 125.347c-21.274 35.232-33.533 76.502-33.533 120.662 0 129.043 104.621 233.654 233.645 233.654zM519.624 643.529c-107.232 0-194.486-87.254-194.486-194.515 0-42.586 13.747-81.974 37.037-114.048v0l-24.307-72.24 74.755 23.942c30.71-20.323 67.517-32.179 107.002-32.179 107.27 0 194.525 87.274 194.525 194.525 0 107.261-87.254 194.515-194.525 194.515zM441.864 563.341c3.974-0.154 7.93-0.797 11.414-0.922 3.475-0.134 8.515 1.661 13.046-10.454 4.512-12.125 15.341-41.933 16.714-44.957 1.382-3.053 2.256-6.566 0.115-10.464s-3.235-6.355-6.326-9.725c-3.12-3.36-6.566-7.536-9.35-10.128-3.091-2.842-6.346-5.962-3.062-12.058 3.245-6.096 14.486-26.074 31.622-42.547 22.013-21.168 41.011-28.195 46.838-31.402 5.875-3.216 9.37-2.842 13.008 1.018 3.6 3.84 15.552 16.858 19.738 22.656 4.214 5.827 8.16 4.685 13.555 2.486 5.386-2.189 34.157-17.722 40.013-20.928 5.846-3.206 9.773-4.848 11.174-7.392 1.392-2.544 0.95-14.477-4.541-28.214-5.501-13.718-30.355-26.266-41.338-26.842-10.944-0.595-11.261-8.563-71.021 17.597-59.712 26.15-95.654 89.77-98.486 93.869-2.832 4.080-23.146 33.235-22.042 62.573 1.094 29.357 17.050 43.21 22.752 48.97 5.674 5.76 12.182 7.008 16.176 6.864z" />
<glyph unicode="&#xe912;" glyph-name="ic_share_linkedin" d="M512 938.667c270.988 0 490.667-219.679 490.667-490.667s-219.679-490.667-490.667-490.667c-270.988 0-490.667 219.679-490.667 490.667s219.679 490.667 490.667 490.667zM512 896c-247.424 0-448-200.576-448-448s200.576-448 448-448c247.424 0 448 200.576 448 448s-200.576 448-448 448zM403.362 531.562v-254.229h-83.362v254.229h83.362zM608 537.535c54.872 0 96-36.339 96-114.411v-145.791h-83.381v136.020c0 34.155-12.036 57.476-42.234 57.476-23.044 0-36.721-15.705-42.768-30.908-2.184-5.432-2.757-12.979-2.757-20.605v-141.983h-83.391c0 0 1.116 230.376 0 254.229h83.391v-36.025c11.085 17.289 30.848 41.998 75.14 41.998zM362.923 661.333c23.714 0 42.923-19.483 42.923-43.513s-19.21-43.513-42.923-43.513c-23.694 0-42.923 19.483-42.923 43.513s19.229 43.513 42.923 43.513z" />
<glyph unicode="&#xe913;" glyph-name="ic_share_close" d="M783.529 719.529c15.472-15.472 16.577-39.871 3.315-56.618l-3.315-3.721-211.192-211.153 211.192-211.226c16.662-16.662 16.662-43.677 0-60.34-15.472-15.472-39.871-16.577-56.618-3.315l-3.721 3.315-211.226 211.192-211.153-211.192c-16.662-16.662-43.677-16.662-60.34 0-15.472 15.472-16.577 39.871-3.315 56.618l3.315 3.721 211.162 211.226-211.162 211.153c-16.662 16.662-16.662 43.677 0 60.34 15.472 15.472 39.871 16.577 56.618 3.315l3.721-3.315 211.153-211.162 211.226 211.162c16.662 16.662 43.677 16.662 60.34 0z" />
<glyph unicode="&#xe914;" glyph-name="ic_share_web" d="M512 938.667c270.988 0 490.667-219.679 490.667-490.667s-219.679-490.667-490.667-490.667c-270.988 0-490.667 219.679-490.667 490.667s219.679 490.667 490.667 490.667zM512 896c-247.424 0-448-200.576-448-448s200.576-448 448-448c247.424 0 448 200.576 448 448s-200.576 448-448 448zM512.002 661.334c117.827 0 213.333-95.51 213.333-213.333 0-116.642-93.602-211.416-209.797-213.305l-0.63-0.024-2.907-0.004c-117.812 0-213.333 95.517-213.333 213.333 0 49.825 17.167 97.068 48.052 134.89 7.452 9.126 20.891 10.483 30.017 3.031s10.483-20.891 3.031-30.017c-20.264-24.816-33.131-54.643-37.112-86.564l71.683-0.004c3.766 49.47 20.292 99.897 45.641 141.251-16.96-5.408-32.958-13.469-47.503-23.928-9.566-6.879-22.896-4.701-29.775 4.865s-4.701 22.896 4.865 29.775c35.989 25.881 79.173 40.035 124.434 40.035zM566.77 426.691l-109.519-0.001c5.132-53.3 28.151-112.961 54.748-143.774 26.615 30.816 49.638 90.478 54.771 143.775zM414.413 426.679l-71.758-0.009c8.226-65.963 54.102-120.239 115.439-140.646-23.047 39.647-39.735 92.284-43.682 140.655zM681.349 426.668l-71.741 0.012c-3.948-48.369-20.639-101.006-43.698-140.65 61.341 20.393 107.214 74.669 115.439 140.638zM512.015 610.731l-0.837-1.039c-29.303-37.363-49.49-89.499-54.026-140.34l109.716 0.001c-4.579 51.317-25.103 103.949-54.853 141.378zM564.002 610.602l2.442-4.015c23.989-40.58 39.591-89.362 43.237-137.248l71.665 0.017c-8.317 66.641-55.052 121.344-117.344 141.247z" />
<glyph unicode="&#xe915;" glyph-name="ic_check" d="M693.223 646.763c15.517 17.734 42.472 19.531 60.206 4.014 16.37-14.323 19.16-38.393 7.288-55.959l-3.274-4.247-298.667-341.333c-15.092-17.248-40.808-19.3-58.378-5.532l-3.901 3.458-128 128c-16.662 16.662-16.662 43.677 0 60.34 15.381 15.381 39.583 16.564 56.32 3.549l4.020-3.549 95.739-95.706 268.647 306.966z" />
<glyph unicode="&#xe916;" glyph-name="ic_add_person" d="M682.101 373.889c153.484 0 277.899-124.415 277.899-277.899 0-23.564-19.103-42.667-42.667-42.667s-42.667 19.103-42.667 42.667c0 103.782-82.242 188.799-185.463 192.439v0l-7.102 0.127h-73.536c-106.356 0-192.565-86.209-192.565-192.565 0-23.564-19.103-42.667-42.667-42.667s-42.667 19.103-42.667 42.667c0 150.32 119.525 273.271 269.568 277.775v0l8.33 0.124zM213.333 661.333c23.564 0 42.667-19.103 42.667-42.667v0-85.333h85.333c23.564 0 42.667-19.103 42.667-42.667s-19.103-42.667-42.667-42.667v0h-85.333v-85.333c0-23.564-19.103-42.667-42.667-42.667s-42.667 19.103-42.667 42.667v0 85.333h-85.333c-23.564 0-42.667 19.103-42.667 42.667s19.103 42.667 42.667 42.667v0h85.333v85.333c0 23.564 19.103 42.667 42.667 42.667zM645.327 742.4c88.815 0 160.8-71.985 160.8-160.8s-71.985-160.8-160.8-160.8c-88.791 0-160.768 71.993-160.768 160.8s71.977 160.8 160.768 160.8zM645.327 665.6c-46.371 0-83.968-37.605-83.968-84s37.597-84 83.968-84c46.399 0 84 37.601 84 84s-37.601 84-84 84z" />
<glyph unicode="&#xe917;" glyph-name="ic_chat" d="M896 810.667c23.564 0 42.667-19.103 42.667-42.667v-577.939c0-23.564-19.103-42.667-42.667-42.667h-589.576l-221.091-147.394v768c0 23.564 19.103 42.667 42.667 42.667h768zM853.333 725.333h-682.667v-565.845l109.921 73.239 572.746 0.019v492.587zM522.667 640c6.826 0 12.959-3.947 15.655-10.063v0l36.507-83.243 92.374-8.168c6.773-0.597 12.52-5.065 14.627-11.376 2.107-6.325 0.159-13.233-4.961-17.608v0l-69.828-59.633 20.589-88.317c1.506-6.494-1.082-13.209-6.614-17.104-5.52-3.895-12.866-4.206-18.709-0.806v0l-79.64 46.387-79.655-46.387c-2.693-1.569-5.708-2.349-8.721-2.349-3.506 0-7 1.051-9.973 3.155-5.532 3.895-8.12 10.61-6.614 17.104v0l20.589 88.317-69.828 59.633c-5.122 4.375-7.068 11.297-4.961 17.608 2.119 6.299 7.854 10.767 14.627 11.376v0l92.389 8.168 36.507 83.243c2.678 6.116 8.814 10.063 15.64 10.063z" />
<glyph unicode="&#xe918;" glyph-name="ic_dropdown1" d="M632.361 541.74c16.425 16.896 43.437 17.279 60.334 0.854 15.597-15.162 17.122-39.344 4.346-56.264l-3.492-4.069-150.144-154.453c-15.466-15.91-40.239-17.133-57.137-3.671l-4.050 3.671-150.144 154.453c-16.425 16.896-16.043 43.909 0.854 60.334 15.597 15.162 39.813 16.002 56.365 2.752l3.969-3.606 119.55-122.924 119.55 122.924z" />
<glyph unicode="&#xe919;" glyph-name="ic_edit_small" d="M761.607 204.799c15.309 0 27.733-12.424 27.733-27.733s-12.424-27.733-27.733-27.733v0h-291.75c-15.309 0-27.733 12.424-27.733 27.733s12.424 27.733 27.733 27.733v0zM678.491 704c29.619 0 57.435-11.537 78.373-32.475 20.938-20.911 32.475-48.754 32.475-78.345 0-29.619-11.537-57.463-32.475-78.373v0l-319.65-319.65c-3.605-3.605-8.098-6.129-13.062-7.349v0l-155.221-37.689c-2.163-0.527-4.354-0.777-6.517-0.777-7.294 0-14.366 2.856-19.607 8.126-6.85 6.822-9.651 16.751-7.349 26.152v0l37.717 155.193c1.193 4.936 3.716 9.485 7.321 13.062v0l319.65 319.65c20.938 20.938 48.754 32.475 78.345 32.475zM586.501 579.451l-261.272-261.272-17.832-73.409 22.63-22.741 73.464 17.86 253.728 253.701-62.898 62.898c-6.295 6.268-8.819 14.809-7.821 22.963v0zM717.65 632.31c-20.911 20.911-57.379 20.938-78.29 0v0l-28.787-28.787c8.181 0.998 16.667-1.553 22.963-7.821v0l62.898-62.898 21.216 21.216c10.455 10.455 16.224 24.35 16.224 39.159 0 14.782-5.768 28.676-16.224 39.131z" />
<glyph unicode="&#xe91a;" d="M180.11 333.778c165.47-131.262 211.057-5.902 417.613-180.525s326.186-39.205 363.918 23.592c75.119 125.019 14.229 351.342-245.128 507.179s-559.555 208.078-634.674 83.059c-75.119-125.019-49.663-315.953 98.272-433.306z" />
<glyph unicode="&#xe91b;" d="M155.461 602.116h204.8c37.703 0 68.267-30.564 68.267-68.267v-204.8c0-37.703-30.564-68.267-68.267-68.267h-204.8c-37.703 0-68.267 30.564-68.267 68.267v204.8c0 37.703 30.564 68.267 68.267 68.267z" />
<glyph unicode="&#xe91c;" d="M872.261 772.783v-204.8c0-37.703-30.564-68.267-68.267-68.267h-204.8c-37.703 0-68.267 30.564-68.267 68.267v204.8c0 37.703 30.564 68.267 68.267 68.267h204.8c37.703 0 68.267-30.564 68.267-68.267z" />
<glyph unicode="&#xe91d;" d="M599.195 363.183h204.8c37.703 0 68.267-30.564 68.267-68.267v-204.8c0-37.703-30.564-68.267-68.267-68.267h-204.8c-37.703 0-68.267 30.564-68.267 68.267v204.8c0 37.703 30.564 68.267 68.267 68.267z" />
<glyph unicode="&#xe91e;" d="M360.261 624.303c49.956 0 90.453-40.497 90.453-90.453v0-204.8c0-49.956-40.497-90.453-90.453-90.453v0h-189.611v44.373h189.611c23.952 0 43.636 18.275 45.869 41.642l0.211 4.438v204.8c0 25.449-20.631 46.080-46.080 46.080v0h-204.8c-25.449 0-46.080-20.631-46.080-46.080v0-204.8c0-18.693 11.13-34.786 27.125-42.014l0.021-46.455c-40.866 8.704-71.52 45.006-71.52 88.469v0 204.8c0 49.956 40.497 90.453 90.453 90.453v0z" />
<glyph unicode="&#xe91f;" d="M803.995 863.236c49.956 0 90.453-40.497 90.453-90.453v0-204.8c0-49.956-40.497-90.453-90.453-90.453v0h-204.8c-49.956 0-90.453 40.497-90.453 90.453v0 204.8c0 49.956 40.497 90.453 90.453 90.453v0h102.366v-44.339l-102.366-0.034c-23.952 0-43.636-18.275-45.869-41.642l-0.211-4.438v-204.8c0-25.449 20.631-46.080 46.080-46.080v0h204.8c25.449 0 46.080 20.631 46.080 46.080v0 204.8c0 25.449-20.631 46.080-46.080 46.080v0l-68.301 0.034v44.339z" />
<glyph unicode="&#xe920;" d="M803.995 385.37c49.956 0 90.453-40.497 90.453-90.453v0-204.8c0-49.956-40.497-90.453-90.453-90.453v0h-136.567v44.373h136.567c23.952 0 43.636 18.275 45.869 41.642l0.211 4.438v204.8c0 25.449-20.631 46.080-46.080 46.080v0h-204.8c-25.449 0-46.080-20.631-46.080-46.080v0-204.8c0-25.449 20.631-46.080 46.080-46.080v0h34.099v-44.373h-34.099c-48.035 0-87.324 37.442-90.275 84.733l-0.178 5.72v204.8c0 49.956 40.497 90.453 90.453 90.453v0z" />
<glyph unicode="&#xe921;" d="M180.11 333.778c165.47-131.262 211.057-5.902 417.613-180.525s326.186-39.205 363.918 23.592c75.119 125.019 14.229 351.342-245.128 507.179s-559.555 208.078-634.674 83.059c-75.119-125.019-49.663-315.953 98.272-433.306z" />
<glyph unicode="&#xe922;" d="M155.461 602.116h204.8c37.703 0 68.267-30.564 68.267-68.267v-204.8c0-37.703-30.564-68.267-68.267-68.267h-204.8c-37.703 0-68.267 30.564-68.267 68.267v204.8c0 37.703 30.564 68.267 68.267 68.267z" />
<glyph unicode="&#xe923;" d="M872.261 772.783v-204.8c0-37.703-30.564-68.267-68.267-68.267h-204.8c-37.703 0-68.267 30.564-68.267 68.267v204.8c0 37.703 30.564 68.267 68.267 68.267h204.8c37.703 0 68.267-30.564 68.267-68.267z" />
<glyph unicode="&#xe924;" d="M599.195 363.183h204.8c37.703 0 68.267-30.564 68.267-68.267v-204.8c0-37.703-30.564-68.267-68.267-68.267h-204.8c-37.703 0-68.267 30.564-68.267 68.267v204.8c0 37.703 30.564 68.267 68.267 68.267z" />
<glyph unicode="&#xe925;" d="M360.261 624.303c49.956 0 90.453-40.497 90.453-90.453v0-204.8c0-49.956-40.497-90.453-90.453-90.453v0h-189.611v44.373h189.611c23.952 0 43.636 18.275 45.869 41.642l0.211 4.438v204.8c0 25.449-20.631 46.080-46.080 46.080v0h-204.8c-25.449 0-46.080-20.631-46.080-46.080v0-204.8c0-18.693 11.13-34.786 27.125-42.014l0.021-46.455c-40.866 8.704-71.52 45.006-71.52 88.469v0 204.8c0 49.956 40.497 90.453 90.453 90.453v0z" />
<glyph unicode="&#xe926;" d="M803.995 863.236c49.956 0 90.453-40.497 90.453-90.453v0-204.8c0-49.956-40.497-90.453-90.453-90.453v0h-204.8c-49.956 0-90.453 40.497-90.453 90.453v0 204.8c0 49.956 40.497 90.453 90.453 90.453v0h102.366v-44.339l-102.366-0.034c-23.952 0-43.636-18.275-45.869-41.642l-0.211-4.438v-204.8c0-25.449 20.631-46.080 46.080-46.080v0h204.8c25.449 0 46.080 20.631 46.080 46.080v0 204.8c0 25.449-20.631 46.080-46.080 46.080v0l-68.301 0.034v44.339z" />
<glyph unicode="&#xe927;" d="M803.995 385.37c49.956 0 90.453-40.497 90.453-90.453v0-204.8c0-49.956-40.497-90.453-90.453-90.453v0h-136.567v44.373h136.567c23.952 0 43.636 18.275 45.869 41.642l0.211 4.438v204.8c0 25.449-20.631 46.080-46.080 46.080v0h-204.8c-25.449 0-46.080-20.631-46.080-46.080v0-204.8c0-25.449 20.631-46.080 46.080-46.080v0h34.099v-44.373h-34.099c-48.035 0-87.324 37.442-90.275 84.733l-0.178 5.72v204.8c0 49.956 40.497 90.453 90.453 90.453v0z" />
<glyph unicode="&#xe928;" d="M234.667 486.827v-210.12c0-15.173 8.058-29.205 21.164-36.852l213.333-124.481c13.287-7.753 29.719-7.753 43.006 0l213.333 124.481c13.105 7.647 21.164 21.679 21.164 36.852v210.12l-256-149.377-256 149.377zM469.946 777.822l-296.144-164.524c-20.599-11.444-28.020-37.419-16.577-58.018 3.869-6.965 9.612-12.707 16.577-16.577l316.865-176.036 316.824 176.044c20.603 11.436 28.034 37.409 16.597 58.012-3.869 6.971-9.615 12.718-16.584 16.59l-296.116 164.509c-12.886 7.159-28.555 7.159-41.442 0z" />
<glyph unicode="&#xe929;" d="M466.446 820.856l-380.203-207.383c-20.687-11.284-28.31-37.201-17.026-57.888 3.925-7.197 9.841-13.11 17.039-17.033l101.954-55.565v-230.677c0-15.611 8.525-29.975 22.228-37.453l256-139.703c12.739-6.952 28.138-6.952 40.877 0l256 139.703c13.703 7.478 22.228 21.842 22.228 37.453v230.677l85.333 46.507v-252.16c0-23.564 19.103-42.667 42.667-42.667s42.667 19.103 42.667 42.667v273.338c0 15.614-8.529 29.98-22.236 37.457l-426.667 232.727c-12.735 6.946-28.127 6.946-40.862 0zM777.864 576l-290.987-158.72-290.987 158.72 290.987 158.72 290.987-158.72zM700.211 277.76l-213.333-116.48-213.333 116.48v158.72l213.333-116.48 213.333 116.48v-158.72z" />
<glyph unicode="&#xe92a;" glyph-name="ic_guia" d="M466.446 820.856l-380.203-207.383c-20.687-11.284-28.31-37.201-17.026-57.888 3.925-7.197 9.841-13.11 17.039-17.033l101.954-55.565v-230.677c0-15.611 8.525-29.975 22.228-37.453l256-139.703c12.739-6.952 28.138-6.952 40.877 0l256 139.703c13.703 7.478 22.228 21.842 22.228 37.453v230.677l85.333 46.507v-252.16c0-23.564 19.103-42.667 42.667-42.667s42.667 19.103 42.667 42.667v273.338c0 15.614-8.529 29.98-22.236 37.457l-426.667 232.727c-12.735 6.946-28.127 6.946-40.862 0zM777.864 576l-290.987-158.72-290.987 158.72 290.987 158.72 290.987-158.72zM700.211 277.76l-213.333-116.48-213.333 116.48v158.72l213.333-116.48 213.333 116.48v-158.72z" />
<glyph unicode="&#xe92b;" glyph-name="ic_info" d="M512 810.667c200.295 0 362.667-162.371 362.667-362.667s-162.371-362.667-362.667-362.667c-200.295 0-362.667 162.371-362.667 362.667s162.371 362.667 362.667 362.667zM512 768c-176.731 0-320-143.269-320-320s143.269-320 320-320c176.731 0 320 143.269 320 320s-143.269 320-320 320zM512 512c23.564 0 42.667-19.103 42.667-42.667v0-170.667c0-23.564-19.103-42.667-42.667-42.667s-42.667 19.103-42.667 42.667v0 170.667c0 23.564 19.103 42.667 42.667 42.667zM512 640c23.564 0 42.667-19.103 42.667-42.667s-19.103-42.667-42.667-42.667c-23.564 0-42.667 19.103-42.667 42.667s19.103 42.667 42.667 42.667z" />
<glyph unicode="&#xe92c;" d="M469.995-34.864c178.651 67.026 102.705 160.812 334.060 239.46s182.041 234.505 150.923 293.029c-61.951 116.513-265.641 174.862-506.99 46.534s-421.408-336.614-359.457-453.127c61.951-116.513 221.743-185.82 381.463-125.897z" />
<glyph unicode="&#xe92d;" d="M283.136 874.774l2.597-2.509 76.339-86.659c8.1-9.195 7.212-23.214-1.983-31.314-8.275-7.29-20.459-7.3-28.717-0.526l-2.597 2.509-76.339 86.659c-8.1 9.195-7.212 23.214 1.983 31.314 8.275 7.29 20.459 7.3 28.717 0.526zM762.074 874.774c8.259 6.774 20.442 6.764 28.717-0.526 9.195-8.1 10.082-22.119 1.983-31.314v0l-76.339-86.659-2.597-2.509c-8.259-6.774-20.442-6.764-28.717 0.526-9.195 8.1-10.082 22.119-1.983 31.314v0l76.339 86.659zM525.084 948.053c11.139 0 20.361-8.209 21.946-18.908l0.241-3.279v-119.467c0-12.253-9.933-22.187-22.187-22.187-11.139 0-20.361 8.209-21.946 18.908l-0.241 3.279v119.467c0 12.253 9.933 22.187 22.187 22.187z" />
<glyph unicode="&#xe92e;" d="M775.47 693.76c13.422 0 25.357-8.886 29.103-21.727 23.363-80.205 9.495-167.612-35.215-237.288-13.645-21.216-21.575-45.746-23.169-71.475l-0.299-9.701v-254.474c0-20.81-15.944-37.946-36.292-40.007l-4.125-0.208h-241.338c-20.884 0-38.132 15.837-40.206 36.105l-0.209 4.109v29.146c0 10.224-6.256 18.509-16.218 21.431-3.931 1.145-7.261 1.228-14.954 0.25l-4.233-0.577-6.605-0.804c-54.409-5.567-92.852 17.23-98.257 66.088-1.454 13.224 8.122 25.082 21.395 26.554 12.164 1.313 23.17-6.559 26.040-18.070l0.576-3.225 0.588-3.824c2.939-14.532 12.98-19.994 31.653-20.225 4.719-0.058 9.432 0.212 15.552 0.832l18.093 1.972 8.456-0.108c35.418-2.381 63.432-29.327 66.020-64.895l0.195-5.398-0.023-21.233h225.587l0.005 246.561c0 31.676 7.311 62.439 21.288 90.017l4.905 9.072 10.133 16.593c32.102 54.904 42.237 121.927 25.761 184.009l0.338-1.382 1.468-6.212-22.012-0.019c-10.988 0-20.283 7.323-23.2 17.353l-0.73 3.437-0.221 3.267c0 12.19 9.102 22.246 20.877 23.837l3.273 0.219h36.001zM669.059 697.173c13.208 0 23.848-10.776 23.848-24.009 0-12.13-8.941-22.194-20.604-23.787l-3.244-0.22-374.284 0.024-0.978-4.225c-1.655-7.939-2.901-15.975-3.733-24.078l-0.937-12.201-0.313-12.279c0-12.048 0.477-19.244 1.531-26.704l0.575-3.776 0.689-4.659c0.701-5.55 0.517-8.854-0.749-14.768-2.038-9.522-45.004-135.618-46.885-141.084l-0.041-0.113-1-3.66c-3.619-17.088 7.23-33.967 23.154-36.906l3.487-0.412 30.869-0.055c12.081-0.030 22.016-9.081 23.588-20.761l0.217-3.246v-62.852c0-13.242-10.65-24.007-23.848-24.007-12.111 0-22.057 9.042-23.631 20.752l-0.217 3.255-0.006 38.879-7.903 0.037-5.852 0.444c-38.718 4.486-68.234 37.975-68.234 78.379 0 6.717 0.326 10.834 2.128 17.826l1.267 4.584 3.156 10.222c0.58 1.816 1.824 5.588 3.54 10.747l1.373 4.12 37.996 113.154-1.056 8.182-1.023 10.79-0.615 10.818-0.205 10.818c0 26.892 3.744 53.529 11.128 79.139 3.326 11.477 13.173 19.819 24.751 21.372l3.917 0.261h388.144z" />
<glyph unicode="&#xe92f;" d="M469.995-34.864c178.651 67.026 102.705 160.812 334.060 239.46s182.041 234.505 150.923 293.029c-61.951 116.513-265.641 174.862-506.99 46.534s-421.408-336.614-359.457-453.127c61.951-116.513 221.743-185.82 381.463-125.897z" />
<glyph unicode="&#xe930;" d="M283.136 874.774l2.597-2.509 76.339-86.659c8.1-9.195 7.212-23.214-1.983-31.314-8.275-7.29-20.459-7.3-28.717-0.526l-2.597 2.509-76.339 86.659c-8.1 9.195-7.212 23.214 1.983 31.314 8.275 7.29 20.459 7.3 28.717 0.526zM762.074 874.774c8.259 6.774 20.442 6.764 28.717-0.526 9.195-8.1 10.082-22.119 1.983-31.314v0l-76.339-86.659-2.597-2.509c-8.259-6.774-20.442-6.764-28.717 0.526-9.195 8.1-10.082 22.119-1.983 31.314v0l76.339 86.659zM525.084 948.053c11.139 0 20.361-8.209 21.946-18.908l0.241-3.279v-119.467c0-12.253-9.933-22.187-22.187-22.187-11.139 0-20.361 8.209-21.946 18.908l-0.241 3.279v119.467c0 12.253 9.933 22.187 22.187 22.187z" />
<glyph unicode="&#xe931;" d="M775.47 693.76c13.422 0 25.357-8.886 29.103-21.727 23.363-80.205 9.495-167.612-35.215-237.288-13.645-21.216-21.575-45.746-23.169-71.475l-0.299-9.701v-254.474c0-20.81-15.944-37.946-36.292-40.007l-4.125-0.208h-241.338c-20.884 0-38.132 15.837-40.206 36.105l-0.209 4.109v29.146c0 10.224-6.256 18.509-16.218 21.431-3.931 1.145-7.261 1.228-14.954 0.25l-4.233-0.577-6.605-0.804c-54.409-5.567-92.852 17.23-98.257 66.088-1.454 13.224 8.122 25.082 21.395 26.554 12.164 1.313 23.17-6.559 26.040-18.070l0.576-3.225 0.588-3.824c2.939-14.532 12.98-19.994 31.653-20.225 4.719-0.058 9.432 0.212 15.552 0.832l18.093 1.972 8.456-0.108c35.418-2.381 63.432-29.327 66.020-64.895l0.195-5.398-0.023-21.233h225.587l0.005 246.561c0 31.676 7.311 62.439 21.288 90.017l4.905 9.072 10.133 16.593c32.102 54.904 42.237 121.927 25.761 184.009l0.338-1.382 1.468-6.212-22.012-0.019c-10.988 0-20.283 7.323-23.2 17.353l-0.73 3.437-0.221 3.267c0 12.19 9.102 22.246 20.877 23.837l3.273 0.219h36.001zM669.059 697.173c13.208 0 23.848-10.776 23.848-24.009 0-12.13-8.941-22.194-20.604-23.787l-3.244-0.22-374.284 0.024-0.978-4.225c-1.655-7.939-2.901-15.975-3.733-24.078l-0.937-12.201-0.313-12.279c0-12.048 0.477-19.244 1.531-26.704l0.575-3.776 0.689-4.659c0.701-5.55 0.517-8.854-0.749-14.768-2.038-9.522-45.004-135.618-46.885-141.084l-0.041-0.113-1-3.66c-3.619-17.088 7.23-33.967 23.154-36.906l3.487-0.412 30.869-0.055c12.081-0.030 22.016-9.081 23.588-20.761l0.217-3.246v-62.852c0-13.242-10.65-24.007-23.848-24.007-12.111 0-22.057 9.042-23.631 20.752l-0.217 3.255-0.006 38.879-7.903 0.037-5.852 0.444c-38.718 4.486-68.234 37.975-68.234 78.379 0 6.717 0.326 10.834 2.128 17.826l1.267 4.584 3.156 10.222c0.58 1.816 1.824 5.588 3.54 10.747l1.373 4.12 37.996 113.154-1.056 8.182-1.023 10.79-0.615 10.818-0.205 10.818c0 26.892 3.744 53.529 11.128 79.139 3.326 11.477 13.173 19.819 24.751 21.372l3.917 0.261h388.144z" />
<glyph unicode="&#xe932;" d="M149.333 768v-512h256l106.667-85.333 128 85.333h234.667v512z" />
<glyph unicode="&#xe933;" d="M288.768 810.667c23.552 0 42.667-19.115 42.667-42.667s-19.115-42.667-42.667-42.667h-75.435c-23.509 0-42.667-19.157-42.667-42.667v-352.384c0-23.552 19.157-42.667 42.667-42.667h133.845c34.176 0 66.304-13.312 90.496-37.504l74.325-74.325 74.325 74.325c24.192 24.192 56.32 37.504 90.496 37.504h133.845c23.552 0 42.667 19.115 42.667 42.667v352.384c0 23.509-19.115 42.667-42.667 42.667h-417.707c-23.595 0-42.667 19.115-42.667 42.667s19.072 42.667 42.667 42.667h417.707c70.571 0 128-57.429 128-128v-352.384c0-70.613-57.429-128-128-128h-133.845c-11.221 0-22.229-4.565-30.165-12.501l-104.491-104.491c-7.979-8.021-18.816-12.501-30.165-12.501-11.307 0-22.187 4.48-30.165 12.501l-104.491 104.491c-7.936 7.936-18.944 12.501-30.165 12.501h-133.845c-70.571 0-128 57.387-128 128v352.384c0 70.571 57.429 128 128 128h75.435zM685.252 545.199c28.629 0 51.968-23.509 51.968-52.352 0-28.885-23.339-52.352-51.968-52.352-28.672 0-51.968 23.467-51.968 52.352 0 28.843 23.296 52.352 51.968 52.352zM353.958 545.199c28.672 0 51.968-23.509 51.968-52.352 0-28.885-23.296-52.352-51.968-52.352-28.629 0-51.925 23.467-51.925 52.352 0 28.843 23.296 52.352 51.925 52.352zM519.625 545.199c28.629 0 51.925-23.509 51.925-52.352 0-28.885-23.296-52.352-51.925-52.352-28.672 0-51.968 23.467-51.968 52.352 0 28.843 23.296 52.352 51.968 52.352z" />
<glyph unicode="&#xe934;" glyph-name="ic_message" d="M288.768 810.667c23.552 0 42.667-19.115 42.667-42.667s-19.115-42.667-42.667-42.667h-75.435c-23.509 0-42.667-19.157-42.667-42.667v-352.384c0-23.552 19.157-42.667 42.667-42.667h133.845c34.176 0 66.304-13.312 90.496-37.504l74.325-74.325 74.325 74.325c24.192 24.192 56.32 37.504 90.496 37.504h133.845c23.552 0 42.667 19.115 42.667 42.667v352.384c0 23.509-19.115 42.667-42.667 42.667h-417.707c-23.595 0-42.667 19.115-42.667 42.667s19.072 42.667 42.667 42.667h417.707c70.571 0 128-57.429 128-128v-352.384c0-70.613-57.429-128-128-128h-133.845c-11.221 0-22.229-4.565-30.165-12.501l-104.491-104.491c-7.979-8.021-18.816-12.501-30.165-12.501-11.307 0-22.187 4.48-30.165 12.501l-104.491 104.491c-7.936 7.936-18.944 12.501-30.165 12.501h-133.845c-70.571 0-128 57.387-128 128v352.384c0 70.571 57.429 128 128 128h75.435zM685.252 545.199c28.629 0 51.968-23.509 51.968-52.352 0-28.885-23.339-52.352-51.968-52.352-28.672 0-51.968 23.467-51.968 52.352 0 28.843 23.296 52.352 51.968 52.352zM353.958 545.199c28.672 0 51.968-23.509 51.968-52.352 0-28.885-23.296-52.352-51.968-52.352-28.629 0-51.925 23.467-51.925 52.352 0 28.843 23.296 52.352 51.925 52.352zM519.625 545.199c28.629 0 51.925-23.509 51.925-52.352 0-28.885-23.296-52.352-51.925-52.352-28.672 0-51.968 23.467-51.968 52.352 0 28.843 23.296 52.352 51.968 52.352z" />
<glyph unicode="&#xe935;" d="M812.181 232.346c-189.145-93.991-207.672 38.108-446.020-89.754s-327.209 29.469-351.060 98.739c-47.484 137.905 59.13 346.623 345.22 445.131s590.59 87.193 638.074-50.712c47.484-137.905-17.112-319.375-186.214-403.405z" />
<glyph unicode="&#xe936;" d="M290.133 721.067c-39.855-71.738-51.2-238.933 17.067-324.267 45.511-56.889 51.2-108.089 17.067-153.6l34.133-85.333 34.133-34.133h51.2l34.133-68.267c68.267 0 102.4 11.378 102.4 34.133s11.378 34.133 34.133 34.133l51.2 34.133 17.067 51.2c11.378 11.378 17.067 28.444 17.067 51.2s-5.689 34.133-17.067 34.133l17.067 85.333 68.267 119.467c22.756 68.267 17.067 130.844-17.067 187.733-51.2 85.333-119.467 153.6-170.667 153.6s-250.279-47.728-290.133-119.467z" />
<glyph unicode="&#xe937;" d="M511.465 867.841c44.98 0.114 88.202-10.31 128.175-30.902 38.086-19.62 71.898-48.307 97.818-82.981 7.346-9.817 5.497-23.799-4.171-31.315-9.783-7.615-23.815-5.689-31.263 4.249-43.774 58.548-109.145 93.095-180.658 95.873l-9.814 0.181c-63.856-0.12-123.887-25.85-169.139-72.525-45.305-46.735-69.906-108.39-69.3-173.695 0.489-52.189 16.88-101.78 47.412-143.475 13.846-18.897 21.907-40.734 23.528-63.566l0.304-10.18c0-26.007 19.466-47.392 44.173-49.818l4.69-0.229 96.557 0.029v135.851l-2.591 0.584c-38.962 10.274-68.204 43.997-73.219 84.818l-0.588 6.502-0.175 6.001c0 12.353 9.9 22.446 22.208 22.446 12.313 0 22.208-10.092 22.208-22.446 0-30.729 24.448-55.666 54.379-55.666s54.379 24.937 54.379 55.666c0 12.354 9.895 22.446 22.208 22.446 12.308 0 22.208-10.093 22.208-22.446 0-44.205-28.342-82.392-68.21-95.605l-5.772-1.716-2.626-0.584v-135.851l96.591-0.029c23.725 0 43.625 17.451 47.979 40.539l0.66 4.689 0.225 4.819v1.556c0 25.782 8.188 51.051 23.114 71.223 31.5 42.563 48.142 93.301 48.142 146.808 0 39.151-8.796 76.49-26.155 111.058-5.514 10.974-1.258 24.427 9.61 30.108 10.975 5.725 24.421 1.302 29.991-9.784 20.542-40.911 30.962-85.141 30.962-131.388 0-63.224-19.715-123.323-56.986-173.688-8.028-10.857-12.927-24.288-14.027-38.305l-0.237-7.594c0-19.487-5.842-38.043-16.303-53.567l-4.137-5.675-3.576-4.218 1.564-1.196c10.569-9.077 17.888-21.626 20.521-35.623l0.837-6.082 0.242-5.526c0-20.813-10.253-39.625-26.315-50.904l-4.521-2.885-2.296-1.174 2.005-5.587c0.791-2.598 1.413-5.254 1.86-7.954l0.539-4.081 0.306-6.221c0-32.364-24.581-59.052-55.848-61.64l-4.99-0.206-25.451 0.014-0.611-2.84c-10.125-40.048-43.603-70.179-84.212-75.226l-6.143-0.567-5.952-0.18c-43.85 0-81.61 29.163-94.623 70.052l-1.689 5.919-0.649 2.843-25.415-0.014c-30.148 0-55.172 22.363-59.998 51.565l-0.639 5.221-0.202 5.060c0 4.182 0.412 8.305 1.214 12.321l1.493 5.938 1.967 5.583-2.255 1.174c-15.638 9.030-26.749 24.795-29.918 43.049l-0.709 5.547-0.214 5.194c0 17.269 7.067 33.27 18.828 44.692l4.091 3.633 0.688 0.545-3.372 4.043c-10.176 13.021-16.874 28.588-19.261 45.265l-0.757 7.211-0.218 8.079c0 16.247-5.206 31.943-15.106 45.462-36.14 49.341-55.553 108.068-56.131 169.762-0.717 77.248 28.409 150.274 81.987 205.541 51.163 52.77 118.492 83.020 190.466 85.787l10.306 0.209zM562.005 106.974h-100.898l0.88-2.016c8.288-17.571 25.162-29.894 44.664-31.686l4.927-0.226c21.554 0 40.611 12.879 49.59 31.913l0.838 2.015zM662.367 264.566h-301.586c-9.002 0-16.423-7.567-16.423-16.954 0-8.342 5.866-15.254 13.49-16.687l2.933-0.273h45.402c12.307 0 22.202-10.092 22.202-22.44 0-11.23-8.176-20.592-18.91-22.202l-3.291-0.244h-16.98c-9 0-16.423-7.571-16.423-16.96 0-8.34 5.865-15.249 13.489-16.681l2.934-0.272h244.743c9.005 0 16.429 7.57 16.429 16.954 0 8.346-5.865 15.255-13.493 16.687l-2.935 0.273h-43.364c-12.308 0-22.208 10.093-22.208 22.446 0 11.226 8.183 20.587 18.917 22.196l3.291 0.244h71.786c9.006 0 16.429 7.571 16.429 16.96 0 9.384-7.423 16.954-16.429 16.954z" />
<glyph unicode="&#xe938;" d="M812.181 232.346c-189.145-93.991-207.672 38.108-446.020-89.754s-327.209 29.469-351.060 98.739c-47.484 137.905 59.13 346.623 345.22 445.131s590.59 87.193 638.074-50.712c47.484-137.905-17.112-319.375-186.214-403.405z" />
<glyph unicode="&#xe939;" d="M290.133 721.067c-39.855-71.738-51.2-238.933 17.067-324.267 45.511-56.889 51.2-108.089 17.067-153.6l34.133-85.333 34.133-34.133h51.2l34.133-68.267c68.267 0 102.4 11.378 102.4 34.133s11.378 34.133 34.133 34.133l51.2 34.133 17.067 51.2c11.378 11.378 17.067 28.444 17.067 51.2s-5.689 34.133-17.067 34.133l17.067 85.333 68.267 119.467c22.756 68.267 17.067 130.844-17.067 187.733-51.2 85.333-119.467 153.6-170.667 153.6s-250.279-47.728-290.133-119.467z" />
<glyph unicode="&#xe93a;" d="M739.089 711.18c-5.883-3.075-8.211-10.431-5.196-16.431 18.077-36 27.245-74.912 27.245-115.656 0-55.694-17.342-108.569-50.151-152.9-13.61-18.394-21.105-41.525-21.105-65.131v-1.556c0-33.244-26.516-60.287-59.104-60.287h-106.81v154.556c43.184 5.981 76.587 43.812 76.587 89.469 0 6.744-5.362 12.206-11.968 12.206-6.612 0-11.968-5.462-11.968-12.206 0-36.337-28.985-65.906-64.619-65.906s-64.619 29.569-64.619 65.906c0 6.744-5.356 12.206-11.968 12.206-6.606 0-11.968-5.462-11.968-12.206 0-45.656 33.403-83.487 76.587-89.469v-154.556h-106.81c-32.588 0-59.104 27.044-59.104 60.287v1.575c0 23.744-7.556 46.606-21.852 66.119-31.804 43.431-48.882 95.106-49.391 149.431-0.631 68 25.008 132.25 72.187 180.918 47.167 48.65 109.837 75.512 176.472 75.637h0.472c78.382 0 150.612-36.487 198.22-100.162 4.014-5.356 11.521-6.387 16.772-2.3 5.258 4.087 6.269 11.744 2.261 17.1-24.996 33.437-57.609 61.106-94.309 80.012-38.496 19.831-80.098 29.875-123.459 29.764-73.063-0.139-141.763-29.577-193.446-82.883-51.701-53.331-79.792-123.762-79.099-198.318 0.558-59.55 19.278-116.193 54.152-163.806 11.177-15.262 17.085-33.075 17.085-51.512v-1.575c0-26.031 11.582-49.344 29.751-64.894-17.526-8.119-29.751-26.125-29.751-47 0-23.731 15.798-43.762 37.221-49.762-5.552-8.281-8.8-18.281-8.8-29.044 0-28.456 22.698-51.606 50.598-51.606h33.967c5.871-44.431 43.263-78.8 88.408-78.8s82.537 34.375 88.401 78.8h33.967c27.9 0 50.598 23.15 50.598 51.606 0 10.762-3.248 20.762-8.794 29.044 21.423 6 37.215 26.031 37.215 49.762 0 20.656-11.968 38.506-29.193 46.744 18.341 15.55 30.045 38.975 30.045 65.144v1.556c0 18.337 5.779 36.244 16.27 50.431 35.965 48.6 54.98 106.562 54.98 167.6 0 44.656-10.050 87.312-29.874 126.793-3.015 6-10.221 8.369-16.104 5.3zM511.577 62.806c-31.92 0-58.54 23.487-64.178 54.394h128.356c-5.638-30.906-32.264-54.394-64.178-54.394zM662.367 274.806c14.707 0 26.669-12.2 26.669-27.194 0-15-11.962-27.2-26.669-27.2h-71.786c-6.606 0-11.968-5.462-11.968-12.2 0-6.744 5.362-12.206 11.968-12.206h43.364c14.707 0 26.669-12.2 26.669-27.2 0-14.994-11.962-27.194-26.669-27.194h-244.743c-14.701 0-26.663 12.2-26.663 27.194 0 15 11.962 27.2 26.663 27.2h16.98c6.606 0 11.962 5.462 11.962 12.206 0 6.737-5.356 12.2-11.962 12.2h-45.402c-14.701 0-26.663 12.206-26.663 27.2 0 15 11.962 27.194 26.663 27.194h301.586z" />
<glyph unicode="&#xe93b;" glyph-name="ic_view_small" d="M512.004 661.333c11.863 0 23.822-0.636 35.59-1.94 18.574-2.004 32.028-18.733 29.993-37.34s-18.606-32.060-37.34-30.024c-9.319 1.018-18.829 1.558-28.243 1.558-99.392 0-192.837-58.554-247.606-153.843 54.769-95.289 148.214-153.843 247.606-153.843 99.297 0 192.678 58.459 247.479 153.621-37.372 65.138-92.3 113.832-156.738 137.718-17.525 6.52-26.494 26.017-19.974 43.542 6.52 17.557 25.985 26.494 43.542 20.006 84.953-31.488 156.388-96.943 201.361-184.345 0.127-0.191 0.254-0.382 0.35-0.573 0.095-0.254 0.254-0.477 0.382-0.732 0.382-0.7 0.572-1.463 0.891-2.195 0.477-1.145 0.986-2.29 1.368-3.499 0.286-1.050 0.477-2.099 0.668-3.181 0.223-1.081 0.477-2.131 0.573-3.244s0.095-2.195 0.095-3.276c0-1.113 0-2.195-0.095-3.308s-0.35-2.163-0.573-3.244c-0.191-1.081-0.382-2.131-0.668-3.181-0.382-1.209-0.922-2.354-1.399-3.53-0.286-0.7-0.477-1.463-0.859-2.163-0.127-0.254-0.286-0.509-0.413-0.795-0.064-0.127-0.127-0.254-0.223-0.382-65.074-126.459-185.935-205.019-315.766-205.019s-250.691 78.528-315.766 205.019c-0.095 0.127-0.159 0.254-0.254 0.413-0.095 0.254-0.254 0.509-0.413 0.763-0.35 0.7-0.541 1.431-0.827 2.131-0.477 1.177-1.018 2.354-1.399 3.562-0.286 1.050-0.477 2.099-0.7 3.149-0.191 1.113-0.445 2.163-0.573 3.276-0.095 1.113-0.069 2.195-0.069 3.308l-0.001 1.626 0.070 1.65c0.127 1.113 0.382 2.195 0.573 3.276 0.223 1.050 0.413 2.099 0.7 3.149 0.382 1.24 0.922 2.385 1.399 3.562 0.286 0.7 0.477 1.431 0.827 2.131 0.159 0.254 0.318 0.509 0.413 0.795v0l0.254 0.413c65.074 126.459 185.935 204.987 315.766 204.987zM511.995 551.369c61.576 0 111.638-50.062 111.638-111.638s-50.062-111.638-111.638-111.638c-61.544 0-111.669 50.062-111.669 111.638s50.126 111.638 111.669 111.638zM511.995 487.758c-26.494 0-48.058-21.532-48.058-48.026s21.564-48.026 48.058-48.026c26.462 0 48.026 21.532 48.026 48.026s-21.564 48.026-48.026 48.026z" />
<glyph unicode="&#xe93c;" d="M921.6 448c0-226.216-183.384-409.6-409.6-409.6s-409.6 183.384-409.6 409.6c0 226.216 183.384 409.6 409.6 409.6s409.6-183.384 409.6-409.6z" />
<glyph unicode="&#xe93d;" d="M512 908.8c-254.493 0-460.8-206.307-460.8-460.8s206.307-460.8 460.8-460.8c254.493 0 460.8 206.307 460.8 460.8s-206.307 460.8-460.8 460.8zM512 806.4c197.939 0 358.4-160.461 358.4-358.4s-160.461-358.4-358.4-358.4c-197.939 0-358.4 160.461-358.4 358.4s160.461 358.4 358.4 358.4z" />
<glyph unicode="&#xe93e;" glyph-name="ic_index_full" d="M512 908.8c254.493 0 460.8-206.307 460.8-460.8s-206.307-460.8-460.8-460.8c-254.493 0-460.8 206.307-460.8 460.8s206.307 460.8 460.8 460.8z" />
<glyph unicode="&#xe93f;" glyph-name="ic_index" d="M754.693 234.667c20.533 0 37.197-19.115 37.197-42.667 0-21.87-14.369-39.913-32.861-42.379l-4.336-0.287h-482.812c-20.57 0-37.197 19.115-37.197 42.667 0 21.87 14.336 39.913 32.854 42.379l4.343 0.287h482.812zM106.667 234.667c23.564 0 42.667-19.103 42.667-42.667s-19.103-42.667-42.667-42.667c-23.564 0-42.667 19.103-42.667 42.667s19.103 42.667 42.667 42.667zM922.803 490.667c20.533 0 37.197-19.115 37.197-42.667 0-21.87-14.369-39.913-32.861-42.379l-4.336-0.287h-650.94c-20.57 0-37.197 19.115-37.197 42.667 0 21.87 14.336 39.913 32.854 42.379l4.343 0.287h650.94zM106.667 490.667c23.564 0 42.667-19.103 42.667-42.667s-19.103-42.667-42.667-42.667c-23.564 0-42.667 19.103-42.667 42.667s19.103 42.667 42.667 42.667zM922.803 746.667c20.533 0 37.197-19.115 37.197-42.667 0-21.87-14.369-39.913-32.861-42.379l-4.336-0.287h-650.94c-20.57 0-37.197 19.115-37.197 42.667 0 21.87 14.336 39.913 32.854 42.379l4.343 0.287h650.94zM106.667 746.667c23.564 0 42.667-19.103 42.667-42.667s-19.103-42.667-42.667-42.667c-23.564 0-42.667 19.103-42.667 42.667s19.103 42.667 42.667 42.667z" />
<glyph unicode="&#xe940;" glyph-name="ic_web2" d="M437.071 831.988c23.564 0 42.667-19.103 42.667-42.667 0-21.881-16.471-39.915-37.691-42.38l-4.976-0.287h-208.8c-7.219 0-13.238-5.117-14.63-11.923l-0.303-3.010v-576c0-7.21 5.123-13.236 11.925-14.63l3.008-0.304h576c7.202 0 13.234 5.131 14.629 11.928l0.304 3.005v171.379c0 23.564 19.103 42.667 42.667 42.667 21.881 0 39.915-16.471 42.38-37.691l0.287-4.976v-171.379c0-53.053-41.243-96.506-93.404-100.035l-6.863-0.231h-576c-53.067 0-96.507 41.239-100.035 93.403l-0.231 6.863v576c0 53.071 41.225 96.508 93.401 100.035l6.865 0.231h208.8zM861.871 831.992l0.826-0.008c0.995-0.019 1.99-0.073 2.982-0.161l-3.808 0.169c2.16 0 4.282-0.16 6.356-0.47 0.725-0.111 1.468-0.242 2.209-0.393 0.94-0.188 1.865-0.409 2.778-0.661 0.667-0.187 1.323-0.384 1.976-0.598 0.839-0.272 1.683-0.579 2.514-0.912 0.757-0.303 1.495-0.622 2.226-0.963 0.882-0.414 1.752-0.858 2.605-1.331 0.517-0.283 1.038-0.586 1.554-0.901 1.091-0.671 2.151-1.386 3.177-2.147 0.318-0.232 0.626-0.468 0.933-0.709 2.695-2.117 5.138-4.561 7.262-7.267l-3.418 3.855c1.51-1.51 2.883-3.105 4.12-4.77 0.761-1.032 1.477-2.092 2.145-3.185 0.318-0.514 0.622-1.035 0.913-1.562 0.464-0.843 0.909-1.714 1.323-2.601 0.34-0.725 0.66-1.464 0.957-2.209 0.337-0.843 0.644-1.687 0.925-2.543 0.206-0.635 0.403-1.292 0.585-1.952 0.253-0.906 0.471-1.817 0.66-2.74 0.151-0.756 0.285-1.514 0.399-2.275 0.068-0.437 0.129-0.897 0.183-1.359l0.129-1.297c0.066-0.767 0.111-1.534 0.136-2.303l0.022-1.376v-277.21c0-23.564-19.103-42.667-42.667-42.667-21.881 0-39.915 16.471-42.38 37.691l-0.287 4.976-0.043 174.17-272.721-272.73c-16.662-16.662-43.677-16.662-60.34 0-15.381 15.381-16.564 39.583-3.549 56.32l3.549 4.020 272.73 272.806-148.96-0.043c-21.881 0-39.915 16.471-42.38 37.691l-0.287 4.976c0 21.881 16.471 39.915 37.691 42.38l4.976 0.287h252z" />
<glyph unicode="&#xe941;" glyph-name="ic_upload" d="M776.021 398.694c17.749 15.445 44.715 13.568 60.16-4.224v0l52.437-60.331c19.925-22.912 30.891-52.224 30.891-82.56v0-119.467c0-61.099-49.664-110.763-110.763-110.763v0h-612.651c-61.056 0-110.763 49.664-110.763 110.763v0 119.467c0 30.293 10.965 59.605 30.848 82.56v0l52.437 60.331c15.403 17.792 42.368 19.669 60.16 4.224 17.792-15.488 19.712-42.411 4.267-60.203v0l-52.437-60.331c-6.4-7.381-9.941-16.811-9.941-26.581v0-119.467c0-14.037 11.392-25.429 25.429-25.429v0h612.651c14.037 0 25.429 11.392 25.429 25.429v0 119.467c0 9.771-3.541 19.2-9.984 26.581v0l-52.395 60.331c-15.488 17.792-13.568 44.715 4.224 60.203zM502.409 874.667c10.923 0 21.845-4.181 30.165-12.501v0l199.040-199.040c16.683-16.683 16.683-43.691 0-60.331-16.683-16.683-43.648-16.683-60.331 0v0l-126.208 126.165v-381.781c0-23.595-19.115-42.667-42.667-42.667-23.595 0-42.667 19.072-42.667 42.667v0 381.781l-126.208-126.165c-16.683-16.683-43.648-16.683-60.331 0-16.683 16.64-16.683 43.648 0 60.331v0l199.040 199.040c8.32 8.32 19.243 12.501 30.165 12.501z" />
<glyph unicode="&#xe942;" glyph-name="ic_add_small" d="M512 666.667c20.808 0 38.232-15.621 40.641-36.435v0l0.248-4.454-0.057-136.86 136.946-0.028c20.969 0 38.252-15.785 40.614-36.12v0l0.275-4.769c0-20.808-15.621-38.232-36.435-40.641v0l-4.454-0.248-136.945 0.057 0.057-136.946c0-20.969-15.785-38.252-36.12-40.614v0l-4.769-0.275c-20.808 0-38.232 15.621-40.641 36.435v0l-0.248 4.453-0.028 136.947-136.86-0.057c-20.969 0-38.252 15.785-40.614 36.12v0l-0.275 4.769c0 20.808 15.621 38.232 36.435 40.641v0l4.453 0.248 136.862 0.028 0.028 136.86c0 20.969 15.785 38.252 36.12 40.614v0z" />
<glyph unicode="&#xe943;" glyph-name="ic_locked" d="M512 789.333c91.425 0 166.021-72.001 170.458-162.448l0.209-8.218h2.367c66.877 0 121.596-52.169 125.419-118.018l0.213-7.371v-261.221c0-69.272-56.283-125.389-125.633-125.389v0h-346.068c-69.374 0-125.633 56.109-125.633 125.389v0 261.221c0 69.293 56.254 125.389 125.633 125.389v0h2.367l0.209 8.218c4.437 90.447 79.033 162.448 170.458 162.448zM685.034 533.333h-346.068c-22.304 0-40.299-17.945-40.299-40.056v0-261.221c0-22.101 18.003-40.056 40.299-40.056v0h346.068c22.278 0 40.299 17.969 40.299 40.056v0 261.221c0 22.097-18.015 40.056-40.299 40.056v0zM512 448c21.881 0 39.915-16.471 42.38-37.691l0.287-4.976v-85.333c0-23.564-19.103-42.667-42.667-42.667-21.881 0-39.915 16.471-42.38 37.691l-0.287 4.976v85.333c0 23.564 19.103 42.667 42.667 42.667zM512 704c-44.966 0-81.84-34.916-85.099-79.252l-0.234-6.082h170.667l-0.234 6.082c-3.259 44.336-40.134 79.252-85.099 79.252z" />
<glyph unicode="&#xe944;" glyph-name="ic_back" d="M435.509 151.211c16.683 16.683 16.683 43.648 0 60.331l-193.835 193.835 665.003 0.683c23.595 0.043 42.624 19.115 42.624 42.667v0.043c0 23.552-19.115 42.667-42.667 42.624l-664.917-0.683 193.792 193.792c16.683 16.683 16.683 43.648 0 60.331s-43.691 16.683-60.331 0l-266.667-266.667c-3.669-3.669-6.4-7.936-8.491-12.416-0.213-0.469-0.512-0.853-0.683-1.323-0.853-2.005-1.408-4.139-1.92-6.272-0.171-0.555-0.427-1.152-0.555-1.749-0.555-2.773-0.853-5.589-0.853-8.405v-0.128c0-0.683 0.171-1.237 0.213-1.92 0.085-2.133 0.213-4.181 0.64-6.272 0.341-1.835 0.981-3.541 1.579-5.291 0.256-0.896 0.469-1.749 0.811-2.603 0.939-2.347 2.133-4.523 3.499-6.613 0.128-0.213 0.213-0.469 0.341-0.683 1.707-2.603 3.712-4.992 5.931-7.168l266.155-266.112c16.64-16.683 43.648-16.683 60.331 0z" />
<glyph unicode="&#xe945;" glyph-name="ic_bullet" d="M512 661.333c117.821 0 213.333-95.513 213.333-213.333s-95.513-213.333-213.333-213.333c-117.821 0-213.333 95.513-213.333 213.333s95.513 213.333 213.333 213.333zM512 533.333c-47.128 0-85.333-38.205-85.333-85.333s38.205-85.333 85.333-85.333c47.128 0 85.333 38.205 85.333 85.333s-38.205 85.333-85.333 85.333z" />
<glyph unicode="&#xe946;" glyph-name="ic_actividades_on" d="M609.752 386.761c55.224 59.221 148.29 62.015 207.862 6.463s63.276-148.586 8.052-207.807c-55.224-59.221-148.29-62.015-207.862-6.463s-63.276 148.586-8.052 207.807zM325.943 406.225c12.474 20.859 42.732 20.746 55.050-0.206v0l127.91-217.567c12.577-21.392-2.927-48.338-27.742-48.218v0l-257.269 1.253c-24.783 0.121-40.028 27.153-27.308 48.423v0zM491.531 781.29c12.053 12.925 32.302 13.632 45.227 1.579v0l144.95-135.168c12.925-12.053 13.632-32.302 1.579-45.227v0l-133.854-143.54c-12.053-12.925-32.302-13.632-45.227-1.579v0l-144.95 135.168c-12.925 12.053-13.632 32.302-1.579 45.227v0z" />
<glyph unicode="&#xe947;" glyph-name="ic_config" d="M540.198 908.8c6.109 0 11.714-0.337 16.938-1.004v0l6.24-1.057c30.761-6.522 54.708-31.308 59.838-62.766 1.154-7.080 1.692-14.895 1.692-23.835v0l-0.009-32.768 12.268-4.697c5.138-2.089 10.232-4.287 15.278-6.593v0l10.939-5.265 26.31 26.29c3.034 2.935 6.045 5.612 9.064 8.048v0l6.821 5.077 5.811 3.598c25.69 14.368 57.615 12.847 81.939-4.431 5.216-3.705 10.254-8.058 15.466-13.249v0l49.537-49.538c4.635-4.654 8.618-9.215 12.037-13.806v0l3.923-5.802c15.737-25.719 15.040-58.575-2.353-83.733-4.392-6.353-9.868-12.751-16.686-19.569v0l-25.086-25.044 2.277-5.054c1.903-4.441 3.717-8.942 5.44-13.5v0l2.224-6.363 34.195-0.031c4.165 0 8.12-0.157 11.893-0.477v0l5.528-0.602 6.607-1.181c30.363-6.802 53.898-31.43 58.976-62.578 1.154-7.080 1.692-14.895 1.692-23.835v0-62.276c0-9.060-0.573-16.991-1.782-24.19v0l-1.4-6.574c-7.813-30.166-33.266-52.893-64.619-56.894-5.23-0.667-10.829-0.993-16.909-0.993v0l-34.183 0.014-2.157-6.225c-3.518-9.249-7.445-18.352-11.772-27.292v0l-2.796-5.395 30.46-30.428c2.757-2.819 5.282-5.602 7.591-8.371v0l4.839-6.216 3.692-5.607c15.968-26.718 14.293-60.756-4.825-85.879-3.36-4.415-7.249-8.802-11.863-13.432v0l-49.539-49.538c-4.594-4.574-9.090-8.526-13.638-11.925v0l-5.744-3.902c-25.466-15.67-58.009-15.206-83.153 1.743-6.678 4.501-13.358 10.15-20.373 17.165v0l-30.033 30.034-5.032-2.293c-4.442-1.904-8.945-3.718-13.504-5.441v0l-6.381-2.249 0.015-30.203c0-6.040-0.255-11.582-0.783-16.74v0l-0.999-7.461-1.4-6.574c-7.813-30.166-33.266-52.893-64.619-56.894-5.23-0.667-10.829-0.993-16.909-0.993v0h-70.182c-6.046 0-11.618 0.315-16.839 0.979v0l-6.605 1.133c-30.367 6.58-54.054 30.984-59.393 62.043-1.253 7.289-1.871 15.36-1.871 24.506v0l-0.032 30.246-6.361 2.225c-4.559 1.725-9.063 3.54-13.508 5.446v0l-5.006 2.313-29.039-29.078c-4.235-4.235-8.277-7.938-12.208-11.179v0l-5.824-4.523-5.677-3.762c-27.061-16.258-61.654-14.363-86.874 5.388-4.026 3.153-8.108 6.798-12.441 11.112v0l-49.538 49.539c-4.574 4.594-8.526 9.090-11.925 13.638v0l-3.921 5.774c-15.736 25.598-15.169 58.325 2.014 83.495 4.482 6.566 10.113 13.202 16.596 19.678v0l25.355 25.935-2.198 4.3c-4.223 8.621-8.072 17.396-11.54 26.309v0l-3.883 10.607-34.374-0.041c-4.046 0-7.882 0.14-11.547 0.433v0l-5.375 0.556-6.598 1.139c-30.334 6.605-53.983 30.996-59.317 62.026-1.253 7.289-1.871 15.36-1.871 24.506v0 62.275c0 9.029 0.569 16.931 1.762 24.103v0l1.392 6.584c7.779 30.215 33.253 52.995 64.646 57.001 5.23 0.667 10.829 0.993 16.909 0.993v0l34.374 0.039 1.401 3.844c1.683 4.44 3.467 8.879 5.348 13.312v0l3.32 7.419-25.459 25.441c-4.564 4.575-8.533 8.959-11.981 13.28v0l-4.79 6.451-3.699 5.951c-14.742 26.319-12.769 59.141 5.602 83.613 3.363 4.48 7.283 8.961 11.967 13.665v0l49.539 49.538c4.604 4.585 9.109 8.546 13.68 11.956v0l5.764 3.909c25.551 15.69 58.198 15.146 83.346-1.952 6.548-4.452 13.13-10.028 20.12-17.004v0l21.928-21.92 5.451 2.738c8.945 4.331 18.051 8.26 27.3 11.778v0l6.161 2.21 0.027 30.165c0 6.050 0.255 11.605 0.786 16.773v0l1.005 7.477 1.395 6.534c7.775 29.985 32.984 52.631 64.119 56.809 5.417 0.727 11.173 1.068 17.403 1.068v0zM540.198 832h-70.182c-3.321 0-5.635-0.177-7.187-0.386-0.178-1.057-0.359-2.481-0.495-4.362v0l-0.227-7.113v-65.241c0-13.759-9.47-25.709-22.864-28.863-29.812-7.008-58.221-19.285-84.446-36.465-11.742-7.68-27.281-6.089-37.216 3.845v0l-50.428 50.316c-0.908 0.84-1.733 1.568-2.477 2.199v0l-3.538 2.732c-1.217-0.908-2.995-2.412-5.417-4.823v0l-51.558-51.654-2.719-3.236c0.597-0.87 1.472-2.025 2.737-3.502v0l5.081-5.444 49.423-49.423c9.392-9.39 11.397-23.871 4.913-35.456-13.908-24.83-23.892-49.572-29.674-73.523-3.212-13.314-15.123-22.695-28.824-22.695v0h-69.193c-1.107 0-2.102-0.020-2.995-0.053v0l-4.192-0.322c-0.357-2.145-0.722-5.724-0.722-11.506v0l0.068-66.203c0.043-1.182 0.104-2.24 0.176-3.184v0l0.518-4.384c1.543-0.198 3.847-0.365 7.148-0.365v0h70.18c15.776 0 28.677-12.326 29.606-27.875 7.127-28.696 19.137-56.076 35.734-81.391 7.642-11.663 6.129-27.064-3.637-37.018v0l-53.363-54.461c-0.863-0.932-1.61-1.776-2.256-2.538v0l-2.79-3.605c0.908-1.215 2.412-2.995 4.823-5.417v0l51.631-51.549 3.28-2.827c1.819 1.324 4.705 3.697 8.926 7.917v0l53.378 53.378c9.617 9.617 24.554 11.486 36.227 4.458 21.588-12.959 46.063-22.784 72.742-29.22 13.324-3.202 22.705-15.123 22.705-28.824v0-65.249c0-2.882 0.099-5.225 0.244-7.113v0l0.518-4.384c1.543-0.196 3.845-0.365 7.148-0.365v0l73.176 0.053 4.192 0.322c0.178 1.062 0.359 2.488 0.495 4.371v0l0.227 7.114v65.239c0 13.699 9.382 25.62 22.705 28.824 26.679 6.436 51.162 16.271 72.742 29.22 11.663 7.018 26.6 5.159 36.227-4.458v0l54.366-54.366c2.16-2.16 3.969-3.811 5.458-5.070v0l3.538-2.72c1.215 0.908 2.995 2.412 5.417 4.823v0l51.628 51.714 2.847 3.343c-1.236 1.71-3.5 4.429-7.572 8.323v0l-52.833 52.844c-9.935 9.935-11.535 25.463-3.845 37.216 17.19 26.235 29.447 54.644 36.465 84.446 3.144 13.394 15.094 22.864 28.863 22.864v0l72.186 0.053 4.192 0.322c0.357 2.125 0.722 5.693 0.722 11.476v0l-0.059 66.206c-0.038 1.18-0.092 2.235-0.156 3.176v0l-0.476 4.37c-0.517 0.069-1.12 0.137-1.817 0.195v0l-5.388 0.201h-69.193c-13.699 0-25.612 9.38-28.824 22.695-6.446 26.708-16.28 51.193-29.22 72.752-6.999 11.663-5.159 26.6 4.458 36.227v0l49.423 49.423c4.33 4.33 6.622 7.206 7.818 8.936-0.92 1.236-2.422 3.034-4.854 5.477v0l-49.423 49.423c-0.853 0.85-1.628 1.586-2.326 2.221v0l-3.308 2.721c-1.621-1.106-4.33-3.29-8.313-7.443l-47.911-47.921c-9.726-9.747-24.919-11.476-36.603-4.231-26.718 16.587-55.601 29.053-85.859 37.059-12.998 3.449-22.062 15.212-22.062 28.665v0 67.226c0 2.886-0.086 5.224-0.216 7.105v0l-0.476 4.37c-0.517 0.066-1.12 0.131-1.818 0.188v0l-5.398 0.198zM511.993 611.2c90.031 0 163.207-73.174 163.207-163.2 0-90.024-73.177-163.2-163.207-163.2-90.016 0-163.193 73.186-163.193 163.2s73.176 163.2 163.193 163.2zM511.993 540.8c-51.133 0-92.793-41.665-92.793-92.8s41.659-92.8 92.793-92.8c51.149 0 92.807 41.657 92.807 92.8 0 51.145-41.657 92.8-92.807 92.8z" />
<glyph unicode="&#xe948;" glyph-name="ic_list1" d="M271.125 270.406c31.84 0 57.76-25.92 57.76-57.76 0-31.872-25.92-57.76-57.76-57.76-31.872 0-57.792 25.888-57.792 57.76 0 31.84 25.92 57.76 57.792 57.76zM819.125 244.64c17.696 0 32-14.336 32-32s-14.304-32-32-32v0h-411.328c-17.696 0-32 14.336-32 32s14.304 32 32 32v0zM271.125 487.203c31.84 0 57.76-25.92 57.76-57.76 0-31.872-25.92-57.76-57.76-57.76-31.872 0-57.792 25.888-57.792 57.76 0 31.84 25.92 57.76 57.792 57.76zM819.125 461.437c17.696 0 32-14.336 32-32s-14.304-32-32-32v0h-411.328c-17.696 0-32 14.336-32 32s14.304 32 32 32v0zM271.125 704c31.84 0 57.76-25.92 57.76-57.76 0-31.872-25.92-57.76-57.76-57.76-31.872 0-57.792 25.888-57.792 57.76 0 31.84 25.92 57.76 57.792 57.76zM819.113 678.234c17.696 0 32-14.336 32-32s-14.304-32-32-32v0h-411.328c-17.696 0-32 14.336-32 32s14.304 32 32 32v0z" />
<glyph unicode="&#xe949;" glyph-name="ic_notifications" d="M902.613 185.421c-55.723 65.323-83.968 154.667-83.968 265.515v90.368c0 183.808-143.36 333.355-319.573 333.355-88.747 0-171.221-37.035-232.149-104.32-15.872-17.451-14.549-44.416 2.901-60.245 17.536-15.872 44.459-14.507 60.288 2.944 44.587 49.195 104.619 76.288 168.96 76.288 129.152 0 234.24-111.275 234.24-248.021v-90.368c0-96.725 18.944-180.608 56.405-250.539h-581.291c37.461 69.931 56.448 153.813 56.448 250.539v90.368c0 32.512 5.803 64.128 17.365 93.952 8.491 21.973-2.432 46.677-24.363 55.211-21.931 8.448-46.72-2.432-55.211-24.405-15.36-39.723-23.125-81.664-23.125-124.757v-90.368c0-110.848-28.245-200.192-84.011-265.515-10.795-12.672-13.269-30.464-6.272-45.568s22.101-24.789 38.741-24.789h275.029c0.896-52.309 43.563-94.592 96.043-94.592s95.147 42.283 96.085 94.592h274.987c16.683 0 31.787 9.685 38.741 24.789 6.997 15.104 4.565 32.896-6.272 45.568z" />
<glyph unicode="&#xe94a;" glyph-name="ic_star_off" d="M645.613 376.299c-7.488-7.328-10.944-17.888-9.152-28.256l24-140.736-125.504 66.336c-4.672 2.464-9.824 3.712-14.976 3.712-5.12 0-10.272-1.248-14.944-3.712l-125.504-66.336 24.032 140.736c1.728 10.368-1.664 20.928-9.184 28.256l-101.856 99.84 140.608 20.544c10.464 1.536 19.488 8.096 24.096 17.568l62.752 127.808 62.752-127.808c4.672-9.472 13.664-16.032 24.096-17.568l140.672-20.544-101.888-99.84zM846.413 508.395c-3.776 11.552-13.76 19.968-25.792 21.728l-187.84 27.456-84.064 171.2c-5.376 10.944-16.512 17.888-28.736 17.888-12.192 0-23.328-6.944-28.704-17.888l-84.032-171.2-187.872-27.456c-12.032-1.76-22.048-10.176-25.792-21.728-3.776-11.584-0.64-24.256 8.032-32.768l136.032-133.312-32.128-188.288c-2.048-12 2.912-24.128 12.768-31.296 9.888-7.168 22.944-8.064 33.728-2.368l167.968 88.8 168-88.8c4.704-2.496 9.824-3.718 14.944-3.718 6.624 0 13.216 2.054 18.784 6.086 9.888 7.168 14.816 19.296 12.768 31.296l-32.128 188.288 136.032 133.312c8.704 8.512 11.808 21.184 8.032 32.768v0z" />
<glyph unicode="&#xe94b;" glyph-name="ic_star_on" d="M846.413 508.395c-3.776 11.552-13.76 19.968-25.792 21.728l-187.84 27.456-84.064 171.2c-5.376 10.944-16.512 17.888-28.736 17.888-12.192 0-23.328-6.944-28.704-17.888l-84.032-171.2-187.872-27.456c-12.032-1.76-22.048-10.176-25.792-21.728-3.776-11.584-0.64-24.256 8.032-32.768l136.032-133.312-32.128-188.288c-2.048-12 2.912-24.128 12.768-31.296 9.888-7.168 22.944-8.064 33.728-2.368l167.968 88.8 168-88.8c4.704-2.496 9.824-3.718 14.944-3.718 6.624 0 13.216 2.054 18.784 6.086 9.888 7.168 14.816 19.296 12.768 31.296l-32.128 188.288 136.032 133.312c8.704 8.512 11.808 21.184 8.032 32.768v0z" />
<glyph unicode="&#xe94c;" glyph-name="ic_arrow_list" d="M405.167 207.417l246.667 246.667-246.667 246.667z" />
<glyph unicode="&#xe94d;" glyph-name="ic_download" d="M710.016 411.021c13.312 11.584 33.536 10.176 45.12-3.168v0l39.328-45.248c14.944-17.184 23.168-39.168 23.168-61.92v0-89.6c0-45.824-37.248-83.072-83.072-83.072v0h-459.488c-45.792 0-83.072 37.248-83.072 83.072v0 89.6c0 22.72 8.224 44.704 23.136 61.92v0l39.328 45.248c11.552 13.344 31.776 14.752 45.12 3.168 13.344-11.616 14.784-31.808 3.2-45.152v0l-39.328-45.248c-4.8-5.536-7.456-12.608-7.456-19.936v0-89.6c0-10.528 8.544-19.072 19.072-19.072v0h459.488c10.528 0 19.072 8.544 19.072 19.072v0 89.6c0 7.328-2.656 14.4-7.488 19.936v0l-39.296 45.248c-11.616 13.344-10.176 33.536 3.168 45.152zM504.806 768c17.696 0 32-14.304 32-32v0-286.336l94.656 94.624c12.512 12.512 32.736 12.512 45.248 0 12.512-12.48 12.512-32.736 0-45.248v0l-149.28-149.28c-6.24-6.24-14.432-9.376-22.624-9.376s-16.384 3.136-22.624 9.376v0l-149.28 149.28c-12.512 12.512-12.512 32.768 0 45.248 12.512 12.512 32.736 12.512 45.248 0v0l94.656-94.624v286.336c0 17.696 14.336 32 32 32z" />
<glyph unicode="&#xe94e;" glyph-name="ic_print" d="M698.721 768c16.681 0 30.429-12.557 32.308-28.734l0.219-3.793-0.024-105.585 5.205-0.009c51.966 0 94.447-40.626 97.416-91.848l0.166-5.733v-179.127c0-53.89-43.691-97.581-97.581-97.581-1.769 0-3.505 0.141-5.198 0.413l0.025-91.957c0-16.681-12.557-30.429-28.734-32.308l-3.793-0.219h-379.997c-16.681 0-30.429 12.557-32.308 28.734l-0.219 3.793 0.001 91.95c-1.679-0.267-3.4-0.406-5.155-0.406-51.966 0-94.447 40.626-97.416 91.848l-0.166 5.733v179.127c0 51.966 40.626 94.447 91.848 97.416l5.733 0.166 5.16 0.009 0.002 105.585c0 16.681 12.557 30.429 28.734 32.308l3.793 0.219h379.981zM318.169 564.864l-37.117-0.039c-16.679 0-30.429-12.559-32.308-28.734l-0.219-3.793v-179.127c0-16.679 12.559-30.429 28.734-32.308l3.793-0.219c1.754 0 3.476-0.139 5.155-0.406l-0.001 145.269c0 17.964 14.563 32.527 32.527 32.527 16.681 0 30.429-12.557 32.308-28.734l0.219-3.793-0.018-268.909h314.96v236.407l-252.278-0.024c-16.681 0-30.429 12.557-32.308 28.734l-0.219 3.793c0 16.681 12.557 30.429 28.734 32.308l3.793 0.219h284.807c16.681 0 30.429-12.557 32.308-28.734l0.219-3.793-0.038-145.278c0.469 0.076 0.942 0.141 1.418 0.196l3.793 0.219c16.679 0 30.429 12.559 32.308 28.734l0.219 3.793v179.127c0 16.679-12.559 30.429-28.734 32.308l-3.793 0.219-37.056 0.002c-0.217-0.004-0.435-0.006-0.653-0.006l-0.563 0.044h-379.989zM593.069 302.173c13.473 0 24.395-10.922 24.395-24.395 0-12.35-9.178-22.557-21.085-24.173l-3.31-0.223h-160.261c-13.473 0-24.395 10.922-24.395 24.395 0 12.35 9.178 22.557 21.085 24.173l3.31 0.223h160.261zM593.069 379.726c13.473 0 24.395-10.922 24.395-24.395 0-12.35-9.178-22.557-21.085-24.173l-3.31-0.223h-160.261c-13.473 0-24.395 10.922-24.395 24.395 0 12.35 9.178 22.557 21.085 24.173l3.31 0.223h160.261zM666.168 702.946h-314.927l-0.006-73.058h314.923l0.010 73.058z" />
<glyph unicode="&#xe94f;" glyph-name="ic_zoom_in" d="M457.461 746.667c134.592 0 244.128-109.536 244.128-244.128 0-64.16-25.088-122.464-65.728-166.080 12.128 6.56 27.552 4.832 37.792-5.408v0l153.76-153.76c12.48-12.512 12.48-32.768 0-45.28-6.272-6.24-14.464-9.344-22.624-9.344-8.192 0-16.384 3.104-22.656 9.376v0l-153.728 153.76c-10.272 10.272-11.968 25.728-5.344 37.888-43.584-40.384-101.664-65.28-165.6-65.28-134.624 0-244.128 109.504-244.128 244.128 0 59.456 21.632 116.736 60.896 161.312 46.368 52.608 113.152 82.816 183.232 82.816zM457.461 682.667c-51.712 0-100.992-22.272-135.2-61.12-28.992-32.864-44.928-75.136-44.928-119.008 0-99.328 80.8-180.128 180.128-180.128s180.128 80.8 180.128 180.128c0 99.296-80.8 180.128-180.128 180.128zM457.452 639.975c17.664 0 32-14.336 32-32v0-73.44h69.76c17.696 0 32-14.336 32-32s-14.304-32-32-32v0h-69.76v-73.44c0-17.696-14.336-32-32-32s-32 14.304-32 32v0 73.44h-74.112c-17.664 0-32 14.336-32 32s14.336 32 32 32v0h74.112v73.44c0 17.664 14.336 32 32 32z" />
<glyph unicode="&#xe950;" glyph-name="ic_zoom_out" d="M457.461 746.667c134.592 0 244.128-109.504 244.128-244.096 0-64.192-25.088-122.496-65.728-166.112 12.128 6.56 27.552 4.864 37.792-5.376v0l153.76-153.792c12.48-12.48 12.48-32.736 0-45.248-6.272-6.24-14.464-9.376-22.624-9.376-8.192 0-16.384 3.136-22.656 9.376v0l-153.728 153.792c-10.272 10.272-11.968 25.728-5.344 37.888-43.584-40.384-101.664-65.28-165.6-65.28-134.624 0-244.128 109.504-244.128 244.128 0 59.456 21.632 116.736 60.896 161.312 46.4 52.608 113.152 82.784 183.232 82.784zM457.461 682.667c-51.712 0-100.992-22.24-135.2-61.088-28.992-32.864-44.928-75.136-44.928-119.008 0-99.328 80.8-180.128 180.128-180.128s180.128 80.8 180.128 180.128c0 99.296-80.8 180.096-180.128 180.096zM559.244 534.567c17.664 0 32-14.336 32-32s-14.336-32-32-32v0h-207.904c-17.664 0-32 14.336-32 32s14.336 32 32 32v0z" />
<glyph unicode="&#xe951;" glyph-name="ic_enter" d="M725.333 768c21.881 0 39.915-16.471 42.38-37.691l0.287-4.976v-426.667c0-21.881-16.471-39.915-37.691-42.38l-4.976-0.287h-323.669l55.173-55.163c15.381-15.381 16.564-39.583 3.549-56.32l-3.549-4.020c-15.381-15.381-39.583-16.564-56.32-3.549l-4.020 3.549-128 128-3.123 3.484c-0.099 0.123-0.197 0.247-0.295 0.371l3.418-3.855c-1.51 1.51-2.883 3.105-4.12 4.77-0.761 1.032-1.477 2.092-2.145 3.185-0.318 0.514-0.622 1.035-0.913 1.562-0.464 0.843-0.909 1.714-1.323 2.601-0.34 0.725-0.66 1.464-0.957 2.209-0.337 0.843-0.644 1.687-0.925 2.543-0.206 0.635-0.403 1.292-0.585 1.952-0.256 0.92-0.478 1.845-0.669 2.782-0.148 0.743-0.279 1.487-0.39 2.233-0.124 0.813-0.225 1.654-0.3 2.503-0.089 1.016-0.143 2.010-0.162 3.006-0.005 0.275-0.008 0.55-0.008 0.826l0.007 0.783c0.018 1.009 0.072 2.018 0.162 3.025l-0.169-3.808c0 2.16 0.16 4.282 0.47 6.356 0.111 0.725 0.242 1.468 0.393 2.209 0.188 0.94 0.409 1.865 0.661 2.778 0.187 0.667 0.384 1.323 0.598 1.976 0.272 0.839 0.579 1.683 0.912 2.514 0.303 0.757 0.622 1.495 0.963 2.226 0.414 0.882 0.858 1.752 1.331 2.605 0.283 0.517 0.586 1.038 0.901 1.554 0.671 1.091 1.386 2.151 2.147 3.177 0.188 0.258 0.378 0.508 0.571 0.757 1.193 1.518 2.335 2.805 3.549 4.020l128 128c16.662 16.662 43.677 16.662 60.34 0 15.381-15.381 16.564-39.583 3.549-56.32l-3.549-4.020-55.215-55.163 281.045 0.034v341.333l-131.416-0.034c-21.881 0-39.915 16.471-42.38 37.691l-0.287 4.976c0 21.881 16.471 39.915 37.691 42.38l4.976 0.287h174.082z" />
<glyph unicode="&#xe952;" horiz-adv-x="970" d="M969.643 436.696c0 38.511-3.301 66.613-10.444 95.756h-464.483v-173.818h272.641c-5.495-43.196-35.178-108.249-101.141-151.962l-0.925-5.819 146.861-107.714 10.175-0.962c93.445 81.707 147.316 201.925 147.316 344.519z" />
<glyph unicode="&#xe953;" horiz-adv-x="970" d="M494.716-21.274c133.571 0 245.706 41.636 327.611 113.451l-156.111 114.495c-41.775-27.582-97.844-46.838-171.5-46.838-130.824 0-241.859 81.703-281.44 194.634l-5.802-0.466-152.708-111.891-1.997-5.256c81.352-153.002 248.457-258.13 441.947-258.13z" />
<glyph unicode="&#xe954;" horiz-adv-x="970" d="M213.275 354.469c-10.444 29.143-16.488 60.371-16.488 92.635 0 32.268 6.044 63.492 15.939 92.635l-0.277 6.207-154.622 113.688-5.059-2.278c-33.529-63.492-52.768-134.791-52.768-210.252s19.239-146.756 52.768-210.248l160.507 117.613z" />
<glyph unicode="&#xe955;" horiz-adv-x="970" d="M494.716 734.377c92.895 0 155.558-37.99 191.289-69.738l139.619 129.065c-85.748 75.461-197.337 121.778-330.908 121.778-193.491 0-360.595-105.124-441.947-258.126l159.957-117.617c40.131 112.931 151.166 194.638 281.99 194.638z" />
<glyph unicode="&#xe956;" glyph-name="ic_hide_small" d="M824.236 737.34c12.436-12.404 12.436-32.569 0-44.973l-110.514-110.571c55.788-35.728 102.548-87.722 135.286-151.345 0.127-0.191 0.254-0.382 0.35-0.573 0.095-0.254 0.254-0.477 0.382-0.732 0.382-0.7 0.573-1.463 0.891-2.195 0.477-1.145 0.986-2.29 1.368-3.499 0.286-1.050 0.477-2.099 0.668-3.181 0.223-1.081 0.477-2.131 0.573-3.244l0.083-1.65v-3.28l-0.083-1.654c-0.095-1.113-0.35-2.163-0.573-3.244-0.191-1.081-0.382-2.131-0.668-3.181-0.382-1.209-0.922-2.354-1.399-3.53-0.286-0.7-0.477-1.463-0.859-2.163-0.127-0.254-0.286-0.509-0.413-0.795l-0.099-0.191c-65.198-126.651-186.060-205.211-315.891-205.211-58.135 0-114.472 15.745-164.807 44.491l-100.894-100.856c-6.202-6.202-14.344-9.319-22.487-9.319s-16.285 3.117-22.487 9.319c-12.436 12.404-12.436 32.569 0 44.973l556.602 556.602c12.436 12.436 32.537 12.436 44.973 0zM664.304 532.449l-46.15-46.195c16.708-19.519 26.809-44.855 26.809-72.514 0-61.576-50.062-111.638-111.638-111.638-27.646 0-52.988 10.102-72.517 26.811l-42.111-42.142c35.847-17.439 74.764-26.863 114.638-26.863 99.298 0 192.68 58.459 247.481 153.622-29.324 51.111-69.457 92.098-116.512 118.92zM533.087 635.353c12.023 0 23.918-0.668 35.623-1.94 18.606-2.036 32.028-18.765 29.961-37.372-2.036-18.575-18.193-32.060-37.34-29.993-9.287 1.018-18.702 1.527-28.244 1.527-99.266 0-192.171-58.809-247.036-153.908 10.401-18.098 21.914-35.432 35.145-51.017 12.118-14.249 10.369-35.623-3.88-47.741-6.361-5.407-14.185-8.047-21.914-8.047-9.637 0-19.147 4.039-25.826 11.927-20.451 24.045-38.231 50.794-52.893 79.546-0.413 0.795-0.35 1.686-0.732 2.481-0.891 2.195-1.431 4.389-1.845 6.743-0.413 2.099-0.763 4.103-0.763 6.17 0 2.099 0.35 4.103 0.763 6.202 0.413 2.322 0.954 4.548 1.845 6.743 0.382 0.795 0.318 1.686 0.732 2.481 64.916 127.191 186.159 206.197 316.404 206.197zM572.864 440.972l-66.777-66.784c6.393-4.41 13.902-7.313 22.010-8.193l5.228-0.282c26.462 0 48.027 21.533 48.027 48.027 0 10.106-3.138 19.49-8.488 27.233z" />
<glyph unicode="&#xe957;" glyph-name="ic_left_small" d="M606.592 648.409c-15.163 15.596-39.345 17.12-56.265 4.342l-4.069-3.492-192-186.667c-15.907-15.465-17.131-40.236-3.671-57.133l3.671-4.050 192-186.667c16.895-16.426 43.908-16.046 60.334 0.85 15.163 15.596 16.005 39.812 2.756 56.365l-3.606 3.969-160.515 156.075 160.515 156.075c15.596 15.163 17.12 39.345 4.342 56.265l-3.492 4.069z" />
<glyph unicode="&#xe958;" glyph-name="ic_actividades" horiz-adv-x="853" d="M263.758 789.337v-18.967h-181.010c-29.99 0-54.303-25.471-54.303-56.889v-246.519c0-31.418 24.313-56.889 54.303-56.889h66.261c31.807 0 58.89-24.11 60.37-53.745 0.829-15.823-4.471-30.868-14.825-42.291-10.365-11.442-24.36-17.742-39.402-17.742h-72.404c-29.99 0-54.303-25.471-54.303-56.889v-246.519c0-31.418 24.313-56.889 54.303-56.889h543.030c109.79 0 199.111 93.575 199.111 208.593v568.889c0 31.418-24.313 56.889-54.303 56.889h-181.010v18.963c0 94.106-73.081 170.667-162.909 170.667s-162.909-76.561-162.909-170.663v0zM480.97 789.333v-75.852c0-31.418 24.313-56.889 54.303-56.889h181.010v-512c0-52.281-40.601-94.815-90.505-94.815h-488.727v132.741h18.101c44.478 0 87.555 19.388 118.178 53.195 31.069 34.289 46.885 79.242 44.507 126.563-4.529 90.605-78.685 161.576-168.828 161.576h-11.958v132.741h181.010c29.99 0 54.303 25.471 54.303 56.889v75.856c0 31.369 24.36 56.885 54.303 56.885s54.303-25.52 54.303-56.889z" />
<glyph unicode="&#xe959;" glyph-name="ic_duration" d="M520.533 789.333c193.212 0 349.867-156.648 349.867-349.867 0-193.207-156.66-349.867-349.867-349.867-193.218 0-349.867 156.654-349.867 349.867 0 193.224 156.643 349.867 349.867 349.867zM520.533 704c-146.096 0-264.533-118.438-264.533-264.533 0-146.085 118.444-264.533 264.533-264.533 146.079 0 264.533 118.455 264.533 264.533 0 146.089-118.449 264.533-264.533 264.533zM520.516 655.266c21.881 0 39.915-16.471 42.38-37.691l0.287-4.976-0.032-130.461 119.26-0.014c21.881 0 39.915-16.471 42.38-37.691l0.287-4.976c0-21.881-16.471-39.915-37.691-42.38l-4.976-0.287h-161.894c-21.881 0-39.915 16.471-42.38 37.691l-0.287 4.976v173.141c0 23.564 19.103 42.667 42.667 42.667z" />
<glyph unicode="&#xe95a;" glyph-name="ic_objetivos" d="M256 832c21.881 0 39.915-16.471 42.38-37.691l0.287-4.976-0.006-48.378c4.918 2.846 10.456 4.738 16.363 5.424l4.976 0.287h426.667c28.784 0 48.802-27.679 41.022-54.437l-1.665-4.707-64.573-154.19 64.573-154.19c11.116-26.551-6.685-55.705-34.372-58.862l-4.985-0.282h-426.667c-7.774 0-15.062 2.079-21.339 5.711l0.006-261.711c0-23.564-19.103-42.667-42.667-42.667-21.881 0-39.915 16.471-42.38 37.691l-0.287 4.976v725.333c0 23.564 19.103 42.667 42.667 42.667zM298.661 667.045v-267.422c4.918 2.846 10.456 4.738 16.363 5.424l4.976 0.287h362.539l-46.68 111.523c-3.678 8.785-4.291 18.492-1.839 27.585l1.839 5.369 46.637 111.523h-362.496c-7.774 0-15.062 2.079-21.339 5.711z" />
<glyph unicode="&#xe95c;" glyph-name="ic_calendar_off" d="M675.78 853.333c23.552 0 42.624-19.072 42.667-42.624v0l0.128-160.683c0-23.552-19.072-42.667-42.624-42.709v0c-23.595 0-42.709 19.072-42.709 42.667v0l-0.043 40.021h-242.432l-0.043-40.021c0-23.552-19.115-42.667-42.667-42.667-23.424 0.981-42.667 19.115-42.667 42.709v0l0.043 39.979h-113.451c-11.733 0-21.333-9.557-21.333-21.333v0-516.181c0-11.776 9.6-21.333 21.333-21.333v0h640c11.776 0 21.333 9.557 21.333 21.333v0 516.181c0 11.776-9.557 21.333-21.333 21.333v0h-35.925c-23.595 0-42.667 19.115-42.667 42.667s19.072 42.667 42.667 42.667v0h35.925c58.837 0 106.667-47.829 106.667-106.667v0-516.181c0-58.795-47.829-106.667-106.667-106.667v0h-640c-58.795 0-106.667 47.872-106.667 106.667v0 516.181c0 58.837 47.872 106.667 106.667 106.667v0h113.536v35.371c0.043 23.552 19.115 42.624 42.667 42.624v0l5.024-0.296c21.24-2.5 37.682-20.544 37.643-42.414v0-35.285h242.304l-0.043 35.285c-0.043 23.552 19.029 42.667 42.624 42.709v0zM481.318 320.785c16.683 16.64 43.648 16.64 60.331 0 16.683-16.683 17.152-44.16 0.512-60.843-8.448-8.448-19.456-12.715-30.421-12.715-10.624 0-21.205 4.011-29.44 12.245v0l-0.981 0.981c-16.683 16.64-16.683 43.648 0 60.331zM348.066 333.286c23.595 0 42.667-19.115 42.667-42.667s-19.072-43.136-42.667-43.136c-23.552 0-42.667 18.603-42.667 42.155v0 0.981c0 23.552 19.115 42.667 42.667 42.667zM675.9 333.286c23.552 0 42.667-19.115 42.667-42.667s-19.115-43.136-42.667-43.136c-23.595 0-42.667 18.603-42.667 42.155v0 0.981c0 23.552 19.072 42.667 42.667 42.667zM481.318 487.245c16.683 16.64 43.648 16.64 60.331 0 16.683-16.683 17.152-44.16 0.512-60.843-8.491-8.448-19.456-12.757-30.421-12.757-10.624 0-21.205 4.053-29.44 12.288v0l-0.981 0.981c-16.683 16.64-16.683 43.648 0 60.331zM348.066 499.733c23.595 0 42.667-19.115 42.667-42.667s-19.072-43.136-42.667-43.136c-23.552 0-42.667 18.603-42.667 42.155v0 0.981c0 23.552 19.115 42.667 42.667 42.667zM675.9 499.733c23.552 0 42.667-19.115 42.667-42.667s-19.115-43.136-42.667-43.136c-23.595 0-42.667 18.603-42.667 42.155v0 0.981c0 23.552 19.072 42.667 42.667 42.667z" />
<glyph unicode="&#xe95d;" glyph-name="ic_delete" d="M509.376 768c61.664 0 112.416-47.296 118.016-107.456v0h169.984c16.256 0 29.408-13.152 29.408-29.376 0-16.256-13.152-29.408-29.408-29.408v0h-23.424v-375.168c0-51.488-41.888-93.376-93.376-93.376v0h-340.544c-51.488 0-93.408 41.888-93.408 93.376v0 375.168h-25.248c-16.224 0-29.376 13.152-29.376 29.408 0 16.224 13.152 29.376 29.376 29.376v0h123.232c16.224 0 29.376-13.152 29.376-29.376 0-16.256-13.152-29.408-29.376-29.408v0h-39.2v-375.168c0-19.072 15.52-34.592 34.624-34.592v0h340.544c19.072 0 34.624 15.52 34.624 34.592v0 375.168h-295.008c-16.256 0-29.408 13.152-29.408 29.408v0 18.24c0 65.376 53.216 118.592 118.592 118.592zM627.84 541.558c16.256 0 29.408-13.152 29.408-29.376v0-230.624c0-16.224-13.152-29.376-29.408-29.376-16.224 0-29.376 13.152-29.376 29.376v0 230.624c0 16.224 13.152 29.376 29.376 29.376zM392.749 541.558c16.224 0 29.376-13.152 29.376-29.376v0-230.624c0-16.224-13.152-29.376-29.376-29.376-16.256 0-29.408 13.152-29.408 29.376v0 230.624c0 16.224 13.152 29.376 29.408 29.376zM510.592 541.558c16.224 0 29.376-13.152 29.376-29.376v0-230.624c0-16.224-13.152-29.376-29.376-29.376-16.256 0-29.408 13.152-29.408 29.376v0 230.624c0 16.224 13.152 29.376 29.408 29.376zM509.376 709.216c-29.152 0-53.536-20.992-58.752-48.672v0h117.536c-5.248 27.68-29.6 48.672-58.784 48.672z" />
<glyph unicode="&#xe95e;" glyph-name="ic_drag" d="M384 213.333c35.346 0 64-28.654 64-64s-28.654-64-64-64c-35.346 0-64 28.654-64 64s28.654 64 64 64zM640 213.333c35.346 0 64-28.654 64-64s-28.654-64-64-64c-35.346 0-64 28.654-64 64s28.654 64 64 64zM384 512c35.346 0 64-28.654 64-64s-28.654-64-64-64c-35.346 0-64 28.654-64 64s28.654 64 64 64zM640 512c35.346 0 64-28.654 64-64s-28.654-64-64-64c-35.346 0-64 28.654-64 64s28.654 64 64 64zM384 810.667c35.346 0 64-28.654 64-64s-28.654-64-64-64c-35.346 0-64 28.654-64 64s28.654 64 64 64zM640 810.667c35.346 0 64-28.654 64-64s-28.654-64-64-64c-35.346 0-64 28.654-64 64s28.654 64 64 64z" />
<glyph unicode="&#xe95f;" glyph-name="ic_duplicate" d="M774.464 364.736c0-8.8-7.2-16-16-16h-83.232v181.504c0 44.096-35.872 80-80 80h-176.032v77.76c0 8.8 7.2 16 16 16h323.264c8.8 0 16-7.2 16-16v-323.264zM611.232 206.976c0-8.8-7.136-16-16-16h-323.232c-8.832 0-16 7.2-16 16v323.264c0 8.8 7.168 16 16 16h323.232c8.864 0 16-7.2 16-16v-323.264zM758.464 768h-323.264c-44.064 0-80-35.904-80-80v-77.76h-83.2c-44.096 0-80-35.904-80-80v-323.264c0-44.096 35.904-80 80-80h323.232c44.128 0 80 35.904 80 80v77.76h83.232c44.096 0 80 35.904 80 80v323.264c0 44.096-35.904 80-80 80v0z" />
<glyph unicode="&#xe960;" glyph-name="ic_edit" d="M704.113 768c34.176 0 66.272-13.312 90.432-37.472 24.16-24.128 37.472-56.256 37.472-90.4 0-34.176-13.312-66.304-37.472-90.432v0l-368.832-368.832c-4.16-4.16-9.344-7.072-15.072-8.48v0l-179.104-43.488c-2.496-0.608-5.024-0.896-7.52-0.896-8.416 0-16.576 3.296-22.624 9.376-7.904 7.872-11.136 19.328-8.48 30.176v0l43.52 179.072c1.376 5.696 4.288 10.944 8.448 15.072v0l368.832 368.832c24.16 24.16 56.256 37.472 90.4 37.472zM800.017 191.99c17.664 0 32-14.336 32-32s-14.336-32-32-32v0h-336.64c-17.664 0-32 14.336-32 32s14.336 32 32 32v0zM597.969 624.288l-301.472-301.472-20.576-84.704 26.112-26.24 84.768 20.608 292.768 292.736-72.576 72.576c-7.264 7.232-10.176 17.088-9.024 26.496v0zM749.297 685.28c-24.128 24.128-66.208 24.16-90.336 0v0l-33.216-33.216c9.44 1.152 19.232-1.792 26.496-9.024v0l72.576-72.576 24.48 24.48c12.064 12.064 18.72 28.096 18.72 45.184 0 17.056-6.656 33.088-18.72 45.152z" />
<glyph unicode="&#xe961;" d="M675.78 853.333c21.87 0 39.877-16.445 42.372-37.651l0.295-4.973 0.128-160.683c0-23.552-19.072-42.667-42.667-42.709-21.87 0-39.913 16.445-42.379 37.685l-0.287 4.981-0.043 40.021h-242.432l-0.043-40.021c0-23.552-19.115-42.667-42.667-42.667-21.751 0.911-39.896 16.612-42.378 37.741l-0.289 4.968 0.043 39.979h-113.451c-10.43 0-19.174-7.551-20.988-17.5l-0.345-3.833v-516.181c0-10.468 7.585-19.182 17.511-20.989l3.822-0.344 234.667 0.043v-85.333l-234.667-0.043c-56.443 0-102.819 44.119-106.439 99.666l-0.227 7.001v516.181c0 56.484 44.119 102.823 99.666 106.439l7.001 0.227h113.536v35.371c0.043 23.552 19.115 42.624 42.709 42.624 21.909-0.040 39.919-16.524 42.346-37.736l0.278-4.974v-35.285h242.304l-0.043 35.285c-0.043 23.552 19.029 42.667 42.667 42.709zM348.066 333.286c23.595 0 42.667-19.115 42.667-42.667s-19.072-43.136-42.667-43.136c-21.87 0-39.913 16.040-42.379 37.189l-0.287 4.966v0.981c0 23.552 19.115 42.667 42.667 42.667zM541.649 487.245c16.683-16.683 17.152-44.16 0.512-60.843-8.491-8.448-19.456-12.757-30.421-12.757-8.853 0-17.677 2.815-25.138 8.519l-4.302 3.769-0.981 0.981c-16.683 16.64-16.683 43.648 0 60.331 16.683 16.64 43.648 16.64 60.331 0zM348.066 499.733c23.595 0 42.667-19.115 42.667-42.667s-19.072-43.136-42.667-43.136c-21.87 0-39.913 16.040-42.379 37.189l-0.287 4.966v0.981c0 23.552 19.115 42.667 42.667 42.667zM831.983 775.339c56.484 0 102.823-44.080 106.439-99.661l0.227-7.005v-160.384h-85.333v160.384c0 10.468-7.551 19.182-17.5 20.989l-3.833 0.344h-35.925c-23.595 0-42.667 19.115-42.667 42.667 0 21.87 16.445 39.913 37.685 42.379l4.981 0.287h35.925z" />
<glyph unicode="&#xe962;" d="M861.251 362.405c11.638 13.3 31.854 14.648 45.155 3.010 12.277-10.743 14.37-28.795 5.466-41.97l-2.456-3.185-224-256c-11.319-12.936-30.606-14.475-43.784-4.149l-2.926 2.594-96 96c-12.497 12.497-12.497 32.758 0 45.255 11.535 11.535 29.687 12.423 42.24 2.662l3.015-2.662 71.805-71.779 201.486 230.224z" />
<glyph unicode="&#xe963;" glyph-name="ic_check1" d="M693.223 646.763c15.517 17.734 42.472 19.531 60.206 4.014 16.37-14.323 19.16-38.393 7.288-55.959l-3.274-4.247-298.667-341.333c-15.092-17.248-40.808-19.3-58.378-5.532l-3.901 3.458-128 128c-16.662 16.662-16.662 43.677 0 60.34 15.381 15.381 39.583 16.564 56.32 3.549l4.020-3.549 95.739-95.706 268.647 306.966z" />
<glyph unicode="&#xe964;" glyph-name="ic_cross" d="M693.019 629.019c15.472-15.472 16.577-39.871 3.315-56.618l-3.315-3.721-120.68-120.68 120.68-120.68c16.662-16.662 16.662-43.677 0-60.34-15.472-15.472-39.871-16.577-56.618-3.315l-3.721 3.315-120.68 120.68-120.68-120.68c-16.662-16.662-43.677-16.662-60.34 0-15.472 15.472-16.577 39.871-3.315 56.618l3.315 3.721 120.68 120.68-120.68 120.68c-16.662 16.662-16.662 43.677 0 60.34 15.472 15.472 39.871 16.577 56.618 3.315l3.721-3.315 120.68-120.68 120.68 120.68c16.662 16.662 43.677 16.662 60.34 0z" />
<glyph unicode="&#xe965;" glyph-name="ic_more" d="M522.667 212.753c52.907 0 96-43.051 96-96s-43.093-96-96-96c-52.949 0-96 43.051-96 96s43.051 96 96 96zM522.667 543.71c52.907 0 96-43.051 96-96s-43.093-96-96-96c-52.949 0-96 43.051-96 96s43.051 96 96 96zM522.667 874.667c52.907 0 96-43.051 96-96s-43.093-96-96-96c-52.949 0-96 43.051-96 96s43.051 96 96 96z" />
<glyph unicode="&#xe966;" glyph-name="ic_output" d="M609.752 386.761c55.224 59.221 148.29 62.015 207.862 6.463s63.276-148.586 8.052-207.807c-55.224-59.221-148.29-62.015-207.862-6.463s-63.276 148.586-8.052 207.807zM325.943 406.225c12.474 20.859 42.732 20.746 55.050-0.206v0l127.91-217.567c12.577-21.392-2.927-48.338-27.742-48.218v0l-257.269 1.253c-24.783 0.121-40.028 27.153-27.308 48.423v0zM773.966 346.418c-33.823 31.541-86.386 29.962-117.408-3.305s-28.93-85.812 4.893-117.352c33.823-31.541 86.386-29.962 117.408 3.305s28.93 85.812-4.893 117.352zM353.161 327.026l-72.876-121.864 144.925-0.645-72.050 122.509zM491.531 781.29c12.053 12.925 32.302 13.632 45.227 1.579v0l144.95-135.168c12.925-12.053 13.632-32.302 1.579-45.227v0l-133.854-143.54c-12.053-12.925-32.302-13.632-45.227-1.579v0l-144.95 135.168c-12.925 12.053-13.632 32.302-1.579 45.227v0zM516.559 714.243l-90.206-96.734 98.138-91.515 90.206 96.734-98.138 91.515z" />
<glyph unicode="&#xe967;" glyph-name="ic_doc2" horiz-adv-x="1048" d="M723.295 368.343c-11.841-11.588-17.307-28.288-14.473-44.684l37.953-222.559-198.471 104.903c-7.388 3.897-15.536 5.87-23.683 5.87-8.097 0-16.244-1.974-23.632-5.87l-198.471-104.903 38.004 222.559c2.733 16.396-2.631 33.095-14.524 44.684l-161.075 157.887 222.357 32.488c16.548 2.429 30.818 12.803 38.105 27.782l99.236 202.115 99.236-202.115c7.388-14.979 21.608-25.353 38.105-27.782l222.458-32.488-161.125-157.887zM1040.839 577.239c-5.971 18.268-21.76 31.577-40.787 34.361l-297.049 43.419-132.938 270.735c-8.502 17.307-26.112 28.288-45.443 28.288-19.28 0-36.891-10.981-45.392-28.288l-132.888-270.735-297.1-43.419c-19.027-2.783-34.867-16.092-40.787-34.361-5.971-18.319-1.012-38.358 12.702-51.819l215.12-210.819-50.807-297.758c-3.239-18.977 4.605-38.156 20.191-49.491 15.637-11.335 36.284-12.752 53.337-3.745l265.624 140.428 265.674-140.428c7.439-3.947 15.536-5.879 23.632-5.879 10.475 0 20.9 3.247 29.705 9.624 15.637 11.335 23.43 30.515 20.191 49.491l-50.807 297.758 215.12 210.819c13.764 13.461 18.673 33.5 12.702 51.819v0z" />
<glyph unicode="&#xe968;" glyph-name="ic_list_w" horiz-adv-x="1170" d="M285.089 518.343c-28.648 0-51.946-23.304-51.946-51.931 0-28.656 23.298-51.931 51.946-51.931 28.619 0 51.917 23.276 51.917 51.931 0 28.627-23.298 51.931-51.917 51.931zM285.089 335.486c-28.648 0-51.946-23.304-51.946-51.931 0-28.656 23.298-51.931 51.946-51.931 28.619 0 51.917 23.276 51.917 51.931 0 28.627-23.298 51.931-51.917 51.931zM285.089 704c-28.648 0-51.946-23.304-51.946-51.931 0-28.656 23.298-51.931 51.946-51.931 28.619 0 51.917 23.276 51.917 51.931 0 28.627-23.298 51.931-51.917 51.931zM1024 960c80.791 0 146.286-65.494 146.286-146.286v-731.429c0-80.791-65.494-146.286-146.286-146.286h-877.714c-80.791 0-146.286 65.494-146.286 146.286v731.429c0 80.791 65.494 146.286 146.286 146.286h877.714zM1024 850.286h-877.714c-18.755 0-34.213-14.118-36.325-32.306l-0.246-4.265v-731.429c0-18.755 14.118-34.213 32.306-36.325l4.265-0.246h877.714c18.755 0 34.213 14.118 36.325 32.306l0.246 4.265v731.429c0 18.755-14.118 34.213-32.306 36.325l-4.265 0.246zM490.667 417.28h374.583c28.599 0 51.81 23.265 51.81 51.931s-23.211 51.931-51.81 51.931h-374.583c-28.599 0-51.81-23.265-51.81-51.931s23.211-51.931 51.81-51.931zM490.667 234.423h374.583c28.599 0 51.81 23.265 51.81 51.931s-23.211 51.931-51.81 51.931h-374.583c-28.599 0-51.81-23.265-51.81-51.931s23.211-51.931 51.81-51.931zM490.667 600.137h381.163c28.599 0 51.81 23.265 51.81 51.931s-23.211 51.931-51.81 51.931h-381.163c-28.599 0-51.81-23.265-51.81-51.931s23.211-51.931 51.81-51.931z" />
<glyph unicode="&#xe969;" glyph-name="group" horiz-adv-x="1170" d="M1024 960c80.791 0 146.286-65.494 146.286-146.286v-731.429c0-80.791-65.494-146.286-146.286-146.286h-877.714c-80.791 0-146.286 65.494-146.286 146.286v731.429c0 80.791 65.494 146.286 146.286 146.286h877.714zM530.286 246.857h-420.571v-164.571c0-18.755 14.118-34.213 32.306-36.325l4.265-0.246h384v201.143zM1060.571 246.857h-420.571v-201.143h384c18.755 0 34.213 14.118 36.325 32.306l0.246 4.265v164.571zM530.286 539.429h-420.571v-182.857h420.571v182.857zM1060.571 539.429h-420.571v-182.857h420.571v182.857zM530.286 850.286h-384c-18.755 0-34.213-14.118-36.325-32.306l-0.246-4.265v-164.571h420.571v201.143zM1024 850.286h-384v-201.143h420.571v164.571c0 18.755-14.118 34.213-32.306 36.325l-4.265 0.246z" />
<glyph unicode="&#xe96a;" glyph-name="ic1" horiz-adv-x="1152" d="M952 960h-768c-101.62 0-184-82.38-184-184v-640c0-101.62 82.38-184 184-184h768c101.62 0 184 82.38 184 184v640c0 101.62-82.38 184-184 184zM184 848h768c39.765 0 72-32.235 72-72v-640c0-39.765-32.235-72-72-72h-768c-39.765 0-72 32.235-72 72v640c0 39.765 32.235 72 72 72z" />
<glyph unicode="&#xe96b;" glyph-name="ic2" horiz-adv-x="1170" d="M146.286 960h877.714c80.791 0 146.286-65.494 146.286-146.286v-175.543h-1170.286v175.543c0 80.791 65.494 146.286 146.286 146.286zM0 491.886h627.958v-555.886h-481.672c-80.791 0-146.286 65.494-146.286 146.286v409.6zM770.676 491.886h399.61v-409.6c0-80.791-65.494-146.286-146.286-146.286h-253.324v555.886z" />
<glyph unicode="&#xe96c;" glyph-name="ic_br_next" d="M362.377 637.744l43.246 47.178 281.733-258.256-281.733-258.256-43.246 47.178 230.263 211.078z" />
<glyph unicode="&#xe96d;" glyph-name="ic_doc2_w" horiz-adv-x="1170" d="M305.503 223.916h131.855c28.599 0 51.81 23.232 51.81 51.857s-23.211 51.857-51.81 51.857h-131.855c-28.599 0-51.81-23.232-51.81-51.857s23.211-51.857 51.81-51.857zM305.503 404.1h374.583c28.599 0 51.81 23.232 51.81 51.857s-23.211 51.857-51.81 51.857h-374.583c-28.599 0-51.81-23.232-51.81-51.857s23.211-51.857 51.81-51.857zM305.503 584.269h381.163c28.599 0 51.81 23.232 51.81 51.857s-23.211 51.857-51.81 51.857h-381.163c-28.599 0-51.81-23.232-51.81-51.857s23.211-51.857 51.81-51.857zM1024 960c80.791 0 146.286-65.494 146.286-146.286v-731.429c0-80.791-65.494-146.286-146.286-146.286h-877.714c-80.791 0-146.286 65.494-146.286 146.286v731.429c0 80.791 65.494 146.286 146.286 146.286h877.714zM1024 850.286h-877.714c-18.755 0-34.213-14.118-36.325-32.306l-0.246-4.265v-731.429c0-18.755 14.118-34.213 32.306-36.325l4.265-0.246h877.714c18.755 0 34.213 14.118 36.325 32.306l0.246 4.265v731.429c0 18.755-14.118 34.213-32.306 36.325l-4.265 0.246z" />
<glyph unicode="&#xe96e;" glyph-name="ic_alumno" d="M535.584 416.416c114.912 0 208.416-93.504 208.416-208.416 0-17.664-14.304-32-32-32s-32 14.336-32 32c0 79.648-64.768 144.416-144.416 144.416h-55.136c-79.68 0-144.448-64.768-144.448-144.416 0-17.664-14.304-32-32-32s-32 14.336-32 32c0 114.912 93.504 208.416 208.448 208.416h55.136zM508 720c81.504 0 147.808-66.304 147.808-147.808 0-81.472-66.304-147.776-147.808-147.776s-147.776 66.304-147.776 147.776c0 81.504 66.272 147.808 147.776 147.808zM508 656c-46.176 0-83.776-37.6-83.776-83.808 0-46.176 37.6-83.776 83.776-83.776 46.208 0 83.808 37.6 83.808 83.776 0 46.208-37.6 83.808-83.808 83.808z" />
<glyph unicode="&#xe96f;" glyph-name="ic_cuestionario" horiz-adv-x="1170" d="M285.089 518.343c-28.648 0-51.946-23.304-51.946-51.931 0-28.656 23.298-51.931 51.946-51.931 28.619 0 51.917 23.276 51.917 51.931 0 28.627-23.298 51.931-51.917 51.931zM285.089 335.486c-28.648 0-51.946-23.304-51.946-51.931 0-28.656 23.298-51.931 51.946-51.931 28.619 0 51.917 23.276 51.917 51.931 0 28.627-23.298 51.931-51.917 51.931zM285.089 704c-28.648 0-51.946-23.304-51.946-51.931 0-28.656 23.298-51.931 51.946-51.931 28.619 0 51.917 23.276 51.917 51.931 0 28.627-23.298 51.931-51.917 51.931zM1024 960c80.791 0 146.286-65.494 146.286-146.286v-731.429c0-80.791-65.494-146.286-146.286-146.286h-877.714c-80.791 0-146.286 65.494-146.286 146.286v731.429c0 80.791 65.494 146.286 146.286 146.286h877.714zM1024 850.286h-877.714c-18.755 0-34.213-14.118-36.325-32.306l-0.246-4.265v-731.429c0-18.755 14.118-34.213 32.306-36.325l4.265-0.246h877.714c18.755 0 34.213 14.118 36.325 32.306l0.246 4.265v731.429c0 18.755-14.118 34.213-32.306 36.325l-4.265 0.246zM490.667 417.28h374.583c28.599 0 51.81 23.265 51.81 51.931s-23.211 51.931-51.81 51.931h-374.583c-28.599 0-51.81-23.265-51.81-51.931s23.211-51.931 51.81-51.931zM490.667 234.423h374.583c28.599 0 51.81 23.265 51.81 51.931s-23.211 51.931-51.81 51.931h-374.583c-28.599 0-51.81-23.265-51.81-51.931s23.211-51.931 51.81-51.931zM490.667 600.137h381.163c28.599 0 51.81 23.265 51.81 51.931s-23.211 51.931-51.81 51.931h-381.163c-28.599 0-51.81-23.265-51.81-51.931s23.211-51.931 51.81-51.931z" />
<glyph unicode="&#xe970;" glyph-name="ic_presentacion" horiz-adv-x="1152" d="M965.408 960c103.052 0 186.592-83.687 186.592-186.921v0-650.159c0-103.233-83.54-186.921-186.592-186.921v0h-778.817c-103.052 0-186.592 83.687-186.592 186.921v0 650.159c0 103.233 83.54 186.921 186.592 186.921v0zM1038.4 715.744h-924.832v-527.776h924.832v527.776z" />
<glyph unicode="&#xe971;" horiz-adv-x="1186" d="M107.789 960c-59.53 0-107.789-48.259-107.789-107.789v-808.421c0-59.53 48.259-107.789 107.789-107.789h970.105c59.53 0 107.789 48.259 107.789 107.789v565.895h-251.487c-59.53 0-107.789 48.259-107.789 107.789l0.015 242.526h-718.632zM1029.125 802.683l-19.82 19.851c-2.128 2.131-4.231 4.238-6.31 6.319l-12.174 12.193c-1.98 1.983-3.934 3.94-5.864 5.873l-11.284 11.301c-1.831 1.834-3.637 3.643-5.419 5.427l-10.393 10.409c-5.048 5.056-9.873 9.888-14.476 14.498l-13.139 13.159c-1.386 1.388-2.747 2.751-4.083 4.089l-11.358 11.375c-1.188 1.19-2.351 2.354-3.489 3.494l-9.576 9.591c-0.926 0.927-1.83 1.832-2.712 2.716l-0.034-206.25c0-29.765 24.129-53.895 53.895-53.895l205.876 0.014-10.493 10.509c-45.283 45.351-84.998 85.127-119.146 119.326z" />
<glyph unicode="&#xe972;" horiz-adv-x="1186" d="M592.842 559.158c13.142 0 24.147-9.866 25.668-23.012v0l0.157-2.813-0.036-86.438 86.492-0.018c13.244 0 24.159-9.969 25.651-22.813v0l0.174-3.012c0-13.142-9.866-24.147-23.012-25.668v0l-2.813-0.157-86.492 0.036 0.036-86.492c0-13.244-9.969-24.159-22.813-25.651v0l-3.012-0.174c-13.142 0-24.147 9.866-25.668 23.012v0l-0.157 2.812-0.018 86.493-86.438-0.036c-13.244 0-24.159 9.969-25.651 22.813v0l-0.174 3.012c0 13.142 9.866 24.147 23.012 25.668v0l2.812 0.157 86.439 0.018 0.018 86.438c0 13.244 9.969 24.159 22.813 25.651v0z" />
<glyph unicode="&#xe973;" horiz-adv-x="1186" d="M592.842 559.158c13.142 0 24.147-9.866 25.668-23.012v0l0.157-2.813-0.036-86.438 86.492-0.018c13.244 0 24.159-9.969 25.651-22.813v0l0.174-3.012c0-13.142-9.866-24.147-23.012-25.668v0l-2.813-0.157-86.492 0.036 0.036-86.492c0-13.244-9.969-24.159-22.813-25.651v0l-3.012-0.174c-13.142 0-24.147 9.866-25.668 23.012v0l-0.157 2.812-0.018 86.493-86.438-0.036c-13.244 0-24.159 9.969-25.651 22.813v0l-0.174 3.012c0 13.142 9.866 24.147 23.012 25.668v0l2.812 0.157 86.439 0.018 0.018 86.438c0 13.244 9.969 24.159 22.813 25.651v0z" />
<glyph unicode="&#xe974;" glyph-name="think_small" horiz-adv-x="751" d="M375.467 636.175c210.9 0.116 375.467-147.797 375.467-350.785 0-201.477-164.447-349.39-375.467-349.39-209.58 0-375.467 148.029-375.467 349.39 0 202.988 165.887 350.785 375.467 350.785zM375.467 471.223c-96.147 0-170.328-68.187-170.328-187.916 0-118.352 74.301-186.424 170.328-186.424 97.468 0 170.328 66.81 170.328 186.424s-72.861 187.916-170.328 187.916zM189.26 960c64.201 0 119.529-52.351 119.529-115.029s-55.328-116.47-119.529-116.47c-64.201 0-118.051 53.792-118.051 116.47s53.85 115.029 118.051 115.029zM566.205 960c64.324 0 118.051-52.351 118.051-115.029s-53.85-116.47-118.051-116.47c-64.201 0-119.529 53.792-119.529 116.47s55.328 115.029 119.529 115.029z" />
<glyph unicode="&#xe975;" glyph-name="ic_ayuda" d="M512 800c194.404 0 352-157.596 352-352s-157.596-352-352-352c-194.404 0-352 157.596-352 352s157.596 352 352 352zM512 736c-159.058 0-288-128.942-288-288s128.942-288 288-288c159.058 0 288 128.942 288 288s-128.942 288-288 288zM502.007 348.67c16.106 0 24.606-8.5 24.606-24.606v-17.858c0-16.106-8.5-24.606-24.606-24.606h-21.474c-16.068 0-24.569 8.5-24.569 24.606v17.858c0 16.106 8.5 24.606 24.569 24.606h21.474zM500.665 608c50.069 0 104.165-29.974 104.165-87.649 0-67.964-67.48-83.623-75.98-118.481l-1.342-5.369c-3.132-12.079-9.395-16.106-23.264-16.106h-25.501c-16.068 0-24.569 8.5-24.569 24.606v4.474c0 47.385 70.201 67.070 70.201 101.928 0 15.211-14.763 26.395-31.764 26.395-8.016 0-16.068-2.684-23.264-6.263-13.869-6.711-27.7-6.711-36.2 5.816l-10.7 16.106c-8.985 12.937-9.395 24.121 3.989 32.621 15.658 10.29 40.711 21.922 74.228 21.922z" />
<glyph unicode="&#xe976;" d="M1024 448c0-282.77-229.23-512-512-512s-512 229.23-512 512c0 282.77 229.23 512 512 512s512-229.23 512-512z" />
<glyph unicode="&#xe977;" d="M1024 448c0-282.77-229.23-512-512-512s-512 229.23-512 512c0 282.77 229.23 512 512 512s512-229.23 512-512z" />
</font>
</defs>
</svg>
