<?xml version="1.0" encoding="UTF-8"?>
<svg width="24px" height="24px" viewBox="0 0 24 24" version="1.1" xmlns="http://www.w3.org/2000/svg" xmlns:xlink="http://www.w3.org/1999/xlink">
    <title>Icons / ic_cone</title>
    <g id="Icons-/-ic_cone" stroke="none" stroke-width="1" fill="none" fill-rule="evenodd">
        <path d="M11.75,4.25 C12.5631515,4.25 13.2933905,4.73086873 13.6191292,5.46499713 L13.6787883,5.61513216 L17.9573264,17.7506221 L19.25,17.75 C19.6642136,17.75 20,18.0857864 20,18.5 C20,18.8796958 19.7178461,19.193491 19.3517706,19.2431534 L19.25,19.25 L4.25,19.25 C3.83578644,19.25 3.5,18.9142136 3.5,18.5 C3.5,18.1203042 3.78215388,17.806509 4.14822944,17.7568466 L4.25,17.75 L5.54267358,17.7506221 L9.8212117,5.61513216 C10.1096128,4.79712176 10.8826384,4.25 11.75,4.25 Z M15.132,14.25 L8.367,14.25 L7.133,17.75 L16.366,17.75 L15.132,14.25 Z M13.37,9.25 L10.129,9.25 L8.895,12.75 L14.604,12.75 L13.37,9.25 Z M11.75,5.75 C11.5476975,5.75 11.3646475,5.86165884 11.2705451,6.03564857 L11.2358645,6.11388797 L10.658,7.75 L12.841,7.75 L12.2641355,6.11388797 C12.1872596,5.89584011 11.9812029,5.75 11.75,5.75 Z" id="Combined-Shape" fill="#141C3A" fill-rule="nonzero"></path>
    </g>
</svg>