<svg width="1231" height="1180" version="1.1" xmlns="http://www.w3.org/2000/svg"><g id="Landing" stroke="none" stroke-width="1" fill="none" fill-rule="evenodd"><g id="Ex_Landing_D" transform="translate(-908 -2460)" fill-rule="nonzero"><g id="doted_line_right" transform="translate(908 2460)"><path d="M408.495 46.522l-.01 1a364.388 364.388 0 00-3.985-.022v-1c1.333 0 2.664.007 3.995.022zm15.996.527l-.055.998a361.191 361.191 0 00-3.973-.197l.044-.999c1.329.059 2.657.125 3.984.198zm16.03 1.24l-.1.996a358.672 358.672 0 00-3.98-.376l.087-.996c1.332.118 2.663.244 3.992.377zm15.851 1.942l-.143.99a348.789 348.789 0 00-3.941-.55l.132-.991c1.32.176 2.636.36 3.952.55zm15.824 2.66l-.188.983c-1.304-.25-2.61-.492-3.918-.727l.177-.984c1.312.235 2.621.478 3.93.729zm15.672 3.367l-.232.973a354.623 354.623 0 00-3.879-.902l.221-.975c1.299.294 2.595.596 3.89.904zm15.494 4.067l-.276.961a354.23 354.23 0 00-3.852-1.08l.264-.965c1.29.354 2.578.716 3.864 1.084zm15.304 4.764l-.319.948a355.75 355.75 0 00-3.782-1.248l.308-.951c1.267.41 2.531.827 3.793 1.251zm15.08 5.453l-.36.932c-1.238-.48-2.48-.952-3.723-1.417l.351-.937c1.247.467 2.491.94 3.733 1.422zm14.833 6.132l-.403.916a354.902 354.902 0 00-3.669-1.59l.393-.92c1.23.524 2.456 1.056 3.679 1.594zm14.476 6.763l-.443.897a355.519 355.519 0 00-3.597-1.755l.433-.901c1.206.58 2.408 1.166 3.607 1.76zm14.193 7.424l-.484.875a356.204 356.204 0 00-3.507-1.91l.474-.88c1.176.631 2.348 1.27 3.517 1.915zm13.874 8.07l-.522.852a356.936 356.936 0 00-3.419-2.066l.513-.859a357.94 357.94 0 013.428 2.072zm13.476 8.667l-.56.829a357.614 357.614 0 00-3.33-2.222l.55-.835c1.117.736 2.23 1.479 3.34 2.228zm13.093 9.274l-.597.803a358.245 358.245 0 00-3.22-2.364l.586-.81c1.082.785 2.158 1.575 3.23 2.371zm12.651 9.838l-.631.775a358.738 358.738 0 00-3.11-2.502l.623-.782c1.044.83 2.084 1.667 3.118 2.509zm12.19 10.381l-.665.747c-.993-.884-1.99-1.762-2.992-2.635l.657-.754c1.005.875 2.005 1.756 3 2.642zm11.743 10.94l-.697.716a359.23 359.23 0 00-2.878-2.772l.69-.724c.967.921 1.929 1.848 2.885 2.78zm11.238 11.444l-.73.685c-.912-.972-1.83-1.938-2.752-2.9l.72-.692c.927.964 1.847 1.933 2.762 2.907zm10.668 11.877l-.758.652a359.02 359.02 0 00-2.618-3.013l.752-.66c.88 1.002 1.755 2.01 2.624 3.021zm10.167 12.384l-.787.617a358.688 358.688 0 00-2.485-3.132l.78-.626a376.93 376.93 0 012.492 3.14zm9.61 12.83l-.814.581a358.164 358.164 0 00-2.344-3.24l.807-.59a326.92 326.92 0 012.35 3.249zm9.02 13.236l-.839.545a357.525 357.525 0 00-2.197-3.343l.833-.554c.74 1.113 1.475 2.23 2.203 3.352zm8.43 13.643l-.862.506a356.807 356.807 0 00-2.042-3.431l.857-.516a384.49 384.49 0 012.047 3.44zm7.797 13.982l-.884.467a356.1 356.1 0 00-1.885-3.517l.88-.477a357.095 357.095 0 011.889 3.527zm7.17 14.334l-.904.427a355.407 355.407 0 00-1.728-3.604l.9-.437a356.43 356.43 0 011.732 3.614zm6.52 14.647l-.922.386a354.845 354.845 0 00-1.562-3.674l.918-.397a355.818 355.818 0 011.567 3.685zm5.854 14.926l-.938.344c-.459-1.251-.924-2.5-1.397-3.745l.936-.354c.473 1.249.94 2.5 1.4 3.755zm5.174 15.17l-.954.3c-.401-1.27-.81-2.537-1.225-3.802l.95-.312c.417 1.269.826 2.54 1.229 3.813zm4.487 15.4l-.967.258a354.246 354.246 0 00-1.052-3.855l.963-.27c.359 1.287.71 2.576 1.056 3.867zm3.79 15.605l-.976.214a371.67 371.67 0 00-.877-3.898l.974-.225c.3 1.301.594 2.604.88 3.91zm3.078 15.722l-.986.17c-.226-1.312-.46-2.623-.7-3.932l.983-.181c.241 1.313.476 2.627.703 3.943zm2.369 15.855l-.992.126a357.048 357.048 0 00-.524-3.961l.99-.137c.183 1.322.358 2.647.526 3.972zm1.659 15.962l-.997.081a359.015 359.015 0 00-.346-3.98l.995-.092c.124 1.329.24 2.66.348 3.991zm.947 16.016l-1 .036a330.813 330.813 0 00-.17-3.99l1-.049c.064 1.333.12 2.667.17 4.003zm.238 16.022l-1-.007.007-1.292.002-1.302c0-.47 0-.94-.003-1.41l1-.004.003 1.414c0 .876-.003 1.738-.01 2.601zm-.466 16.02l-.999-.05c.068-1.328.129-2.657.182-3.987l1 .04a362.44 362.44 0 01-.183 3.998zm-1.174 15.98l-.996-.096c.127-1.32.246-2.64.358-3.962l.996.084a348.77 348.77 0 01-.358 3.973zm-1.884 15.904l-.99-.14c.186-1.317.365-2.636.536-3.956l.992.128a350.091 350.091 0 01-.538 3.968zm-2.6 15.844l-.984-.184c.246-1.31.484-2.62.715-3.934l.984.173a356.56 356.56 0 01-.716 3.945zm-3.3 15.661l-.974-.228c.303-1.297.6-2.595.89-3.896l.976.217c-.29 1.304-.588 2.607-.893 3.907zm-4 15.49l-.963-.271c.361-1.279.715-2.56 1.062-3.843l.965.26a355.253 355.253 0 01-1.064 3.855zm-4.714 15.358l-.95-.315c.42-1.264.833-2.53 1.238-3.8l.953.304c-.407 1.273-.82 2.543-1.241 3.811zm-5.396 15.109l-.934-.358c.476-1.244.946-2.491 1.408-3.741l.938.347a355.403 355.403 0 01-1.412 3.752zm-6.067 14.838l-.917-.4c.53-1.218 1.055-2.44 1.572-3.664l.92.389a355.84 355.84 0 01-1.575 3.675zm-6.709 14.509l-.898-.44a355.468 355.468 0 001.737-3.596l.903.43a356.469 356.469 0 01-1.742 3.606zm-7.37 14.226l-.877-.48a356.155 356.155 0 001.893-3.508l.882.47a357.167 357.167 0 01-1.898 3.518zm-8 13.881l-.855-.518c.69-1.137 1.372-2.278 2.05-3.422l.86.509a357.878 357.878 0 01-2.055 3.431zm-8.617 13.514l-.83-.556a357.54 357.54 0 002.205-3.336l.837.547a358.569 358.569 0 01-2.212 3.345zm-9.224 13.132l-.806-.593c.79-1.071 1.573-2.147 2.35-3.228l.811.584a359.178 359.178 0 01-2.355 3.237zm-9.79 12.693l-.778-.628a358.685 358.685 0 002.489-3.118l.785.62a359.7 359.7 0 01-2.496 3.126zm-10.336 12.233l-.75-.663c.881-.995 1.756-1.996 2.625-3.002l.756.654a360.012 360.012 0 01-2.63 3.01zm-10.895 11.788l-.72-.695c.927-.959 1.848-1.922 2.763-2.89l.727.686c-.918.972-1.842 1.938-2.77 2.899zm-11.39 11.272l-.688-.726a359.21 359.21 0 002.88-2.757l.696.719c-.958.926-1.92 1.848-2.888 2.764zm-11.874 10.749l-.654-.756c1.007-.872 2.01-1.75 3.007-2.633l.663.749c-1 .885-2.006 1.765-3.016 2.64zm-12.308 10.185l-.62-.785a358.704 358.704 0 003.118-2.494l.629.778a359.69 359.69 0 01-3.127 2.5zm-12.794 9.66l-.585-.81a375.45 375.45 0 003.23-2.356l.594.805a377.64 377.64 0 01-3.24 2.362zM600.39 704.2l-.548-.837a367.953 367.953 0 003.326-2.204l.557.83c-1.107.743-2.219 1.48-3.335 2.21zm-13.62 8.49l-.51-.86c1.146-.68 2.29-1.365 3.428-2.057l.52.854a357.896 357.896 0 01-3.438 2.064zm-13.943 7.849l-.471-.883a356.167 356.167 0 003.51-1.898l.48.877a357.15 357.15 0 01-3.52 1.904zm-14.328 7.238l-.431-.903a355.454 355.454 0 003.593-1.74l.44.898c-1.197.588-2.398 1.17-3.602 1.745zm-14.624 6.579l-.39-.921a354.87 354.87 0 003.67-1.578l.4.917a355.862 355.862 0 01-3.68 1.582zm-14.892 5.908l-.347-.938a349.14 349.14 0 003.735-1.41l.358.934c-1.245.478-2.494.95-3.746 1.414zm-15.147 5.232l-.305-.952a354.2 354.2 0 003.798-1.24l.316.948a355.17 355.17 0 01-3.81 1.244zm-15.373 4.545l-.262-.965c1.285-.348 2.569-.704 3.85-1.067l.272.962c-1.284.364-2.571.72-3.86 1.07zm-15.583 3.852l-.218-.976c1.3-.29 2.598-.588 3.894-.893l.229.974c-1.3.306-2.601.604-3.905.895zm-15.703 3.139l-.174-.985c1.312-.232 2.623-.47 3.931-.717l.185.983a356.53 356.53 0 01-3.942.719zm-15.867 2.435l-.13-.991c1.322-.173 2.641-.353 3.959-.54l.14.99c-1.321.188-2.644.368-3.969.541zm-15.944 1.72l-.085-.996c1.327-.113 2.653-.234 3.978-.362l.096.996c-1.328.128-2.658.25-3.989.363zm-16 1.01l-.04-1a361.39 361.39 0 003.99-.184l.052.998c-1.333.07-2.667.131-4.002.186zm-16.04-.699l1.183.002c.941 0 1.881-.004 2.822-.011l.007 1-1.414.008-2.601.001.003-1zm-16.013.597l.047-1c1.332.064 2.666.12 4 .168l-.036 1a362.701 362.701 0 01-4.011-.168zm-15.996-1.112l.092-.996c1.324.122 2.65.236 3.976.343l-.08.997c-1.33-.108-2.66-.222-3.988-.344zm-15.923-1.823l.135-.99c1.323.18 2.647.355 3.972.521l-.125.992a358.075 358.075 0 01-3.982-.523zm-15.8-2.53l.18-.983c1.304.24 2.61.47 3.919.695l-.17.986a356.677 356.677 0 01-3.93-.697zm-15.686-3.238l.225-.974c1.292.297 2.587.587 3.883.87l-.213.977a326.46 326.46 0 01-3.895-.873zm-15.577-3.956l.268-.964c1.285.358 2.571.708 3.86 1.051l-.257.966a355.271 355.271 0 01-3.87-1.053zm-15.324-4.638l.311-.95c1.262.413 2.526.819 3.793 1.218l-.3.954c-1.27-.4-2.539-.808-3.804-1.222zm-15.105-5.326l.353-.935c1.243.47 2.488.932 3.736 1.388l-.343.94c-1.252-.458-2.5-.922-3.746-1.393zm-14.893-6.02l.395-.918c1.225.528 2.454 1.049 3.685 1.563l-.385.923a355.811 355.811 0 01-3.695-1.567zm-14.519-6.642l.437-.9c1.195.58 2.393 1.152 3.594 1.718l-.426.905a356.373 356.373 0 01-3.605-1.723zm-14.28-7.327l.475-.879c1.173.635 2.35 1.264 3.53 1.886l-.467.885a357.083 357.083 0 01-3.539-1.892zm-13.917-7.948l.515-.857c1.144.688 2.292 1.37 3.444 2.044l-.506.863a357.808 357.808 0 01-3.453-2.05zm-13.533-8.553l.553-.834a357.5 357.5 0 003.34 2.19l-.543.84a358.507 358.507 0 01-3.35-2.196zm-13.172-9.175l.59-.808a358.12 358.12 0 003.235 2.335l-.58.814a359.12 359.12 0 01-3.245-2.341zm-12.734-9.742l.626-.78c1.037.83 2.08 1.656 3.126 2.475l-.616.788c-1.05-.822-2.095-1.65-3.136-2.483zm-12.275-10.29l.66-.751c.999.876 2.003 1.747 3.012 2.612l-.65.759a360.047 360.047 0 01-3.022-2.62zm-11.832-10.85l.692-.722c.962.923 1.93 1.84 2.903 2.753l-.684.73a360.228 360.228 0 01-2.911-2.762zm-11.318-11.348l.723-.69c.919.962 1.842 1.92 2.771 2.872l-.716.698a360.203 360.203 0 01-2.778-2.88zm-10.764-11.796l.753-.658a359.067 359.067 0 002.64 2.991l-.747.666c-.888-.995-1.77-1.995-2.646-3zm-10.236-12.27l.781-.623c.83 1.04 1.664 2.075 2.504 3.105l-.775.632c-.843-1.033-1.68-2.07-2.51-3.113zm-9.714-12.756l.809-.588c.783 1.078 1.572 2.15 2.367 3.22l-.802.596a359.23 359.23 0 01-2.374-3.228zm-9.14-13.183l.835-.552c.733 1.11 1.473 2.216 2.219 3.318l-.829.56a358.653 358.653 0 01-2.224-3.326zm-8.539-13.579l.858-.513c.683 1.142 1.373 2.28 2.069 3.415l-.853.523a357.96 357.96 0 01-2.074-3.425zm-7.904-13.913l.88-.475a356.23 356.23 0 001.912 3.502l-.875.484a357.226 357.226 0 01-1.917-3.511zm-7.296-14.301l.9-.434c.58 1.2 1.165 2.397 1.757 3.59l-.896.445a356.53 356.53 0 01-1.76-3.601zm-6.634-14.592l.919-.393a354.907 354.907 0 001.593 3.667l-.915.404a355.904 355.904 0 01-1.597-3.678zm-5.966-14.862l.936-.352c.468 1.248.943 2.492 1.426 3.734l-.932.362c-.484-1.245-.96-2.493-1.43-3.744zm-5.301-15.15l.95-.308c.412 1.267.83 2.531 1.256 3.793l-.947.32a355.18 355.18 0 01-1.26-3.804zm-4.605-15.35l.964-.265c.354 1.285.715 2.567 1.084 3.847l-.961.277c-.37-1.284-.732-2.57-1.087-3.859zm-3.91-15.553l.974-.222c.296 1.297.598 2.593.908 3.887l-.972.233a328.406 328.406 0 01-.91-3.898zm-3.207-15.72l.984-.177c.237 1.311.481 2.62.732 3.929l-.982.188a356.44 356.44 0 01-.734-3.94zm-2.496-15.845l.991-.133c.178 1.32.363 2.638.555 3.955l-.99.144a370.75 370.75 0 01-.556-3.966zm-1.782-15.928l.996-.089c.118 1.327.244 2.653.377 3.978l-.995.1c-.133-1.328-.26-2.658-.378-3.989zm-1.073-16.018l.999-.045c.06 1.332.126 2.662.2 3.99l-.998.056a362.146 362.146 0 01-.201-4zm-.363-16.018l1-.001c.001 1.332.01 2.664.025 3.994l-1 .012a356.32 356.32 0 01-.025-4.005zm.34-16.008l1 .044a361.968 361.968 0 00-.15 3.979l-1-.032c.043-1.332.093-2.662.15-3.99zm1.051-16.012l.996.087a359.28 359.28 0 00-.328 3.992l-.997-.077c.102-1.335.212-2.67.33-4.002zm1.757-15.91l.992.132a357.223 357.223 0 00-.504 3.954l-.993-.12c.161-1.324.33-2.646.505-3.966zm2.474-15.853l.984.176c-.235 1.31-.462 2.622-.682 3.935l-.986-.165c.22-1.317.448-2.633.684-3.946zm3.172-15.673l.975.22a342.73 342.73 0 00-.858 3.9l-.978-.209c.28-1.306.567-2.61.86-3.911zm3.889-15.574l.964.264a363.68 363.68 0 00-1.03 3.85l-.968-.253c.337-1.29.682-2.576 1.034-3.86zm4.577-15.345l.951.307c-.41 1.268-.812 2.538-1.207 3.811l-.955-.296c.397-1.277.8-2.55 1.21-3.822zm5.28-15.165l.936.35c-.467 1.248-.926 2.5-1.379 3.754l-.94-.34c.453-1.257.914-2.512 1.382-3.764zm5.94-14.868l.92.392a354.75 354.75 0 00-1.544 3.681l-.924-.381a355.756 355.756 0 011.547-3.692zm6.597-14.573l.901.433a355.34 355.34 0 00-1.71 3.615l-.906-.423a356.34 356.34 0 011.715-3.625zm7.261-14.293l.881.472a339.77 339.77 0 00-1.868 3.53l-.887-.463a357.025 357.025 0 011.874-3.54zm7.895-13.953l.86.512a356.752 356.752 0 00-2.028 3.446l-.865-.502a357.74 357.74 0 012.033-3.456zm8.502-13.57l.836.55a357.44 357.44 0 00-2.175 3.345l-.841-.54a349.69 349.69 0 012.18-3.355zm9.106-13.184l.81.586a358.078 358.078 0 00-2.32 3.242l-.817-.577a355.29 355.29 0 012.327-3.251zm9.693-12.776l.783.622a358.604 358.604 0 00-2.463 3.135l-.79-.613c.817-1.053 1.64-2.1 2.47-3.144zm10.263-12.344l.755.656a337.021 337.021 0 00-2.6 3.023l-.763-.647a359.992 359.992 0 012.608-3.032zm10.795-11.864l.724.69c-.916.962-1.826 1.93-2.731 2.902l-.732-.681c.907-.976 1.82-1.946 2.739-2.911zm11.316-11.376l.693.72a376.19 376.19 0 00-2.864 2.785l-.701-.713a360.23 360.23 0 012.872-2.792zm11.78-10.834l.66.751c-.999.88-1.994 1.765-2.984 2.655l-.669-.744c.993-.892 1.99-1.78 2.994-2.662zm12.206-10.262l.626.779a358.745 358.745 0 00-3.1 2.521l-.636-.772a359.767 359.767 0 013.11-2.528zm12.708-9.756l.591.806c-1.073.787-2.143 1.58-3.207 2.378l-.6-.8c1.067-.8 2.14-1.595 3.216-2.384zm13.15-9.192l.554.832a354.626 354.626 0 00-3.31 2.232l-.564-.826a358.675 358.675 0 013.32-2.238zm13.545-8.594l.517.856a357.03 357.03 0 00-3.412 2.085l-.526-.85a363.47 363.47 0 013.421-2.091zm13.883-7.96l.478.879c-1.171.637-2.338 1.28-3.502 1.93l-.488-.873a357.297 357.297 0 013.512-1.936zm14.255-7.344l.438.9c-1.196.582-2.39 1.171-3.58 1.768l-.447-.895a356.59 356.59 0 013.59-1.773zm14.56-6.69l.396.917c-1.221.529-2.44 1.064-3.655 1.606l-.407-.913a350.7 350.7 0 013.665-1.61zm14.872-6.04l.356.935c-1.246.474-2.49.954-3.73 1.442l-.366-.931c1.244-.489 2.49-.97 3.74-1.445zm15.12-5.357l.312.95c-1.265.416-2.527.84-3.787 1.27l-.323-.946c1.263-.432 2.529-.856 3.797-1.274zm15.32-4.663l.27.963a354.2 354.2 0 00-3.838 1.098l-.28-.96c1.28-.374 2.563-.74 3.849-1.1zm15.54-3.973l.226.975c-1.298.3-2.594.609-3.888.924l-.237-.972c1.298-.316 2.598-.625 3.9-.927zm15.692-3.266l.181.984c-1.31.242-2.618.491-3.924.748l-.193-.982c1.31-.257 2.622-.507 3.936-.75zm15.828-2.558l.137.99c-1.32.183-2.638.374-3.954.571l-.149-.988c1.32-.199 2.642-.39 3.966-.573zm15.942-1.848l.093.995c-1.327.124-2.652.255-3.976.394l-.104-.995c1.328-.139 2.657-.27 3.987-.394zm16-1.136l.049 1c-1.33.064-2.66.136-3.988.215l-.06-.998c1.332-.08 2.665-.152 4-.217zm16.04-.425l.005 1a354.31 354.31 0 00-3.994.04l-.015-1a381.42 381.42 0 014.005-.04z" id="Mask-Copy-3" fill="#BBB" transform="rotate(-98 404.5 404.5)"/><path d="M532.008 617.87c-122.955-30.657-247.482 44.167-278.138 167.122-30.657 122.955 44.167 247.482 167.122 278.138 122.955 30.657 247.482-44.167 278.138-167.122 30.657-122.955-44.167-247.482-167.122-278.138z" id="Mask-Copy" stroke-opacity=".5" stroke="#141C3A" stroke-dasharray="4,12"/><path d="M831.015 372.52l-.01 1c-1.334-.013-2.67-.02-4.005-.02v-1c1.339 0 2.677.007 4.015.02zm16.005.468l-.049.999a407.666 407.666 0 00-3.988-.175l.039-1c1.333.052 2.666.11 3.998.176zm15.977 1.096l-.088.996c-1.32-.117-2.64-.227-3.962-.33l.078-.998c1.325.104 2.65.215 3.972.332zm15.95 1.729l-.128.992c-1.32-.17-2.64-.333-3.962-.49l.117-.993c1.326.157 2.65.32 3.972.49zm15.826 2.354l-.167.986a401.375 401.375 0 00-3.95-.648l.158-.987c1.321.21 2.64.426 3.96.65zm15.766 2.991l-.206.979a400.318 400.318 0 00-3.924-.806l.196-.98c1.313.263 2.624.532 3.934.807zm15.61 3.614l-.245.97a399.664 399.664 0 00-3.885-.961l.235-.972c1.3.314 2.599.635 3.895.963zm15.44 4.23l-.284.96a399.314 399.314 0 00-3.836-1.113l.274-.962c1.284.365 2.566.737 3.845 1.116zm15.28 4.853l-.322.947a399.34 399.34 0 00-3.802-1.27l.312-.95c1.273.417 2.543.842 3.812 1.273zm15.045 5.45l-.36.932c-1.24-.477-2.482-.948-3.727-1.413l.35-.937a400.6 400.6 0 013.737 1.417zm14.815 6.044l-.396.919a400.048 400.048 0 00-3.668-1.562l.387-.922c1.229.516 2.454 1.038 3.677 1.565zm14.6 6.65l-.433.901a400.612 400.612 0 00-3.62-1.714l.424-.906c1.213.567 2.422 1.14 3.629 1.719zm14.282 7.205l-.469.884a401.276 401.276 0 00-3.532-1.85l.46-.888c1.183.612 2.363 1.23 3.54 1.854zm14.029 7.793l-.503.865c-1.149-.669-2.3-1.331-3.455-1.988l.494-.87c1.158.66 2.312 1.324 3.464 1.993zm13.69 8.335l-.536.844a402.948 402.948 0 00-3.385-2.13l.529-.85c1.134.707 2.265 1.419 3.392 2.136zm13.347 8.87l-.57.821a403.54 403.54 0 00-3.298-2.263l.562-.827a371.64 371.64 0 013.306 2.269zm12.986 9.392l-.602.798c-1.062-.8-2.127-1.594-3.196-2.384l.594-.804a391.6 391.6 0 013.204 2.39zm12.614 9.907l-.633.774a404.603 404.603 0 00-3.114-2.52l.626-.781c1.044.837 2.085 1.68 3.12 2.527zm12.203 10.389l-.663.748a404.84 404.84 0 00-2.997-2.629l.655-.755c1.006.874 2.008 1.752 3.005 2.636zm11.795 10.874l-.692.722c-.96-.921-1.926-1.838-2.895-2.75l.685-.728c.972.914 1.94 1.833 2.902 2.756zm11.328 11.303l-.72.694c-.925-.96-1.855-1.916-2.79-2.867l.714-.7c.937.953 1.869 1.91 2.796 2.873zm10.836 11.698l-.746.665c-.884-.992-1.773-1.98-2.666-2.964l.74-.672a405.88 405.88 0 012.672 2.971zm10.439 12.2l-.773.635a404.5 404.5 0 00-2.556-3.08l.766-.642c.86 1.025 1.714 2.054 2.563 3.087zm9.915 12.561l-.797.604a404.196 404.196 0 00-2.427-3.17l.79-.612a405.09 405.09 0 012.434 3.178zm9.43 12.97l-.82.573a403.783 403.783 0 00-2.304-3.271l.814-.58a404.45 404.45 0 012.31 3.279zm8.89 13.305l-.842.54a391.304 391.304 0 00-2.168-3.353l.837-.547a427.27 427.27 0 012.174 3.36zm8.379 13.684l-.863.505a402.4 402.4 0 00-2.038-3.443l.858-.513a403.355 403.355 0 012.043 3.451zm7.816 13.985l-.883.47a401.378 401.378 0 00-1.895-3.513l.877-.48a402.6 402.6 0 011.9 3.523zm7.257 14.294l-.9.435a457.682 457.682 0 00-1.755-3.588l.896-.444a401.559 401.559 0 011.759 3.597zm6.682 14.574l-.917.398c-.53-1.22-1.067-2.438-1.61-3.653l.913-.408c.544 1.218 1.082 2.44 1.614 3.663zm6.101 14.848l-.932.362c-.482-1.243-.97-2.484-1.464-3.722l.928-.37c.496 1.24.985 2.484 1.468 3.73zm5.492 15.05l-.946.325c-.431-1.26-.869-2.517-1.312-3.771l.943-.334a422.14 422.14 0 011.315 3.78zm4.884 15.254l-.959.286c-.38-1.276-.767-2.55-1.16-3.821l.955-.295c.394 1.274.782 2.551 1.164 3.83zm4.279 15.474l-.97.247c-.329-1.292-.664-2.58-1.007-3.868l.967-.257c.343 1.29.68 2.583 1.01 3.878zm3.647 15.594l-.978.208a400.07 400.07 0 00-.852-3.905l.976-.218c.291 1.303.576 2.608.854 3.915zm3.024 15.739l-.985.169a401.079 401.079 0 00-.695-3.935l.984-.179c.238 1.314.47 2.628.696 3.945zm2.398 15.87l-.991.13a402.34 402.34 0 00-.538-3.96l.99-.14c.186 1.322.366 2.646.54 3.97zm1.764 15.943l-.996.09c-.12-1.327-.247-2.653-.38-3.977l.995-.1c.134 1.327.26 2.656.381 3.987zm1.13 15.96l-.998.052a406.63 406.63 0 00-.224-3.99l.998-.06c.082 1.331.156 2.664.225 3.999zm.505 16.001l-1 .012a410.019 410.019 0 00-.068-3.995l1-.021c.029 1.334.052 2.668.068 4.004zm-.12 15.99l-1-.027c.036-1.328.066-2.657.089-3.986l1 .017a410.114 410.114 0 01-.089 3.996zm-.746 16.032l-.998-.066c.088-1.334.17-2.668.246-4.004l.998.056c-.076 1.34-.158 2.677-.246 4.014zm-1.372 15.937l-.995-.105c.14-1.323.274-2.647.401-3.973l.996.096a405.173 405.173 0 01-.402 3.982zm-2.006 15.902l-.99-.145c.194-1.32.38-2.643.561-3.967l.99.135a404.53 404.53 0 01-.56 3.977zm-2.637 15.815l-.983-.184c.244-1.303.482-2.608.713-3.913l.985.174c-.232 1.309-.47 2.617-.715 3.923zm-3.259 15.666l-.975-.223c.296-1.293.586-2.587.87-3.883l.976.213c-.284 1.3-.574 2.597-.87 3.893zm-3.895 15.574l-.965-.262c.35-1.289.693-2.58 1.03-3.872l.968.252c-.338 1.296-.682 2.59-1.033 3.882zm-4.503 15.362l-.953-.3c.4-1.27.793-2.542 1.18-3.816l.957.29a400.17 400.17 0 01-1.184 3.826zm-5.122 15.196l-.941-.338c.452-1.257.897-2.516 1.337-3.778l.944.33c-.44 1.264-.887 2.526-1.34 3.786zm-5.717 14.953l-.926-.375c.498-1.23.99-2.462 1.477-3.697l.93.366a400.362 400.362 0 01-1.48 3.706zm-6.306 14.707l-.91-.413a428.07 428.07 0 001.633-3.657l.915.403a401.437 401.437 0 01-1.638 3.667zm-6.898 14.466l-.894-.449c.597-1.19 1.187-2.382 1.772-3.577l.899.439a402.136 402.136 0 01-1.777 3.587zm-7.475 14.19l-.876-.484a401.545 401.545 0 001.916-3.509l.88.475a402.516 402.516 0 01-1.92 3.517zm-8.03 13.87l-.855-.517c.69-1.138 1.373-2.28 2.05-3.424l.861.51a403.38 403.38 0 01-2.055 3.432zm-8.563 13.527l-.834-.551a403.05 403.05 0 002.189-3.347l.84.544a403.985 403.985 0 01-2.195 3.354zm-9.113 13.207l-.812-.584c.778-1.08 1.55-2.165 2.317-3.253l.817.576a404.647 404.647 0 01-2.322 3.261zm-9.624 12.826l-.787-.616a416.03 416.03 0 002.446-3.162l.794.608c-.812 1.06-1.63 2.117-2.453 3.17zm-10.103 12.412l-.763-.646c.86-1.014 1.714-2.033 2.563-3.056l.77.64a405.9 405.9 0 01-2.57 3.062zm-10.62 12.043l-.737-.676c.902-.984 1.8-1.971 2.692-2.963l.744.668a380.17 380.17 0 01-2.7 2.97zm-11.045 11.57l-.71-.706a404.94 404.94 0 002.806-2.853l.716.698a406.07 406.07 0 01-2.812 2.86zm-11.491 11.123l-.681-.732c.975-.908 1.947-1.821 2.914-2.739l.688.726c-.97.92-1.943 1.835-2.921 2.745zm-11.92 10.663l-.652-.758a374.37 374.37 0 003.016-2.619l.659.752a405.88 405.88 0 01-3.023 2.625zm-12.375 10.22l-.62-.784a404.37 404.37 0 003.12-2.5l.629.777c-1.039.84-2.082 1.676-3.129 2.506zm-12.74 9.7l-.59-.808a404.22 404.22 0 003.212-2.37l.598.8a405.05 405.05 0 01-3.22 2.378zm-13.098 9.178l-.558-.83a403.405 403.405 0 003.3-2.24l.565.825a404.38 404.38 0 01-3.307 2.245zm-13.51 8.689l-.524-.852a402.5 402.5 0 003.389-2.108l.532.846c-1.128.71-2.26 1.415-3.397 2.114zm-13.803 8.122l-.49-.872c1.161-.653 2.319-1.31 3.473-1.975l.499.867a402.802 402.802 0 01-3.482 1.98zm-14.138 7.577l-.455-.89a401.205 401.205 0 003.545-1.833l.464.886c-1.182.619-2.366 1.23-3.554 1.837zm-14.4 6.995l-.42-.908c1.209-.557 2.414-1.12 3.616-1.69l.428.904c-1.205.57-2.413 1.136-3.624 1.694zm-14.676 6.419l-.382-.924a400.04 400.04 0 003.68-1.545l.392.92a401.03 401.03 0 01-3.69 1.549zm-14.934 5.832l-.345-.939a399.55 399.55 0 003.739-1.396l.354.936c-1.246.472-2.496.939-3.748 1.399zm-15.184 5.239l-.307-.952c1.268-.41 2.535-.825 3.799-1.247l.316.949c-1.267.423-2.536.84-3.808 1.25zm-15.326 4.61l-.269-.963c1.283-.358 2.563-.723 3.842-1.093l.279.96c-1.282.372-2.566.737-3.852 1.096zm-15.54 4.004l-.23-.973c1.296-.307 2.59-.62 3.883-.939l.24.971c-1.296.32-2.593.634-3.893.941zm-15.654 3.372l-.191-.981a400.2 400.2 0 003.916-.783l.2.98c-1.306.268-2.615.53-3.925.784zm-15.795 2.748l-.152-.988c1.317-.202 2.631-.41 3.945-.626l.161.987c-1.316.216-2.634.425-3.954.627zm-15.919 2.12l-.112-.993c1.324-.15 2.647-.306 3.968-.468l.122.992c-1.325.163-2.65.32-3.978.47zm-15.943 1.484l-.073-.997a439 439 0 003.983-.311l.083.996c-1.33.11-2.661.215-3.993.312zm-15.993.855l-.034-1c1.332-.045 2.662-.096 3.992-.154l.044.999c-1.333.058-2.667.11-4.002.155zm-15.978.229l.005-1 1.05.004 1.055.001c.627 0 1.255-.001 1.882-.004l.004 1-1.886.004c-.709 0-1.409-.002-2.11-.005zm-16.036-.395l.044-1c1.334.06 2.67.112 4.005.158l-.034 1c-1.34-.047-2.678-.1-4.015-.158zm-15.997-1.023l.083-.997c1.326.111 2.652.216 3.98.314l-.074.997c-1.33-.098-2.66-.203-3.99-.314zm-15.932-1.653l.123-.992c1.325.164 2.652.322 3.98.473l-.113.993a409.4 409.4 0 01-3.99-.474zm-15.854-2.282l.162-.987c1.31.215 2.62.424 3.933.626l-.153.989c-1.315-.203-2.63-.412-3.942-.628zm-15.754-2.912l.201-.98c1.302.268 2.605.529 3.91.784l-.192.981a401.538 401.538 0 01-3.92-.785zm-15.602-3.533l.24-.971c1.29.32 2.581.632 3.874.938l-.23.973c-1.297-.307-2.591-.62-3.884-.94zm-15.5-4.168l.278-.96c1.284.372 2.57.739 3.857 1.099l-.27.963c-1.29-.361-2.579-.729-3.866-1.102zm-15.283-4.774l.317-.948c1.263.422 2.528.838 3.795 1.248l-.308.952a393.12 393.12 0 01-3.804-1.252zm-15.108-5.39l.355-.936c1.248.474 2.498.941 3.75 1.402l-.345.939a402.62 402.62 0 01-3.76-1.406zm-14.885-5.995l.392-.92a383.79 383.79 0 003.691 1.551l-.383.924a401.14 401.14 0 01-3.7-1.555zm-14.576-6.557l.429-.904c1.203.57 2.41 1.135 3.618 1.694l-.419.908a401.355 401.355 0 01-3.628-1.698zm-14.345-7.154l.464-.885a401.42 401.42 0 003.558 1.84l-.455.89a402.13 402.13 0 01-3.567-1.845zm-14.036-7.712l.499-.867c1.157.666 2.317 1.327 3.48 1.981l-.49.872a403.08 403.08 0 01-3.489-1.986zm-13.712-8.26l.533-.846c1.126.71 2.256 1.413 3.39 2.111l-.525.852c-1.136-.7-2.269-1.406-3.398-2.117zm-13.392-8.809l.566-.824c1.098.754 2.2 1.502 3.305 2.245l-.558.83a404.35 404.35 0 01-3.313-2.251zm-13.033-9.334l.598-.801c1.064.795 2.133 1.584 3.205 2.368l-.59.808a404.91 404.91 0 01-3.213-2.375zm-12.664-9.85l.63-.777c1.037.84 2.079 1.676 3.125 2.506l-.622.784a405.584 405.584 0 01-3.133-2.513zm-12.253-10.334l.66-.751c.999.877 2.002 1.749 3.01 2.616l-.652.758c-1.01-.87-2.017-1.744-3.018-2.623zm-11.848-10.821l.689-.725c.966.918 1.936 1.83 2.91 2.739l-.681.731c-.977-.91-1.95-1.825-2.918-2.745zm-11.369-11.238l.717-.697c.926.952 1.858 1.9 2.794 2.844l-.71.704a405.976 405.976 0 01-2.801-2.851zm-10.905-11.663l.744-.668c.89.99 1.785 1.976 2.685 2.958l-.737.675c-.902-.984-1.8-1.972-2.692-2.965zm-10.485-12.14l.77-.638c.85 1.025 1.706 2.046 2.567 3.063l-.764.646c-.862-1.02-1.72-2.042-2.573-3.07zm-9.975-12.515l.794-.608a404.085 404.085 0 002.44 3.157l-.788.615c-.82-1.05-1.636-2.105-2.446-3.164zm-9.492-12.928l.817-.576a417.56 417.56 0 002.32 3.261l-.811.584a404.741 404.741 0 01-2.326-3.269zm-8.974-13.295l.84-.543a403.054 403.054 0 002.186 3.345l-.834.552a404.022 404.022 0 01-2.192-3.354zm-8.434-13.635l.86-.509c.678 1.147 1.362 2.29 2.052 3.43l-.856.517a403.333 403.333 0 01-2.056-3.438zm-7.882-13.95l.88-.475c.632 1.172 1.27 2.34 1.913 3.506l-.876.483a402.645 402.645 0 01-1.917-3.514zm-7.319-14.252l.898-.439a400.896 400.896 0 001.77 3.577l-.894.448a401.948 401.948 0 01-1.774-3.586zm-6.75-14.544l.915-.402a409.417 409.417 0 001.627 3.649l-.91.412a401.276 401.276 0 01-1.633-3.659zm-6.152-14.77l.93-.365c.488 1.239.981 2.475 1.48 3.709l-.926.375a383.561 383.561 0 01-1.484-3.718zm-5.578-15.062l.945-.329c.437 1.259.881 2.515 1.331 3.77l-.94.337a400.415 400.415 0 01-1.336-3.778zm-4.952-15.221l.956-.29c.387 1.274.78 2.547 1.18 3.818l-.954.3c-.4-1.274-.795-2.55-1.182-3.828zm-4.348-15.437l.967-.251c.336 1.288.677 2.574 1.025 3.858l-.965.262a400.487 400.487 0 01-1.027-3.869zm-3.729-15.606l.977-.213c.284 1.301.574 2.6.87 3.898l-.975.222c-.297-1.3-.588-2.603-.872-3.907zm-3.096-15.716l.985-.173c.231 1.311.469 2.621.713 3.93l-.983.183a401.872 401.872 0 01-.715-3.94zm-2.47-15.846l.99-.134c.18 1.32.365 2.638.557 3.955l-.99.145c-.192-1.32-.378-2.642-.558-3.966zm-1.84-15.921l.996-.095c.126 1.326.26 2.65.399 3.974l-.995.105a405.04 405.04 0 01-.4-3.984zm-1.209-16.021l.999-.056c.074 1.33.154 2.66.241 3.988l-.998.065a407.444 407.444 0 01-.242-3.997zm-.575-15.943l1-.016c.022 1.332.05 2.663.085 3.994l-1 .026a410.394 410.394 0 01-.085-4.004zm.046-16.042l1 .022c-.03 1.333-.053 2.667-.07 4.002l-1-.013c.017-1.338.04-2.675.07-4.011zm.67-15.973l.998.061a406.696 406.696 0 00-.226 3.983l-.998-.052c.069-1.331.144-2.662.226-3.992zm1.302-15.997l.995.101a404.293 404.293 0 00-.384 3.99l-.996-.09c.122-1.335.25-2.669.385-4zm1.929-15.888l.99.14a402.362 402.362 0 00-.539 3.95l-.992-.131c.174-1.321.354-2.64.54-3.959zm2.565-15.837l.983.18c-.239 1.31-.471 2.62-.697 3.932l-.986-.17c.227-1.315.46-2.63.7-3.942zm3.188-15.692l.975.218c-.29 1.3-.575 2.6-.853 3.903l-.978-.208c.278-1.306.564-2.61.856-3.913zm3.806-15.533l.967.257a399.483 399.483 0 00-1.008 3.862l-.969-.248a392.6 392.6 0 011.01-3.871zm4.432-15.394l.956.296a399.324 399.324 0 00-1.159 3.807l-.958-.286c.38-1.274.768-2.547 1.161-3.817zm5.053-15.23l.943.334a399.39 399.39 0 00-1.315 3.771l-.945-.324c.433-1.262.872-2.523 1.317-3.78zm5.66-15.015l.928.371a399.684 399.684 0 00-1.466 3.72l-.932-.362c.484-1.246.974-2.489 1.47-3.73zm6.228-14.716l.913.408a400.231 400.231 0 00-1.612 3.656l-.917-.4a401.195 401.195 0 011.616-3.664zm6.834-14.505l.896.445c-.59 1.19-1.174 2.382-1.752 3.577l-.9-.435c.58-1.199 1.165-2.394 1.756-3.587zm7.394-14.196l.877.48a401.55 401.55 0 00-1.895 3.51l-.882-.471c.627-1.176 1.26-2.35 1.9-3.52zm7.965-13.915l.858.514c-.683 1.14-1.36 2.282-2.031 3.428l-.863-.505a403.262 403.262 0 012.036-3.437zm8.523-13.603l.837.548a402.938 402.938 0 00-2.171 3.353l-.842-.54c.72-1.124 1.445-2.244 2.176-3.36zm9.034-13.221l.814.58a403.62 403.62 0 00-2.3 3.262l-.82-.573a404.631 404.631 0 012.306-3.27zm9.565-12.874l.79.612a404.163 404.163 0 00-2.43 3.172l-.797-.604c.807-1.064 1.62-2.124 2.437-3.18zm10.048-12.462l.765.643a404.593 404.593 0 00-2.549 3.068l-.772-.636a416.246 416.246 0 012.556-3.075zm10.552-12.08l.74.673c-.894.983-1.783 1.971-2.667 2.963l-.746-.665a405.91 405.91 0 012.673-2.97zm11.02-11.65l.712.702a405.03 405.03 0 00-2.782 2.855l-.72-.694c.925-.959 1.855-1.913 2.79-2.863zm11.414-11.153l.684.729c-.969.91-1.933 1.825-2.893 2.745l-.692-.722c.963-.922 1.93-1.84 2.9-2.752zm11.885-10.732l.655.756a404.826 404.826 0 00-3.01 2.638l-.663-.749a405.827 405.827 0 013.018-2.645zm12.315-10.267l.625.78c-1.04.833-2.074 1.67-3.105 2.512l-.633-.774c1.033-.844 2.07-1.684 3.113-2.518zm12.696-9.76l.594.804a414.84 414.84 0 00-3.2 2.385l-.602-.798c1.065-.803 2.135-1.6 3.208-2.392zm13.087-9.262l.561.827c-1.1.747-2.197 1.499-3.29 2.256l-.57-.822a392.324 392.324 0 013.3-2.261zm13.439-8.732l.528.85c-1.132.703-2.26 1.412-3.385 2.127l-.536-.844a403.74 403.74 0 013.393-2.133zm13.755-8.18l.494.87a402.049 402.049 0 00-3.463 1.99l-.503-.865a384.748 384.748 0 013.472-1.995zm14.103-7.646l.459.889a401.33 401.33 0 00-3.54 1.85l-.468-.883c1.18-.624 2.363-1.243 3.549-1.856zm14.392-7.075l.423.906a400.604 400.604 0 00-3.606 1.707l-.433-.902a401.577 401.577 0 013.616-1.71zm14.647-6.487l.387.922a398 398 0 00-3.68 1.564l-.395-.918a401.06 401.06 0 013.688-1.568zm14.9-5.9l.35.937c-1.249.466-2.495.938-3.739 1.416l-.358-.934c1.246-.479 2.496-.952 3.748-1.419zm15.141-5.304l.312.95a399.33 399.33 0 00-3.788 1.263l-.321-.947c1.263-.428 2.53-.85 3.797-1.266zm15.34-4.693l.274.962c-1.282.364-2.561.734-3.84 1.111l-.282-.959c1.28-.378 2.564-.75 3.849-1.114zm15.508-4.073l.235.972a391.4 391.4 0 00-3.877.956l-.244-.97a423.49 423.49 0 013.886-.958zm15.63-3.444l.196.98c-1.306.261-2.61.528-3.912.802l-.206-.979c1.306-.274 2.614-.542 3.923-.803zm15.81-2.826l.157.987c-1.316.208-2.63.423-3.943.644l-.166-.986c1.316-.221 2.634-.437 3.953-.645zm15.855-2.188l.117.994a400.69 400.69 0 00-3.964.486l-.127-.991a403.98 403.98 0 013.974-.489zm15.963-1.56l.078.997c-1.329.103-2.656.213-3.982.33l-.087-.997c1.33-.116 2.66-.227 3.991-.33zm16.014-.93l.039 1c-1.332.05-2.662.108-3.992.172l-.048-.999c1.333-.064 2.667-.122 4.001-.173zM827 372.5v1c-1.254 0-2.508.006-3.761.017l-.01-1c1.257-.011 2.514-.017 3.771-.017z" id="Mask-Copy-3" fill="#BBB"/></g></g></g></svg>