<?xml version="1.0" standalone="no"?>
<!DOCTYPE svg PUBLIC "-//W3C//DTD SVG 20010904//EN"
 "http://www.w3.org/TR/2001/REC-SVG-20010904/DTD/svg10.dtd">
<svg version="1.0" xmlns="http://www.w3.org/2000/svg"
 width="180.000000pt" height="180.000000pt" viewBox="0 0 180.000000 180.000000"
 preserveAspectRatio="xMidYMid meet">
<g transform="translate(0.000000,180.000000) scale(0.100000,-0.100000)"
fill="#000000" stroke="none">
<path d="M530 1709 c-33 -13 -78 -57 -97 -93 -39 -75 -3 -190 74 -233 82 -45
156 -38 223 23 124 112 43 315 -125 313 -27 0 -61 -5 -75 -10z"/>
<path d="M1130 1709 c-14 -6 -38 -22 -53 -37 -113 -107 -57 -283 100 -317 73
-15 179 48 204 122 28 86 -12 185 -92 225 -37 20 -119 23 -159 7z"/>
<path d="M732 1180 c-550 -144 -579 -881 -42 -1071 56 -20 85 -23 205 -24 121
0 150 3 213 24 264 86 424 340 384 611 -32 225 -196 401 -428 460 -100 26
-233 26 -332 0z m300 -277 c96 -52 144 -156 136 -292 -10 -172 -110 -274 -268
-274 -110 0 -199 56 -244 153 -30 65 -30 225 0 290 34 74 101 131 179 151 53
14 143 1 197 -28z"/>
</g>
</svg>
