<svg width="138" height="374" version="1.1" xmlns="http://www.w3.org/2000/svg" xmlns:xlink="http://www.w3.org/1999/xlink"><defs><path id="path-1" d="M0 0h146v393H0z"/></defs><g id="Symbols" stroke="none" stroke-width="1" fill="none" fill-rule="evenodd"><g id="Mobile_Burger_menu" transform="translate(-237 -411)"><g id="Shapes" transform="translate(229 393)"><mask id="mask-2" fill="#fff"><use xlink:href="#path-1"/></mask><path d="M705 1130C320.61 1130 9 818.39 9 434s311.61-696 696-696 696 311.61 696 696-311.61 696-696 696z" id="Mask-Copy-3" stroke="#BBB" stroke-dasharray="4,12" fill-rule="nonzero" mask="url(#mask-2)"/><g id="Branding-/-Small-/-shape_circle_blue" mask="url(#mask-2)" fill="#37D4C8"><path d="M42 84C18.804 84 0 65.196 0 42S18.804 0 42 0s42 18.804 42 42-18.804 42-42 42zm.5-23C52.717 61 61 52.717 61 42.5S52.717 24 42.5 24 24 32.283 24 42.5 32.283 61 42.5 61z" transform="translate(8 154)" id="shape_circle_blue"/></g></g></g></g></svg>