<svg width="98" height="28" version="1.1" xmlns="http://www.w3.org/2000/svg"><g id="Branding/Logo/thinko_logo" stroke="none" stroke-width="1" fill="none" fill-rule="evenodd"><path d="M5.326 5.842h.126c1.932.021 2.339.53 2.339 2.07v2.856h2.573c1.108 0 1.61.43 1.61 2.073l-.002.124c-.024 1.518-.515 1.935-1.566 1.946H7.861v7.214c0 1.143.787 1.679 1.716 1.679.357 0 .752-.074 1.073-.25l.092-.044c1.175-.546 1.766-.354 2.387.956l.024.05c.571 1.217.607 1.823-.537 2.43-1.144.642-2.609 1-4.038 1-3.001 0-5.934-1.572-5.934-5.426v-7.606H1.61c-1.094 0-1.596-.419-1.609-2.007v-.063c0-1.643.501-2.073 1.61-2.073h1.214V7.915c0-1.572.463-2.073 2.502-2.073zM65.711 0h.128c1.932.022 2.513.532 2.513 2.065V16.72l5.719-5.051.068-.06c1.046-.92 1.997-1.296 3.292.13l.085.094c1.27 1.424 1.172 1.99-.12 3.001L73.679 18l4.362 6.19.058.086c.858 1.307.766 1.776-.862 2.864l-.054.036c-1.644 1.103-2.502.572-3.25-.71l-3.647-5.729-1.93 1.602v3.238c0 1.564-.608 2.098-2.645 2.098l-.127-.001c-1.88-.023-2.469-.555-2.481-2.047V2.066C63.102.498 63.71 0 65.71 0zM17.695 0h.128c1.916.023 2.506.555 2.519 2.05v9.015c2.538-.783 5.076-.783 7.148.035 2.609 1.03 4.395 3.344 4.395 7.043v7.398c0 1.513-.35 2.123-2.542 2.135h-.067c-2.23 0-2.601-.592-2.608-2.09v-7.549c0-1.812-.681-2.95-1.896-3.45-1.108-.428-2.68-.287-4.433.426v10.528c0 1.513-.35 2.123-2.542 2.135h-.067c-2.252 0-2.644-.604-2.644-2.135V2.101C15.086.536 15.693 0 17.695 0zm33.983 10.422c4.684.036 8.398 2.312 8.398 7.68v7.433c0 1.513-.35 2.123-2.542 2.135h-.067c-2.252 0-2.608-.604-2.608-2.135v-7.539c0-2.42-1.25-3.555-3.216-3.702-.929-.035-2.002.18-3.219.572v10.67c0 1.512-.35 2.122-2.542 2.134h-.067c-2.252 0-2.608-.604-2.608-2.135V14.441c0-1.602.571-2.35 1.93-2.813 2.252-.813 4.504-1.206 6.541-1.206zm-14.207.315h.129c1.946.022 2.503.557 2.515 2.06v12.728c0 1.57-.572 2.106-2.644 2.106h-.127c-1.878-.023-2.434-.558-2.446-2.056v-12.73c0-1.572.574-2.108 2.573-2.108zm.032-8.369c1.641 0 2.924 1.271 2.924 2.898 0 1.626-1.283 2.897-2.924 2.897-1.642 0-2.924-1.27-2.924-2.897 0-1.627 1.282-2.898 2.924-2.898z" id="Shape" fill="#6400E4"/><path d="M88.758 10.474c5.191-.003 9.242 3.7 9.242 8.78C98 24.298 93.952 28 88.758 28c-5.16 0-9.243-3.705-9.243-8.746 0-5.08 4.084-8.78 9.243-8.78zm0 4.129c-2.367 0-4.193 1.707-4.193 4.704 0 2.962 1.829 4.666 4.193 4.666 2.399 0 4.192-1.672 4.192-4.666 0-2.994-1.793-4.704-4.192-4.704zM84.174 2.368c1.58 0 2.942 1.31 2.942 2.88 0 1.569-1.362 2.915-2.942 2.915s-2.906-1.346-2.906-2.915c0-1.57 1.326-2.88 2.906-2.88zm9.279 0c1.583 0 2.906 1.31 2.906 2.88 0 1.569-1.326 2.915-2.906 2.915S90.51 6.817 90.51 5.248c0-1.57 1.362-2.88 2.942-2.88z" id="Combined-Shape" fill="#37D4C8"/></g></svg>