<svg width="84" height="84" version="1.1" xmlns="http://www.w3.org/2000/svg"><g id="Branding-/-Small-/-shape_split_blue" stroke="none" stroke-width="1" fill="none" fill-rule="evenodd"><path d="M60.5 46C67.956 46 74 52.044 74 59.5S67.956 73 60.5 73 47 66.956 47 59.5 53.044 46 60.5 46zm4.874-27.232a7.5 7.5 0 01.048 10.414l-.19.192-38 37a7.5 7.5 0 01-10.654-10.556l.19-.192 38-37a7.5 7.5 0 0110.606.142zM60.5 56a3.5 3.5 0 100 7 3.5 3.5 0 000-7zm-37-45C30.956 11 37 17.044 37 24.5S30.956 38 23.5 38 10 31.956 10 24.5 16.044 11 23.5 11zm0 10a3.5 3.5 0 100 7 3.5 3.5 0 000-7z" id="shape_split_blue" fill="#37D4C8"/></g></svg>