<svg width="161" height="35" version="1.1" xmlns="http://www.w3.org/2000/svg"><g id="Branding-/-Small-/-shape_wave_purple" stroke="none" stroke-width="1" fill="none" fill-rule="evenodd"><path d="M63.53-5.59l-.012-.14-.014-.244-.004-.243v-.56c0-.222.01-.443.039-.722l-.005.052.025-.42c.156-2.06.612-4.023 1.35-5.82l.19-.446.201-.439c1.08-2.277 2.612-4.266 4.516-6.001a29.294 29.294 0 013.761-2.863c.96-.623 1.944-1.2 3.163-1.872l3.15-1.723c1.667-.929 2.822-1.698 3.467-2.312.32-.3.504-.535.587-.693.116-.233.148-.37.151-.74l.004-.226-.012-.448a1.09 1.09 0 00-.176-.568c-.18-.3-.59-.724-1.27-1.233l-.11-.083c-1.067-.794-7.358-4.251-7.751-4.485l-.495-.302c-2.601-1.608-4.573-3.177-6.307-5.2a18.39 18.39 0 01-3.101-5.075c-.913-2.25-1.38-4.75-1.377-7.381 0-3.71 2.997-6.723 6.702-6.723 3.703 0 6.702 3.013 6.702 6.715l.005.294c.03.952.195 1.643.493 2.279.3.63.746 1.209 1.448 1.852.701.653 1.7 1.347 3.107 2.176l.24.14c.242.14.499.287.776.443l.908.502c.288.159 1.084.59 1.625.885l1.373.763c2.48 1.414 4.021 2.469 5.633 3.973 1.38 1.292 2.511 2.735 3.348 4.36 1.076 2.065 1.65 4.458 1.64 6.895l-.005.221.005.211c.015 2.792-.744 5.522-2.125 7.776-1.181 1.947-2.725 3.543-4.69 5.021a34.383 34.383 0 01-2.784 1.85c-.572.345-1.149.676-1.827 1.051l-.715.392-.554.3-2.074 1.133c-.39.22-.738.423-1.072.626l-.342.207c-1.451.895-2.503 1.73-3.161 2.504-.391.46-.66.894-.856 1.375-.237.589-.368 1.23-.391 2.047v-.015l.01.25c.042.75.173 1.333.396 1.866l.087.198c.3.63.745 1.206 1.448 1.851.702.653 1.702 1.349 3.109 2.177.55.324 1.154.665 1.922 1.086l2.576 1.408c2.73 1.537 4.353 2.624 6.057 4.212 1.38 1.295 2.51 2.737 3.346 4.36a14.7 14.7 0 011.576 5.441l-.006-.057.022.15c.021.178.035.358.042.542l.006.28-.002.267.002.27c0 .357-.028.712-.083 1.06l.017-.13-.045.421a14.738 14.738 0 01-1.792 5.483l-.222.375c-1.18 1.946-2.72 3.538-4.69 5.022a34.486 34.486 0 01-2.784 1.85c-.763.459-1.536.895-2.545 1.444l-2.33 1.267a39.93 39.93 0 00-1.367.79l-.342.208c-1.454.896-2.504 1.729-3.161 2.504-.393.46-.661.894-.856 1.373-.237.589-.368 1.23-.391 2.047v-.015l.012.28c.043.725.171 1.294.39 1.823l.098.225.099.192c.297.552.718 1.072 1.342 1.644.701.653 1.7 1.347 3.107 2.176l.24.14c.242.14.499.287.776.443l.908.502c.288.159 1.084.59 1.625.885l1.373.763c2.48 1.414 4.021 2.469 5.633 3.973 1.38 1.292 2.511 2.735 3.348 4.36 1.076 2.065 1.65 4.458 1.64 6.895l-.005.221.005.211c.015 2.792-.744 5.522-2.125 7.776-1.181 1.947-2.725 3.543-4.69 5.021a34.383 34.383 0 01-2.784 1.85c-.572.345-1.149.676-1.827 1.051l-.715.392-.554.3-2.074 1.133c-.39.22-.738.423-1.072.626l-.342.207c-1.451.895-2.503 1.73-3.161 2.504-.391.46-.66.894-.856 1.375-.26.649-.395 1.367-.396 2.333l-.004.236c-.124 3.601-3.073 6.487-6.698 6.487-3.705 0-6.702-3.012-6.702-6.717-.008-3.014.612-5.862 1.8-8.355 1.08-2.277 2.612-4.266 4.516-6.001a29.294 29.294 0 013.761-2.863c.96-.623 1.944-1.2 3.163-1.872l3.15-1.723c1.667-.929 2.822-1.698 3.467-2.312.32-.3.504-.535.587-.693.116-.233.148-.37.151-.74l.004-.226-.012-.448a1.09 1.09 0 00-.176-.568c-.18-.3-.59-.724-1.27-1.233l-.11-.083c-1.067-.794-7.358-4.251-7.751-4.485l-.495-.302c-2.601-1.608-4.573-3.177-6.307-5.2a18.39 18.39 0 01-3.101-5.075c-.779-1.919-1.234-4.022-1.349-6.237l-.01-.096-.014-.245-.004-.243v-.56c0-.111.003-.222.009-.34l.02-.265.03-.485c.168-2.233.69-4.35 1.54-6.267l.202-.438c1.079-2.276 2.611-4.265 4.514-6a29.242 29.242 0 013.762-2.863c.72-.467 1.454-.908 2.29-1.383l.873-.489 3.477-1.906c1.492-.847 2.538-1.555 3.137-2.126.323-.303.507-.538.591-.7.1-.202.131-.315.146-.588l-.02.033a1.038 1.038 0 00-.16-.42c-.18-.302-.59-.726-1.27-1.235l-.18-.134c-1.281-.899-7.293-4.204-7.68-4.434l-.494-.301c-2.596-1.603-4.573-3.177-6.309-5.2A18.39 18.39 0 0164.877.606c-.78-1.919-1.235-4.023-1.349-6.24l.005.067-.002-.024z" id="shape_wave_purple" fill="#6400E4" transform="rotate(90 80.5 17.5)"/></g></svg>